<svg version="1.1" id="Layer_1" xmlns="http://www.w3.org/2000/svg" xmlns:xlink="http://www.w3.org/1999/xlink" x="0px" y="0px" viewBox="0 0 1280 768" style="enable-background:new 0 0 1280 768;" xml:space="preserve">
<style type="text/css">
	.st0{fill:url(#SVGID_1_);}
	.st1{opacity:0.4;}
	.st2{clip-path:url(#SVGID_00000000913045853750584200000004458109023604930988_);}
	.st3{opacity:0.4;fill:#FFFFFF;}
	.st4{opacity:0.2;fill:#FFFFFF;}
</style>
<g>
	<linearGradient id="SVGID_1_" gradientUnits="userSpaceOnUse" x1="640" y1="752.4841" x2="640" y2="140.8689" fill="#000000">
		<stop offset="0" style="stop-color:#217c50" fill="#000000"/>
		<stop offset="1" style="stop-color:#217c50" fill="#000000"/>
	</linearGradient>
	<rect class="st0" width="1280" height="768" fill="#000000"/>
	<g class="st1">
		<defs fill="#000000">
			<rect id="SVGID_00000140004760572817053570000006535484399980877735_" class="st1" width="1280" height="768" fill="#000000"/>
		</defs>
		<clipPath id="SVGID_00000043437910432231998120000010639674581571865789_" fill="#000000">
			<use xlink:href="#SVGID_00000140004760572817053570000006535484399980877735_" style="overflow:visible;" fill="#000000"/>
		</clipPath>
		<g style="clip-path:url(#SVGID_00000043437910432231998120000010639674581571865789_);">
			<path class="st3" d="M-356,703.2c36.9-95.6,125.7-169.3,226.5-187.9c100.8-18.5,210.1,18.7,278.6,95c22,24.5,40.3,52.9,66.5,73     c21.5,16.4,47.4,26.4,73.8,32.7c82.1,19.8,167.9,6.2,252.2,0.8s174.9-0.7,243.3,48.8c52.1,37.8,84.4,96.9,108.4,156.6     c-27.9,7.3-58.2,11.2-87.1,11.4c-252.1,2-500.8-52.4-751.3-80.4c-74.4-8.3-149.5-14.4-221.7-34.2     C-238.9,799.3-307.3,760.1-356,703.2z" fill="#000000"/>
			<path class="st4" d="M269.2,995.6c-6.3-102.3,43.9-206.3,127.8-265.1c83.9-58.8,198.8-70.4,292.8-29.6     c30.2,13.1,58.7,31.4,90.8,38.7c26.4,6,54.1,4.3,80.7-0.9c82.9-16.2,155.3-64.2,229.7-104.2c74.4-40,158.8-73.5,241.6-56.8     c63.1,12.7,117,53,163.7,97.2c-22.4,18.3-48.3,34.4-74.4,46.6C1193.5,828.2,944.7,882.2,705.3,961     c-71.1,23.4-141.9,49.1-215.8,61.2C415.6,1034.2,337.1,1027,269.2,995.6z" fill="#000000"/>
			<path class="st4" d="M-368,236.8c27.9,37.1,72.1,59.2,117.6,68.5c45.4,9.3,92.4,7.1,138.6,3.3c54.3-4.5,109.3-11.3,159.6-32.4     c86.5-36.3,152-111.9,238.9-147.2c91.7-37.3,195-25.2,293.6-16c34.6,3.2,69.8,6,104,0C766.1,98.5,835.5,29.3,850-52.6     C564.7-80.9,279.6-101.1-7.2-97.9c-134.1,1.5-276.6,11.4-385.1,90.1c-5.2,35.8,7.1,71,11,107c3,27,0.4,54.3,1,81.5     c0.5,22.3,3.3,44.6,8.1,66.3C-371.5,243.2-368.6,240.7-368,236.8z" fill="#000000"/>
			<path class="st4" d="M1489.6,181.4c-27.9,37.1-72.1,59.2-117.6,68.5c-45.4,9.3-92.4,7.1-138.6,3.3     c-54.3-4.5-109.3-11.3-159.6-32.4c-86.5-36.3-152-111.9-238.9-147.2c-91.7-37.3-195-25.2-293.6-16c-34.6,3.2-69.8,6-104,0     C355.4,43.1,286.1-26.1,271.5-108c285.4-28.3,570.4-48.5,857.2-45.3c134.1,1.5,276.6,11.4,385.1,90.1c5.2,35.8-7.1,71-11,107     c-3,27-0.4,54.3-1,81.5c-0.5,22.3-3.3,44.6-8.1,66.3C1493,187.8,1490.2,185.2,1489.6,181.4z" fill="#000000"/>
			<path class="st4" d="M1677.3,331.6c14.3,33,10,72.4-6.7,104.2c-16.7,31.9-44.8,56.8-76.2,74.5c-62.2,35.1-142.2,42.3-205.4,8.8     c-68.1-36.2-106.4-110.5-176.4-144c-41.8-20-89.2-20.4-134-28.8c-40.9-7.7-82.6-21.4-111.5-51.2c-11.7-12-21.2-27.2-22.2-43.9     c-1-17.4,7.5-34.5,20.1-46.5c17-16.1,40-23.8,62.6-27.7c47.3-8.2,97.4-9.1,141.6-29.9c20.7-9.7,35.7-23,49.4-41.1     c21-27.6,39.5-44.5,76-44.4c75.8,0.3,144.6,45.1,198.5,98.5c53.8,53.3,97.5,116.4,153.1,167.9     C1662.4,329.2,1661.4,329.1,1677.3,331.6z" fill="#000000"/>
			<path class="st4" d="M-137.6,156.8c-7.4,2.1-14.7,4.3-21.9,6.7c-43.9,14.5-82.7,41.7-104.8,83.1c-14.7,27.6-18.9,59.3-0.9,86.7     c14.1,21.5,37.5,35.5,62.2,42.8c52.9,15.6,109.7,5.9,163.8,13c54.8,7.2,108.9,32.2,165,21.2C187.7,398.1,233.4,341,236,278.6     c2.9-67.6-44-128.5-108.8-145.1c-34.5-8.9-70.9-7.4-106.4-4C-31.7,134.5-86.3,142.2-137.6,156.8z" fill="#000000"/>
		</g>
	</g>
</g>
</svg>