<?xml version="1.0" encoding="utf-8"?>
<!-- Generator: Adobe Illustrator 26.4.1, SVG Export Plug-In . SVG Version: 6.00 Build 0)  -->
<svg version="1.1" id="Layer_1" xmlns="http://www.w3.org/2000/svg" xmlns:xlink="http://www.w3.org/1999/xlink" x="0px" y="0px"
	 viewBox="0 0 210 79" style="enable-background:new 0 0 210 79;" xml:space="preserve">
<style type="text/css">
	.st0{fill:#14187F;}
	.st1{fill:#3C40AE;}
	.st2{clip-path:url(#SVGID_00000112605236788530825340000010699279277232402357_);fill:#272F9F;}
	.st3{fill:#FFFFFF;}
</style>
<g>
	<g>
		<path class="st0" d="M210,69c0,5.5-4.5,10-10,10H10C4.5,79,0,74.5,0,69V19C0,13.5,4.5,9,10,9h190c5.5,0,10,4.5,10,10V69z"/>
		<path class="st1" d="M210,60c0,5.5-4.5,10-10,10H10C4.5,70,0,65.5,0,60V10C0,4.5,4.5,0,10,0h190c5.5,0,10,4.5,10,10V60z"/>
		<g>
			<defs>
				<path id="SVGID_1_" d="M210,60c0,5.5-4.5,10-10,10H10C4.5,70,0,65.5,0,60V10C0,4.5,4.5,0,10,0h190c5.5,0,10,4.5,10,10V60z"/>
			</defs>
			<clipPath id="SVGID_00000011719989076566860150000001268199926045862281_">
				<use xlink:href="#SVGID_1_"  style="overflow:visible;"/>
			</clipPath>
			<polygon style="clip-path:url(#SVGID_00000011719989076566860150000001268199926045862281_);fill:#272F9F;" points="209,2.4 
				3,70 215.8,70 			"/>
		</g>
	</g>
	<g>
		<path class="st3" d="M67.2,46.4V25.3h3.3l1.4,4.2v17H67.2z M81.9,46.4l-12.5-16l1.2-5.2l12.5,16L81.9,46.4z M81.9,46.4l-1.3-4.2
			V25.3h4.8v21.2H81.9z"/>
		<path class="st3" d="M89.4,46.4V25.3h4.7v21.2H89.4z M93,29.3v-4.1h11.5v4.1H93z M93,37.6v-4h10.6v4H93z M93,46.4v-4.1h11.6v4.1
			H93z"/>
		<path class="st3" d="M106.2,46.4l7.8-11.3l3.7,2l-6.1,9.3H106.2z M121.3,46.4l-5.9-9.4h-0.6l-8.2-11.8h5.6l5.8,8.9h0.6l8.2,12.3
			H121.3z M118.8,36.4l-3.6-2l5.8-9.1h5.4L118.8,36.4z"/>
		<path class="st3" d="M126.6,29.4v-4.1h18v4.1H126.6z M133.3,46.4V25.5h4.8v20.9H133.3z"/>
	</g>
</g>
</svg>
