<?xml version="1.0" encoding="utf-8"?>
<!-- Generator: Adobe Illustrator 26.4.1, SVG Export Plug-In . SVG Version: 6.00 Build 0)  -->
<svg version="1.1" id="Layer_1" xmlns="http://www.w3.org/2000/svg" xmlns:xlink="http://www.w3.org/1999/xlink" x="0px" y="0px"
	 viewBox="0 0 210 79" style="enable-background:new 0 0 210 79;" xml:space="preserve">
<style type="text/css">
	.st0{fill:#007A41;}
	.st1{fill:#2C975F;}
	.st2{clip-path:url(#SVGID_00000170961857713775232030000000163863528941786794_);fill:#2C975F;}
	.st3{fill:#FFFFFF;}
</style>
<g>
	<g>
		<path class="st0" d="M210,69c0,5.5-4.5,10-10,10H10C4.5,79,0,74.5,0,69V19C0,13.5,4.5,9,10,9h190c5.5,0,10,4.5,10,10V69z"/>
		<path class="st1" d="M210,60c0,5.5-4.5,10-10,10H10C4.5,70,0,65.5,0,60V10C0,4.5,4.5,0,10,0h190c5.5,0,10,4.5,10,10V60z"/>
		<g>
			<defs>
				<path id="SVGID_1_" d="M210,60c0,5.5-4.5,10-10,10H10C4.5,70,0,65.5,0,60V10C0,4.5,4.5,0,10,0h190c5.5,0,10,4.5,10,10V60z"/>
			</defs>
			<clipPath id="SVGID_00000046324139853956132990000007543734472195507859_">
				<use xlink:href="#SVGID_1_"  style="overflow:visible;"/>
			</clipPath>
			<polygon style="clip-path:url(#SVGID_00000046324139853956132990000007543734472195507859_);fill:#007A41;" points="209,2.4
				3,70 215.8,70 			"/>
		</g>
	</g>
	<g>
		<path class="st3" d="M56.9,46.8c-1.6,0-3-0.3-4.4-0.8s-2.5-1.3-3.5-2.3c-1-1-1.8-2.2-2.4-3.5c-0.6-1.3-0.8-2.8-0.8-4.3
			s0.3-3,0.8-4.3c0.6-1.3,1.3-2.5,2.4-3.5c1-1,2.2-1.7,3.5-2.3s2.8-0.8,4.4-0.8c1.7,0,3.2,0.3,4.5,0.8c1.3,0.5,2.5,1.3,3.4,2.2
			l-3.2,3.2c-0.5-0.6-1.2-1.1-2-1.4c-0.8-0.3-1.7-0.5-2.7-0.5c-0.9,0-1.8,0.2-2.5,0.5c-0.8,0.3-1.4,0.8-2,1.3
			c-0.6,0.6-1,1.3-1.3,2.1c-0.3,0.8-0.5,1.7-0.5,2.7c0,1,0.2,1.9,0.5,2.7c0.3,0.8,0.7,1.5,1.3,2.1c0.6,0.6,1.2,1,2,1.3
			c0.8,0.3,1.6,0.5,2.5,0.5c1.1,0,2-0.2,2.8-0.5s1.5-0.8,2-1.4l3.2,3.2c-1,1-2.2,1.7-3.5,2.2C60.1,46.5,58.6,46.8,56.9,46.8z"/>
		<path class="st3" d="M65.9,46.4l8.4-21.2h4.3l8.3,21.2h-5l-6.3-17.5h1.7l-6.5,17.5H65.9z M70.7,42.6v-3.8h11.5v3.8H70.7z"/>
		<path class="st3" d="M89.4,46.4V25.3h3.3l1.4,4.2v17H89.4z M104,46.4l-12.5-16l1.2-5.2l12.5,16L104,46.4z M104,46.4l-1.3-4.2V25.3
			h4.8v21.2H104z"/>
		<path class="st3" d="M121.5,46.8c-1.6,0-3-0.3-4.4-0.8c-1.4-0.5-2.5-1.3-3.5-2.3c-1-1-1.8-2.2-2.4-3.5c-0.6-1.3-0.8-2.8-0.8-4.3
			s0.3-3,0.8-4.3s1.3-2.5,2.4-3.5c1-1,2.2-1.7,3.5-2.3s2.8-0.8,4.4-0.8c1.7,0,3.2,0.3,4.5,0.8c1.3,0.5,2.5,1.3,3.4,2.2l-3.2,3.2
			c-0.5-0.6-1.2-1.1-2-1.4s-1.7-0.5-2.7-0.5c-0.9,0-1.8,0.2-2.5,0.5c-0.8,0.3-1.4,0.8-2,1.3c-0.6,0.6-1,1.3-1.3,2.1
			c-0.3,0.8-0.5,1.7-0.5,2.7c0,1,0.2,1.9,0.5,2.7c0.3,0.8,0.7,1.5,1.3,2.1c0.6,0.6,1.2,1,2,1.3c0.8,0.3,1.6,0.5,2.5,0.5
			c1.1,0,2-0.2,2.8-0.5c0.8-0.3,1.5-0.8,2-1.4l3.2,3.2c-1,1-2.2,1.7-3.5,2.2C124.8,46.5,123.3,46.8,121.5,46.8z"/>
		<path class="st3" d="M132.2,46.4V25.3h4.7v21.2H132.2z M135.8,29.3v-4.1h11.5v4.1H135.8z M135.8,37.6v-4h10.6v4H135.8z
			 M135.8,46.4v-4.1h11.6v4.1H135.8z"/>
		<path class="st3" d="M150.6,46.4V25.3h4.7v21.2H150.6z M154.3,46.4v-4.1h10.5v4.1H154.3z"/>
	</g>
</g>
</svg>
