<?xml version="1.0" encoding="utf-8"?>
<!-- Generator: Adobe Illustrator 26.4.1, SVG Export Plug-In . SVG Version: 6.00 Build 0)  -->
<svg version="1.1" id="Layer_1" xmlns="http://www.w3.org/2000/svg" xmlns:xlink="http://www.w3.org/1999/xlink" x="0px" y="0px"
	 viewBox="0 0 210 79" style="enable-background:new 0 0 210 79;" xml:space="preserve">
<style type="text/css">
	.st0{fill:#14187F;}
	.st1{fill:#3C40AE;}
	.st2{clip-path:url(#SVGID_00000022555900075945047730000014212072966671951273_);fill:#272F9F;}
	.st3{fill:#FFFFFF;}
</style>
<g>
	<g>
		<path class="st0" d="M210,69c0,5.5-4.5,10-10,10H10C4.5,79,0,74.5,0,69V19C0,13.5,4.5,9,10,9h190c5.5,0,10,4.5,10,10V69z"/>
		<path class="st1" d="M210,60c0,5.5-4.5,10-10,10H10C4.5,70,0,65.5,0,60V10C0,4.5,4.5,0,10,0h190c5.5,0,10,4.5,10,10V60z"/>
		<g>
			<defs>
				<path id="SVGID_1_" d="M210,60c0,5.5-4.5,10-10,10H10C4.5,70,0,65.5,0,60V10C0,4.5,4.5,0,10,0h190c5.5,0,10,4.5,10,10V60z"/>
			</defs>
			<clipPath id="SVGID_00000037673550899978152590000000917360879279936151_">
				<use xlink:href="#SVGID_1_"  style="overflow:visible;"/>
			</clipPath>
			<polygon style="clip-path:url(#SVGID_00000037673550899978152590000000917360879279936151_);fill:#272F9F;" points="209,2.4 
				3,70 215.8,70 			"/>
		</g>
	</g>
	<g>
		<path class="st3" d="M94.9,46.8c-1.6,0-3.1-0.3-4.4-0.8c-1.4-0.6-2.5-1.3-3.6-2.3c-1-1-1.8-2.2-2.4-3.5c-0.6-1.3-0.8-2.8-0.8-4.3
			c0-1.6,0.3-3,0.8-4.3c0.6-1.3,1.3-2.5,2.3-3.5c1-1,2.2-1.8,3.5-2.3c1.4-0.5,2.8-0.8,4.4-0.8c1.6,0,3,0.3,4.4,0.8s2.5,1.3,3.6,2.3
			c1,1,1.8,2.2,2.4,3.5c0.5,1.3,0.8,2.8,0.8,4.3c0,1.5-0.3,3-0.8,4.3c-0.6,1.3-1.3,2.5-2.3,3.5c-1,1-2.2,1.8-3.5,2.3
			C97.9,46.5,96.5,46.8,94.9,46.8z M94.8,42.5c1.3,0,2.4-0.3,3.3-0.8c0.9-0.6,1.7-1.3,2.2-2.3c0.5-1,0.8-2.2,0.8-3.5
			c0-1-0.1-1.9-0.5-2.7c-0.3-0.8-0.7-1.5-1.3-2.1c-0.6-0.6-1.2-1-2-1.3c-0.8-0.3-1.6-0.5-2.6-0.5c-1.3,0-2.4,0.3-3.3,0.8
			c-1,0.5-1.7,1.3-2.2,2.3s-0.8,2.1-0.8,3.5c0,1,0.1,1.9,0.5,2.7c0.3,0.8,0.7,1.5,1.3,2.1c0.6,0.6,1.2,1,2,1.4
			C93,42.3,93.9,42.5,94.8,42.5z"/>
		<path class="st3" d="M109,46.4V25.3h4.7v21.2H109z M121.8,46.4l-8.5-11.1l8.3-10.1h5.8l-9.4,11v-1.9l9.7,12.1H121.8z"/>
	</g>
</g>
</svg>
