<?xml version="1.0" encoding="utf-8"?>
<!-- Generator: Adobe Illustrator 26.4.1, SVG Export Plug-In . SVG Version: 6.00 Build 0)  -->
<svg version="1.1" id="Layer_1" xmlns="http://www.w3.org/2000/svg" xmlns:xlink="http://www.w3.org/1999/xlink" x="0px" y="0px"
	 viewBox="0 0 210 79" style="enable-background:new 0 0 210 79;" xml:space="preserve">
<style type="text/css">
	.st0{fill:#14187F;}
	.st1{fill:#3C40AE;}
	.st2{clip-path:url(#SVGID_00000063625778494415097850000015705316772551192507_);fill:#272F9F;}
	.st3{fill:#FFFFFF;}
</style>
<g>
	<g>
		<path class="st0" d="M210,69c0,5.5-4.5,10-10,10H10C4.5,79,0,74.5,0,69V19C0,13.5,4.5,9,10,9h190c5.5,0,10,4.5,10,10V69z"/>
		<path class="st1" d="M210,60c0,5.5-4.5,10-10,10H10C4.5,70,0,65.5,0,60V10C0,4.5,4.5,0,10,0h190c5.5,0,10,4.5,10,10V60z"/>
		<g>
			<defs>
				<path id="SVGID_1_" d="M210,60c0,5.5-4.5,10-10,10H10C4.5,70,0,65.5,0,60V10C0,4.5,4.5,0,10,0h190c5.5,0,10,4.5,10,10V60z"/>
			</defs>
			<clipPath id="SVGID_00000098932472228314271640000015538358419448161188_">
				<use xlink:href="#SVGID_1_"  style="overflow:visible;"/>
			</clipPath>
			<polygon style="clip-path:url(#SVGID_00000098932472228314271640000015538358419448161188_);fill:#272F9F;" points="209,2.4 
				3,70 215.8,70 			"/>
		</g>
	</g>
	<g>
		<path class="st3" d="M69.1,46.8c-1.6,0-3-0.3-4.4-0.8s-2.5-1.3-3.5-2.3c-1-1-1.8-2.2-2.4-3.5c-0.6-1.3-0.8-2.8-0.8-4.3
			s0.3-3,0.8-4.3c0.6-1.3,1.3-2.5,2.4-3.5c1-1,2.2-1.7,3.5-2.3s2.8-0.8,4.4-0.8c1.7,0,3.2,0.3,4.5,0.8C74.9,26.3,76,27,77,28
			l-3.2,3.2c-0.5-0.6-1.2-1.1-2-1.4c-0.8-0.3-1.7-0.5-2.7-0.5c-0.9,0-1.8,0.2-2.5,0.5c-0.8,0.3-1.4,0.8-2,1.3
			c-0.6,0.6-1,1.3-1.3,2.1c-0.3,0.8-0.5,1.7-0.5,2.7c0,1,0.2,1.9,0.5,2.7c0.3,0.8,0.7,1.5,1.3,2.1c0.6,0.6,1.2,1,2,1.3
			c0.8,0.3,1.6,0.5,2.5,0.5c1.1,0,2-0.2,2.8-0.5s1.5-0.8,2-1.4l3.2,3.2c-1,1-2.2,1.7-3.5,2.2C72.3,46.5,70.8,46.8,69.1,46.8z"/>
		<path class="st3" d="M79.7,46.4V25.3h4.7v21.2H79.7z M83.3,46.4v-4.1h10.5v4.1H83.3z"/>
		<path class="st3" d="M105.5,46.8c-1.6,0-3.1-0.3-4.4-0.8c-1.4-0.6-2.5-1.3-3.6-2.3c-1-1-1.8-2.2-2.4-3.5c-0.6-1.3-0.8-2.8-0.8-4.3
			c0-1.6,0.3-3,0.8-4.3c0.6-1.3,1.3-2.5,2.3-3.5c1-1,2.2-1.8,3.5-2.3c1.4-0.5,2.8-0.8,4.4-0.8c1.6,0,3,0.3,4.4,0.8s2.5,1.3,3.6,2.3
			c1,1,1.8,2.2,2.4,3.5s0.8,2.8,0.8,4.3c0,1.5-0.3,3-0.8,4.3c-0.6,1.3-1.3,2.5-2.3,3.5c-1,1-2.2,1.8-3.5,2.3
			C108.5,46.5,107.1,46.8,105.5,46.8z M105.4,42.5c1.3,0,2.4-0.3,3.3-0.8c0.9-0.6,1.7-1.3,2.2-2.3c0.5-1,0.8-2.2,0.8-3.5
			c0-1-0.2-1.9-0.5-2.7c-0.3-0.8-0.7-1.5-1.3-2.1c-0.6-0.6-1.2-1-2-1.3c-0.8-0.3-1.6-0.5-2.6-0.5c-1.3,0-2.4,0.3-3.3,0.8
			c-1,0.5-1.7,1.3-2.2,2.3s-0.8,2.1-0.8,3.5c0,1,0.1,1.9,0.5,2.7c0.3,0.8,0.7,1.5,1.3,2.1c0.6,0.6,1.2,1,2,1.4
			C103.6,42.3,104.5,42.5,105.4,42.5z"/>
		<path class="st3" d="M125.5,46.8c-1.8,0-3.3-0.3-4.5-0.8s-2.4-1.4-3.4-2.6l3.1-3.1c0.7,0.8,1.4,1.4,2.3,1.8
			c0.8,0.4,1.8,0.6,2.9,0.6c1,0,1.7-0.2,2.3-0.6s0.8-0.9,0.8-1.5c0-0.6-0.2-1-0.5-1.4c-0.3-0.4-0.8-0.7-1.4-0.9
			c-0.6-0.3-1.3-0.5-2-0.7c-0.7-0.2-1.4-0.5-2.1-0.8c-0.7-0.3-1.4-0.7-1.9-1.2c-0.6-0.5-1.1-1-1.4-1.8c-0.4-0.7-0.5-1.6-0.5-2.7
			c0-1.3,0.3-2.4,0.9-3.4s1.5-1.7,2.7-2.1c1.1-0.5,2.4-0.7,3.9-0.7c1.5,0,2.9,0.3,4.1,0.8c1.2,0.5,2.2,1.2,3,2.1l-3.1,3.1
			c-0.6-0.7-1.3-1.1-1.9-1.5c-0.7-0.3-1.4-0.5-2.2-0.5c-0.8,0-1.5,0.2-1.9,0.5c-0.5,0.3-0.7,0.8-0.7,1.3c0,0.5,0.2,0.9,0.5,1.3
			c0.4,0.3,0.8,0.6,1.4,0.9c0.6,0.2,1.2,0.5,2,0.7c0.7,0.2,1.4,0.5,2.1,0.8c0.7,0.3,1.4,0.7,1.9,1.2s1.1,1.1,1.4,1.9
			c0.4,0.7,0.6,1.7,0.6,2.8c0,2-0.7,3.6-2.2,4.8C130,46.2,128,46.8,125.5,46.8z"/>
		<path class="st3" d="M136.6,46.4V25.3h4.7v21.2H136.6z M140.2,29.3v-4.1h11.5v4.1H140.2z M140.2,37.6v-4h10.6v4H140.2z
			 M140.2,46.4v-4.1h11.6v4.1H140.2z"/>
	</g>
</g>
</svg>
