<svg version="1.1" id="Layer_1" xmlns="http://www.w3.org/2000/svg" xmlns:xlink="http://www.w3.org/1999/xlink" x="0px" y="0px" viewBox="0 0 210 79" style="enable-background:new 0 0 210 79;" xml:space="preserve">
<style type="text/css">
	.st0{fill:#1e965a;}
	.st1{fill:#1e965a;}
	.st2{clip-path:url(#SVGID_00000160166310386473577980000004457299250830727335_);fill:#006938;}
	.st3{fill:#ffffff;}
</style>
<g>
	<g>
		<path class="st0" d="M210,69c0,5.5-4.5,10-10,10H10C4.5,79,0,74.5,0,69V19C0,13.5,4.5,9,10,9h190c5.5,0,10,4.5,10,10V69z" fill="#000000"/>
		<path class="st1" d="M210,60c0,5.5-4.5,10-10,10H10C4.5,70,0,65.5,0,60V10C0,4.5,4.5,0,10,0h190c5.5,0,10,4.5,10,10V60z" fill="#000000"/>
		<g>
			<defs fill="#000000">
				<path id="SVGID_1_" d="M210,60c0,5.5-4.5,10-10,10H10C4.5,70,0,65.5,0,60V10C0,4.5,4.5,0,10,0h190c5.5,0,10,4.5,10,10V60z" fill="#000000"/>
			</defs>
			<clipPath id="SVGID_00000159428096803104024150000018101711655930209940_" fill="#000000">
				<use xlink:href="#SVGID_1_" style="overflow:visible;" fill="#000000"/>
			</clipPath>
			<polygon style="clip-path:url(#SVGID_00000159428096803104024150000018101711655930209940_);fill:#006938;" points="209,2.4     3,70 215.8,70    "/>
		</g>
	</g>
	<g>
		<path class="st3" d="M66,46.8c-1.8,0-3.3-0.3-4.5-0.8s-2.4-1.4-3.4-2.6l3.1-3.1c0.7,0.8,1.4,1.4,2.3,1.8c0.8,0.4,1.8,0.6,2.9,0.6    c1,0,1.7-0.2,2.3-0.6c0.5-0.4,0.8-0.9,0.8-1.5c0-0.6-0.2-1-0.5-1.4c-0.4-0.4-0.8-0.7-1.4-0.9c-0.6-0.3-1.3-0.5-2-0.7    c-0.7-0.2-1.4-0.5-2.1-0.8c-0.7-0.3-1.4-0.7-2-1.2c-0.6-0.5-1.1-1-1.4-1.8c-0.4-0.7-0.5-1.6-0.5-2.7c0-1.3,0.3-2.4,0.9-3.4    s1.5-1.7,2.7-2.1c1.1-0.5,2.4-0.7,3.9-0.7c1.5,0,2.9,0.3,4.1,0.8c1.2,0.5,2.2,1.2,3,2.1L71,30.9c-0.6-0.7-1.3-1.1-1.9-1.5    s-1.4-0.5-2.2-0.5c-0.8,0-1.5,0.2-2,0.5c-0.5,0.3-0.7,0.8-0.7,1.3c0,0.5,0.2,0.9,0.5,1.3c0.4,0.3,0.8,0.6,1.4,0.9    c0.6,0.2,1.2,0.5,2,0.7c0.7,0.2,1.4,0.5,2.1,0.8c0.7,0.3,1.4,0.7,1.9,1.2c0.6,0.5,1.1,1.1,1.4,1.9c0.4,0.7,0.6,1.7,0.6,2.8    c0,2-0.7,3.6-2.2,4.8C70.5,46.2,68.5,46.8,66,46.8z" fill="#000000"/>
		<path class="st3" d="M74.9,29.4v-4.1h18v4.1H74.9z M81.5,46.4V25.5h4.8v20.9H81.5z" fill="#000000"/>
		<path class="st3" d="M93.9,46.4l8.4-21.2h4.3l8.3,21.2h-5l-6.3-17.5h1.7l-6.5,17.5H93.9z M98.7,42.6v-3.8h11.5v3.8H98.7z" fill="#000000"/>
		<path class="st3" d="M117.3,46.4V25.3h4.7v21.2H117.3z M121,37.7v-3.5h4.5c0.9,0,1.6-0.2,2.2-0.7c0.5-0.5,0.8-1.1,0.8-1.9    c0-0.8-0.3-1.4-0.8-1.9c-0.5-0.5-1.2-0.8-2.1-0.8H121v-3.7h5c1.4,0,2.7,0.3,3.7,0.8c1.1,0.5,1.9,1.3,2.5,2.2    c0.6,0.9,0.9,2,0.9,3.2c0,1.3-0.3,2.4-0.9,3.3c-0.6,0.9-1.4,1.7-2.5,2.2c-1.1,0.5-2.4,0.8-3.8,0.8H121z M128.9,46.4l-6.6-9.1    l4.3-1.2l7.9,10.3H128.9z" fill="#000000"/>
		<path class="st3" d="M134.3,29.4v-4.1h18v4.1H134.3z M140.9,46.4V25.5h4.8v20.9H140.9z" fill="#000000"/>
	</g>
</g>
</svg>