<?xml version="1.0" encoding="utf-8"?>
<!-- Generator: Adobe Illustrator 26.4.1, SVG Export Plug-In . SVG Version: 6.00 Build 0)  -->
<svg version="1.1" id="Layer_1" xmlns="http://www.w3.org/2000/svg" xmlns:xlink="http://www.w3.org/1999/xlink" x="0px" y="0px"
	 viewBox="0 0 210 79" style="enable-background:new 0 0 210 79;" xml:space="preserve">
<style type="text/css">
	.st0{fill:#14187F;}
	.st1{fill:#3C40AE;}
	.st2{clip-path:url(#SVGID_00000111895017109240702930000010155094372520894136_);fill:#272F9F;}
	.st3{fill:#FFFFFF;}
</style>
<g>
	<g>
		<path class="st0" d="M210,69c0,5.5-4.5,10-10,10H10C4.5,79,0,74.5,0,69V19C0,13.5,4.5,9,10,9h190c5.5,0,10,4.5,10,10V69z"/>
		<path class="st1" d="M210,60c0,5.5-4.5,10-10,10H10C4.5,70,0,65.5,0,60V10C0,4.5,4.5,0,10,0h190c5.5,0,10,4.5,10,10V60z"/>
		<g>
			<defs>
				<path id="SVGID_1_" d="M210,60c0,5.5-4.5,10-10,10H10C4.5,70,0,65.5,0,60V10C0,4.5,4.5,0,10,0h190c5.5,0,10,4.5,10,10V60z"/>
			</defs>
			<clipPath id="SVGID_00000036241296381076396030000001930703945652533655_">
				<use xlink:href="#SVGID_1_"  style="overflow:visible;"/>
			</clipPath>
			<polygon style="clip-path:url(#SVGID_00000036241296381076396030000001930703945652533655_);fill:#272F9F;" points="209,2.4 
				3,70 215.8,70 			"/>
		</g>
	</g>
	<g>
		<path class="st3" d="M57.7,46.8c-1.8,0-3.3-0.3-4.5-0.8s-2.4-1.4-3.4-2.6l3.1-3.1c0.7,0.8,1.4,1.4,2.3,1.8
			c0.8,0.4,1.8,0.6,2.9,0.6c1,0,1.7-0.2,2.3-0.6c0.5-0.4,0.8-0.9,0.8-1.5c0-0.6-0.2-1-0.5-1.4c-0.4-0.4-0.8-0.7-1.4-0.9
			c-0.6-0.3-1.3-0.5-2-0.7c-0.7-0.2-1.4-0.5-2.1-0.8c-0.7-0.3-1.4-0.7-2-1.2c-0.6-0.5-1.1-1-1.4-1.8c-0.4-0.7-0.5-1.6-0.5-2.7
			c0-1.3,0.3-2.4,0.9-3.4s1.5-1.7,2.7-2.1c1.1-0.5,2.4-0.7,3.9-0.7c1.5,0,2.9,0.3,4.1,0.8c1.2,0.5,2.2,1.2,3,2.1l-3.1,3.1
			c-0.6-0.7-1.3-1.1-1.9-1.5s-1.4-0.5-2.2-0.5c-0.8,0-1.5,0.2-2,0.5c-0.5,0.3-0.7,0.8-0.7,1.3c0,0.5,0.2,0.9,0.5,1.3
			c0.4,0.3,0.8,0.6,1.4,0.9c0.6,0.2,1.2,0.5,2,0.7c0.7,0.2,1.4,0.5,2.1,0.8c0.7,0.3,1.4,0.7,1.9,1.2c0.6,0.5,1.1,1.1,1.4,1.9
			c0.4,0.7,0.6,1.7,0.6,2.8c0,2-0.7,3.6-2.2,4.8C62.3,46.2,60.3,46.8,57.7,46.8z"/>
		<path class="st3" d="M77.8,46.8c-1.8,0-3.3-0.4-4.6-1.1c-1.3-0.8-2.4-1.8-3.1-3.1s-1.1-2.8-1.1-4.5V25.3h4.7v13.1
			c0,0.9,0.2,1.6,0.6,2.2s0.9,1.1,1.5,1.4c0.6,0.3,1.3,0.5,2.1,0.5c0.8,0,1.4-0.2,2.1-0.5c0.6-0.3,1.1-0.8,1.4-1.4
			c0.3-0.6,0.5-1.4,0.5-2.2V25.3h4.8v12.9c0,1.7-0.4,3.1-1.1,4.4c-0.7,1.3-1.8,2.3-3.1,3.1C81,46.4,79.5,46.8,77.8,46.8z"/>
		<path class="st3" d="M90.3,46.4V25.3h4.7v21.2H90.3z M93.9,46.4v-3.7h5c0.9,0,1.6-0.3,2.1-0.8c0.5-0.5,0.8-1.2,0.8-2
			c0-0.5-0.1-1-0.4-1.4c-0.2-0.4-0.6-0.8-1-1c-0.4-0.2-0.9-0.4-1.5-0.4h-5v-3.6h4.6c0.8,0,1.4-0.2,1.9-0.6s0.7-1,0.7-1.8
			c0-0.8-0.2-1.3-0.7-1.7c-0.5-0.4-1.1-0.6-1.9-0.6h-4.6v-3.7h5.5c1.4,0,2.5,0.2,3.5,0.8s1.7,1.2,2.2,2c0.5,0.8,0.7,1.8,0.7,2.8
			c0,1.3-0.4,2.5-1.3,3.3c-0.8,0.9-2.1,1.5-3.7,1.8l0.1-1.6c1.8,0.3,3.2,1,4.1,2.1c1,1,1.4,2.3,1.4,3.8c0,1.2-0.3,2.2-0.9,3.1
			c-0.6,0.9-1.4,1.7-2.5,2.2c-1.1,0.6-2.4,0.8-3.9,0.8H93.9z"/>
		<path class="st3" d="M109.5,46.4V25.3h3.4l8.3,13h-1.8l8.3-13h3.4v21.2h-4.7V33.2l0.8,0.2l-5.4,8.4h-3.1l-5.4-8.4l0.8-0.2v13.2
			H109.5z"/>
		<path class="st3" d="M135.2,46.4V25.3h4.7v21.2H135.2z"/>
		<path class="st3" d="M142.5,29.4v-4.1h18v4.1H142.5z M149.2,46.4V25.5h4.8v20.9H149.2z"/>
	</g>
</g>
</svg>
