<?xml version="1.0" encoding="utf-8"?>
<!-- Generator: Adobe Illustrator 26.4.1, SVG Export Plug-In . SVG Version: 6.00 Build 0)  -->
<svg version="1.1" id="Layer_1" xmlns="http://www.w3.org/2000/svg" xmlns:xlink="http://www.w3.org/1999/xlink" x="0px" y="0px"
	 viewBox="0 0 50 55" style="enable-background:new 0 0 50 55;" xml:space="preserve">
<style type="text/css">
	.st0{fill:#007A41;}
	.st1{fill:#2C975F;}
	.st2{clip-path:url(#SVGID_00000179605742500274144010000016359264077894607507_);fill:#2C975F;}
	.st3{fill-rule:evenodd;clip-rule:evenodd;fill:#FFFFFF;}
</style>
<g>
	<g>
		<path class="st0" d="M50,45c0,5.5-4.5,10-10,10H10C4.5,55,0,50.5,0,45V15C0,9.5,4.5,5,10,5h30c5.5,0,10,4.5,10,10V45z"/>
		<path class="st1" d="M50,40c0,5.5-4.5,10-10,10H10C4.5,50,0,45.5,0,40V10C0,4.5,4.5,0,10,0h30c5.5,0,10,4.5,10,10V40z"/>
		<g>
			<g>
				<defs>
					<path id="SVGID_1_" d="M50,40c0,5.5-4.5,10-10,10H10C4.5,50,0,45.5,0,40V10C0,4.5,4.5,0,10,0h30c5.5,0,10,4.5,10,10V40z"/>
				</defs>
				<clipPath id="SVGID_00000002365167855817793490000012856031640390583186_">
					<use xlink:href="#SVGID_1_"  style="overflow:visible;"/>
				</clipPath>
				<polygon style="clip-path:url(#SVGID_00000002365167855817793490000012856031640390583186_);fill:#007A41;" points="49,2.4
					3,50 55.8,50 				"/>
			</g>
		</g>
	</g>
</g>
<g>
	<path class="st3" d="M36.7,28.7V17.2c0,0,0,0,0,0c0-0.4-0.1-0.8-0.3-1.1c-0.4-0.5-1-0.9-1.7-0.9c0,0,0,0,0,0H23.2c-1.1,0-2,0.9-2,2
		s0.9,2,2,2h9.5v9.5c0,1.1,0.9,2,2,2C35.8,30.7,36.7,29.8,36.7,28.7z"/>
	<path class="st3" d="M26.8,38.6H15.3c0,0,0,0,0,0c-0.4,0-0.8-0.1-1.1-0.3c-0.5-0.4-0.9-1-0.9-1.7c0,0,0,0,0,0V25c0-1.1,0.9-2,2-2
		c1.1,0,2,0.9,2,2v9.5h9.5c1.1,0,2,0.9,2,2C28.9,37.7,28,38.6,26.8,38.6z"/>
	<path class="st3" d="M18.9,36.4c-1,1-2.6,1-3.6,0l0,0c-1-1-1-2.6,0-3.6l15.5-15.5c1-1,2.6-1,3.6,0l0,0c1,1,1,2.6,0,3.6L18.9,36.4z"
		/>
</g>
</svg>
