<?xml version="1.0" encoding="utf-8"?>
<!-- Generator: Adobe Illustrator 26.4.1, SVG Export Plug-In . SVG Version: 6.00 Build 0)  -->
<svg version="1.1" id="Layer_1" xmlns="http://www.w3.org/2000/svg" xmlns:xlink="http://www.w3.org/1999/xlink" x="0px" y="0px"
	 viewBox="0 0 50 55" style="enable-background:new 0 0 50 55;" xml:space="preserve">
<style type="text/css">
	.st0{fill:#007A41;}
	.st1{fill:#2C975F;}
	.st2{clip-path:url(#SVGID_00000145736591534736945550000004195823617157425087_);fill:#2C975F;}
	.st3{fill-rule:evenodd;clip-rule:evenodd;fill:#FFFFFF;}
	.st4{clip-path:url(#SVGID_00000137814689592119368470000017124102185824781719_);fill:#2C975F;}
</style>
<g>
	<path class="st0" d="M50,45c0,5.5-4.5,10-10,10H10C4.5,55,0,50.5,0,45V15C0,9.5,4.5,5,10,5h30c5.5,0,10,4.5,10,10V45z"/>
	<path class="st1" d="M50,40c0,5.5-4.5,10-10,10H10C4.5,50,0,45.5,0,40V10C0,4.5,4.5,0,10,0h30c5.5,0,10,4.5,10,10V40z"/>
	<g>
		<defs>
			<path id="SVGID_1_" d="M50,40c0,5.5-4.5,10-10,10H10C4.5,50,0,45.5,0,40V10C0,4.5,4.5,0,10,0h30c5.5,0,10,4.5,10,10V40z"/>
		</defs>
		<clipPath id="SVGID_00000034806967772350691030000013884781620162891928_">
			<use xlink:href="#SVGID_1_"  style="overflow:visible;"/>
		</clipPath>
		<polygon style="clip-path:url(#SVGID_00000034806967772350691030000013884781620162891928_);fill:#007A41;" points="49,2.4 3,50
			55.8,50 		"/>
	</g>
</g>
<path class="st3" d="M18.3,12c2.3,2.1,6.6,6.7,6.7,6.7c0.1,0,4.5-4.6,6.8-6.8c0.2-0.2,0.5-0.3,0.8-0.4c0.1,0,0.3,0,0.4,0
	c0.5,0,0.3,0,1,0.2c0.1,0,0.3,0.1,0.4,0.3c0.4,0.3,0.7,0.7,1,1c0.7,0.7,1.5,1.4,2.2,2.3c0.2,0.2,0.4,0.9,0.4,1.2
	c0,0.2-0.1,0.8-0.3,1.1c-2.1,2.3-4.6,4.7-6.9,7c2.3,2.3,4.7,4.5,6.9,7c0.2,0.2,0.3,0.8,0.3,1.1c0,0.4,0,0.8-0.4,1.2
	c-1,1.2-2.1,2.2-3.2,3.2c-0.1,0.1-0.2,0.2-0.3,0.3c-0.2,0.1-0.6,0.3-0.7,0.3h-0.8c-0.5-0.1-0.9-0.4-1.3-0.8
	c-2.1-2.2-6.3-6.3-6.4-6.3c-0.1,0-4.7,4.6-6.9,6.8c-0.2,0.1-0.4,0.2-0.6,0.3c-0.2,0.1-0.4,0.1-0.6,0.1c-0.4,0-0.6,0.1-1-0.3
	c-1.2-0.9-2.3-2.2-3.4-3.3c-0.1-0.1-0.4-0.8-0.4-1v-0.7c0.1-0.4,0.3-0.9,0.8-1.3c2.1-2.1,6.4-6.3,6.4-6.4c0-0.1-4.6-4.6-6.8-6.9
	c-0.1,0-0.4-0.7-0.4-0.9v-0.7c0.1-0.3,0.1-0.7,0.4-0.9c1-1.2,2.2-2.3,3.3-3.3c0.2-0.2,0.6-0.3,0.8-0.4h0.4
	C17.5,11.5,17.7,11.4,18.3,12z"/>
<path class="st0" d="M1048,205.2c0,5.5-4.5,10-10,10h-30c-5.5,0-10-4.5-10-10v-30c0-5.5,4.5-10,10-10h30c5.5,0,10,4.5,10,10V205.2z"
	/>
<path class="st1" d="M1048,200.2c0,5.5-4.5,10-10,10h-30c-5.5,0-10-4.5-10-10v-30c0-5.5,4.5-10,10-10h30c5.5,0,10,4.5,10,10V200.2z"
	/>
<g>
	<defs>
		<path id="SVGID_00000075121926153012073440000011744014642294634928_" d="M1048,200.2c0,5.5-4.5,10-10,10h-30c-5.5,0-10-4.5-10-10
			v-30c0-5.5,4.5-10,10-10h30c5.5,0,10,4.5,10,10V200.2z"/>
	</defs>
	<clipPath id="SVGID_00000012447823599263000120000016205597489086807205_">
		<use xlink:href="#SVGID_00000075121926153012073440000011744014642294634928_"  style="overflow:visible;"/>
	</clipPath>
	<polygon style="clip-path:url(#SVGID_00000012447823599263000120000016205597489086807205_);fill:#007A41;" points="1047,162.7
		1001,210.2 1053.8,210.2 	"/>
</g>
</svg>
