<?xml version="1.0" encoding="utf-8"?>
<!-- Generator: Adobe Illustrator 26.4.1, SVG Export Plug-In . SVG Version: 6.00 Build 0)  -->
<svg version="1.1" id="Layer_1" xmlns="http://www.w3.org/2000/svg" xmlns:xlink="http://www.w3.org/1999/xlink" x="0px" y="0px"
	 viewBox="0 0 210 79" style="enable-background:new 0 0 210 79;" xml:space="preserve">
<style type="text/css">
	.st0{fill:#14187F;}
	.st1{fill:#3C40AE;}
	.st2{clip-path:url(#SVGID_00000050642659794279023400000009210606344083373204_);fill:#272F9F;}
	.st3{fill:#FFFFFF;}
</style>
<g>
	<g>
		<path class="st0" d="M210,69c0,5.5-4.5,10-10,10H10C4.5,79,0,74.5,0,69V19C0,13.5,4.5,9,10,9h190c5.5,0,10,4.5,10,10V69z"/>
		<path class="st1" d="M210,60c0,5.5-4.5,10-10,10H10C4.5,70,0,65.5,0,60V10C0,4.5,4.5,0,10,0h190c5.5,0,10,4.5,10,10V60z"/>
		<g>
			<defs>
				<path id="SVGID_1_" d="M210,60c0,5.5-4.5,10-10,10H10C4.5,70,0,65.5,0,60V10C0,4.5,4.5,0,10,0h190c5.5,0,10,4.5,10,10V60z"/>
			</defs>
			<clipPath id="SVGID_00000024702216518851267660000013815811473002164612_">
				<use xlink:href="#SVGID_1_"  style="overflow:visible;"/>
			</clipPath>
			<polygon style="clip-path:url(#SVGID_00000024702216518851267660000013815811473002164612_);fill:#272F9F;" points="209,2.4 
				3,70 215.8,70 			"/>
		</g>
	</g>
	<g>
		<path class="st3" d="M68.4,46.4V25.3h4.7v21.2H68.4z M72.1,38.7V35h4.6c0.6,0,1.1-0.1,1.6-0.3c0.5-0.2,0.8-0.6,1.1-1
			c0.3-0.5,0.4-1,0.4-1.6c0-0.7-0.1-1.2-0.4-1.7c-0.3-0.5-0.7-0.8-1.1-1c-0.5-0.2-1-0.3-1.6-0.3h-4.6v-3.7h5.2
			c1.3,0,2.6,0.3,3.6,0.8c1.1,0.5,1.9,1.3,2.6,2.3c0.6,1,0.9,2.2,0.9,3.6c0,1.4-0.3,2.6-0.9,3.6c-0.6,1-1.5,1.8-2.6,2.3
			c-1.1,0.5-2.3,0.8-3.6,0.8H72.1z"/>
		<path class="st3" d="M87.1,46.4V25.3h4.7v21.2H87.1z M90.7,37.7v-3.5h4.5c0.9,0,1.6-0.2,2.2-0.7c0.5-0.5,0.8-1.1,0.8-1.9
			c0-0.8-0.3-1.4-0.8-1.9c-0.5-0.5-1.2-0.8-2.1-0.8h-4.5v-3.7h5c1.4,0,2.7,0.3,3.7,0.8s1.9,1.3,2.5,2.2c0.6,0.9,0.9,2,0.9,3.2
			c0,1.3-0.3,2.4-0.9,3.3c-0.6,0.9-1.4,1.7-2.5,2.2c-1.1,0.5-2.4,0.8-3.8,0.8H90.7z M98.6,46.4L92,37.3l4.3-1.2l7.9,10.3H98.6z"/>
		<path class="st3" d="M106.2,46.4V25.3h4.7v21.2H106.2z M109.8,29.3v-4.1h11.5v4.1H109.8z M109.8,37.6v-4h10.6v4H109.8z
			 M109.8,46.4v-4.1h11.6v4.1H109.8z"/>
		<path class="st3" d="M130.8,46.4l-8.2-21.2h5.1l6.2,17.1h-2.1l6.3-17.1h5l-8.2,21.2H130.8z"/>
	</g>
</g>
</svg>
