<?xml version="1.0" encoding="utf-8"?>
<!-- Generator: Adobe Illustrator 26.4.1, SVG Export Plug-In . SVG Version: 6.00 Build 0)  -->
<svg version="1.1" id="Layer_1" xmlns="http://www.w3.org/2000/svg" xmlns:xlink="http://www.w3.org/1999/xlink" x="0px" y="0px"
	 viewBox="0 0 282.3 222.8" style="enable-background:new 0 0 282.3 222.8;" xml:space="preserve">
<style type="text/css">
	.st0{opacity:0.1;enable-background:new    ;}
	.st1{fill:none;stroke:#FCC016;stroke-width:8;stroke-linecap:round;stroke-linejoin:round;stroke-miterlimit:10;}
	.st2{fill:#FCC016;}
	.st3{fill:#FFD636;}
	.st4{fill:#F8B232;}
	.st5{fill:#FFCD05;}
	.st6{fill:#A31E22;}
	.st7{fill:#EF423B;}
	.st8{fill:#FFFFFF;}
</style>
<g>
	<circle class="st0" cx="141.1" cy="109.9" r="93.9"/>
	<g>
		<g>
			<g>
				<g>
					<path class="st1" d="M109.7,102.5c-21.1,0-57.8-29.3-59.9-53.9c-1.7-19.4,7.4-29.3,28-19.7"/>
					<path class="st2" d="M100.7,106.3c0,3.6-3.1,6.6-6.8,6.6c-3.8,0-6.8-3-6.8-6.6c0-3.6,3.1-6.6,6.8-6.6
						C97.6,99.7,100.7,102.7,100.7,106.3z"/>
				</g>
				<g>
					<path class="st1" d="M172.6,102.5c21.1,0,57.8-29.3,59.9-53.9c1.7-19.4-7.4-29.3-28-19.7"/>
					<ellipse class="st2" cx="188.4" cy="106.3" rx="6.8" ry="6.6"/>
				</g>
			</g>
			<path class="st3" d="M211.4,6.3c0,61.2-30.2,123.4-70.3,123.4c-40.1,0-70.3-62.2-70.3-123.4"/>
			<path class="st4" d="M215.9,5c0,2.7-2.2,5-5,5H71.3c-2.7,0-5-2.2-5-5l0,0c0-2.8,2.2-5,5-5H211C213.7,0,215.9,2.2,215.9,5L215.9,5
				z"/>
			<g>
				<rect x="132.1" y="124.8" class="st5" width="18.1" height="54.3"/>
				<path class="st2" d="M154.8,133.2c0,1.9-2,3.4-4.6,3.4H132c-2.5,0-4.6-1.5-4.6-3.4v-0.8c0-1.9,2-3.4,4.6-3.4h18.2
					c2.5,0,4.6,1.5,4.6,3.4V133.2z"/>
				<path class="st2" d="M154.8,173c0,1.9-2,3.4-4.6,3.4H132c-2.5,0-4.6-1.5-4.6-3.4v-0.8c0-1.9,2-3.4,4.6-3.4h18.2
					c2.5,0,4.6,1.5,4.6,3.4V173z"/>
			</g>
			<g>
				<path class="st4" d="M163.9,188.7c0,1.9-1.5,3.4-3.4,3.4h-38.6c-1.9,0-3.4-1.5-3.4-3.4v-9.1c0-1.9,1.5-3.4,3.4-3.4h38.6
					c1.9,0,3.4,1.5,3.4,3.4V188.7z"/>
				<path class="st3" d="M176,202.3c0,1.9-1.5,3.4-3.4,3.4h-63c-1.9,0-3.4-1.5-3.4-3.4v-12.7c0-1.9,1.5-3.4,3.4-3.4h63
					c1.9,0,3.4,1.5,3.4,3.4V202.3z"/>
				<path class="st2" d="M191.4,219.4c0,1.9-1.5,3.4-3.4,3.4H94.3c-1.9,0-3.4-1.5-3.4-3.4v-13.5c0-1.9,1.5-3.4,3.4-3.4H188
					c1.9,0,3.4,1.5,3.4,3.4L191.4,219.4L191.4,219.4z"/>
			</g>
		</g>
	</g>
	<g>
		<polyline class="st6" points="13.6,163.2 0,142.5 61.8,142.5 61.8,184.2 0,184.2 13.6,163.2 		"/>
		<polyline class="st6" points="268.7,163.2 282.3,142.5 220.5,142.5 220.5,184.2 282.3,184.2 268.7,163.2 		"/>
		<rect x="38.8" y="127.6" class="st7" width="204.7" height="44.6"/>
	</g>
</g>
<g>
	<path class="st8" d="M83.5,160.3c-1.8,0-3.3-0.3-4.5-0.8s-2.4-1.4-3.4-2.6l3.1-3.1c0.7,0.8,1.4,1.4,2.3,1.8
		c0.8,0.4,1.8,0.6,2.9,0.6c1,0,1.7-0.2,2.3-0.6c0.5-0.4,0.8-0.9,0.8-1.5c0-0.6-0.2-1-0.5-1.4c-0.4-0.4-0.8-0.7-1.4-0.9
		c-0.6-0.3-1.3-0.5-2-0.7c-0.7-0.2-1.4-0.5-2.1-0.8c-0.7-0.3-1.4-0.7-2-1.2c-0.6-0.5-1.1-1-1.4-1.8c-0.4-0.7-0.5-1.6-0.5-2.7
		c0-1.3,0.3-2.4,0.9-3.4s1.5-1.7,2.7-2.1c1.1-0.5,2.4-0.7,3.9-0.7c1.5,0,2.9,0.3,4.1,0.8c1.2,0.5,2.2,1.2,3,2.1l-3.1,3.1
		c-0.6-0.7-1.3-1.1-1.9-1.5s-1.4-0.5-2.2-0.5c-0.8,0-1.5,0.2-2,0.5c-0.5,0.3-0.7,0.8-0.7,1.3c0,0.5,0.2,0.9,0.5,1.3
		c0.4,0.3,0.8,0.6,1.4,0.9c0.6,0.2,1.2,0.5,2,0.7c0.7,0.2,1.4,0.5,2.1,0.8c0.7,0.3,1.4,0.7,1.9,1.2c0.6,0.5,1.1,1.1,1.4,1.9
		c0.4,0.7,0.6,1.7,0.6,2.8c0,2-0.7,3.6-2.2,4.8C88,159.7,86,160.3,83.5,160.3z"/>
	<path class="st8" d="M103.5,160.3c-1.8,0-3.3-0.4-4.6-1.1c-1.3-0.8-2.4-1.8-3.1-3.1s-1.1-2.8-1.1-4.5v-12.8h4.7v13.1
		c0,0.9,0.2,1.6,0.6,2.2s0.9,1.1,1.5,1.4c0.6,0.3,1.3,0.5,2.1,0.5c0.8,0,1.4-0.2,2.1-0.5c0.6-0.3,1.1-0.8,1.4-1.4
		c0.3-0.6,0.5-1.4,0.5-2.2v-13.1h4.8v12.9c0,1.7-0.4,3.1-1.1,4.4c-0.7,1.3-1.8,2.3-3.1,3.1C106.7,159.9,105.2,160.3,103.5,160.3z"/>
	<path class="st8" d="M126,160.3c-1.6,0-3-0.3-4.4-0.8s-2.5-1.3-3.5-2.3c-1-1-1.8-2.2-2.4-3.5c-0.6-1.3-0.8-2.8-0.8-4.3
		s0.3-3,0.8-4.3c0.6-1.3,1.3-2.5,2.4-3.5c1-1,2.2-1.7,3.5-2.3s2.8-0.8,4.4-0.8c1.7,0,3.2,0.3,4.5,0.8c1.3,0.5,2.5,1.3,3.4,2.2
		l-3.2,3.2c-0.5-0.6-1.2-1.1-2-1.4c-0.8-0.3-1.7-0.5-2.7-0.5c-0.9,0-1.8,0.2-2.5,0.5c-0.8,0.3-1.4,0.8-2,1.3c-0.6,0.6-1,1.3-1.3,2.1
		c-0.3,0.8-0.5,1.7-0.5,2.7c0,1,0.2,1.9,0.5,2.7c0.3,0.8,0.7,1.5,1.3,2.1c0.6,0.6,1.2,1,2,1.3c0.8,0.3,1.6,0.5,2.5,0.5
		c1.1,0,2-0.2,2.8-0.5s1.5-0.8,2-1.4l3.2,3.2c-1,1-2.2,1.7-3.5,2.2C129.3,160,127.8,160.3,126,160.3z"/>
	<path class="st8" d="M146.7,160.3c-1.6,0-3-0.3-4.4-0.8c-1.4-0.5-2.5-1.3-3.5-2.3c-1-1-1.8-2.2-2.4-3.5c-0.6-1.3-0.8-2.8-0.8-4.3
		s0.3-3,0.8-4.3c0.6-1.3,1.3-2.5,2.4-3.5c1-1,2.2-1.7,3.5-2.3c1.3-0.5,2.8-0.8,4.4-0.8c1.7,0,3.2,0.3,4.5,0.8
		c1.3,0.5,2.5,1.3,3.4,2.2l-3.2,3.2c-0.5-0.6-1.2-1.1-2-1.4s-1.7-0.5-2.7-0.5c-0.9,0-1.8,0.2-2.5,0.5c-0.8,0.3-1.4,0.8-2,1.3
		s-1,1.3-1.3,2.1c-0.3,0.8-0.5,1.7-0.5,2.7c0,1,0.2,1.9,0.5,2.7c0.3,0.8,0.7,1.5,1.3,2.1s1.2,1,2,1.3c0.8,0.3,1.6,0.5,2.5,0.5
		c1.1,0,2-0.2,2.8-0.5s1.5-0.8,2-1.4l3.2,3.2c-1,1-2.2,1.7-3.5,2.2C150,160,148.4,160.3,146.7,160.3z"/>
	<path class="st8" d="M157.3,160v-21.2h4.7V160H157.3z M161,142.9v-4.1h11.5v4.1H161z M161,151.1v-4h10.6v4H161z M161,160v-4.1h11.6
		v4.1H161z"/>
	<path class="st8" d="M181.6,160.3c-1.8,0-3.3-0.3-4.5-0.8s-2.4-1.4-3.4-2.6l3.1-3.1c0.7,0.8,1.4,1.4,2.3,1.8
		c0.8,0.4,1.8,0.6,2.9,0.6c1,0,1.7-0.2,2.3-0.6c0.5-0.4,0.8-0.9,0.8-1.5c0-0.6-0.2-1-0.5-1.4c-0.4-0.4-0.8-0.7-1.4-0.9
		c-0.6-0.3-1.3-0.5-2-0.7c-0.7-0.2-1.4-0.5-2.1-0.8c-0.7-0.3-1.4-0.7-2-1.2s-1.1-1-1.4-1.8c-0.4-0.7-0.5-1.6-0.5-2.7
		c0-1.3,0.3-2.4,0.9-3.4s1.5-1.7,2.7-2.1c1.1-0.5,2.4-0.7,3.9-0.7c1.5,0,2.9,0.3,4.1,0.8c1.2,0.5,2.2,1.2,3,2.1l-3.1,3.1
		c-0.6-0.7-1.3-1.1-1.9-1.5c-0.6-0.3-1.4-0.5-2.2-0.5c-0.8,0-1.5,0.2-2,0.5c-0.5,0.3-0.7,0.8-0.7,1.3c0,0.5,0.2,0.9,0.5,1.3
		s0.8,0.6,1.4,0.9c0.6,0.2,1.2,0.5,2,0.7s1.4,0.5,2.1,0.8c0.7,0.3,1.4,0.7,1.9,1.2c0.6,0.5,1.1,1.1,1.4,1.9c0.4,0.7,0.6,1.7,0.6,2.8
		c0,2-0.7,3.6-2.2,4.8C186.2,159.7,184.2,160.3,181.6,160.3z"/>
	<path class="st8" d="M198.6,160.3c-1.8,0-3.3-0.3-4.5-0.8s-2.4-1.4-3.4-2.6l3.1-3.1c0.7,0.8,1.4,1.4,2.3,1.8
		c0.8,0.4,1.8,0.6,2.9,0.6c1,0,1.7-0.2,2.3-0.6c0.5-0.4,0.8-0.9,0.8-1.5c0-0.6-0.2-1-0.5-1.4c-0.4-0.4-0.8-0.7-1.4-0.9
		c-0.6-0.3-1.3-0.5-2-0.7c-0.7-0.2-1.4-0.5-2.1-0.8c-0.7-0.3-1.4-0.7-2-1.2s-1.1-1-1.4-1.8c-0.4-0.7-0.5-1.6-0.5-2.7
		c0-1.3,0.3-2.4,0.9-3.4s1.5-1.7,2.7-2.1c1.1-0.5,2.4-0.7,3.9-0.7c1.5,0,2.9,0.3,4.1,0.8c1.2,0.5,2.2,1.2,3,2.1l-3.1,3.1
		c-0.6-0.7-1.3-1.1-1.9-1.5c-0.6-0.3-1.4-0.5-2.2-0.5c-0.8,0-1.5,0.2-2,0.5c-0.5,0.3-0.7,0.8-0.7,1.3c0,0.5,0.2,0.9,0.5,1.3
		s0.8,0.6,1.4,0.9c0.6,0.2,1.2,0.5,2,0.7s1.4,0.5,2.1,0.8c0.7,0.3,1.4,0.7,1.9,1.2c0.6,0.5,1.1,1.1,1.4,1.9c0.4,0.7,0.6,1.7,0.6,2.8
		c0,2-0.7,3.6-2.2,4.8C203.1,159.7,201.1,160.3,198.6,160.3z"/>
</g>
</svg>
