<?xml version="1.0" encoding="utf-8"?>
<!-- Generator: Adobe Illustrator 26.4.1, SVG Export Plug-In . SVG Version: 6.00 Build 0)  -->
<svg version="1.1" id="Layer_1" xmlns="http://www.w3.org/2000/svg" xmlns:xlink="http://www.w3.org/1999/xlink" x="0px" y="0px"
	 viewBox="0 0 282.3 222.8" style="enable-background:new 0 0 282.3 222.8;" xml:space="preserve">
<style type="text/css">
	.st0{opacity:0.1;enable-background:new    ;}
	.st1{fill:none;stroke:#FCC016;stroke-width:8;stroke-linecap:round;stroke-linejoin:round;stroke-miterlimit:10;}
	.st2{fill:#FCC016;}
	.st3{fill:#FFD636;}
	.st4{fill:#F8B232;}
	.st5{fill:#FFCD05;}
	.st6{fill:#A31E22;}
	.st7{fill:#EF423B;}
	.st8{fill:#FFFFFF;}
</style>
<g>
	<circle class="st0" cx="141.1" cy="109.9" r="93.9"/>
	<g>
		<g>
			<g>
				<g>
					<path class="st1" d="M109.7,102.5c-21.1,0-57.8-29.3-59.9-53.9c-1.7-19.4,7.4-29.3,28-19.7"/>
					<ellipse class="st2" cx="93.9" cy="106.3" rx="6.8" ry="6.6"/>
				</g>
				<g>
					<path class="st1" d="M172.6,102.5c21.1,0,57.8-29.3,59.9-53.9c1.7-19.4-7.4-29.3-28-19.7"/>
					<ellipse class="st2" cx="188.4" cy="106.3" rx="6.8" ry="6.6"/>
				</g>
			</g>
			<path class="st3" d="M211.4,6.3c0,61.2-30.2,123.4-70.3,123.4c-40.1,0-70.3-62.2-70.3-123.4"/>
			<path class="st4" d="M215.9,5c0,2.7-2.2,5-5,5H71.3c-2.7,0-5-2.2-5-5l0,0c0-2.8,2.2-5,5-5H211C213.7,0,215.9,2.2,215.9,5L215.9,5
				z"/>
			<g>
				<rect x="132.1" y="124.8" class="st5" width="18.1" height="54.3"/>
				<path class="st2" d="M154.8,133.2c0,1.9-2,3.4-4.6,3.4H132c-2.5,0-4.6-1.5-4.6-3.4v-0.8c0-1.9,2-3.4,4.6-3.4h18.2
					c2.5,0,4.6,1.5,4.6,3.4V133.2z"/>
				<path class="st2" d="M154.8,173c0,1.9-2,3.4-4.6,3.4H132c-2.5,0-4.6-1.5-4.6-3.4v-0.8c0-1.9,2-3.4,4.6-3.4h18.2
					c2.5,0,4.6,1.5,4.6,3.4V173z"/>
			</g>
			<g>
				<path class="st4" d="M163.9,188.7c0,1.9-1.5,3.4-3.4,3.4h-38.6c-1.9,0-3.4-1.5-3.4-3.4v-9.1c0-1.9,1.5-3.4,3.4-3.4h38.6
					c1.9,0,3.4,1.5,3.4,3.4V188.7z"/>
				<path class="st3" d="M176,202.3c0,1.9-1.5,3.4-3.4,3.4h-63c-1.9,0-3.4-1.5-3.4-3.4v-12.7c0-1.9,1.5-3.4,3.4-3.4h63
					c1.9,0,3.4,1.5,3.4,3.4V202.3z"/>
				<path class="st2" d="M191.4,219.4c0,1.9-1.5,3.4-3.4,3.4H94.3c-1.9,0-3.4-1.5-3.4-3.4v-13.5c0-1.9,1.5-3.4,3.4-3.4H188
					c1.9,0,3.4,1.5,3.4,3.4L191.4,219.4L191.4,219.4z"/>
			</g>
		</g>
	</g>
	<g>
		<polyline class="st6" points="13.6,163.2 0,142.5 61.8,142.5 61.8,184.2 0,184.2 13.6,163.2 		"/>
		<polyline class="st6" points="268.7,163.2 282.3,142.5 220.5,142.5 220.5,184.2 282.3,184.2 268.7,163.2 		"/>
		<rect x="38.8" y="127.6" class="st7" width="204.7" height="44.6"/>
	</g>
</g>
<g>
	<path class="st8" d="M64.3,160.4c-1.6,0-3-0.3-4.4-0.9s-2.5-1.4-3.5-2.4c-1-1-1.8-2.2-2.4-3.5c-0.6-1.3-0.9-2.8-0.9-4.3
		c0-1.6,0.3-3,0.9-4.3s1.4-2.5,2.4-3.5c1-1,2.2-1.8,3.6-2.3c1.4-0.6,2.8-0.8,4.4-0.8c1.8,0,3.5,0.3,5,1c1.5,0.7,2.7,1.6,3.7,2.7
		l-3.2,3.2c-0.7-0.9-1.5-1.5-2.4-2c-0.9-0.5-2-0.7-3.1-0.7c-1.2,0-2.4,0.3-3.3,0.8c-1,0.5-1.7,1.3-2.3,2.3c-0.6,1-0.8,2.1-0.8,3.5
		c0,1.3,0.3,2.5,0.8,3.5s1.3,1.8,2.2,2.4c0.9,0.6,2,0.9,3.2,0.9c1.2,0,2.3-0.2,3.1-0.7c0.9-0.5,1.5-1.2,2-2.1c0.5-0.9,0.7-2,0.7-3.2
		l3.1,2.1l-9.5-0.1v-4H75v0.7c0,2.5-0.5,4.6-1.4,6.4c-0.9,1.7-2.2,3.1-3.8,3.9C68.3,159.9,66.4,160.4,64.3,160.4z"/>
	<path class="st8" d="M75.4,160l8.4-21.2h4.3l8.3,21.2h-5L85,142.4h1.7L80.3,160H75.4z M80.2,156.2v-3.8h11.5v3.8H80.2z"/>
	<path class="st8" d="M98.8,160v-21.2h3.4l8.3,13h-1.8l8.3-13h3.4V160h-4.7v-13.2l0.8,0.2l-5.4,8.4h-3.1l-5.4-8.4l0.8-0.2V160H98.8z
		"/>
	<path class="st8" d="M124.6,160v-21.2h4.7V160H124.6z M128.2,142.9v-4.1h11.5v4.1H128.2z M128.2,151.2v-4h10.6v4H128.2z M128.2,160
		v-4.1h11.6v4.1H128.2z"/>
	<path class="st8" d="M158.9,160.4c-1.6,0-3.1-0.3-4.4-0.8c-1.4-0.6-2.5-1.3-3.6-2.3c-1-1-1.8-2.2-2.4-3.5c-0.6-1.3-0.8-2.8-0.8-4.3
		c0-1.6,0.3-3,0.8-4.3c0.6-1.3,1.3-2.5,2.3-3.5c1-1,2.2-1.8,3.5-2.3c1.4-0.5,2.8-0.8,4.4-0.8c1.6,0,3,0.3,4.4,0.8
		c1.3,0.5,2.5,1.3,3.6,2.3c1,1,1.8,2.2,2.4,3.5c0.5,1.3,0.8,2.8,0.8,4.3c0,1.5-0.3,3-0.8,4.3s-1.3,2.5-2.3,3.5c-1,1-2.2,1.8-3.5,2.3
		C161.9,160.1,160.4,160.4,158.9,160.4z M158.8,156c1.3,0,2.4-0.3,3.3-0.8c0.9-0.6,1.7-1.3,2.2-2.3c0.5-1,0.8-2.2,0.8-3.5
		c0-1-0.2-1.9-0.5-2.7c-0.3-0.8-0.7-1.5-1.3-2.1c-0.6-0.6-1.2-1-2-1.3c-0.8-0.3-1.6-0.5-2.6-0.5c-1.3,0-2.4,0.3-3.3,0.8
		c-1,0.5-1.7,1.3-2.2,2.3c-0.5,1-0.8,2.1-0.8,3.5c0,1,0.2,1.9,0.5,2.7s0.7,1.5,1.3,2.1c0.6,0.6,1.2,1,2,1.4
		C157,155.9,157.9,156,158.8,156z"/>
	<path class="st8" d="M178.7,160l-8.2-21.2h5.1l6.2,17.1h-2.1l6.3-17.1h5l-8.2,21.2H178.7z"/>
	<path class="st8" d="M193.5,160v-21.2h4.7V160H193.5z M197.1,142.9v-4.1h11.5v4.1H197.1z M197.1,151.2v-4h10.6v4H197.1z M197.1,160
		v-4.1h11.6v4.1H197.1z"/>
	<path class="st8" d="M211.9,160v-21.2h4.7V160H211.9z M215.5,151.3v-3.5h4.5c0.9,0,1.6-0.2,2.2-0.7c0.5-0.5,0.8-1.1,0.8-1.9
		c0-0.8-0.3-1.4-0.8-1.9c-0.5-0.5-1.2-0.8-2.1-0.8h-4.5v-3.7h5c1.4,0,2.7,0.3,3.7,0.8c1.1,0.5,1.9,1.3,2.5,2.2s0.9,2,0.9,3.2
		c0,1.3-0.3,2.4-0.9,3.3c-0.6,0.9-1.4,1.7-2.5,2.2c-1.1,0.5-2.3,0.8-3.8,0.8H215.5z M223.4,160l-6.6-9.1l4.3-1.2L229,160H223.4z"/>
</g>
</svg>
