<svg width="196" height="226" viewBox="0 0 196 226" fill="none" xmlns="http://www.w3.org/2000/svg">
<g clip-path="url(#clip0_5812_2334)">
<path d="M75.35 109.148L98.45 85.8977L121.7 108.998C125 112.598 135.65 102.098 132.05 98.7977L108.95 75.6977L132.05 52.4476C135.65 48.9976 125 38.4976 121.7 42.0976L98.45 65.3476L75.2 42.0976C71.9 38.4976 61.4 48.9976 65 52.2976L88.25 75.5477L65 98.7977C61.4 102.098 71.9 112.598 75.35 109.148ZM66.95 225.848L40.4 194.798L0.5 190.448L32.45 135.998C48.65 153.248 72.05 165.848 98 165.848L66.95 225.848ZM129.05 225.848L98 165.848C123.65 165.848 147.05 153.248 163.25 136.298L195.5 199.298L155.6 194.798L129.05 225.848ZM98 150.848C56.6 150.848 23 117.398 23 75.9977C23 34.5976 55.85 0.847647 98 0.847647C140.15 0.847647 173 34.5976 173 75.9977C173 117.398 139.4 150.848 98 150.848Z" fill="#FFD556"/>
</g>
<defs>
<clipPath id="clip0_5812_2334">
<rect width="195" height="225" fill="white" transform="translate(0.5 0.847656)"/>
</clipPath>
</defs>
</svg>
