<svg width="192" height="284" viewBox="0 0 192 284" fill="none" xmlns="http://www.w3.org/2000/svg">
<g clip-path="url(#clip0_5812_2338)">
<g clip-path="url(#clip1_5812_2338)">
<path d="M72.75 137.148L96 122.598L117.75 137.148C119.1 138.048 120 137.298 119.7 135.798L113.85 109.548L134.1 93.6476C135.45 92.7476 135.15 91.5476 133.5 91.3976L107.4 88.5476L97.2 63.7976C96.6 62.2976 95.4 62.2976 94.8 63.7976L84.6 88.5476L58.5 91.3976C56.85 91.5476 56.55 92.7476 57.9 93.6476L78.15 109.548L70.95 135.648C70.5 137.298 71.4 138.048 72.75 137.148ZM64.95 253.848L38.4 222.798L-1.5 218.448L30.45 163.998C46.65 181.248 70.05 193.848 96 193.848L64.95 253.848ZM127.05 253.848L96 193.848C121.65 193.848 145.05 181.248 161.25 164.298L193.5 227.298L153.6 222.798L127.05 253.848ZM96 178.848C54.6 178.848 21 145.398 21 103.998C21 62.5976 53.85 28.8476 96 28.8476C138.15 28.8476 171 62.5976 171 103.998C171 145.398 137.4 178.848 96 178.848Z" fill="#DF3E3E"/>
</g>
</g>
<defs>
<clipPath id="clip0_5812_2338">
<rect width="192" height="284" fill="white"/>
</clipPath>
<clipPath id="clip1_5812_2338">
<rect width="195" height="225" fill="white" transform="translate(-1.5 28.8477)"/>
</clipPath>
</defs>
</svg>
