<?xml version="1.0" encoding="utf-8"?>
<!-- Generator: Adobe Illustrator 26.4.1, SVG Export Plug-In . SVG Version: 6.00 Build 0)  -->
<svg version="1.1" id="Layer_1" xmlns="http://www.w3.org/2000/svg" xmlns:xlink="http://www.w3.org/1999/xlink" x="0px" y="0px"
	 viewBox="0 0 500 450" style="enable-background:new 0 0 500 450;" xml:space="preserve">
<style type="text/css">
	.st0{fill:#CCCCCC;}
	.st1{fill:#FFFFFF;}
</style>
<g>
	<g>
		<path class="st0" d="M115.6,163.5v-24.7h5.5v24.7H115.6z M119.8,153.4v-4.1h5.2c1.1,0,1.9-0.3,2.5-0.8c0.6-0.5,0.9-1.3,0.9-2.2
			s-0.3-1.6-0.9-2.2c-0.6-0.6-1.4-0.9-2.5-0.9h-5.2v-4.3h5.9c1.7,0,3.1,0.3,4.3,0.9c1.2,0.6,2.2,1.5,2.9,2.6s1,2.3,1,3.7
			c0,1.5-0.4,2.8-1.1,3.9c-0.7,1.1-1.7,1.9-2.9,2.5c-1.3,0.6-2.7,0.9-4.4,0.9L119.8,153.4L119.8,153.4z M129,163.5l-7.7-10.6
			l5.1-1.4l9.2,12H129z"/>
		<path class="st0" d="M145.4,163.9c-1.8,0-3.5-0.4-4.9-1.1c-1.4-0.8-2.5-1.8-3.4-3.2c-0.8-1.4-1.2-2.9-1.2-4.6
			c0-1.7,0.4-3.2,1.2-4.5s1.9-2.4,3.3-3.2c1.4-0.8,2.9-1.2,4.7-1.2c1.7,0,3.2,0.4,4.5,1.1c1.3,0.7,2.3,1.7,3,3s1.1,2.8,1.1,4.4
			c0,0.3,0,0.7-0.1,1c0,0.3-0.1,0.7-0.2,1.1l-14.6,0.1v-3.7l12.3-0.1l-2.3,1.6c0-1-0.2-1.8-0.5-2.4c-0.3-0.6-0.7-1.1-1.2-1.5
			s-1.2-0.5-2-0.5s-1.6,0.2-2.2,0.6c-0.6,0.4-1.1,0.9-1.4,1.6c-0.3,0.7-0.5,1.5-0.5,2.5s0.2,1.8,0.5,2.6c0.4,0.7,0.9,1.3,1.5,1.7
			c0.7,0.4,1.5,0.6,2.4,0.6c0.8,0,1.6-0.1,2.2-0.4c0.7-0.3,1.3-0.7,1.8-1.3l3,2.9c-0.8,1-1.9,1.7-3,2.2S146.8,163.9,145.4,163.9z"/>
		<path class="st0" d="M163.4,163.9c-1.6,0-3.1-0.4-4.3-1.2s-2.2-1.8-2.9-3.1s-1.1-2.8-1.1-4.5s0.4-3.2,1.1-4.6
			c0.7-1.3,1.7-2.4,2.9-3.1c1.3-0.8,2.7-1.2,4.3-1.2c1.1,0,2.2,0.2,3.2,0.6c1,0.4,1.7,1,2.3,1.8s1,1.7,1.1,2.7v7.2
			c-0.1,1-0.4,1.9-1.1,2.7c-0.6,0.8-1.4,1.4-2.3,1.9C165.6,163.7,164.6,163.9,163.4,163.9z M164.4,159c0.8,0,1.4-0.2,2-0.5
			s1-0.8,1.3-1.4c0.3-0.6,0.5-1.3,0.5-2.1s-0.2-1.5-0.5-2c-0.3-0.6-0.8-1.1-1.3-1.4c-0.6-0.3-1.2-0.5-2-0.5c-0.7,0-1.4,0.2-2,0.5
			c-0.6,0.4-1,0.8-1.3,1.4c-0.3,0.6-0.5,1.3-0.5,2s0.2,1.5,0.5,2.1s0.8,1.1,1.3,1.4C163,158.9,163.6,159,164.4,159z M173.2,163.5
			h-5.3V159l0.8-4.2l-0.9-4.1v-12.6h5.4V163.5z"/>
	</g>
</g>
<g>
	<g>
		<path class="st0" d="M107.8,252.9v-24.7h5.5v24.7H107.8z M112,252.9v-4.3h5.8c1,0,1.9-0.3,2.5-0.9c0.6-0.6,0.9-1.4,0.9-2.3
			c0-0.6-0.1-1.2-0.4-1.6c-0.3-0.5-0.7-0.9-1.2-1.2s-1.1-0.4-1.8-0.4H112V238h5.4c0.9,0,1.6-0.2,2.2-0.7c0.6-0.4,0.8-1.1,0.8-2.1
			c0-0.9-0.3-1.6-0.8-2s-1.3-0.7-2.2-0.7H112v-4.3h6.4c1.6,0,2.9,0.3,4.1,0.9s2,1.4,2.5,2.3c0.6,1,0.9,2.1,0.9,3.2
			c0,1.6-0.5,2.9-1.5,3.9s-2.4,1.8-4.3,2.2l0.1-1.9c2.1,0.4,3.7,1.2,4.8,2.4c1.1,1.2,1.7,2.7,1.7,4.5c0,1.4-0.3,2.6-1,3.6
			c-0.7,1.1-1.6,1.9-2.9,2.6c-1.2,0.6-2.7,1-4.5,1H112z"/>
		<path class="st0" d="M129.7,252.9v-25.4h5.4v25.4H129.7z"/>
		<path class="st0" d="M146.5,253.2c-1.5,0-2.9-0.3-4.1-1c-1.2-0.7-2.2-1.5-2.9-2.7c-0.7-1.1-1-2.4-1-3.9v-9.8h5.4v9.8
			c0,0.6,0.1,1.1,0.3,1.5s0.5,0.8,0.9,1s0.9,0.4,1.4,0.4c0.8,0,1.4-0.3,1.9-0.8s0.7-1.2,0.7-2.1v-9.8h5.4v9.8c0,1.5-0.3,2.8-1,3.9
			s-1.6,2-2.8,2.7C149.5,252.9,148.1,253.2,146.5,253.2z"/>
		<path class="st0" d="M166.2,253.2c-1.8,0-3.5-0.4-4.9-1.1c-1.4-0.8-2.5-1.8-3.4-3.2c-0.8-1.4-1.2-2.9-1.2-4.6
			c0-1.7,0.4-3.2,1.2-4.5s1.9-2.4,3.3-3.2c1.4-0.8,2.9-1.2,4.7-1.2c1.7,0,3.2,0.4,4.5,1.1c1.3,0.7,2.3,1.7,3,3s1.1,2.8,1.1,4.4
			c0,0.3,0,0.7-0.1,1c0,0.3-0.1,0.7-0.2,1.1l-14.6,0.1v-3.7l12.3-0.1l-2.3,1.6c0-1-0.2-1.8-0.5-2.4c-0.3-0.6-0.7-1.1-1.2-1.5
			c-0.5-0.3-1.2-0.5-2-0.5s-1.6,0.2-2.2,0.6c-0.6,0.4-1.1,0.9-1.4,1.6c-0.3,0.7-0.5,1.5-0.5,2.5s0.2,1.8,0.5,2.6
			c0.4,0.7,0.9,1.3,1.5,1.7c0.7,0.4,1.5,0.6,2.4,0.6c0.8,0,1.6-0.1,2.2-0.4c0.7-0.3,1.3-0.7,1.8-1.3l3,2.9c-0.8,1-1.9,1.7-3,2.2
			C168.9,253,167.6,253.2,166.2,253.2z"/>
	</g>
</g>
<g>
	<g>
		<path class="st0" d="M72.6,336.5v-24.7h5.5v24.7H72.6z M76.8,327.6v-4.3h5.3c0.7,0,1.3-0.1,1.8-0.4s1-0.7,1.3-1.2s0.5-1.2,0.5-1.9
			c0-0.8-0.2-1.4-0.5-2c-0.3-0.5-0.8-0.9-1.3-1.2s-1.2-0.4-1.8-0.4h-5.3v-4.3H83c1.6,0,3,0.3,4.3,0.9s2.3,1.5,3,2.7s1.1,2.6,1.1,4.2
			s-0.4,3-1.1,4.2s-1.7,2.1-3,2.7s-2.7,0.9-4.3,0.9L76.8,327.6L76.8,327.6z"/>
		<path class="st0" d="M101.7,336.9c-1.5,0-2.9-0.3-4.1-1s-2.2-1.5-2.9-2.7c-0.7-1.1-1-2.4-1-3.9v-9.8h5.4v9.8
			c0,0.6,0.1,1.1,0.3,1.5c0.2,0.4,0.5,0.8,0.9,1s0.9,0.3,1.4,0.3c0.8,0,1.4-0.3,1.9-0.8s0.7-1.2,0.7-2.1v-9.8h5.4v9.8
			c0,1.5-0.3,2.8-1,3.9s-1.6,2-2.8,2.7C104.7,336.6,103.3,336.9,101.7,336.9z"/>
		<path class="st0" d="M113,336.5v-17h5.4v17H113z M118.4,327.2l-2.2-1.8c0.4-2,1.2-3.6,2.3-4.7c1.1-1.1,2.5-1.6,4.4-1.6
			c0.8,0,1.5,0.1,2.2,0.4c0.6,0.2,1.2,0.6,1.6,1.1l-3.2,4.1c-0.2-0.2-0.5-0.4-0.8-0.6s-0.7-0.2-1.2-0.2c-0.9,0-1.6,0.3-2.2,0.8
			C118.6,325.3,118.4,326.1,118.4,327.2z"/>
		<path class="st0" d="M127.8,343.7v-24.2h5.4v4.3l-0.9,4.2l0.8,4.1v11.5h-5.3V343.7z M137.7,336.9c-1.2,0-2.2-0.2-3.2-0.7
			c-1-0.4-1.7-1.1-2.3-1.8c-0.6-0.8-0.9-1.7-1-2.7v-7.2c0.1-1,0.4-1.9,1-2.7c0.6-0.8,1.4-1.4,2.3-1.9c1-0.5,2-0.7,3.1-0.7
			c1.6,0,3,0.4,4.3,1.2c1.2,0.8,2.2,1.8,3,3.2c0.7,1.3,1.1,2.8,1.1,4.5s-0.4,3.2-1.1,4.5c-0.7,1.3-1.7,2.4-3,3.2
			C140.7,336.5,139.2,336.9,137.7,336.9z M136.6,332c0.7,0,1.4-0.2,2-0.5s1-0.8,1.4-1.4c0.3-0.6,0.5-1.3,0.5-2.1
			c0-0.8-0.2-1.5-0.5-2.1s-0.8-1.1-1.3-1.4c-0.6-0.3-1.2-0.5-2-0.5c-0.7,0-1.4,0.2-2,0.5s-1,0.8-1.3,1.4s-0.5,1.3-0.5,2.1
			c0,0.8,0.2,1.5,0.5,2.1s0.8,1.1,1.3,1.4C135.3,331.9,135.9,332,136.6,332z"/>
		<path class="st0" d="M148.6,336.5v-25.4h5.4v25.4H148.6z"/>
		<path class="st0" d="M166.2,336.9c-1.8,0-3.5-0.4-4.9-1.1c-1.4-0.8-2.5-1.8-3.4-3.2c-0.8-1.4-1.2-2.9-1.2-4.6s0.4-3.2,1.2-4.5
			s1.9-2.4,3.3-3.2c1.4-0.8,2.9-1.2,4.7-1.2c1.7,0,3.2,0.4,4.5,1.1s2.3,1.7,3,3s1.1,2.8,1.1,4.4c0,0.3,0,0.7-0.1,1
			c0,0.3-0.1,0.7-0.2,1.1l-14.6,0.1v-3.7l12.3-0.1l-2.3,1.6c0-1-0.2-1.8-0.5-2.4s-0.7-1.1-1.2-1.5s-1.2-0.5-2-0.5s-1.6,0.2-2.2,0.6
			c-0.6,0.4-1.1,0.9-1.4,1.6c-0.3,0.7-0.5,1.5-0.5,2.5s0.2,1.8,0.5,2.6c0.4,0.7,0.9,1.3,1.5,1.7s1.5,0.6,2.4,0.6
			c0.8,0,1.6-0.1,2.2-0.4c0.7-0.3,1.3-0.7,1.8-1.3l3,2.9c-0.8,1-1.9,1.7-3,2.2C168.9,336.7,167.6,336.9,166.2,336.9z"/>
	</g>
</g>
<g>
	<g>
		<path class="st0" d="M66.1,419.5c-1.9,0-3.6-0.3-5.2-1c-1.6-0.7-3-1.6-4.2-2.7s-2.1-2.5-2.8-4.1s-1-3.2-1-5s0.3-3.5,1-5
			s1.6-2.9,2.7-4c1.2-1.2,2.5-2.1,4.1-2.7s3.3-1,5.2-1c1.8,0,3.6,0.3,5.1,1c1.6,0.6,3,1.5,4.1,2.7c1.2,1.2,2.1,2.5,2.7,4.1
			s1,3.2,1,5.1c0,1.8-0.3,3.5-1,5s-1.6,2.9-2.7,4.1c-1.2,1.2-2.5,2.1-4.1,2.7C69.7,419.2,68,419.5,66.1,419.5z M66,414.5
			c1.5,0,2.8-0.3,3.9-1s2-1.6,2.6-2.7c0.6-1.2,0.9-2.5,0.9-4.1c0-1.1-0.2-2.2-0.5-3.1c-0.4-0.9-0.9-1.8-1.5-2.5
			c-0.7-0.7-1.4-1.2-2.3-1.6s-1.9-0.5-3-0.5c-1.5,0-2.8,0.3-3.9,1c-1.1,0.6-2,1.5-2.6,2.7s-0.9,2.5-0.9,4c0,1.2,0.2,2.2,0.5,3.2
			c0.4,1,0.9,1.8,1.5,2.5c0.7,0.7,1.4,1.2,2.3,1.6C64,414.3,65,414.5,66,414.5z"/>
		<path class="st0" d="M82,419.1v-17h5.4v17H82z M87.4,409.8l-2.2-1.8c0.4-2,1.2-3.6,2.3-4.7c1.1-1.1,2.5-1.6,4.4-1.6
			c0.8,0,1.5,0.1,2.2,0.4c0.6,0.2,1.2,0.6,1.6,1.1l-3.2,4.1c-0.2-0.2-0.5-0.4-0.8-0.6c-0.4-0.1-0.7-0.2-1.2-0.2
			c-0.9,0-1.6,0.3-2.2,0.8C87.7,407.9,87.4,408.7,87.4,409.8z"/>
		<path class="st0" d="M103.6,419.4c-1.5,0-2.9-0.4-4.2-1.2c-1.2-0.8-2.2-1.8-2.9-3.2c-0.7-1.3-1.1-2.8-1.1-4.5s0.4-3.2,1.1-4.6
			c0.7-1.3,1.7-2.4,2.9-3.2c1.2-0.8,2.6-1.1,4.2-1.1c1.1,0,2.2,0.2,3.1,0.7c0.9,0.4,1.7,1.1,2.3,1.8c0.6,0.8,0.9,1.7,1,2.7v7.3
			c-0.1,1-0.4,1.9-1,2.7c-0.6,0.8-1.3,1.4-2.2,1.8C105.8,419.2,104.8,419.4,103.6,419.4z M104.7,414.6c1.1,0,2.1-0.4,2.7-1.1
			c0.7-0.7,1-1.7,1-2.9c0-0.8-0.2-1.5-0.5-2c-0.3-0.6-0.7-1.1-1.3-1.4c-0.6-0.3-1.2-0.5-2-0.5c-0.7,0-1.4,0.2-1.9,0.5
			c-0.6,0.3-1,0.8-1.4,1.4c-0.3,0.6-0.5,1.3-0.5,2.1s0.2,1.5,0.5,2.1s0.8,1.1,1.4,1.4C103.4,414.4,104,414.6,104.7,414.6z
			 M108.3,419.1v-4.6l0.8-4.2l-0.8-4.1V402h5.3v17h-5.3V419.1z"/>
		<path class="st0" d="M117.3,419.1v-17h5.4v17H117.3z M128.6,419.1v-9.7c0-0.9-0.3-1.6-0.8-2.1c-0.6-0.5-1.3-0.8-2.1-0.8
			c-0.6,0-1.1,0.1-1.5,0.4c-0.4,0.2-0.8,0.6-1.1,1s-0.4,1-0.4,1.5l-2.1-1c0-1.3,0.3-2.5,0.9-3.5s1.4-1.8,2.5-2.3
			c1-0.5,2.2-0.8,3.5-0.8c1.2,0,2.3,0.3,3.3,0.9s1.8,1.4,2.3,2.4c0.6,1,0.8,2.1,0.8,3.2v10.9h-5.3V419.1z"/>
		<path class="st0" d="M144.3,418.6c-1.6,0-3-0.4-4.2-1.1s-2.2-1.8-2.9-3c-0.7-1.3-1.1-2.7-1.1-4.3c0-1.6,0.4-3,1.1-4.3
			c0.7-1.3,1.7-2.3,2.9-3s2.6-1.1,4.1-1.1c1.2,0,2.2,0.2,3.1,0.6c0.9,0.4,1.7,1,2.2,1.8c0.6,0.8,0.9,1.7,1,2.7v6.5
			c-0.1,1-0.4,1.9-1,2.7s-1.3,1.4-2.2,1.8C146.5,418.3,145.5,418.6,144.3,418.6z M144.6,426.7c-1.8,0-3.5-0.3-4.9-1
			c-1.4-0.6-2.5-1.5-3.3-2.7l3.3-3.3c0.6,0.7,1.3,1.3,2,1.6c0.8,0.4,1.7,0.6,2.7,0.6c1.3,0,2.4-0.3,3.1-1c0.8-0.7,1.1-1.6,1.1-2.8
			v-4.3l0.9-3.7l-0.8-3.7V402h5.3v16c0,1.8-0.4,3.3-1.2,4.6c-0.8,1.3-1.9,2.3-3.4,3C148,426.4,146.4,426.7,144.6,426.7z
			 M145.3,413.8c0.7,0,1.4-0.2,1.9-0.5s1-0.8,1.3-1.3s0.4-1.2,0.4-1.9c0-0.7-0.1-1.3-0.4-1.8c-0.3-0.6-0.7-1-1.2-1.3
			s-1.2-0.5-1.9-0.5s-1.4,0.2-1.9,0.5c-0.6,0.3-1,0.8-1.3,1.3c-0.3,0.6-0.5,1.2-0.5,1.9c0,0.7,0.2,1.3,0.5,1.8
			c0.3,0.6,0.7,1,1.3,1.3C144,413.6,144.6,413.8,145.3,413.8z"/>
		<path class="st0" d="M166.2,419.5c-1.8,0-3.5-0.4-4.9-1.1c-1.4-0.8-2.5-1.8-3.4-3.2c-0.8-1.4-1.2-2.9-1.2-4.6s0.4-3.2,1.2-4.5
			s1.9-2.4,3.3-3.2c1.4-0.8,2.9-1.2,4.7-1.2c1.7,0,3.2,0.4,4.5,1.1s2.3,1.7,3,3s1.1,2.8,1.1,4.4c0,0.3,0,0.7-0.1,1
			c0,0.3-0.1,0.7-0.2,1.1l-14.6,0.1v-3.7l12.3-0.1l-2.3,1.6c0-1-0.2-1.8-0.5-2.4s-0.7-1.1-1.2-1.5c-0.5-0.3-1.2-0.5-2-0.5
			s-1.6,0.2-2.2,0.6c-0.6,0.4-1.1,0.9-1.4,1.6c-0.3,0.7-0.5,1.5-0.5,2.5s0.2,1.8,0.5,2.6c0.4,0.7,0.9,1.3,1.5,1.7s1.5,0.6,2.4,0.6
			c0.8,0,1.6-0.1,2.2-0.4c0.7-0.3,1.3-0.7,1.8-1.3l3,2.9c-0.8,1-1.9,1.7-3,2.2C168.9,419.2,167.6,419.5,166.2,419.5z"/>
	</g>
</g>
<g>
	<path class="st1" d="M79.3,39.3V11.5h3.8v27.8H79.3z M81.8,39.3v-3.4h7.7c2,0,3.8-0.4,5.4-1.3s2.8-2.1,3.6-3.7
		c0.9-1.6,1.3-3.4,1.3-5.4s-0.4-3.8-1.3-5.4s-2.1-2.8-3.6-3.7c-1.5-0.9-3.3-1.3-5.4-1.3h-7.7v-3.4h7.8c2,0,3.9,0.3,5.6,1
		s3.2,1.7,4.5,2.9c1.3,1.3,2.3,2.7,3,4.4c0.7,1.7,1.1,3.5,1.1,5.5s-0.4,3.8-1.1,5.5s-1.7,3.2-2.9,4.4c-1.3,1.3-2.7,2.2-4.5,2.9
		c-1.7,0.7-3.6,1-5.6,1H81.8z"/>
	<path class="st1" d="M108.3,39.3v-19h3.6v19H108.3z M111.9,28.5l-1.4-0.6c0-2.4,0.6-4.4,1.7-5.8c1.1-1.4,2.7-2.2,4.8-2.2
		c1,0,1.8,0.2,2.6,0.5c0.8,0.3,1.5,0.9,2.2,1.7l-2.4,2.4c-0.4-0.4-0.8-0.7-1.3-0.9c-0.5-0.2-1-0.3-1.7-0.3c-1.3,0-2.4,0.4-3.3,1.3
		C112.3,25.4,111.9,26.7,111.9,28.5z"/>
	<path class="st1" d="M131.8,39.7c-1.8,0-3.3-0.4-4.7-1.3c-1.4-0.9-2.5-2-3.3-3.5s-1.2-3.2-1.2-5c0-1.9,0.4-3.5,1.2-5
		c0.8-1.5,1.9-2.7,3.3-3.6c1.4-0.9,3-1.3,4.7-1.3c1.4,0,2.7,0.3,3.9,0.9c1.1,0.6,2,1.4,2.7,2.5s1.1,2.3,1.2,3.7v5.7
		c-0.1,1.4-0.5,2.6-1.1,3.6c-0.7,1.1-1.6,1.9-2.7,2.5C134.5,39.4,133.2,39.7,131.8,39.7z M132.4,36.3c1.8,0,3.2-0.6,4.3-1.8
		s1.6-2.8,1.6-4.7c0-1.3-0.3-2.4-0.8-3.4s-1.2-1.8-2.1-2.3c-0.9-0.5-1.9-0.8-3.1-0.8c-1.2,0-2.3,0.3-3.2,0.8s-1.6,1.3-2.2,2.3
		c-0.5,1-0.8,2.1-0.8,3.3c0,1.3,0.3,2.4,0.8,3.4s1.2,1.7,2.2,2.3C130.1,36,131.2,36.3,132.4,36.3z M138.1,39.3v-5.1l0.7-4.6
		l-0.7-4.6v-4.6h3.6v19h-3.6V39.3z"/>
	<path class="st1" d="M154.9,38.9c-1.7,0-3.3-0.4-4.7-1.2s-2.5-2-3.3-3.4c-0.8-1.5-1.2-3.1-1.2-4.9s0.4-3.4,1.2-4.9
		c0.8-1.4,1.9-2.6,3.3-3.4c1.4-0.8,2.9-1.3,4.6-1.3c1.5,0,2.8,0.3,4,0.9s2.1,1.4,2.7,2.5c0.7,1.1,1,2.3,1.1,3.7v5
		c-0.1,1.4-0.5,2.6-1.1,3.7c-0.7,1.1-1.6,1.9-2.7,2.5C157.7,38.6,156.3,38.9,154.9,38.9z M154.9,47.6c-2,0-3.7-0.4-5.2-1.1
		c-1.5-0.7-2.7-1.7-3.6-3l2.4-2.4c0.8,1,1.7,1.7,2.8,2.3c1.1,0.5,2.3,0.8,3.8,0.8c1.9,0,3.5-0.5,4.6-1.5s1.7-2.4,1.7-4.1v-4.7
		l0.6-4.3l-0.6-4.2v-5h3.6v18.2c0,1.8-0.4,3.4-1.3,4.8c-0.8,1.4-2,2.4-3.5,3.2C158.6,47.2,156.9,47.6,154.9,47.6z M155.6,35.5
		c1.2,0,2.2-0.3,3.1-0.8c0.9-0.5,1.6-1.2,2.1-2.1c0.5-0.9,0.7-2,0.7-3.2s-0.2-2.3-0.7-3.2c-0.5-0.9-1.2-1.6-2.1-2.2
		s-1.9-0.8-3.1-0.8c-1.2,0-2.3,0.3-3.2,0.8s-1.6,1.2-2.1,2.2s-0.8,2-0.8,3.2s0.3,2.3,0.8,3.2s1.2,1.7,2.2,2.2S154.4,35.5,155.6,35.5
		z"/>
	<path class="st1" d="M178,38.9c-1.7,0-3.3-0.4-4.7-1.2s-2.5-2-3.3-3.4c-0.8-1.5-1.2-3.1-1.2-4.9s0.4-3.4,1.2-4.9
		c0.8-1.4,1.9-2.6,3.3-3.4c1.4-0.8,2.9-1.3,4.6-1.3c1.5,0,2.8,0.3,4,0.9s2.1,1.4,2.7,2.5c0.7,1.1,1,2.3,1.1,3.7v5
		c-0.1,1.4-0.5,2.6-1.1,3.7c-0.7,1.1-1.6,1.9-2.7,2.5C180.8,38.6,179.5,38.9,178,38.9z M178,47.6c-2,0-3.7-0.4-5.2-1.1
		c-1.5-0.7-2.7-1.7-3.6-3l2.4-2.4c0.8,1,1.7,1.7,2.8,2.3c1.1,0.5,2.3,0.8,3.8,0.8c1.9,0,3.5-0.5,4.6-1.5s1.7-2.4,1.7-4.1v-4.7
		l0.6-4.3l-0.6-4.2v-5h3.6v18.2c0,1.8-0.4,3.4-1.3,4.8c-0.8,1.4-2,2.4-3.5,3.2C181.7,47.2,180,47.6,178,47.6z M178.7,35.5
		c1.2,0,2.2-0.3,3.1-0.8c0.9-0.5,1.6-1.2,2.1-2.1c0.5-0.9,0.7-2,0.7-3.2s-0.2-2.3-0.7-3.2c-0.5-0.9-1.2-1.6-2.1-2.2
		s-1.9-0.8-3.1-0.8c-1.2,0-2.3,0.3-3.2,0.8s-1.6,1.2-2.1,2.2s-0.8,2-0.8,3.2s0.3,2.3,0.8,3.2s1.2,1.7,2.2,2.2S177.5,35.5,178.7,35.5
		z"/>
	<path class="st1" d="M195.1,16.5c-0.7,0-1.2-0.2-1.6-0.7c-0.4-0.4-0.6-1-0.6-1.7c0-0.6,0.2-1.2,0.6-1.6c0.4-0.4,1-0.7,1.6-0.7
		c0.7,0,1.2,0.2,1.6,0.7c0.4,0.4,0.6,1,0.6,1.6c0,0.7-0.2,1.2-0.6,1.7C196.3,16.2,195.7,16.5,195.1,16.5z M193.2,39.3v-19h3.6v19
		H193.2z"/>
	<path class="st1" d="M202.2,39.3v-19h3.6v19H202.2z M215.6,39.3V28.2c0-1.4-0.4-2.6-1.3-3.6c-0.9-0.9-2.1-1.4-3.5-1.4
		c-1,0-1.8,0.2-2.6,0.6c-0.7,0.4-1.3,1-1.8,1.8c-0.4,0.7-0.6,1.6-0.6,2.6l-1.5-0.8c0-1.4,0.3-2.7,1-3.8c0.6-1.1,1.5-2,2.7-2.7
		c1.1-0.7,2.4-1,3.9-1c1.4,0,2.7,0.4,3.8,1.1s2,1.7,2.6,2.8c0.6,1.2,1,2.4,1,3.7v11.8C219.3,39.3,215.6,39.3,215.6,39.3z"/>
	<path class="st1" d="M232,38.9c-1.7,0-3.3-0.4-4.7-1.2s-2.5-2-3.3-3.4c-0.8-1.5-1.2-3.1-1.2-4.9s0.4-3.4,1.2-4.9
		c0.8-1.4,1.9-2.6,3.3-3.4c1.4-0.8,2.9-1.3,4.6-1.3c1.5,0,2.8,0.3,4,0.9s2.1,1.4,2.7,2.5c0.7,1.1,1,2.3,1.1,3.7v5
		c-0.1,1.4-0.5,2.6-1.1,3.7c-0.7,1.1-1.6,1.9-2.7,2.5C234.8,38.6,233.5,38.9,232,38.9z M232,47.6c-2,0-3.7-0.4-5.2-1.1
		c-1.5-0.7-2.7-1.7-3.6-3l2.4-2.4c0.8,1,1.7,1.7,2.8,2.3c1.1,0.5,2.3,0.8,3.8,0.8c1.9,0,3.5-0.5,4.6-1.5s1.7-2.4,1.7-4.1v-4.7
		l0.6-4.3l-0.6-4.2v-5h3.6v18.2c0,1.8-0.4,3.4-1.3,4.8c-0.8,1.4-2,2.4-3.5,3.2C235.7,47.2,234,47.6,232,47.6z M232.7,35.5
		c1.2,0,2.2-0.3,3.1-0.8c0.9-0.5,1.6-1.2,2.1-2.1c0.5-0.9,0.7-2,0.7-3.2s-0.2-2.3-0.7-3.2c-0.5-0.9-1.2-1.6-2.1-2.2
		s-1.9-0.8-3.1-0.8c-1.2,0-2.3,0.3-3.2,0.8s-1.6,1.2-2.1,2.2s-0.8,2-0.8,3.2s0.3,2.3,0.8,3.2s1.2,1.7,2.2,2.2S231.5,35.5,232.7,35.5
		z"/>
	<path class="st1" d="M253.8,23.5v-3.3h13v3.3H253.8z M258.4,39.3v-27h3.6v27H258.4z"/>
	<path class="st1" d="M270.2,39.3V10.7h3.6v28.6H270.2z M283.6,39.3V28.2c0-1.4-0.4-2.6-1.3-3.6c-0.9-0.9-2.1-1.4-3.5-1.4
		c-1,0-1.8,0.2-2.6,0.6c-0.7,0.4-1.3,1-1.8,1.8c-0.4,0.7-0.6,1.6-0.6,2.6l-1.5-0.8c0-1.4,0.3-2.7,1-3.8c0.6-1.1,1.5-2,2.7-2.7
		c1.1-0.7,2.4-1,3.9-1s2.7,0.3,3.8,1c1.1,0.6,2,1.5,2.6,2.7c0.6,1.1,1,2.5,1,4v11.8h-3.7V39.3z"/>
	<path class="st1" d="M301,39.7c-1.9,0-3.6-0.4-5.1-1.3c-1.5-0.9-2.7-2-3.6-3.5s-1.3-3.2-1.3-5.1s0.4-3.5,1.3-5s2-2.7,3.5-3.5
		c1.5-0.9,3.1-1.3,5-1.3c1.7,0,3.3,0.4,4.6,1.2c1.4,0.8,2.4,1.9,3.2,3.3c0.8,1.4,1.1,3,1.1,4.8c0,0.3,0,0.6,0,0.9s-0.1,0.6-0.2,1
		h-16v-3h14.1l-1.3,1.2c0-1.3-0.2-2.4-0.7-3.3s-1.1-1.6-1.9-2.1s-1.8-0.7-3-0.7s-2.3,0.3-3.2,0.8c-0.9,0.5-1.7,1.3-2.2,2.2
		c-0.5,1-0.8,2.1-0.8,3.4s0.3,2.5,0.8,3.5s1.3,1.8,2.3,2.3s2.1,0.8,3.4,0.8c1.1,0,2-0.2,2.9-0.6c0.9-0.4,1.7-0.9,2.3-1.7l2.3,2.4
		c-0.9,1.1-2.1,1.9-3.4,2.4S302.5,39.7,301,39.7z"/>
	<path class="st1" d="M321.9,39.3V10.7h3.6v28.6H321.9z"/>
	<path class="st1" d="M338.8,39.7c-1.8,0-3.3-0.4-4.7-1.3c-1.4-0.9-2.5-2-3.3-3.5s-1.2-3.2-1.2-5c0-1.9,0.4-3.5,1.2-5
		c0.8-1.5,1.9-2.7,3.3-3.6s3-1.3,4.7-1.3c1.4,0,2.7,0.3,3.9,0.9c1.1,0.6,2,1.4,2.7,2.5s1.1,2.3,1.2,3.7v5.7
		c-0.1,1.4-0.5,2.6-1.1,3.6c-0.7,1.1-1.6,1.9-2.7,2.5S340.3,39.7,338.8,39.7z M339.4,36.3c1.8,0,3.2-0.6,4.3-1.8
		c1.1-1.2,1.6-2.8,1.6-4.7c0-1.3-0.3-2.4-0.8-3.4s-1.2-1.8-2.1-2.3s-1.9-0.8-3.1-0.8s-2.3,0.3-3.2,0.8s-1.6,1.3-2.2,2.3
		c-0.5,1-0.8,2.1-0.8,3.3c0,1.3,0.3,2.4,0.8,3.4s1.2,1.7,2.2,2.3C337.2,36,338.2,36.3,339.4,36.3z M345.2,39.3v-5.1l0.7-4.6
		l-0.7-4.6v-4.6h3.6v19h-3.6V39.3z"/>
	<path class="st1" d="M354,39.3V10.7h3.6v14.2l-0.7,4.6l0.7,4.6v5.1H354V39.3z M364,39.7c-1.4,0-2.7-0.3-3.9-0.9
		c-1.2-0.6-2.1-1.4-2.8-2.5c-0.7-1.1-1.1-2.3-1.2-3.6V27c0.1-1.4,0.5-2.6,1.2-3.7s1.6-1.9,2.8-2.5c1.2-0.6,2.4-0.9,3.9-0.9
		c1.7,0,3.3,0.4,4.7,1.3s2.5,2.1,3.3,3.6s1.2,3.2,1.2,5c0,1.9-0.4,3.5-1.2,5c-0.8,1.5-1.9,2.7-3.3,3.5
		C367.3,39.2,365.8,39.7,364,39.7z M363.4,36.3c1.2,0,2.3-0.3,3.2-0.8c0.9-0.6,1.6-1.3,2.1-2.3s0.8-2.1,0.8-3.4s-0.3-2.4-0.8-3.3
		c-0.5-1-1.2-1.7-2.1-2.3c-0.9-0.6-2-0.8-3.2-0.8s-2.2,0.3-3.1,0.8c-0.9,0.6-1.6,1.3-2.1,2.3s-0.8,2.1-0.8,3.4s0.2,2.4,0.7,3.3
		c0.5,1,1.2,1.7,2.1,2.3S362.3,36.3,363.4,36.3z"/>
	<path class="st1" d="M386.1,39.7c-1.9,0-3.6-0.4-5.1-1.3c-1.5-0.9-2.7-2-3.6-3.5s-1.3-3.2-1.3-5.1s0.4-3.5,1.3-5s2-2.7,3.5-3.5
		c1.5-0.9,3.1-1.3,5-1.3c1.7,0,3.3,0.4,4.6,1.2c1.4,0.8,2.4,1.9,3.2,3.3c0.8,1.4,1.1,3,1.1,4.8c0,0.3,0,0.6,0,0.9s-0.1,0.6-0.2,1
		h-16v-3h14.1l-1.3,1.2c0-1.3-0.2-2.4-0.7-3.3s-1.1-1.6-1.9-2.1s-1.8-0.7-3-0.7s-2.3,0.3-3.2,0.8c-0.9,0.5-1.7,1.3-2.2,2.2
		c-0.5,1-0.8,2.1-0.8,3.4s0.3,2.5,0.8,3.5s1.3,1.8,2.3,2.3s2.1,0.8,3.4,0.8c1.1,0,2-0.2,2.9-0.6c0.9-0.4,1.7-0.9,2.3-1.7l2.3,2.4
		c-0.9,1.1-2.1,1.9-3.4,2.4S387.6,39.7,386.1,39.7z"/>
	<path class="st1" d="M398.8,39.3V10.7h3.6v28.6H398.8z"/>
	<path class="st1" d="M413.7,39.7c-1.1,0-2.1-0.1-3-0.4c-1-0.3-1.8-0.7-2.6-1.2s-1.5-1.1-2.1-1.9l2.3-2.3c0.7,0.9,1.5,1.5,2.4,1.9
		s1.9,0.6,3,0.6s2-0.2,2.6-0.6c0.6-0.4,0.9-0.9,0.9-1.6c0-0.7-0.2-1.2-0.7-1.6c-0.5-0.4-1.1-0.7-1.9-1s-1.6-0.5-2.5-0.7
		s-1.7-0.6-2.5-1s-1.4-1-1.9-1.7s-0.7-1.6-0.7-2.8s0.3-2.1,0.8-3c0.5-0.8,1.3-1.5,2.3-1.9c1-0.5,2.2-0.7,3.6-0.7
		c1.5,0,2.8,0.3,4,0.8s2.1,1.3,2.9,2.3l-2.3,2.3c-0.6-0.7-1.2-1.2-2-1.6s-1.7-0.6-2.6-0.6c-1,0-1.8,0.2-2.4,0.6
		c-0.5,0.4-0.8,0.9-0.8,1.5s0.2,1.1,0.7,1.5c0.5,0.3,1.1,0.6,1.9,0.9c0.8,0.2,1.6,0.5,2.5,0.7c0.9,0.3,1.7,0.6,2.4,1
		c0.8,0.4,1.4,1,1.9,1.7s0.7,1.7,0.7,2.8c0,1.8-0.6,3.2-1.9,4.2C417.5,39.1,415.8,39.7,413.7,39.7z"/>
	<g>
		<path class="st1" d="M164.2,64.5c-0.7,0-1.2-0.2-1.6-0.7c-0.4-0.4-0.6-1-0.6-1.7c0-0.6,0.2-1.2,0.6-1.6c0.4-0.4,1-0.7,1.6-0.7
			c0.7,0,1.2,0.2,1.6,0.7c0.4,0.4,0.6,1,0.6,1.6c0,0.7-0.2,1.2-0.6,1.7C165.4,64.2,164.8,64.5,164.2,64.5z M162.3,87.3v-19h3.6v19
			H162.3z"/>
		<path class="st1" d="M171.3,87.3v-19h3.6v19H171.3z M184.7,87.3V76.2c0-1.4-0.4-2.6-1.3-3.6c-0.9-0.9-2.1-1.4-3.5-1.4
			c-1,0-1.8,0.2-2.6,0.6c-0.7,0.4-1.3,1-1.8,1.8c-0.4,0.7-0.6,1.6-0.6,2.6l-1.5-0.8c0-1.4,0.3-2.7,1-3.8c0.6-1.1,1.5-2,2.7-2.7
			c1.1-0.7,2.4-1,3.9-1c1.4,0,2.7,0.4,3.8,1.1s2,1.7,2.6,2.8c0.6,1.2,1,2.4,1,3.7v11.8C188.4,87.3,184.7,87.3,184.7,87.3z"/>
		<path class="st1" d="M191.4,71.5v-3.3h13v3.3H191.4z M196.1,87.3v-27h3.6v27H196.1z"/>
		<path class="st1" d="M216.6,87.7c-1.8,0-3.5-0.4-5-1.3s-2.7-2.1-3.6-3.6c-0.9-1.5-1.3-3.2-1.3-5.1c0-1.8,0.4-3.5,1.3-5
			c0.9-1.5,2.1-2.7,3.6-3.5c1.5-0.9,3.2-1.3,5-1.3c1.9,0,3.6,0.4,5.1,1.3s2.7,2,3.6,3.5c0.9,1.5,1.3,3.2,1.3,5
			c0,1.9-0.4,3.6-1.3,5.1c-0.9,1.5-2.1,2.7-3.6,3.6C220.1,87.2,218.4,87.7,216.6,87.7z M216.6,84.2c1.2,0,2.3-0.3,3.2-0.8
			c0.9-0.6,1.7-1.3,2.2-2.3s0.8-2.1,0.8-3.3c0-1.2-0.3-2.3-0.8-3.3s-1.3-1.7-2.2-2.3c-0.9-0.5-2-0.8-3.2-0.8s-2.2,0.3-3.2,0.8
			c-0.9,0.5-1.7,1.3-2.2,2.3s-0.8,2.1-0.8,3.3c0,1.3,0.3,2.4,0.8,3.3c0.5,1,1.3,1.7,2.2,2.3C214.3,83.9,215.4,84.2,216.6,84.2z"/>
		<path class="st1" d="M238.8,87.3V58.7h3.6v14.2l-0.7,4.6l0.7,4.6v5.1h-3.6V87.3z M248.8,87.7c-1.4,0-2.7-0.3-3.9-0.9
			s-2.1-1.4-2.8-2.5s-1.1-2.3-1.2-3.6V75c0.1-1.4,0.5-2.6,1.2-3.7s1.6-1.9,2.8-2.5s2.4-0.9,3.9-0.9c1.7,0,3.3,0.4,4.7,1.3
			s2.5,2.1,3.3,3.6s1.2,3.2,1.2,5c0,1.9-0.4,3.5-1.2,5c-0.8,1.5-1.9,2.7-3.3,3.5C252.1,87.2,250.5,87.7,248.8,87.7z M248.2,84.3
			c1.2,0,2.3-0.3,3.2-0.8c0.9-0.6,1.6-1.3,2.1-2.3s0.8-2.1,0.8-3.4s-0.3-2.4-0.8-3.3c-0.5-1-1.2-1.7-2.1-2.3c-0.9-0.6-2-0.8-3.2-0.8
			s-2.2,0.3-3.1,0.8c-0.9,0.6-1.6,1.3-2.1,2.3s-0.8,2.1-0.8,3.4s0.2,2.4,0.7,3.3c0.5,1,1.2,1.7,2.1,2.3S247,84.3,248.2,84.3z"/>
		<path class="st1" d="M270.7,87.7c-1.8,0-3.5-0.4-5-1.3s-2.7-2.1-3.6-3.6s-1.3-3.2-1.3-5.1c0-1.8,0.4-3.5,1.3-5s2.1-2.7,3.6-3.5
			c1.5-0.9,3.2-1.3,5-1.3c1.9,0,3.6,0.4,5.1,1.3s2.7,2,3.6,3.5s1.3,3.2,1.3,5c0,1.9-0.4,3.6-1.3,5.1s-2.1,2.7-3.6,3.6
			S272.6,87.7,270.7,87.7z M270.7,84.2c1.2,0,2.3-0.3,3.2-0.8c0.9-0.6,1.7-1.3,2.2-2.3s0.8-2.1,0.8-3.3c0-1.2-0.3-2.3-0.8-3.3
			s-1.3-1.7-2.2-2.3c-0.9-0.5-2-0.8-3.2-0.8s-2.2,0.3-3.2,0.8c-0.9,0.5-1.7,1.3-2.2,2.3s-0.8,2.1-0.8,3.3c0,1.3,0.3,2.4,0.8,3.3
			c0.5,1,1.3,1.7,2.2,2.3S269.5,84.2,270.7,84.2z"/>
		<path class="st1" d="M282.1,87.3l7.8-10.6l2,2.6l-5.6,7.9L282.1,87.3L282.1,87.3z M296.6,87.3l-5.9-8.3l-0.7-0.6l-7.5-10.1h4.4
			l5.4,7.4l0.7,0.6l8,11H296.6z M293.2,78.3l-2.1-2.6l5.3-7.4h4.2L293.2,78.3z"/>
		<path class="st1" d="M312.4,87.7c-1.9,0-3.6-0.4-5.1-1.3s-2.7-2-3.6-3.5s-1.3-3.2-1.3-5.1s0.4-3.5,1.3-5s2-2.7,3.5-3.5
			c1.5-0.9,3.1-1.3,5-1.3c1.7,0,3.3,0.4,4.6,1.2c1.4,0.8,2.4,1.9,3.2,3.3c0.8,1.4,1.1,3,1.1,4.8c0,0.3,0,0.6,0,0.9s-0.1,0.6-0.2,1
			h-16v-3H319l-1.3,1.2c0-1.3-0.2-2.4-0.7-3.3s-1.1-1.6-1.9-2.1s-1.8-0.7-3-0.7s-2.3,0.3-3.2,0.8c-0.9,0.5-1.7,1.3-2.2,2.2
			c-0.5,1-0.8,2.1-0.8,3.4s0.3,2.5,0.8,3.5s1.3,1.8,2.3,2.3s2.1,0.8,3.4,0.8c1.1,0,2-0.2,2.9-0.6s1.7-0.9,2.3-1.7l2.3,2.4
			c-0.9,1.1-2.1,1.9-3.4,2.4C315.3,87.4,313.9,87.7,312.4,87.7z"/>
		<path class="st1" d="M331.1,87.7c-1.1,0-2.1-0.1-3-0.4s-1.8-0.7-2.6-1.2c-0.8-0.5-1.5-1.1-2.1-1.9l2.3-2.3
			c0.7,0.9,1.5,1.5,2.4,1.9s1.9,0.6,3,0.6s2-0.2,2.6-0.6s0.9-0.9,0.9-1.6s-0.2-1.2-0.7-1.6s-1.1-0.7-1.9-1s-1.6-0.5-2.5-0.7
			s-1.7-0.6-2.5-1s-1.4-1-1.9-1.7s-0.7-1.6-0.7-2.8s0.3-2.1,0.8-3c0.5-0.8,1.3-1.5,2.3-1.9c1-0.5,2.2-0.7,3.6-0.7
			c1.5,0,2.8,0.3,4,0.8s2.1,1.3,2.9,2.3l-2.3,2.3c-0.6-0.7-1.2-1.2-2-1.6S332,71,331.1,71c-1,0-1.8,0.2-2.4,0.6
			c-0.5,0.4-0.8,0.9-0.8,1.5s0.2,1.1,0.7,1.5c0.5,0.3,1.1,0.6,1.9,0.9c0.8,0.2,1.6,0.5,2.5,0.7c0.9,0.3,1.7,0.6,2.4,1
			c0.8,0.4,1.4,1,1.9,1.7s0.7,1.7,0.7,2.8c0,1.8-0.6,3.2-1.9,4.2S333.3,87.7,331.1,87.7z"/>
	</g>
</g>
</svg>
