<?xml version="1.0" encoding="utf-8"?>
<!-- Generator: Adobe Illustrator 26.4.1, SVG Export Plug-In . SVG Version: 6.00 Build 0)  -->
<svg version="1.1" id="Layer_1" xmlns="http://www.w3.org/2000/svg" xmlns:xlink="http://www.w3.org/1999/xlink" x="0px" y="0px"
	 viewBox="0 0 760 380" style="enable-background:new 0 0 760 380;" xml:space="preserve">
<style type="text/css">
	.st0{fill:#CCCCCC;}
	.st1{fill:#FFFFFF;}
</style>
<g>
	<g>
		<path class="st0" d="M164.5,101.4V76.7h5.5v24.7C170,101.4,164.5,101.4,164.5,101.4z M168.7,91.2v-4.1h5.2c1.1,0,1.9-0.3,2.5-0.8
			s0.9-1.3,0.9-2.2c0-0.9-0.3-1.6-0.9-2.2c-0.6-0.6-1.4-0.9-2.5-0.9h-5.2v-4.3h5.9c1.7,0,3.1,0.3,4.3,0.9s2.2,1.5,2.9,2.6
			s1,2.3,1,3.7c0,1.5-0.4,2.8-1.1,3.9c-0.7,1.1-1.7,1.9-2.9,2.5c-1.3,0.6-2.7,0.9-4.4,0.9H168.7z M177.9,101.4l-7.7-10.6l5.1-1.4
			l9.2,12H177.9z"/>
		<path class="st0" d="M194.3,101.8c-1.8,0-3.5-0.4-4.9-1.1c-1.4-0.8-2.5-1.8-3.4-3.2c-0.8-1.4-1.2-2.9-1.2-4.6s0.4-3.2,1.2-4.5
			s1.9-2.4,3.3-3.2c1.4-0.8,2.9-1.2,4.7-1.2c1.7,0,3.2,0.4,4.5,1.1s2.3,1.7,3,3s1.1,2.8,1.1,4.4c0,0.3,0,0.7-0.1,1
			c0,0.3-0.1,0.7-0.2,1.1l-14.6,0.1V91l12.3-0.1l-2.3,1.6c0-1-0.2-1.8-0.5-2.4s-0.7-1.1-1.2-1.5s-1.2-0.5-2-0.5s-1.6,0.2-2.2,0.6
			c-0.6,0.4-1.1,0.9-1.4,1.6c-0.3,0.7-0.5,1.5-0.5,2.5s0.2,1.8,0.5,2.6c0.4,0.7,0.9,1.3,1.5,1.7c0.7,0.4,1.5,0.6,2.4,0.6
			c0.8,0,1.6-0.1,2.2-0.4c0.7-0.3,1.3-0.7,1.8-1.3l3,2.9c-0.8,1-1.9,1.7-3,2.2S195.7,101.8,194.3,101.8z"/>
		<path class="st0" d="M212.3,101.8c-1.6,0-3.1-0.4-4.3-1.2c-1.2-0.8-2.2-1.8-2.9-3.1c-0.7-1.3-1.1-2.8-1.1-4.5s0.4-3.2,1.1-4.6
			c0.7-1.3,1.7-2.4,2.9-3.1c1.3-0.8,2.7-1.2,4.3-1.2c1.1,0,2.2,0.2,3.2,0.6s1.7,1,2.3,1.8s1,1.7,1.1,2.7v7.2c-0.1,1-0.4,1.9-1.1,2.7
			c-0.6,0.8-1.4,1.4-2.3,1.9C214.5,101.5,213.5,101.8,212.3,101.8z M213.3,96.9c0.8,0,1.4-0.2,2-0.5s1-0.8,1.3-1.4s0.5-1.3,0.5-2.1
			c0-0.8-0.2-1.5-0.5-2c-0.3-0.6-0.8-1.1-1.3-1.4c-0.6-0.3-1.2-0.5-2-0.5c-0.7,0-1.4,0.2-2,0.5c-0.6,0.4-1,0.8-1.3,1.4
			s-0.5,1.3-0.5,2s0.2,1.5,0.5,2.1s0.8,1.1,1.3,1.4C211.9,96.7,212.5,96.9,213.3,96.9z M222.1,101.4h-5.3v-4.6l0.8-4.2l-0.9-4.1V76
			h5.4V101.4z"/>
	</g>
</g>
<g>
	<g>
		<path class="st0" d="M156.7,160.2v-24.7h5.5v24.7H156.7z M160.9,160.2v-4.3h5.8c1,0,1.9-0.3,2.5-0.9c0.6-0.6,0.9-1.4,0.9-2.3
			c0-0.6-0.1-1.2-0.4-1.6c-0.3-0.5-0.7-0.9-1.2-1.2s-1.1-0.4-1.8-0.4h-5.8v-4.2h5.4c0.9,0,1.6-0.2,2.2-0.7c0.6-0.4,0.8-1.1,0.8-2.1
			c0-0.9-0.3-1.6-0.8-2s-1.3-0.7-2.2-0.7h-5.4v-4.3h6.4c1.6,0,2.9,0.3,4.1,0.9c1.1,0.6,2,1.4,2.5,2.3c0.6,1,0.9,2.1,0.9,3.2
			c0,1.6-0.5,2.9-1.5,3.9s-2.4,1.8-4.3,2.2l0.1-1.9c2.1,0.4,3.7,1.2,4.8,2.4s1.7,2.7,1.7,4.5c0,1.4-0.3,2.6-1,3.6
			c-0.7,1.1-1.6,1.9-2.9,2.6c-1.2,0.6-2.7,1-4.5,1H160.9z"/>
		<path class="st0" d="M178.6,160.2v-25.4h5.4v25.4H178.6z"/>
		<path class="st0" d="M195.4,160.6c-1.5,0-2.9-0.3-4.1-1c-1.2-0.7-2.2-1.5-2.9-2.7c-0.7-1.1-1-2.4-1-3.9v-9.8h5.4v9.8
			c0,0.6,0.1,1.1,0.3,1.5s0.5,0.8,0.9,1s0.9,0.4,1.4,0.4c0.8,0,1.4-0.3,1.9-0.8s0.7-1.2,0.7-2.1v-9.8h5.4v9.8c0,1.5-0.3,2.8-1,3.9
			s-1.6,2-2.8,2.7C198.3,160.3,197,160.6,195.4,160.6z"/>
		<path class="st0" d="M215.1,160.6c-1.8,0-3.5-0.4-4.9-1.1c-1.4-0.8-2.5-1.8-3.4-3.2c-0.8-1.4-1.2-2.9-1.2-4.6
			c0-1.7,0.4-3.2,1.2-4.5s1.9-2.4,3.3-3.2c1.4-0.8,2.9-1.2,4.7-1.2c1.7,0,3.2,0.4,4.5,1.1c1.3,0.7,2.3,1.7,3,3s1.1,2.8,1.1,4.4
			c0,0.3,0,0.7-0.1,1c0,0.3-0.1,0.7-0.2,1.1l-14.6,0.1v-3.7l12.3-0.1l-2.3,1.6c0-1-0.2-1.8-0.5-2.4c-0.3-0.6-0.7-1.1-1.2-1.5
			s-1.2-0.5-2-0.5s-1.6,0.2-2.2,0.6c-0.6,0.4-1.1,0.9-1.4,1.6c-0.3,0.7-0.5,1.5-0.5,2.5s0.2,1.8,0.5,2.6c0.4,0.7,0.9,1.3,1.5,1.7
			c0.7,0.4,1.5,0.6,2.4,0.6c0.8,0,1.6-0.1,2.2-0.4c0.7-0.3,1.3-0.7,1.8-1.3l3,2.9c-0.8,1-1.9,1.7-3,2.2S216.5,160.6,215.1,160.6z"/>
	</g>
</g>
<g>
	<g>
		<path class="st0" d="M121.5,225.9v-24.7h5.5v24.7H121.5z M125.7,216.9v-4.3h5.3c0.7,0,1.3-0.1,1.8-0.4c0.5-0.3,1-0.7,1.3-1.2
			s0.5-1.2,0.5-1.9c0-0.8-0.2-1.4-0.5-2s-0.8-0.9-1.3-1.2s-1.2-0.4-1.8-0.4h-5.3v-4.3h6.1c1.6,0,3,0.3,4.3,0.9
			c1.3,0.6,2.3,1.5,3,2.7s1.1,2.6,1.1,4.2c0,1.6-0.4,3-1.1,4.2c-0.7,1.2-1.7,2.1-3,2.7c-1.3,0.6-2.7,0.9-4.3,0.9h-6.1
			C125.7,216.8,125.7,216.9,125.7,216.9z"/>
		<path class="st0" d="M150.6,226.3c-1.5,0-2.9-0.3-4.1-1c-1.2-0.7-2.2-1.5-2.9-2.7c-0.7-1.1-1-2.4-1-3.9v-9.8h5.4v9.8
			c0,0.6,0.1,1.1,0.3,1.5s0.5,0.8,0.9,1s0.9,0.4,1.4,0.4c0.8,0,1.4-0.3,1.9-0.8s0.7-1.2,0.7-2.1v-9.8h5.4v9.8c0,1.5-0.3,2.8-1,3.9
			s-1.6,2-2.8,2.7C153.5,226,152.2,226.3,150.6,226.3z"/>
		<path class="st0" d="M161.9,225.9v-17h5.4v17H161.9z M167.3,216.6l-2.2-1.8c0.4-2,1.2-3.6,2.3-4.7c1.1-1.1,2.5-1.6,4.4-1.6
			c0.8,0,1.5,0.1,2.2,0.4c0.6,0.2,1.2,0.6,1.6,1.1l-3.2,4.1c-0.2-0.2-0.5-0.4-0.8-0.6c-0.4-0.1-0.7-0.2-1.2-0.2
			c-0.9,0-1.6,0.3-2.2,0.8C167.5,214.7,167.3,215.5,167.3,216.6z"/>
		<path class="st0" d="M176.7,233.1v-24.2h5.4v4.3l-0.9,4.2l0.8,4.1V233L176.7,233.1L176.7,233.1z M186.6,226.2
			c-1.2,0-2.2-0.2-3.2-0.7c-1-0.4-1.7-1.1-2.3-1.8c-0.6-0.8-0.9-1.7-1-2.7v-7.2c0.1-1,0.4-1.9,1-2.7s1.4-1.4,2.3-1.9
			c1-0.5,2-0.7,3.1-0.7c1.6,0,3,0.4,4.3,1.2c1.2,0.8,2.2,1.8,3,3.1c0.7,1.3,1.1,2.8,1.1,4.6s-0.4,3.2-1.1,4.5
			c-0.7,1.3-1.7,2.4-3,3.2C189.6,225.9,188.1,226.2,186.6,226.2z M185.5,221.4c0.7,0,1.4-0.2,2-0.5s1-0.8,1.4-1.4
			c0.3-0.6,0.5-1.3,0.5-2.1s-0.2-1.5-0.5-2.1s-0.8-1.1-1.3-1.4c-0.6-0.3-1.2-0.5-2-0.5c-0.7,0-1.4,0.2-2,0.5s-1,0.8-1.3,1.4
			c-0.3,0.6-0.5,1.3-0.5,2.1s0.2,1.5,0.5,2.1s0.8,1.1,1.3,1.4C184.2,221.2,184.8,221.4,185.5,221.4z"/>
		<path class="st0" d="M197.5,225.9v-25.4h5.4v25.4H197.5z"/>
		<path class="st0" d="M215.1,226.3c-1.8,0-3.5-0.4-4.9-1.1c-1.4-0.8-2.5-1.8-3.4-3.2c-0.8-1.4-1.2-2.9-1.2-4.6
			c0-1.7,0.4-3.2,1.2-4.5s1.9-2.4,3.3-3.2c1.4-0.8,2.9-1.2,4.7-1.2c1.7,0,3.2,0.4,4.5,1.1c1.3,0.7,2.3,1.7,3,3s1.1,2.8,1.1,4.4
			c0,0.3,0,0.7-0.1,1c0,0.3-0.1,0.7-0.2,1.1l-14.6,0.1v-3.7l12.3-0.1l-2.3,1.6c0-1-0.2-1.8-0.5-2.4c-0.3-0.6-0.7-1.1-1.2-1.5
			c-0.5-0.3-1.2-0.5-2-0.5s-1.6,0.2-2.2,0.6c-0.6,0.4-1.1,0.9-1.4,1.6c-0.3,0.7-0.5,1.5-0.5,2.5s0.2,1.8,0.5,2.6
			c0.4,0.7,0.9,1.3,1.5,1.7c0.7,0.4,1.5,0.6,2.4,0.6c0.8,0,1.6-0.1,2.2-0.4c0.7-0.3,1.3-0.7,1.8-1.3l3,2.9c-0.8,1-1.9,1.7-3,2.2
			C217.8,226,216.5,226.3,215.1,226.3z"/>
	</g>
</g>
<g>
	<g>
		<path class="st0" d="M115,289.2c-1.9,0-3.6-0.3-5.2-1s-3-1.6-4.2-2.7s-2.1-2.5-2.8-4.1c-0.7-1.6-1-3.2-1-5s0.3-3.5,1-5
			s1.6-2.9,2.7-4c1.2-1.2,2.5-2.1,4.1-2.7s3.3-1,5.2-1c1.8,0,3.6,0.3,5.1,1c1.6,0.6,3,1.5,4.1,2.7s2.1,2.5,2.7,4.1s1,3.2,1,5.1
			c0,1.8-0.3,3.5-1,5c-0.7,1.6-1.6,2.9-2.7,4.1c-1.2,1.2-2.5,2.1-4.1,2.7C118.6,288.9,116.9,289.2,115,289.2z M114.9,284.2
			c1.5,0,2.8-0.3,3.9-1s2-1.6,2.6-2.7s0.9-2.5,0.9-4.1c0-1.1-0.2-2.2-0.5-3.1c-0.4-0.9-0.9-1.8-1.5-2.5s-1.4-1.2-2.3-1.6
			s-1.9-0.5-3-0.5c-1.5,0-2.8,0.3-3.9,1c-1.1,0.6-2,1.5-2.6,2.7s-0.9,2.5-0.9,4c0,1.2,0.2,2.2,0.5,3.2c0.4,1,0.9,1.8,1.5,2.5
			c0.7,0.7,1.4,1.2,2.3,1.6C112.8,284,113.8,284.2,114.9,284.2z"/>
		<path class="st0" d="M130.9,288.8v-17h5.4v17H130.9z M136.3,279.5l-2.2-1.8c0.4-2,1.2-3.6,2.3-4.7s2.5-1.6,4.4-1.6
			c0.8,0,1.5,0.1,2.2,0.4c0.6,0.2,1.2,0.6,1.6,1.1l-3.2,4.1c-0.2-0.2-0.5-0.4-0.8-0.6c-0.4-0.1-0.7-0.2-1.2-0.2
			c-0.9,0-1.6,0.3-2.2,0.8C136.6,277.6,136.3,278.4,136.3,279.5z"/>
		<path class="st0" d="M152.5,289.1c-1.5,0-2.9-0.4-4.2-1.2c-1.2-0.8-2.2-1.8-2.9-3.2c-0.7-1.3-1.1-2.8-1.1-4.5s0.4-3.2,1.1-4.6
			c0.7-1.3,1.7-2.4,2.9-3.2c1.2-0.8,2.6-1.1,4.2-1.1c1.1,0,2.2,0.2,3.1,0.7c0.9,0.4,1.7,1.1,2.3,1.8c0.6,0.8,0.9,1.7,1,2.7v7.4
			c-0.1,1-0.4,1.9-1,2.7c-0.6,0.8-1.3,1.4-2.2,1.8C154.7,288.9,153.7,289.1,152.5,289.1z M153.6,284.3c1.1,0,2.1-0.4,2.7-1.1
			c0.7-0.7,1-1.7,1-2.9c0-0.8-0.2-1.5-0.5-2s-0.7-1.1-1.3-1.4s-1.2-0.5-2-0.5c-0.7,0-1.4,0.2-1.9,0.5c-0.6,0.3-1,0.8-1.4,1.4
			c-0.3,0.6-0.5,1.3-0.5,2.1c0,0.8,0.2,1.5,0.5,2.1s0.8,1.1,1.4,1.4C152.2,284.1,152.9,284.3,153.6,284.3z M157.2,288.8v-4.6
			l0.8-4.2l-0.8-4.1v-4.2h5.3v17h-5.3V288.8z"/>
		<path class="st0" d="M166.2,288.8v-17h5.4v17H166.2z M177.5,288.8v-9.7c0-0.9-0.3-1.6-0.8-2.1s-1.3-0.8-2.1-0.8
			c-0.6,0-1.1,0.1-1.5,0.4c-0.4,0.2-0.8,0.6-1.1,1s-0.4,1-0.4,1.5l-2.1-1c0-1.3,0.3-2.5,0.9-3.5c0.6-1,1.4-1.8,2.5-2.3
			c1-0.5,2.2-0.8,3.5-0.8c1.2,0,2.3,0.3,3.3,0.9s1.8,1.4,2.3,2.4c0.6,1,0.8,2.1,0.8,3.2v10.9h-5.3L177.5,288.8L177.5,288.8z"/>
		<path class="st0" d="M193.2,288.3c-1.6,0-3-0.4-4.2-1.1s-2.2-1.8-2.9-3c-0.7-1.3-1.1-2.7-1.1-4.3c0-1.6,0.4-3,1.1-4.3
			c0.7-1.3,1.7-2.3,2.9-3s2.6-1.1,4.1-1.1c1.2,0,2.2,0.2,3.1,0.6c0.9,0.4,1.7,1,2.2,1.8c0.6,0.8,0.9,1.7,1,2.7v6.5
			c-0.1,1-0.4,1.9-1,2.7c-0.6,0.8-1.3,1.4-2.2,1.8C195.4,288.1,194.4,288.3,193.2,288.3z M193.4,296.4c-1.8,0-3.5-0.3-4.9-1
			c-1.4-0.6-2.5-1.5-3.3-2.7l3.3-3.3c0.6,0.7,1.3,1.3,2,1.6s1.7,0.6,2.7,0.6c1.3,0,2.4-0.3,3.1-1c0.8-0.7,1.1-1.6,1.1-2.8v-4.3
			l0.9-3.7l-0.8-3.7v-4.4h5.3v16c0,1.8-0.4,3.3-1.2,4.6c-0.8,1.3-1.9,2.3-3.4,3C196.9,296.1,195.3,296.4,193.4,296.4z M194.2,283.5
			c0.7,0,1.4-0.2,1.9-0.5s1-0.8,1.3-1.3s0.4-1.2,0.4-1.9c0-0.7-0.1-1.3-0.4-1.8c-0.3-0.6-0.7-1-1.2-1.3s-1.2-0.5-1.9-0.5
			s-1.4,0.2-1.9,0.5c-0.6,0.3-1,0.8-1.3,1.3c-0.3,0.6-0.5,1.2-0.5,1.9c0,0.7,0.2,1.3,0.5,1.8c0.3,0.6,0.7,1,1.3,1.3
			C192.9,283.4,193.5,283.5,194.2,283.5z"/>
		<path class="st0" d="M215.1,289.2c-1.8,0-3.5-0.4-4.9-1.1c-1.4-0.8-2.5-1.8-3.4-3.2c-0.8-1.4-1.2-2.9-1.2-4.6s0.4-3.2,1.2-4.5
			s1.9-2.4,3.3-3.2c1.4-0.8,2.9-1.2,4.7-1.2c1.7,0,3.2,0.4,4.5,1.1s2.3,1.7,3,3s1.1,2.8,1.1,4.4c0,0.3,0,0.7-0.1,1
			c0,0.3-0.1,0.7-0.2,1.1l-14.6,0.1v-3.7l12.3-0.1l-2.3,1.6c0-1-0.2-1.8-0.5-2.4s-0.7-1.1-1.2-1.5c-0.5-0.3-1.2-0.5-2-0.5
			s-1.6,0.2-2.2,0.6c-0.6,0.4-1.1,0.9-1.4,1.6c-0.3,0.7-0.5,1.5-0.5,2.5s0.2,1.8,0.5,2.6c0.4,0.7,0.9,1.3,1.5,1.7
			c0.7,0.4,1.5,0.6,2.4,0.6c0.8,0,1.6-0.1,2.2-0.4c0.7-0.3,1.3-0.7,1.8-1.3l3,2.9c-0.8,1-1.9,1.7-3,2.2
			C217.8,288.9,216.5,289.2,215.1,289.2z"/>
	</g>
</g>
<g>
	<path class="st1" d="M121.5,30V2.3h3.8V30H121.5z M124,30v-3.4h7.7c2,0,3.8-0.4,5.4-1.3c1.6-0.9,2.8-2.1,3.6-3.7
		c0.9-1.6,1.3-3.4,1.3-5.4s-0.4-3.8-1.3-5.4c-0.9-1.6-2.1-2.8-3.6-3.7s-3.3-1.3-5.4-1.3H124V2.4h7.8c2,0,3.9,0.3,5.6,1
		c1.7,0.7,3.2,1.7,4.5,2.9s2.3,2.7,3,4.4s1.1,3.5,1.1,5.5s-0.4,3.8-1.1,5.5c-0.7,1.7-1.7,3.2-2.9,4.4c-1.3,1.3-2.7,2.2-4.5,2.9
		c-1.7,0.7-3.6,1-5.6,1H124z"/>
	<path class="st1" d="M150.5,30V11h3.6v19H150.5z M154.1,19.2l-1.4-0.6c0-2.4,0.6-4.4,1.7-5.8c1.1-1.4,2.7-2.2,4.8-2.2
		c1,0,1.8,0.2,2.6,0.5s1.5,0.9,2.2,1.7l-2.4,2.4c-0.4-0.4-0.8-0.7-1.3-0.9s-1-0.3-1.7-0.3c-1.3,0-2.4,0.4-3.3,1.3
		C154.5,16.2,154.1,17.5,154.1,19.2z"/>
	<path class="st1" d="M174,30.4c-1.8,0-3.3-0.4-4.7-1.3s-2.5-2-3.3-3.5s-1.2-3.2-1.2-5c0-1.9,0.4-3.5,1.2-5s1.9-2.7,3.3-3.6
		c1.4-0.9,3-1.3,4.7-1.3c1.4,0,2.7,0.3,3.9,0.9c1.1,0.6,2,1.4,2.7,2.5s1.1,2.3,1.2,3.7v5.7c-0.1,1.4-0.5,2.6-1.1,3.6
		c-0.7,1.1-1.6,1.9-2.7,2.5S175.4,30.4,174,30.4z M174.6,27c1.8,0,3.2-0.6,4.3-1.8s1.6-2.8,1.6-4.7c0-1.3-0.3-2.4-0.8-3.4
		s-1.2-1.8-2.1-2.3c-0.9-0.5-1.9-0.8-3.1-0.8c-1.2,0-2.3,0.3-3.2,0.8s-1.6,1.3-2.2,2.3c-0.5,1-0.8,2.1-0.8,3.3
		c0,1.3,0.3,2.4,0.8,3.4s1.2,1.7,2.2,2.3C172.3,26.8,173.4,27,174.6,27z M180.3,30v-5.1l0.7-4.6l-0.7-4.6V11h3.6v19H180.3z"/>
	<path class="st1" d="M197.1,29.7c-1.7,0-3.3-0.4-4.7-1.2s-2.5-2-3.3-3.4c-0.8-1.5-1.2-3.1-1.2-4.9s0.4-3.4,1.2-4.9
		c0.8-1.4,1.9-2.6,3.3-3.4c1.4-0.8,2.9-1.3,4.6-1.3c1.5,0,2.8,0.3,4,0.9s2.1,1.4,2.7,2.5c0.7,1.1,1,2.3,1.1,3.7v5
		c-0.1,1.4-0.5,2.6-1.1,3.7c-0.7,1.1-1.6,1.9-2.7,2.5C199.9,29.4,198.5,29.7,197.1,29.7z M197.1,38.4c-2,0-3.7-0.4-5.2-1.1
		c-1.5-0.7-2.7-1.7-3.6-3l2.4-2.4c0.8,1,1.7,1.7,2.8,2.3s2.3,0.8,3.8,0.8c1.9,0,3.5-0.5,4.6-1.5s1.7-2.4,1.7-4.1v-4.7l0.6-4.3
		l-0.6-4.2v-5h3.6v18.2c0,1.8-0.4,3.4-1.3,4.8c-0.8,1.4-2,2.4-3.5,3.2C200.8,38,199.1,38.4,197.1,38.4z M197.8,26.3
		c1.2,0,2.2-0.3,3.1-0.8c0.9-0.5,1.6-1.2,2.1-2.1s0.7-2,0.7-3.2s-0.2-2.3-0.7-3.2s-1.2-1.6-2.1-2.2S199,14,197.8,14
		s-2.3,0.3-3.2,0.8S193,16,192.5,17c-0.5,0.9-0.8,2-0.8,3.2s0.3,2.3,0.8,3.2s1.2,1.7,2.2,2.2S196.6,26.3,197.8,26.3z"/>
	<path class="st1" d="M220.2,29.7c-1.7,0-3.3-0.4-4.7-1.2s-2.5-2-3.3-3.4c-0.8-1.5-1.2-3.1-1.2-4.9s0.4-3.4,1.2-4.9
		c0.8-1.4,1.9-2.6,3.3-3.4c1.4-0.8,2.9-1.3,4.6-1.3c1.5,0,2.8,0.3,4,0.9s2.1,1.4,2.7,2.5c0.7,1.1,1,2.3,1.1,3.7v5
		c-0.1,1.4-0.5,2.6-1.1,3.7c-0.7,1.1-1.6,1.9-2.7,2.5C223,29.4,221.7,29.7,220.2,29.7z M220.2,38.4c-2,0-3.7-0.4-5.2-1.1
		c-1.5-0.7-2.7-1.7-3.6-3l2.4-2.4c0.8,1,1.7,1.7,2.8,2.3s2.3,0.8,3.8,0.8c1.9,0,3.5-0.5,4.6-1.5s1.7-2.4,1.7-4.1v-4.7l0.6-4.3
		l-0.6-4.2v-5h3.6v18.2c0,1.8-0.4,3.4-1.3,4.8c-0.8,1.4-2,2.4-3.5,3.2C223.9,38,222.2,38.4,220.2,38.4z M220.9,26.3
		c1.2,0,2.2-0.3,3.1-0.8c0.9-0.5,1.6-1.2,2.1-2.1s0.7-2,0.7-3.2s-0.2-2.3-0.7-3.2s-1.2-1.6-2.1-2.2s-1.9-0.8-3.1-0.8
		c-1.2,0-2.3,0.3-3.2,0.8s-1.6,1.2-2.1,2.2c-0.5,0.9-0.8,2-0.8,3.2s0.3,2.3,0.8,3.2s1.2,1.7,2.2,2.2S219.7,26.3,220.9,26.3z"/>
	<path class="st1" d="M237.3,7.2c-0.7,0-1.2-0.2-1.6-0.7c-0.4-0.4-0.6-1-0.6-1.7c0-0.6,0.2-1.2,0.6-1.6c0.4-0.4,1-0.7,1.6-0.7
		s1.2,0.2,1.6,0.7c0.4,0.4,0.6,1,0.6,1.6c0,0.7-0.2,1.2-0.6,1.7S237.9,7.2,237.3,7.2z M235.4,30V11h3.6v19H235.4z"/>
	<path class="st1" d="M244.4,30V11h3.6v19H244.4z M257.8,30V19c0-1.4-0.4-2.6-1.3-3.6c-0.9-0.9-2.1-1.4-3.5-1.4
		c-1,0-1.8,0.2-2.6,0.6c-0.7,0.4-1.3,1-1.8,1.8c-0.4,0.7-0.6,1.6-0.6,2.6l-1.5-0.8c0-1.4,0.3-2.7,1-3.8c0.6-1.1,1.5-2,2.7-2.7
		c1.1-0.7,2.4-1,3.9-1c1.4,0,2.7,0.4,3.8,1.1c1.1,0.7,2,1.7,2.6,2.8s1,2.4,1,3.7V30H257.8z"/>
	<path class="st1" d="M274.2,29.7c-1.7,0-3.3-0.4-4.7-1.2c-1.4-0.8-2.5-2-3.3-3.4c-0.8-1.5-1.2-3.1-1.2-4.9s0.4-3.4,1.2-4.9
		c0.8-1.4,1.9-2.6,3.3-3.4s2.9-1.3,4.6-1.3c1.5,0,2.8,0.3,4,0.9s2.1,1.4,2.7,2.5c0.7,1.1,1,2.3,1.1,3.7v5c-0.1,1.4-0.5,2.6-1.1,3.7
		c-0.7,1.1-1.6,1.9-2.7,2.5C277,29.4,275.7,29.7,274.2,29.7z M274.2,38.4c-2,0-3.7-0.4-5.2-1.1c-1.5-0.7-2.7-1.7-3.6-3l2.4-2.4
		c0.8,1,1.7,1.7,2.8,2.3s2.3,0.8,3.8,0.8c1.9,0,3.5-0.5,4.6-1.5s1.7-2.4,1.7-4.1v-4.7l0.6-4.3l-0.6-4.2v-5h3.6v18.2
		c0,1.8-0.4,3.4-1.3,4.8c-0.8,1.4-2,2.4-3.5,3.2C277.9,38,276.2,38.4,274.2,38.4z M274.9,26.3c1.2,0,2.2-0.3,3.1-0.8
		s1.6-1.2,2.1-2.1s0.7-2,0.7-3.2s-0.2-2.3-0.7-3.2s-1.2-1.6-2.1-2.2s-1.9-0.8-3.1-0.8s-2.3,0.3-3.2,0.8s-1.6,1.2-2.1,2.2
		c-0.5,0.9-0.8,2-0.8,3.2s0.3,2.3,0.8,3.2s1.2,1.7,2.2,2.2S273.7,26.3,274.9,26.3z"/>
	<path class="st1" d="M296,14.3V11h13v3.3H296z M300.6,30V3h3.6v27H300.6z"/>
	<path class="st1" d="M312.4,30V1.5h3.6V30H312.4z M325.8,30V19c0-1.4-0.4-2.6-1.3-3.6c-0.9-0.9-2.1-1.4-3.5-1.4
		c-1,0-1.8,0.2-2.6,0.6c-0.7,0.4-1.3,1-1.8,1.8c-0.4,0.7-0.6,1.6-0.6,2.6l-1.5-0.8c0-1.4,0.3-2.7,1-3.8c0.6-1.1,1.5-2,2.7-2.7
		c1.1-0.7,2.4-1,3.9-1s2.7,0.3,3.8,1c1.1,0.6,2,1.5,2.6,2.7c0.6,1.1,1,2.5,1,4V30H325.8z"/>
	<path class="st1" d="M343.2,30.4c-1.9,0-3.6-0.4-5.1-1.3s-2.7-2-3.6-3.5s-1.3-3.2-1.3-5.1s0.4-3.5,1.3-5s2-2.7,3.5-3.5
		c1.5-0.9,3.1-1.3,5-1.3c1.7,0,3.3,0.4,4.6,1.2c1.4,0.8,2.4,1.9,3.2,3.3c0.8,1.4,1.1,3,1.1,4.8c0,0.3,0,0.6,0,0.9s-0.1,0.6-0.2,1
		h-16v-3h14.1l-1.3,1.2c0-1.3-0.2-2.4-0.7-3.3s-1.1-1.6-1.9-2.1s-1.8-0.7-3-0.7s-2.3,0.3-3.2,0.8c-0.9,0.5-1.7,1.3-2.2,2.2
		c-0.5,1-0.8,2.1-0.8,3.4s0.3,2.5,0.8,3.5s1.3,1.8,2.3,2.3s2.1,0.8,3.4,0.8c1.1,0,2-0.2,2.9-0.6s1.7-0.9,2.3-1.7l2.3,2.4
		c-0.9,1.1-2.1,1.9-3.4,2.4S344.7,30.4,343.2,30.4z"/>
	<path class="st1" d="M364.1,30V1.5h3.6V30H364.1z"/>
	<path class="st1" d="M381,30.4c-1.8,0-3.3-0.4-4.7-1.3c-1.4-0.9-2.5-2-3.3-3.5s-1.2-3.2-1.2-5c0-1.9,0.4-3.5,1.2-5
		c0.8-1.5,1.9-2.7,3.3-3.6s3-1.3,4.7-1.3c1.4,0,2.7,0.3,3.9,0.9c1.1,0.6,2,1.4,2.7,2.5s1.1,2.3,1.2,3.7v5.7
		c-0.1,1.4-0.5,2.6-1.1,3.6c-0.7,1.1-1.6,1.9-2.7,2.5S382.5,30.4,381,30.4z M381.6,27c1.8,0,3.2-0.6,4.3-1.8
		c1.1-1.2,1.6-2.8,1.6-4.7c0-1.3-0.3-2.4-0.8-3.4s-1.2-1.8-2.1-2.3s-1.9-0.8-3.1-0.8s-2.3,0.3-3.2,0.8s-1.6,1.3-2.2,2.3
		c-0.5,1-0.8,2.1-0.8,3.3c0,1.3,0.3,2.4,0.8,3.4s1.2,1.7,2.2,2.3C379.4,26.8,380.4,27,381.6,27z M387.4,30v-5.1l0.7-4.6l-0.7-4.6V11
		h3.6v19H387.4z"/>
	<path class="st1" d="M396.2,30V1.5h3.6v14.2l-0.7,4.6l0.7,4.6V30H396.2z M406.2,30.4c-1.4,0-2.7-0.3-3.9-0.9
		c-1.2-0.6-2.1-1.4-2.8-2.5c-0.7-1.1-1.1-2.3-1.2-3.6v-5.7c0.1-1.4,0.5-2.6,1.2-3.7s1.6-1.9,2.8-2.5c1.2-0.6,2.4-0.9,3.9-0.9
		c1.7,0,3.3,0.4,4.7,1.3s2.5,2.1,3.3,3.6s1.2,3.2,1.2,5c0,1.9-0.4,3.5-1.2,5c-0.8,1.5-1.9,2.7-3.3,3.5C409.5,30,408,30.4,406.2,30.4
		z M405.6,27c1.2,0,2.3-0.3,3.2-0.8c0.9-0.6,1.6-1.3,2.1-2.3s0.8-2.1,0.8-3.4s-0.3-2.4-0.8-3.3c-0.5-1-1.2-1.7-2.1-2.3
		s-2-0.8-3.2-0.8s-2.2,0.3-3.1,0.8c-0.9,0.6-1.6,1.3-2.1,2.3s-0.8,2.1-0.8,3.4s0.2,2.4,0.7,3.3c0.5,1,1.2,1.7,2.1,2.3
		S404.5,27,405.6,27z"/>
	<path class="st1" d="M428.3,30.4c-1.9,0-3.6-0.4-5.1-1.3s-2.7-2-3.6-3.5s-1.3-3.2-1.3-5.1s0.4-3.5,1.3-5s2-2.7,3.5-3.5
		c1.5-0.9,3.1-1.3,5-1.3c1.7,0,3.3,0.4,4.6,1.2c1.4,0.8,2.4,1.9,3.2,3.3c0.8,1.4,1.1,3,1.1,4.8c0,0.3,0,0.6,0,0.9s-0.1,0.6-0.2,1
		h-16v-3h14.1l-1.3,1.2c0-1.3-0.2-2.4-0.7-3.3s-1.1-1.6-1.9-2.1s-1.8-0.7-3-0.7s-2.3,0.3-3.2,0.8c-0.9,0.5-1.7,1.3-2.2,2.2
		c-0.5,1-0.8,2.1-0.8,3.4s0.3,2.5,0.8,3.5s1.3,1.8,2.3,2.3s2.1,0.8,3.4,0.8c1.1,0,2-0.2,2.9-0.6s1.7-0.9,2.3-1.7l2.3,2.4
		c-0.9,1.1-2.1,1.9-3.4,2.4S429.8,30.4,428.3,30.4z"/>
	<path class="st1" d="M441,30V1.5h3.6V30H441z"/>
	<path class="st1" d="M455.9,30.4c-1.1,0-2.1-0.1-3-0.4s-1.8-0.7-2.6-1.2c-0.8-0.5-1.5-1.1-2.1-1.9l2.3-2.3c0.7,0.9,1.5,1.5,2.4,1.9
		s1.9,0.6,3,0.6s2-0.2,2.6-0.6s0.9-0.9,0.9-1.6s-0.2-1.2-0.7-1.6s-1.1-0.7-1.9-1s-1.6-0.5-2.5-0.7s-1.7-0.6-2.5-1s-1.4-1-1.9-1.7
		s-0.7-1.6-0.7-2.8s0.3-2.1,0.8-3c0.5-0.8,1.3-1.5,2.3-1.9c1-0.5,2.2-0.7,3.6-0.7c1.5,0,2.8,0.3,4,0.8s2.1,1.3,2.9,2.3l-2.3,2.3
		c-0.6-0.7-1.2-1.2-2-1.6s-1.7-0.6-2.6-0.6c-1,0-1.8,0.2-2.4,0.6c-0.5,0.4-0.8,0.9-0.8,1.5s0.2,1.1,0.7,1.5c0.5,0.3,1.1,0.6,1.9,0.9
		c0.8,0.2,1.6,0.5,2.5,0.7c0.9,0.3,1.7,0.6,2.4,1c0.8,0.4,1.4,1,1.9,1.7s0.7,1.7,0.7,2.8c0,1.8-0.6,3.2-1.9,4.2S458,30.4,455.9,30.4
		z"/>
	<path class="st1" d="M477,7.2c-0.7,0-1.2-0.2-1.6-0.7s-0.6-1-0.6-1.7c0-0.6,0.2-1.2,0.6-1.6s1-0.7,1.6-0.7c0.7,0,1.2,0.2,1.6,0.7
		c0.4,0.4,0.6,1,0.6,1.6c0,0.7-0.2,1.2-0.6,1.7S477.7,7.2,477,7.2z M475.2,30V11h3.6v19H475.2z"/>
	<path class="st1" d="M484.2,30V11h3.6v19H484.2z M497.6,30V19c0-1.4-0.4-2.6-1.3-3.6c-0.9-0.9-2.1-1.4-3.5-1.4
		c-1,0-1.8,0.2-2.6,0.6c-0.7,0.4-1.3,1-1.8,1.8c-0.4,0.7-0.6,1.6-0.6,2.6l-1.5-0.8c0-1.4,0.3-2.7,1-3.8c0.6-1.1,1.5-2,2.7-2.7
		c1.1-0.7,2.4-1,3.9-1s2.7,0.4,3.8,1.1c1.1,0.7,2,1.7,2.6,2.8c0.6,1.2,1,2.4,1,3.7V30H497.6z"/>
	<path class="st1" d="M504.3,14.3V11h13v3.3H504.3z M509,30V3h3.6v27H509z"/>
	<path class="st1" d="M529.4,30.4c-1.8,0-3.5-0.4-5-1.3s-2.7-2.1-3.6-3.6c-0.9-1.5-1.3-3.2-1.3-5.1c0-1.8,0.4-3.5,1.3-5
		c0.9-1.5,2.1-2.7,3.6-3.5c1.5-0.9,3.2-1.3,5-1.3c1.9,0,3.6,0.4,5.1,1.3s2.7,2,3.6,3.5c0.9,1.5,1.3,3.2,1.3,5c0,1.9-0.4,3.6-1.3,5.1
		c-0.9,1.5-2.1,2.7-3.6,3.6S531.3,30.4,529.4,30.4z M529.4,27c1.2,0,2.3-0.3,3.2-0.8c0.9-0.6,1.7-1.3,2.2-2.3s0.8-2.1,0.8-3.3
		s-0.3-2.3-0.8-3.3s-1.3-1.7-2.2-2.3c-0.9-0.5-2-0.8-3.2-0.8s-2.2,0.3-3.2,0.8c-0.9,0.5-1.7,1.3-2.2,2.3s-0.8,2.1-0.8,3.3
		c0,1.3,0.3,2.4,0.8,3.3c0.5,1,1.3,1.7,2.2,2.3S528.3,27,529.4,27z"/>
	<path class="st1" d="M551.7,30V1.5h3.6v14.2l-0.7,4.6l0.7,4.6V30H551.7z M561.7,30.4c-1.4,0-2.7-0.3-3.9-0.9s-2.1-1.4-2.8-2.5
		s-1.1-2.3-1.2-3.6v-5.7c0.1-1.4,0.5-2.6,1.2-3.7s1.6-1.9,2.8-2.5s2.4-0.9,3.9-0.9c1.7,0,3.3,0.4,4.7,1.3s2.5,2.1,3.3,3.6
		s1.2,3.2,1.2,5c0,1.9-0.4,3.5-1.2,5s-1.9,2.7-3.3,3.5C565,30,563.4,30.4,561.7,30.4z M561.1,27c1.2,0,2.3-0.3,3.2-0.8
		c0.9-0.6,1.6-1.3,2.1-2.3s0.8-2.1,0.8-3.4s-0.3-2.4-0.8-3.3c-0.5-1-1.2-1.7-2.1-2.3c-0.9-0.6-2-0.8-3.2-0.8s-2.2,0.3-3.1,0.8
		c-0.9,0.6-1.6,1.3-2.1,2.3s-0.8,2.1-0.8,3.4s0.2,2.4,0.7,3.3c0.5,1,1.2,1.7,2.1,2.3S559.9,27,561.1,27z"/>
	<path class="st1" d="M583.6,30.4c-1.8,0-3.5-0.4-5-1.3s-2.7-2.1-3.6-3.6c-0.9-1.5-1.3-3.2-1.3-5.1c0-1.8,0.4-3.5,1.3-5
		s2.1-2.7,3.6-3.5c1.5-0.9,3.2-1.3,5-1.3c1.9,0,3.6,0.4,5.1,1.3s2.7,2,3.6,3.5c0.9,1.5,1.3,3.2,1.3,5c0,1.9-0.4,3.6-1.3,5.1
		c-0.9,1.5-2.1,2.7-3.6,3.6S585.5,30.4,583.6,30.4z M583.6,27c1.2,0,2.3-0.3,3.2-0.8s1.7-1.3,2.2-2.3s0.8-2.1,0.8-3.3
		s-0.3-2.3-0.8-3.3s-1.3-1.7-2.2-2.3c-0.9-0.5-2-0.8-3.2-0.8s-2.2,0.3-3.2,0.8c-0.9,0.5-1.7,1.3-2.2,2.3s-0.8,2.1-0.8,3.3
		c0,1.3,0.3,2.4,0.8,3.3c0.5,1,1.3,1.7,2.2,2.3C581.4,26.7,582.4,27,583.6,27z"/>
	<path class="st1" d="M595,30l7.8-10.6l2,2.6l-5.6,7.9L595,30L595,30z M609.4,30l-5.9-8.3l-0.7-0.6L595.3,11h4.4l5.4,7.4l0.7,0.6
		l8,11H609.4z M606.1,21l-2.1-2.6l5.3-7.4h4.2L606.1,21z"/>
	<path class="st1" d="M625.3,30.4c-1.9,0-3.6-0.4-5.1-1.3s-2.7-2-3.6-3.5c-0.9-1.5-1.3-3.2-1.3-5.1s0.4-3.5,1.3-5
		c0.9-1.5,2-2.7,3.5-3.5c1.5-0.9,3.1-1.3,5-1.3c1.7,0,3.3,0.4,4.6,1.2c1.4,0.8,2.4,1.9,3.2,3.3s1.1,3,1.1,4.8c0,0.3,0,0.6,0,0.9
		s-0.1,0.6-0.2,1h-16v-3h14.1l-1.3,1.2c0-1.3-0.2-2.4-0.7-3.3s-1.1-1.6-1.9-2.1c-0.8-0.5-1.8-0.7-3-0.7s-2.3,0.3-3.2,0.8
		s-1.7,1.3-2.2,2.2s-0.8,2.1-0.8,3.4s0.3,2.5,0.8,3.5s1.3,1.8,2.3,2.3s2.1,0.8,3.4,0.8c1.1,0,2-0.2,2.9-0.6s1.7-0.9,2.3-1.7l2.3,2.4
		c-0.9,1.1-2.1,1.9-3.4,2.4S626.8,30.4,625.3,30.4z"/>
	<path class="st1" d="M644,30.4c-1.1,0-2.1-0.1-3-0.4s-1.8-0.7-2.6-1.2s-1.5-1.1-2.1-1.9l2.3-2.3c0.7,0.9,1.5,1.5,2.4,1.9
		s1.9,0.6,3,0.6s2-0.2,2.6-0.6s0.9-0.9,0.9-1.6s-0.2-1.2-0.7-1.6s-1.1-0.7-1.9-1c-0.8-0.3-1.6-0.5-2.5-0.7s-1.7-0.6-2.5-1
		s-1.4-1-1.9-1.7s-0.7-1.6-0.7-2.8s0.3-2.1,0.8-3c0.5-0.8,1.3-1.5,2.3-1.9c1-0.5,2.2-0.7,3.6-0.7c1.5,0,2.8,0.3,4,0.8
		s2.1,1.3,2.9,2.3l-2.3,2.3c-0.6-0.7-1.2-1.2-2-1.6s-1.7-0.6-2.6-0.6c-1,0-1.8,0.2-2.4,0.6c-0.5,0.4-0.8,0.9-0.8,1.5
		s0.2,1.1,0.7,1.5c0.5,0.3,1.1,0.6,1.9,0.9c0.8,0.2,1.6,0.5,2.5,0.7c0.9,0.3,1.7,0.6,2.4,1c0.8,0.4,1.4,1,1.9,1.7s0.7,1.7,0.7,2.8
		c0,1.8-0.6,3.2-1.9,4.2C647.8,29.9,646.1,30.4,644,30.4z"/>
</g>
</svg>
