<?xml version="1.0" encoding="utf-8"?>
<!-- Generator: Adobe Illustrator 26.4.1, SVG Export Plug-In . SVG Version: 6.00 Build 0)  -->
<svg version="1.1" id="Layer_1" xmlns="http://www.w3.org/2000/svg" xmlns:xlink="http://www.w3.org/1999/xlink" x="0px" y="0px"
	 viewBox="0 0 760 380" style="enable-background:new 0 0 760 380;" xml:space="preserve">
<style type="text/css">
	.st0{fill:#CCCCCC;}
	.st1{fill:#FFFFFF;}
</style>
<g>
	<g>
		<path class="st0" d="M133,99V74.3h5.5V99H133z"/>
		<path class="st0" d="M142.7,99V82h5.4v17H142.7z M154,99v-9.7c0-0.9-0.3-1.6-0.8-2.1c-0.6-0.5-1.3-0.8-2.1-0.8
			c-0.6,0-1.1,0.1-1.5,0.4c-0.4,0.2-0.8,0.6-1.1,1s-0.4,1-0.4,1.5l-2.1-1c0-1.3,0.3-2.5,0.9-3.5c0.6-1,1.4-1.8,2.5-2.3
			c1-0.5,2.2-0.8,3.5-0.8c1.2,0,2.3,0.3,3.3,0.9s1.8,1.4,2.3,2.4c0.6,1,0.8,2.1,0.8,3.2V99H154z"/>
		<path class="st0" d="M170,99.3c-1.6,0-3.1-0.4-4.3-1.2c-1.2-0.8-2.2-1.8-2.9-3.1c-0.7-1.3-1.1-2.8-1.1-4.5s0.4-3.2,1.1-4.6
			c0.7-1.3,1.7-2.4,2.9-3.1c1.3-0.8,2.7-1.2,4.3-1.2c1.1,0,2.2,0.2,3.2,0.6s1.7,1,2.3,1.8s1,1.7,1.1,2.7V94c-0.1,1-0.4,1.9-1.1,2.7
			c-0.6,0.8-1.4,1.4-2.3,1.9C172.2,99.1,171.2,99.3,170,99.3z M171,94.5c0.8,0,1.4-0.2,2-0.5s1-0.8,1.3-1.4s0.5-1.3,0.5-2.1
			c0-0.8-0.2-1.5-0.5-2c-0.3-0.6-0.8-1.1-1.3-1.4c-0.6-0.3-1.2-0.5-2-0.5c-0.7,0-1.4,0.2-2,0.5c-0.6,0.4-1,0.8-1.3,1.4
			s-0.5,1.3-0.5,2s0.2,1.5,0.5,2.1s0.8,1.1,1.3,1.4C169.6,94.3,170.3,94.5,171,94.5z M179.8,99h-5.3v-4.6l0.8-4.2l-0.9-4.1V73.6h5.4
			V99z"/>
		<path class="st0" d="M186.3,79.7c-0.8,0-1.5-0.3-2.1-0.9s-0.8-1.3-0.8-2.1c0-0.8,0.3-1.5,0.8-2.1s1.2-0.8,2.1-0.8
			c0.9,0,1.6,0.3,2.1,0.8s0.8,1.3,0.8,2.1c0,0.8-0.3,1.5-0.8,2.1C187.9,79.4,187.2,79.7,186.3,79.7z M183.6,99V82h5.4v17H183.6z"/>
		<path class="st0" d="M199.8,99.3c-1.5,0-2.9-0.4-4.2-1.2c-1.2-0.8-2.2-1.8-2.9-3.2c-0.7-1.3-1.1-2.8-1.1-4.5s0.4-3.2,1.1-4.6
			c0.7-1.3,1.7-2.4,2.9-3.2c1.2-0.8,2.6-1.1,4.2-1.1c1.1,0,2.2,0.2,3.1,0.7c0.9,0.4,1.7,1.1,2.3,1.8c0.6,0.8,0.9,1.7,1,2.7v7.4
			c-0.1,1-0.4,1.9-1,2.7c-0.6,0.8-1.3,1.4-2.2,1.8S201,99.3,199.8,99.3z M201,94.5c1.1,0,2.1-0.4,2.7-1.1c0.7-0.7,1-1.7,1-2.9
			c0-0.8-0.2-1.5-0.5-2c-0.3-0.6-0.7-1.1-1.3-1.4s-1.2-0.5-2-0.5c-0.7,0-1.4,0.2-1.9,0.5c-0.6,0.3-1,0.8-1.4,1.4
			c-0.3,0.6-0.5,1.3-0.5,2.1s0.2,1.5,0.5,2.1s0.8,1.1,1.4,1.4C199.6,94.3,200.2,94.5,201,94.5z M204.5,99v-4.6l0.8-4.2l-0.8-4.1V82
			h5.3v17H204.5z"/>
	</g>
</g>
<g>
	<g>
		<path class="st0" d="M74.5,156.8v-24.7H80v24.7H74.5z M78.7,147.8v-4.3H84c0.7,0,1.3-0.1,1.8-0.4c0.5-0.3,1-0.7,1.3-1.2
			s0.5-1.2,0.5-1.9c0-0.8-0.2-1.4-0.5-2c-0.3-0.5-0.8-0.9-1.3-1.2s-1.2-0.4-1.8-0.4h-5.3v-4.3h6.1c1.6,0,3,0.3,4.3,0.9
			c1.3,0.6,2.3,1.5,3,2.7s1.1,2.6,1.1,4.2c0,1.6-0.4,3-1.1,4.2s-1.7,2.1-3,2.7c-1.3,0.6-2.7,0.9-4.3,0.9h-6.1V147.8z"/>
		<path class="st0" d="M102.4,157.1c-1.5,0-2.9-0.4-4.2-1.2c-1.2-0.8-2.2-1.8-2.9-3.2c-0.7-1.3-1.1-2.8-1.1-4.5s0.4-3.2,1.1-4.6
			c0.7-1.3,1.7-2.4,2.9-3.2c1.2-0.8,2.6-1.1,4.2-1.1c1.1,0,2.2,0.2,3.1,0.7c0.9,0.4,1.7,1.1,2.3,1.8c0.6,0.8,0.9,1.7,1,2.7v7.4
			c-0.1,1-0.4,1.9-1,2.7s-1.3,1.4-2.2,1.8S103.5,157.1,102.4,157.1z M103.5,152.3c1.1,0,2.1-0.4,2.7-1.1c0.7-0.7,1-1.7,1-2.9
			c0-0.8-0.2-1.5-0.5-2c-0.3-0.6-0.7-1.1-1.3-1.4c-0.6-0.3-1.2-0.5-2-0.5c-0.7,0-1.4,0.2-1.9,0.5c-0.6,0.3-1,0.8-1.4,1.4
			c-0.3,0.6-0.5,1.3-0.5,2.1s0.2,1.5,0.5,2.1s0.8,1.1,1.4,1.4C102.1,152.1,102.8,152.3,103.5,152.3z M107.1,156.8v-4.6l0.8-4.2
			l-0.8-4.1v-4.2h5.3v17h-5.3V156.8z"/>
		<path class="st0" d="M116.1,156.8v-25.4h5.4v25.4H116.1z M127,156.8l-5.9-8.8l5.9-8.2h6l-7.1,9.2l0.2-2.3l7.3,10H127V156.8z"/>
		<path class="st0" d="M137.3,137.5c-0.8,0-1.5-0.3-2.1-0.9c-0.6-0.6-0.8-1.3-0.8-2.1s0.3-1.5,0.8-2.1s1.2-0.8,2.1-0.8
			c0.9,0,1.6,0.3,2.1,0.8s0.8,1.3,0.8,2.1s-0.3,1.5-0.8,2.1C138.9,137.2,138.2,137.5,137.3,137.5z M134.6,156.8v-17h5.4v17H134.6z"
			/>
		<path class="st0" d="M149.9,157.2c-1,0-2-0.1-3-0.4c-1-0.3-1.9-0.6-2.7-1.1s-1.5-1-2.1-1.7l3.1-3.1c0.6,0.6,1.3,1.1,2,1.4
			c0.8,0.3,1.6,0.5,2.5,0.5c0.6,0,1-0.1,1.4-0.3c0.3-0.2,0.5-0.5,0.5-0.8c0-0.4-0.2-0.7-0.6-0.9c-0.4-0.2-0.9-0.4-1.6-0.6
			c-0.6-0.2-1.3-0.4-2-0.6c-0.7-0.2-1.4-0.5-2-0.9s-1.1-0.9-1.5-1.5c-0.4-0.7-0.6-1.5-0.6-2.6s0.3-2,0.8-2.9
			c0.6-0.8,1.4-1.4,2.4-1.9s2.3-0.7,3.7-0.7s2.8,0.3,4,0.8s2.2,1.2,3,2.2l-3,3.1c-0.5-0.6-1.1-1.1-1.8-1.3c-0.7-0.3-1.3-0.4-1.9-0.4
			c-0.6,0-1.1,0.1-1.4,0.3c-0.3,0.2-0.5,0.4-0.5,0.7c0,0.4,0.2,0.6,0.6,0.8c0.4,0.2,0.9,0.4,1.5,0.6c0.6,0.2,1.3,0.4,2,0.6
			c0.7,0.2,1.4,0.5,2,0.9s1.1,0.9,1.5,1.6c0.4,0.7,0.6,1.5,0.6,2.6c0,1.7-0.6,3-1.9,4C153.7,156.7,152.1,157.2,149.9,157.2z"/>
		<path class="st0" d="M158.3,144.4v-4.6h13.1v4.6H158.3z M162.2,156.8v-24h5.4v24H162.2z"/>
		<path class="st0" d="M180.8,157.1c-1.5,0-2.9-0.4-4.2-1.2c-1.2-0.8-2.2-1.8-2.9-3.2c-0.7-1.3-1.1-2.8-1.1-4.5s0.4-3.2,1.1-4.6
			c0.7-1.3,1.7-2.4,2.9-3.2s2.6-1.1,4.2-1.1c1.1,0,2.2,0.2,3.1,0.7c0.9,0.4,1.7,1.1,2.3,1.8c0.6,0.8,0.9,1.7,1,2.7v7.4
			c-0.1,1-0.4,1.9-1,2.7s-1.3,1.4-2.2,1.8S182,157.1,180.8,157.1z M181.9,152.3c1.1,0,2.1-0.4,2.7-1.1c0.7-0.7,1-1.7,1-2.9
			c0-0.8-0.2-1.5-0.5-2c-0.3-0.6-0.7-1.1-1.3-1.4c-0.6-0.3-1.2-0.5-2-0.5c-0.7,0-1.4,0.2-1.9,0.5c-0.6,0.3-1,0.8-1.4,1.4
			c-0.3,0.6-0.5,1.3-0.5,2.1s0.2,1.5,0.5,2.1s0.8,1.1,1.4,1.4C180.6,152.1,181.2,152.3,181.9,152.3z M185.5,156.8v-4.6l0.8-4.2
			l-0.8-4.1v-4.2h5.3v17h-5.3V156.8z"/>
		<path class="st0" d="M194.5,156.8v-17h5.4v17H194.5z M205.8,156.8v-9.7c0-0.9-0.3-1.6-0.8-2.1c-0.6-0.5-1.3-0.8-2.1-0.8
			c-0.6,0-1.1,0.1-1.5,0.4c-0.4,0.2-0.8,0.6-1.1,1s-0.4,1-0.4,1.5l-2.1-1c0-1.3,0.3-2.5,0.9-3.5c0.6-1,1.4-1.8,2.5-2.3
			c1-0.5,2.2-0.8,3.5-0.8c1.2,0,2.3,0.3,3.3,0.9c1,0.6,1.8,1.4,2.3,2.4c0.6,1,0.8,2.1,0.8,3.2v10.9L205.8,156.8L205.8,156.8z"/>
	</g>
</g>
<g>
	<g>
		<path class="st0" d="M161.4,218.6c-2.1,0-3.9-0.4-5.4-1.3s-2.8-2.1-3.6-3.6c-0.9-1.5-1.3-3.3-1.3-5.2v-15h5.5v15.3
			c0,1,0.2,1.9,0.6,2.6c0.4,0.7,1,1.3,1.7,1.6s1.5,0.6,2.5,0.6c0.9,0,1.7-0.2,2.4-0.6c0.7-0.4,1.3-0.9,1.7-1.6
			c0.4-0.7,0.6-1.6,0.6-2.6v-15.3h5.6v15c0,1.9-0.4,3.7-1.3,5.2c-0.9,1.5-2.1,2.7-3.6,3.6S163.4,218.6,161.4,218.6z"/>
		<path class="st0" d="M183.1,218.6c-2.1,0-3.8-0.3-5.3-1s-2.8-1.7-4-3l3.6-3.6c0.8,0.9,1.7,1.6,2.6,2.1c1,0.5,2.1,0.8,3.4,0.8
			c1.1,0,2-0.2,2.7-0.6c0.6-0.4,1-1,1-1.8c0-0.7-0.2-1.2-0.6-1.6c-0.4-0.4-1-0.8-1.7-1.1s-1.5-0.6-2.3-0.9c-0.8-0.3-1.6-0.6-2.5-1
			c-0.8-0.4-1.6-0.8-2.3-1.4c-0.7-0.5-1.2-1.2-1.7-2.1s-0.6-1.9-0.6-3.1c0-1.5,0.4-2.9,1.1-4c0.7-1.1,1.8-1.9,3.1-2.5
			s2.8-0.9,4.5-0.9c1.8,0,3.3,0.3,4.8,0.9c1.4,0.6,2.6,1.4,3.5,2.5l-3.6,3.6c-0.7-0.8-1.5-1.3-2.3-1.7s-1.6-0.6-2.5-0.6
			c-1,0-1.7,0.2-2.3,0.5c-0.6,0.4-0.8,0.9-0.8,1.6c0,0.6,0.2,1.1,0.6,1.5c0.4,0.4,1,0.7,1.7,1s1.4,0.6,2.3,0.8
			c0.8,0.3,1.7,0.6,2.5,1s1.6,0.8,2.3,1.4c0.7,0.6,1.2,1.3,1.7,2.2c0.4,0.9,0.6,1.9,0.6,3.3c0,2.4-0.8,4.2-2.5,5.5
			C188.4,217.9,186.1,218.6,183.1,218.6z"/>
		<path class="st0" d="M193.5,218.2l9.8-24.7h5l9.7,24.7h-5.8l-7.4-20.5h2l-7.6,20.5H193.5z M199.1,213.8v-4.5h13.4v4.5H199.1z"/>
	</g>
</g>
<g>
	<g>
		<path class="st0" d="M114.8,280.5v-24.7h5.5v24.7H114.8z M119,270.3v-4.1h5.2c1.1,0,1.9-0.3,2.5-0.8s0.9-1.3,0.9-2.2
			c0-0.9-0.3-1.6-0.9-2.2s-1.4-0.9-2.5-0.9H119v-4.3h5.9c1.7,0,3.1,0.3,4.3,0.9s2.2,1.5,2.9,2.6s1,2.3,1,3.7c0,1.5-0.4,2.8-1.1,3.9
			c-0.7,1.1-1.7,1.9-2.9,2.5c-1.3,0.6-2.7,0.9-4.4,0.9H119z M128.2,280.5l-7.7-10.6l5.1-1.4l9.2,12H128.2z"/>
		<path class="st0" d="M144.3,280.9c-1.5,0-2.9-0.3-4.1-1c-1.2-0.7-2.2-1.5-2.9-2.7c-0.7-1.1-1-2.4-1-3.9v-9.8h5.4v9.8
			c0,0.6,0.1,1.1,0.3,1.5s0.5,0.8,0.9,1s0.9,0.3,1.4,0.3c0.8,0,1.4-0.3,1.9-0.8s0.7-1.2,0.7-2.1v-9.8h5.4v9.8c0,1.5-0.3,2.8-1,3.9
			s-1.6,2-2.8,2.7C147.3,280.5,145.9,280.9,144.3,280.9z"/>
		<path class="st0" d="M161.9,280.9c-1,0-2-0.1-3-0.4s-1.9-0.6-2.7-1.1s-1.5-1-2.1-1.7l3.1-3.1c0.6,0.6,1.3,1.1,2,1.4
			c0.8,0.3,1.6,0.5,2.5,0.5c0.6,0,1-0.1,1.4-0.3c0.3-0.2,0.5-0.5,0.5-0.8c0-0.4-0.2-0.7-0.6-0.9c-0.4-0.2-0.9-0.4-1.6-0.6
			c-0.6-0.2-1.3-0.4-2-0.6s-1.4-0.5-2-0.9s-1.1-0.9-1.5-1.5c-0.4-0.7-0.6-1.5-0.6-2.6s0.3-2,0.8-2.9c0.6-0.8,1.4-1.4,2.4-1.9
			s2.3-0.7,3.7-0.7s2.8,0.3,4,0.8s2.2,1.2,3,2.2l-3,3.1c-0.5-0.6-1.1-1.1-1.8-1.3s-1.3-0.4-1.9-0.4c-0.6,0-1.1,0.1-1.4,0.3
			c-0.3,0.2-0.5,0.4-0.5,0.7c0,0.3,0.2,0.6,0.6,0.8c0.4,0.2,0.9,0.4,1.5,0.6s1.3,0.4,2,0.6s1.4,0.5,2,0.9s1.1,0.9,1.5,1.6
			s0.6,1.5,0.6,2.6c0,1.7-0.6,3-1.9,4C165.7,280.4,164,280.9,161.9,280.9z"/>
		<path class="st0" d="M177.9,280.9c-1,0-2-0.1-3-0.4s-1.9-0.6-2.7-1.1s-1.5-1-2.1-1.7l3.1-3.1c0.6,0.6,1.3,1.1,2,1.4
			c0.8,0.3,1.6,0.5,2.5,0.5c0.6,0,1-0.1,1.4-0.3c0.3-0.2,0.5-0.5,0.5-0.8c0-0.4-0.2-0.7-0.6-0.9c-0.4-0.2-0.9-0.4-1.6-0.6
			c-0.6-0.2-1.3-0.4-2-0.6s-1.4-0.5-2-0.9s-1.1-0.9-1.5-1.5c-0.4-0.7-0.6-1.5-0.6-2.6s0.3-2,0.8-2.9c0.6-0.8,1.4-1.4,2.4-1.9
			s2.3-0.7,3.7-0.7s2.8,0.3,4,0.8s2.2,1.2,3,2.2l-3,3.1c-0.5-0.6-1.1-1.1-1.8-1.3s-1.3-0.4-1.9-0.4c-0.6,0-1.1,0.1-1.4,0.3
			c-0.3,0.2-0.5,0.4-0.5,0.7c0,0.3,0.2,0.6,0.6,0.8c0.4,0.2,0.9,0.4,1.5,0.6s1.3,0.4,2,0.6s1.4,0.5,2,0.9s1.1,0.9,1.5,1.6
			s0.6,1.5,0.6,2.6c0,1.7-0.6,3-1.9,4C181.7,280.4,180,280.9,177.9,280.9z"/>
		<path class="st0" d="M190.4,261.2c-0.8,0-1.5-0.3-2.1-0.9s-0.8-1.3-0.8-2.1c0-0.8,0.3-1.5,0.8-2.1c0.6-0.6,1.2-0.8,2.1-0.8
			c0.9,0,1.6,0.3,2.1,0.8c0.5,0.6,0.8,1.3,0.8,2.1c0,0.8-0.3,1.5-0.8,2.1S191.3,261.2,190.4,261.2z M187.7,280.5v-17h5.4v17H187.7z"
			/>
		<path class="st0" d="M203.9,280.8c-1.5,0-2.9-0.4-4.2-1.2c-1.2-0.8-2.2-1.8-2.9-3.2c-0.7-1.3-1.1-2.8-1.1-4.5s0.4-3.2,1.1-4.6
			c0.7-1.3,1.7-2.4,2.9-3.2c1.2-0.8,2.6-1.1,4.2-1.1c1.1,0,2.2,0.2,3.1,0.7c0.9,0.4,1.7,1.1,2.3,1.8c0.6,0.8,0.9,1.7,1,2.7v7.3
			c-0.1,1-0.4,1.9-1,2.7c-0.6,0.8-1.3,1.4-2.2,1.8C206.2,280.6,205.1,280.8,203.9,280.8z M205.1,276c1.1,0,2.1-0.4,2.7-1.1
			c0.7-0.7,1-1.7,1-2.9c0-0.8-0.2-1.5-0.5-2c-0.3-0.6-0.7-1.1-1.3-1.4s-1.2-0.5-2-0.5c-0.7,0-1.4,0.2-1.9,0.5
			c-0.6,0.3-1,0.8-1.4,1.4c-0.3,0.6-0.5,1.3-0.5,2.1c0,0.8,0.2,1.5,0.5,2.1s0.8,1.1,1.4,1.4C203.7,275.8,204.3,276,205.1,276z
			 M208.6,280.5v-4.6l0.8-4.2l-0.8-4.1v-4.2h5.3v17h-5.3V280.5z"/>
	</g>
</g>
<g>
	<path class="st1" d="M121.5,30.2V2.4h3.8v27.8C125.3,30.2,121.5,30.2,121.5,30.2z M124,30.2v-3.4h7.7c2,0,3.8-0.4,5.4-1.3
		c1.6-0.9,2.8-2.1,3.6-3.7c0.9-1.6,1.3-3.4,1.3-5.4s-0.4-3.8-1.3-5.4c-0.9-1.6-2.1-2.8-3.6-3.7S133.8,6,131.7,6H124V2.6h7.8
		c2,0,3.9,0.3,5.6,1c1.7,0.7,3.2,1.7,4.5,2.9s2.3,2.7,3,4.4s1.1,3.5,1.1,5.5s-0.4,3.8-1.1,5.5c-0.7,1.7-1.7,3.2-2.9,4.4
		c-1.3,1.3-2.7,2.2-4.5,2.9c-1.7,0.7-3.6,1-5.6,1C131.9,30.2,124,30.2,124,30.2z"/>
	<path class="st1" d="M150.5,30.2v-19h3.6v19H150.5z M154.1,19.4l-1.4-0.6c0-2.4,0.6-4.4,1.7-5.8c1.1-1.4,2.7-2.2,4.8-2.2
		c1,0,1.8,0.2,2.6,0.5s1.5,0.9,2.2,1.7l-2.4,2.4c-0.4-0.4-0.8-0.7-1.3-0.9s-1-0.3-1.7-0.3c-1.3,0-2.4,0.4-3.3,1.3
		C154.5,16.3,154.1,17.6,154.1,19.4z"/>
	<path class="st1" d="M174,30.6c-1.8,0-3.3-0.4-4.7-1.3s-2.5-2-3.3-3.5s-1.2-3.2-1.2-5c0-1.9,0.4-3.5,1.2-5s1.9-2.7,3.3-3.6
		c1.4-0.9,3-1.3,4.7-1.3c1.4,0,2.7,0.3,3.9,0.9c1.1,0.6,2,1.4,2.7,2.5s1.1,2.3,1.2,3.7v5.7c-0.1,1.4-0.5,2.6-1.1,3.6
		c-0.7,1.1-1.6,1.9-2.7,2.5S175.4,30.6,174,30.6z M174.6,27.2c1.8,0,3.2-0.6,4.3-1.8s1.6-2.8,1.6-4.7c0-1.3-0.3-2.4-0.8-3.4
		s-1.2-1.8-2.1-2.3c-0.9-0.5-1.9-0.8-3.1-0.8c-1.2,0-2.3,0.3-3.2,0.8s-1.6,1.3-2.2,2.3c-0.5,1-0.8,2.1-0.8,3.3
		c0,1.3,0.3,2.4,0.8,3.4s1.2,1.7,2.2,2.3C172.3,26.9,173.4,27.2,174.6,27.2z M180.3,30.2v-5.1l0.7-4.6l-0.7-4.6v-4.6h3.6v19
		L180.3,30.2L180.3,30.2z"/>
	<path class="st1" d="M197.1,29.9c-1.7,0-3.3-0.4-4.7-1.2s-2.5-2-3.3-3.4c-0.8-1.5-1.2-3.1-1.2-4.9s0.4-3.4,1.2-4.9
		c0.8-1.4,1.9-2.6,3.3-3.4c1.4-0.8,2.9-1.3,4.6-1.3c1.5,0,2.8,0.3,4,0.9s2.1,1.4,2.7,2.5c0.7,1.1,1,2.3,1.1,3.7v5
		c-0.1,1.4-0.5,2.6-1.1,3.7c-0.7,1.1-1.6,1.9-2.7,2.5C199.9,29.6,198.5,29.9,197.1,29.9z M197.1,38.6c-2,0-3.7-0.4-5.2-1.1
		c-1.5-0.7-2.7-1.7-3.6-3l2.4-2.4c0.8,1,1.7,1.7,2.8,2.3s2.3,0.8,3.8,0.8c1.9,0,3.5-0.5,4.6-1.5s1.7-2.4,1.7-4.1v-4.7l0.6-4.3
		l-0.6-4.2v-5h3.6v18.2c0,1.8-0.4,3.4-1.3,4.8c-0.8,1.4-2,2.4-3.5,3.2C200.8,38.2,199.1,38.6,197.1,38.6z M197.8,26.5
		c1.2,0,2.2-0.3,3.1-0.8c0.9-0.5,1.6-1.2,2.1-2.1s0.7-2,0.7-3.2s-0.2-2.3-0.7-3.2s-1.2-1.6-2.1-2.2s-1.9-0.8-3.1-0.8
		c-1.2,0-2.3,0.3-3.2,0.8s-1.6,1.2-2.1,2.2c-0.5,0.9-0.8,2-0.8,3.2s0.3,2.3,0.8,3.2s1.2,1.7,2.2,2.2S196.6,26.5,197.8,26.5z"/>
	<path class="st1" d="M220.2,29.9c-1.7,0-3.3-0.4-4.7-1.2s-2.5-2-3.3-3.4c-0.8-1.5-1.2-3.1-1.2-4.9s0.4-3.4,1.2-4.9
		c0.8-1.4,1.9-2.6,3.3-3.4c1.4-0.8,2.9-1.3,4.6-1.3c1.5,0,2.8,0.3,4,0.9s2.1,1.4,2.7,2.5c0.7,1.1,1,2.3,1.1,3.7v5
		c-0.1,1.4-0.5,2.6-1.1,3.7c-0.7,1.1-1.6,1.9-2.7,2.5C223,29.6,221.7,29.9,220.2,29.9z M220.2,38.6c-2,0-3.7-0.4-5.2-1.1
		c-1.5-0.7-2.7-1.7-3.6-3l2.4-2.4c0.8,1,1.7,1.7,2.8,2.3s2.3,0.8,3.8,0.8c1.9,0,3.5-0.5,4.6-1.5s1.7-2.4,1.7-4.1v-4.7l0.6-4.3
		l-0.6-4.2v-5h3.6v18.2c0,1.8-0.4,3.4-1.3,4.8c-0.8,1.4-2,2.4-3.5,3.2C223.9,38.2,222.2,38.6,220.2,38.6z M220.9,26.5
		c1.2,0,2.2-0.3,3.1-0.8c0.9-0.5,1.6-1.2,2.1-2.1s0.7-2,0.7-3.2s-0.2-2.3-0.7-3.2s-1.2-1.6-2.1-2.2s-1.9-0.8-3.1-0.8
		c-1.2,0-2.3,0.3-3.2,0.8s-1.6,1.2-2.1,2.2c-0.5,0.9-0.8,2-0.8,3.2s0.3,2.3,0.8,3.2s1.2,1.7,2.2,2.2S219.7,26.5,220.9,26.5z"/>
	<path class="st1" d="M237.3,7.4c-0.7,0-1.2-0.2-1.6-0.7c-0.4-0.4-0.6-1-0.6-1.7c0-0.6,0.2-1.2,0.6-1.6c0.4-0.4,1-0.7,1.6-0.7
		s1.2,0.2,1.6,0.7c0.4,0.4,0.6,1,0.6,1.6c0,0.7-0.2,1.2-0.6,1.7S237.9,7.4,237.3,7.4z M235.4,30.2v-19h3.6v19H235.4z"/>
	<path class="st1" d="M244.4,30.2v-19h3.6v19H244.4z M257.8,30.2V19.1c0-1.4-0.4-2.6-1.3-3.6c-0.9-0.9-2.1-1.4-3.5-1.4
		c-1,0-1.8,0.2-2.6,0.6c-0.7,0.4-1.3,1-1.8,1.8c-0.4,0.7-0.6,1.6-0.6,2.6l-1.5-0.8c0-1.4,0.3-2.7,1-3.8c0.6-1.1,1.5-2,2.7-2.7
		c1.1-0.7,2.4-1,3.9-1c1.4,0,2.7,0.4,3.8,1.1c1.1,0.7,2,1.7,2.6,2.8s1,2.4,1,3.7v11.8H257.8z"/>
	<path class="st1" d="M274.2,29.9c-1.7,0-3.3-0.4-4.7-1.2c-1.4-0.8-2.5-2-3.3-3.4c-0.8-1.5-1.2-3.1-1.2-4.9s0.4-3.4,1.2-4.9
		c0.8-1.4,1.9-2.6,3.3-3.4s2.9-1.3,4.6-1.3c1.5,0,2.8,0.3,4,0.9s2.1,1.4,2.7,2.5c0.7,1.1,1,2.3,1.1,3.7v5c-0.1,1.4-0.5,2.6-1.1,3.7
		c-0.7,1.1-1.6,1.9-2.7,2.5C277,29.6,275.7,29.9,274.2,29.9z M274.2,38.6c-2,0-3.7-0.4-5.2-1.1c-1.5-0.7-2.7-1.7-3.6-3l2.4-2.4
		c0.8,1,1.7,1.7,2.8,2.3s2.3,0.8,3.8,0.8c1.9,0,3.5-0.5,4.6-1.5s1.7-2.4,1.7-4.1v-4.7l0.6-4.3l-0.6-4.2v-5h3.6v18.2
		c0,1.8-0.4,3.4-1.3,4.8c-0.8,1.4-2,2.4-3.5,3.2C277.9,38.2,276.2,38.6,274.2,38.6z M274.9,26.5c1.2,0,2.2-0.3,3.1-0.8
		s1.6-1.2,2.1-2.1s0.7-2,0.7-3.2s-0.2-2.3-0.7-3.2s-1.2-1.6-2.1-2.2s-1.9-0.8-3.1-0.8s-2.3,0.3-3.2,0.8s-1.6,1.2-2.1,2.2
		c-0.5,0.9-0.8,2-0.8,3.2s0.3,2.3,0.8,3.2s1.2,1.7,2.2,2.2S273.7,26.5,274.9,26.5z"/>
	<path class="st1" d="M296,14.5v-3.3h13v3.3H296z M300.6,30.2v-27h3.6v27H300.6z"/>
	<path class="st1" d="M312.4,30.2V1.6h3.6v28.6H312.4z M325.8,30.2V19.1c0-1.4-0.4-2.6-1.3-3.6c-0.9-0.9-2.1-1.4-3.5-1.4
		c-1,0-1.8,0.2-2.6,0.6c-0.7,0.4-1.3,1-1.8,1.8c-0.4,0.7-0.6,1.6-0.6,2.6l-1.5-0.8c0-1.4,0.3-2.7,1-3.8c0.6-1.1,1.5-2,2.7-2.7
		c1.1-0.7,2.4-1,3.9-1s2.7,0.3,3.8,1c1.1,0.6,2,1.5,2.6,2.7c0.6,1.1,1,2.5,1,4v11.8L325.8,30.2L325.8,30.2z"/>
	<path class="st1" d="M343.2,30.6c-1.9,0-3.6-0.4-5.1-1.3s-2.7-2-3.6-3.5s-1.3-3.2-1.3-5.1s0.4-3.5,1.3-5s2-2.7,3.5-3.5
		c1.5-0.9,3.1-1.3,5-1.3c1.7,0,3.3,0.4,4.6,1.2c1.4,0.8,2.4,1.9,3.2,3.3c0.8,1.4,1.1,3,1.1,4.8c0,0.3,0,0.6,0,0.9s-0.1,0.6-0.2,1
		h-16v-3h14.1l-1.3,1.2c0-1.3-0.2-2.4-0.7-3.3s-1.1-1.6-1.9-2.1s-1.8-0.7-3-0.7s-2.3,0.3-3.2,0.8c-0.9,0.5-1.7,1.3-2.2,2.2
		c-0.5,1-0.8,2.1-0.8,3.4s0.3,2.5,0.8,3.5s1.3,1.8,2.3,2.3s2.1,0.8,3.4,0.8c1.1,0,2-0.2,2.9-0.6s1.7-0.9,2.3-1.7l2.3,2.4
		c-0.9,1.1-2.1,1.9-3.4,2.4S344.7,30.6,343.2,30.6z"/>
	<path class="st1" d="M364.1,30.2V1.6h3.6v28.6H364.1z"/>
	<path class="st1" d="M381,30.6c-1.8,0-3.3-0.4-4.7-1.3c-1.4-0.9-2.5-2-3.3-3.5s-1.2-3.2-1.2-5c0-1.9,0.4-3.5,1.2-5
		c0.8-1.5,1.9-2.7,3.3-3.6s3-1.3,4.7-1.3c1.4,0,2.7,0.3,3.9,0.9c1.1,0.6,2,1.4,2.7,2.5s1.1,2.3,1.2,3.7v5.7
		c-0.1,1.4-0.5,2.6-1.1,3.6c-0.7,1.1-1.6,1.9-2.7,2.5S382.5,30.6,381,30.6z M381.6,27.2c1.8,0,3.2-0.6,4.3-1.8
		c1.1-1.2,1.6-2.8,1.6-4.7c0-1.3-0.3-2.4-0.8-3.4s-1.2-1.8-2.1-2.3s-1.9-0.8-3.1-0.8s-2.3,0.3-3.2,0.8s-1.6,1.3-2.2,2.3
		c-0.5,1-0.8,2.1-0.8,3.3c0,1.3,0.3,2.4,0.8,3.4s1.2,1.7,2.2,2.3C379.4,26.9,380.4,27.2,381.6,27.2z M387.4,30.2v-5.1l0.7-4.6
		l-0.7-4.6v-4.6h3.6v19L387.4,30.2L387.4,30.2z"/>
	<path class="st1" d="M396.2,30.2V1.6h3.6v14.2l-0.7,4.6l0.7,4.6v5.1h-3.6V30.2z M406.2,30.6c-1.4,0-2.7-0.3-3.9-0.9
		c-1.2-0.6-2.1-1.4-2.8-2.5c-0.7-1.1-1.1-2.3-1.2-3.6v-5.7c0.1-1.4,0.5-2.6,1.2-3.7s1.6-1.9,2.8-2.5c1.2-0.6,2.4-0.9,3.9-0.9
		c1.7,0,3.3,0.4,4.7,1.3s2.5,2.1,3.3,3.6s1.2,3.2,1.2,5c0,1.9-0.4,3.5-1.2,5c-0.8,1.5-1.9,2.7-3.3,3.5
		C409.5,30.2,408,30.6,406.2,30.6z M405.6,27.2c1.2,0,2.3-0.3,3.2-0.8c0.9-0.6,1.6-1.3,2.1-2.3s0.8-2.1,0.8-3.4s-0.3-2.4-0.8-3.3
		c-0.5-1-1.2-1.7-2.1-2.3s-2-0.8-3.2-0.8s-2.2,0.3-3.1,0.8c-0.9,0.6-1.6,1.3-2.1,2.3s-0.8,2.1-0.8,3.4s0.2,2.4,0.7,3.3
		c0.5,1,1.2,1.7,2.1,2.3S404.5,27.2,405.6,27.2z"/>
	<path class="st1" d="M428.3,30.6c-1.9,0-3.6-0.4-5.1-1.3s-2.7-2-3.6-3.5s-1.3-3.2-1.3-5.1s0.4-3.5,1.3-5s2-2.7,3.5-3.5
		c1.5-0.9,3.1-1.3,5-1.3c1.7,0,3.3,0.4,4.6,1.2c1.4,0.8,2.4,1.9,3.2,3.3c0.8,1.4,1.1,3,1.1,4.8c0,0.3,0,0.6,0,0.9s-0.1,0.6-0.2,1
		h-16v-3h14.1l-1.3,1.2c0-1.3-0.2-2.4-0.7-3.3s-1.1-1.6-1.9-2.1s-1.8-0.7-3-0.7s-2.3,0.3-3.2,0.8c-0.9,0.5-1.7,1.3-2.2,2.2
		c-0.5,1-0.8,2.1-0.8,3.4s0.3,2.5,0.8,3.5s1.3,1.8,2.3,2.3s2.1,0.8,3.4,0.8c1.1,0,2-0.2,2.9-0.6s1.7-0.9,2.3-1.7l2.3,2.4
		c-0.9,1.1-2.1,1.9-3.4,2.4S429.8,30.6,428.3,30.6z"/>
	<path class="st1" d="M441,30.2V1.6h3.6v28.6H441z"/>
	<path class="st1" d="M455.9,30.6c-1.1,0-2.1-0.1-3-0.4s-1.8-0.7-2.6-1.2c-0.8-0.5-1.5-1.1-2.1-1.9l2.3-2.3c0.7,0.9,1.5,1.5,2.4,1.9
		s1.9,0.6,3,0.6s2-0.2,2.6-0.6s0.9-0.9,0.9-1.6s-0.2-1.2-0.7-1.6s-1.1-0.7-1.9-1s-1.6-0.5-2.5-0.7s-1.7-0.6-2.5-1s-1.4-1-1.9-1.7
		s-0.7-1.6-0.7-2.8s0.3-2.1,0.8-3c0.5-0.8,1.3-1.5,2.3-1.9c1-0.5,2.2-0.7,3.6-0.7c1.5,0,2.8,0.3,4,0.8s2.1,1.3,2.9,2.3l-2.3,2.3
		c-0.6-0.7-1.2-1.2-2-1.6s-1.7-0.6-2.6-0.6c-1,0-1.8,0.2-2.4,0.6c-0.5,0.4-0.8,0.9-0.8,1.5s0.2,1.1,0.7,1.5c0.5,0.3,1.1,0.6,1.9,0.9
		c0.8,0.2,1.6,0.5,2.5,0.7c0.9,0.3,1.7,0.6,2.4,1c0.8,0.4,1.4,1,1.9,1.7s0.7,1.7,0.7,2.8c0,1.8-0.6,3.2-1.9,4.2S458,30.6,455.9,30.6
		z"/>
	<path class="st1" d="M477,7.4c-0.7,0-1.2-0.2-1.6-0.7s-0.6-1-0.6-1.7c0-0.6,0.2-1.2,0.6-1.6s1-0.7,1.6-0.7c0.7,0,1.2,0.2,1.6,0.7
		c0.4,0.4,0.6,1,0.6,1.6c0,0.7-0.2,1.2-0.6,1.7S477.7,7.4,477,7.4z M475.2,30.2v-19h3.6v19H475.2z"/>
	<path class="st1" d="M484.2,30.2v-19h3.6v19H484.2z M497.6,30.2V19.1c0-1.4-0.4-2.6-1.3-3.6c-0.9-0.9-2.1-1.4-3.5-1.4
		c-1,0-1.8,0.2-2.6,0.6c-0.7,0.4-1.3,1-1.8,1.8c-0.4,0.7-0.6,1.6-0.6,2.6l-1.5-0.8c0-1.4,0.3-2.7,1-3.8c0.6-1.1,1.5-2,2.7-2.7
		c1.1-0.7,2.4-1,3.9-1s2.7,0.4,3.8,1.1c1.1,0.7,2,1.7,2.6,2.8c0.6,1.2,1,2.4,1,3.7v11.8H497.6z"/>
	<path class="st1" d="M504.3,14.5v-3.3h13v3.3H504.3z M509,30.2v-27h3.6v27H509z"/>
	<path class="st1" d="M529.4,30.6c-1.8,0-3.5-0.4-5-1.3s-2.7-2.1-3.6-3.6c-0.9-1.5-1.3-3.2-1.3-5.1c0-1.8,0.4-3.5,1.3-5
		c0.9-1.5,2.1-2.7,3.6-3.5c1.5-0.9,3.2-1.3,5-1.3c1.9,0,3.6,0.4,5.1,1.3s2.7,2,3.6,3.5c0.9,1.5,1.3,3.2,1.3,5c0,1.9-0.4,3.6-1.3,5.1
		c-0.9,1.5-2.1,2.7-3.6,3.6S531.3,30.6,529.4,30.6z M529.4,27.1c1.2,0,2.3-0.3,3.2-0.8c0.9-0.6,1.7-1.3,2.2-2.3s0.8-2.1,0.8-3.3
		s-0.3-2.3-0.8-3.3s-1.3-1.7-2.2-2.3c-0.9-0.5-2-0.8-3.2-0.8s-2.2,0.3-3.2,0.8c-0.9,0.5-1.7,1.3-2.2,2.3s-0.8,2.1-0.8,3.3
		c0,1.3,0.3,2.4,0.8,3.3c0.5,1,1.3,1.7,2.2,2.3S528.3,27.1,529.4,27.1z"/>
	<path class="st1" d="M551.7,30.2V1.6h3.6v14.2l-0.7,4.6l0.7,4.6v5.1h-3.6V30.2z M561.7,30.6c-1.4,0-2.7-0.3-3.9-0.9
		s-2.1-1.4-2.8-2.5s-1.1-2.3-1.2-3.6v-5.7c0.1-1.4,0.5-2.6,1.2-3.7s1.6-1.9,2.8-2.5s2.4-0.9,3.9-0.9c1.7,0,3.3,0.4,4.7,1.3
		s2.5,2.1,3.3,3.6s1.2,3.2,1.2,5c0,1.9-0.4,3.5-1.2,5s-1.9,2.7-3.3,3.5C565,30.2,563.4,30.6,561.7,30.6z M561.1,27.2
		c1.2,0,2.3-0.3,3.2-0.8c0.9-0.6,1.6-1.3,2.1-2.3s0.8-2.1,0.8-3.4s-0.3-2.4-0.8-3.3c-0.5-1-1.2-1.7-2.1-2.3c-0.9-0.6-2-0.8-3.2-0.8
		s-2.2,0.3-3.1,0.8c-0.9,0.6-1.6,1.3-2.1,2.3s-0.8,2.1-0.8,3.4s0.2,2.4,0.7,3.3c0.5,1,1.2,1.7,2.1,2.3S559.9,27.2,561.1,27.2z"/>
	<path class="st1" d="M583.6,30.6c-1.8,0-3.5-0.4-5-1.3s-2.7-2.1-3.6-3.6c-0.9-1.5-1.3-3.2-1.3-5.1c0-1.8,0.4-3.5,1.3-5
		s2.1-2.7,3.6-3.5c1.5-0.9,3.2-1.3,5-1.3c1.9,0,3.6,0.4,5.1,1.3s2.7,2,3.6,3.5c0.9,1.5,1.3,3.2,1.3,5c0,1.9-0.4,3.6-1.3,5.1
		c-0.9,1.5-2.1,2.7-3.6,3.6S585.5,30.6,583.6,30.6z M583.6,27.1c1.2,0,2.3-0.3,3.2-0.8s1.7-1.3,2.2-2.3s0.8-2.1,0.8-3.3
		s-0.3-2.3-0.8-3.3s-1.3-1.7-2.2-2.3c-0.9-0.5-2-0.8-3.2-0.8s-2.2,0.3-3.2,0.8c-0.9,0.5-1.7,1.3-2.2,2.3s-0.8,2.1-0.8,3.3
		c0,1.3,0.3,2.4,0.8,3.3c0.5,1,1.3,1.7,2.2,2.3C581.4,26.8,582.4,27.1,583.6,27.1z"/>
	<path class="st1" d="M595,30.2l7.8-10.6l2,2.6l-5.6,7.9L595,30.2L595,30.2z M609.4,30.2l-5.9-8.3l-0.7-0.6l-7.5-10.1h4.4l5.4,7.4
		l0.7,0.6l8,11C613.8,30.2,609.4,30.2,609.4,30.2z M606.1,21.2l-2.1-2.6l5.3-7.4h4.2L606.1,21.2z"/>
	<path class="st1" d="M625.3,30.6c-1.9,0-3.6-0.4-5.1-1.3s-2.7-2-3.6-3.5c-0.9-1.5-1.3-3.2-1.3-5.1s0.4-3.5,1.3-5
		c0.9-1.5,2-2.7,3.5-3.5c1.5-0.9,3.1-1.3,5-1.3c1.7,0,3.3,0.4,4.6,1.2c1.4,0.8,2.4,1.9,3.2,3.3s1.1,3,1.1,4.8c0,0.3,0,0.6,0,0.9
		s-0.1,0.6-0.2,1h-16v-3h14.1l-1.3,1.2c0-1.3-0.2-2.4-0.7-3.3s-1.1-1.6-1.9-2.1c-0.8-0.5-1.8-0.7-3-0.7s-2.3,0.3-3.2,0.8
		s-1.7,1.3-2.2,2.2s-0.8,2.1-0.8,3.4s0.3,2.5,0.8,3.5s1.3,1.8,2.3,2.3s2.1,0.8,3.4,0.8c1.1,0,2-0.2,2.9-0.6s1.7-0.9,2.3-1.7l2.3,2.4
		c-0.9,1.1-2.1,1.9-3.4,2.4S626.8,30.6,625.3,30.6z"/>
	<path class="st1" d="M644,30.6c-1.1,0-2.1-0.1-3-0.4s-1.8-0.7-2.6-1.2s-1.5-1.1-2.1-1.9l2.3-2.3c0.7,0.9,1.5,1.5,2.4,1.9
		s1.9,0.6,3,0.6s2-0.2,2.6-0.6s0.9-0.9,0.9-1.6s-0.2-1.2-0.7-1.6s-1.1-0.7-1.9-1c-0.8-0.3-1.6-0.5-2.5-0.7s-1.7-0.6-2.5-1
		s-1.4-1-1.9-1.7s-0.7-1.6-0.7-2.8s0.3-2.1,0.8-3c0.5-0.8,1.3-1.5,2.3-1.9c1-0.5,2.2-0.7,3.6-0.7c1.5,0,2.8,0.3,4,0.8
		s2.1,1.3,2.9,2.3l-2.3,2.3c-0.6-0.7-1.2-1.2-2-1.6s-1.7-0.6-2.6-0.6c-1,0-1.8,0.2-2.4,0.6c-0.5,0.4-0.8,0.9-0.8,1.5
		s0.2,1.1,0.7,1.5c0.5,0.3,1.1,0.6,1.9,0.9c0.8,0.2,1.6,0.5,2.5,0.7c0.9,0.3,1.7,0.6,2.4,1c0.8,0.4,1.4,1,1.9,1.7s0.7,1.7,0.7,2.8
		c0,1.8-0.6,3.2-1.9,4.2C647.8,30.1,646.1,30.6,644,30.6z"/>
</g>
</svg>
