<?xml version="1.0" encoding="utf-8"?>
<!-- Generator: Adobe Illustrator 26.4.1, SVG Export Plug-In . SVG Version: 6.00 Build 0)  -->
<svg version="1.1" id="Layer_1" xmlns="http://www.w3.org/2000/svg" xmlns:xlink="http://www.w3.org/1999/xlink" x="0px" y="0px"
	 viewBox="0 0 500 450" style="enable-background:new 0 0 500 450;" xml:space="preserve">
<style type="text/css">
	.st0{fill:#CCCCCC;}
	.st1{fill:#FFFFFF;}
</style>
<g>
	<g>
		<path class="st0" d="M95.5,164.7V140h5.5v24.7H95.5z"/>
		<path class="st0" d="M105.2,164.7v-17h5.4v17H105.2z M116.5,164.7V155c0-0.9-0.3-1.6-0.8-2.1c-0.6-0.5-1.3-0.8-2.1-0.8
			c-0.6,0-1.1,0.1-1.5,0.4c-0.4,0.2-0.8,0.6-1.1,1c-0.3,0.4-0.4,1-0.4,1.5l-2.1-1c0-1.3,0.3-2.5,0.9-3.5s1.4-1.8,2.5-2.3
			c1-0.5,2.2-0.8,3.5-0.8c1.2,0,2.3,0.3,3.3,0.9c1,0.6,1.8,1.4,2.3,2.4c0.6,1,0.8,2.1,0.8,3.2v10.9L116.5,164.7L116.5,164.7z"/>
		<path class="st0" d="M132.5,165c-1.6,0-3.1-0.4-4.3-1.2s-2.2-1.8-2.9-3.1c-0.7-1.3-1.1-2.8-1.1-4.5s0.4-3.2,1.1-4.6
			c0.7-1.3,1.7-2.4,2.9-3.1c1.3-0.8,2.7-1.2,4.3-1.2c1.1,0,2.2,0.2,3.2,0.6c1,0.4,1.7,1,2.3,1.8s1,1.7,1.1,2.7v7.2
			c-0.1,1-0.4,1.9-1.1,2.7c-0.6,0.8-1.4,1.4-2.3,1.9C134.7,164.8,133.7,165,132.5,165z M133.5,160.2c0.8,0,1.4-0.2,2-0.5
			s1-0.8,1.3-1.4c0.3-0.6,0.5-1.3,0.5-2.1s-0.2-1.5-0.5-2c-0.3-0.6-0.8-1.1-1.3-1.4c-0.6-0.3-1.2-0.5-2-0.5c-0.7,0-1.4,0.2-2,0.5
			c-0.6,0.4-1,0.8-1.3,1.4c-0.3,0.6-0.5,1.3-0.5,2s0.2,1.5,0.5,2.1s0.8,1.1,1.3,1.4C132.1,160,132.7,160.2,133.5,160.2z
			 M142.3,164.7H137v-4.6l0.8-4.2l-0.9-4.1v-12.6h5.4V164.7z"/>
		<path class="st0" d="M148.8,145.4c-0.8,0-1.5-0.3-2.1-0.9c-0.6-0.6-0.8-1.3-0.8-2.1s0.3-1.5,0.8-2.1s1.2-0.8,2.1-0.8
			c0.9,0,1.6,0.3,2.1,0.8s0.8,1.3,0.8,2.1s-0.3,1.5-0.8,2.1C150.4,145.1,149.7,145.4,148.8,145.4z M146.1,164.7v-17h5.4v17H146.1z"
			/>
		<path class="st0" d="M162.3,165c-1.5,0-2.9-0.4-4.2-1.2c-1.2-0.8-2.2-1.8-2.9-3.2c-0.7-1.3-1.1-2.8-1.1-4.5s0.4-3.2,1.1-4.6
			c0.7-1.3,1.7-2.4,2.9-3.2s2.6-1.1,4.2-1.1c1.1,0,2.2,0.2,3.1,0.7c0.9,0.4,1.7,1.1,2.3,1.8c0.6,0.8,0.9,1.7,1,2.7v7.4
			c-0.1,1-0.4,1.9-1,2.7s-1.3,1.4-2.2,1.8S163.5,165,162.3,165z M163.4,160.2c1.1,0,2.1-0.4,2.7-1.1c0.7-0.7,1-1.7,1-2.9
			c0-0.8-0.2-1.5-0.5-2c-0.3-0.6-0.7-1.1-1.3-1.4c-0.6-0.3-1.2-0.5-2-0.5c-0.7,0-1.4,0.2-1.9,0.5c-0.6,0.3-1,0.8-1.4,1.4
			c-0.3,0.6-0.5,1.3-0.5,2.1s0.2,1.5,0.5,2.1s0.8,1.1,1.4,1.4C162.1,160,162.7,160.2,163.4,160.2z M167,164.7v-4.6l0.8-4.2l-0.8-4.1
			v-4.2h5.3v17H167V164.7z"/>
	</g>
</g>
<g>
	<g>
		<path class="st0" d="M36,253.7V229h5.5v24.7H36z M40.2,244.7v-4.3h5.3c0.7,0,1.3-0.1,1.8-0.4c0.5-0.3,1-0.7,1.3-1.2
			s0.5-1.2,0.5-1.9c0-0.8-0.2-1.4-0.5-2s-0.8-0.9-1.3-1.2s-1.2-0.4-1.8-0.4h-5.3V229h6.1c1.6,0,3,0.3,4.3,0.9c1.3,0.6,2.3,1.5,3,2.7
			s1.1,2.6,1.1,4.2c0,1.6-0.4,3-1.1,4.2c-0.7,1.2-1.7,2.1-3,2.7c-1.3,0.6-2.7,0.9-4.3,0.9h-6.1V244.7z"/>
		<path class="st0" d="M63.9,254.1c-1.5,0-2.9-0.4-4.2-1.2c-1.2-0.8-2.2-1.8-2.9-3.2c-0.7-1.3-1.1-2.8-1.1-4.5s0.4-3.2,1.1-4.6
			c0.7-1.3,1.7-2.4,2.9-3.2s2.6-1.1,4.2-1.1c1.1,0,2.2,0.2,3.1,0.7c0.9,0.4,1.7,1.1,2.3,1.8c0.6,0.8,0.9,1.7,1,2.7v7.4
			c-0.1,1-0.4,1.9-1,2.7s-1.3,1.4-2.2,1.8C66.1,253.9,65,254.1,63.9,254.1z M65,249.2c1.1,0,2.1-0.4,2.7-1.1c0.7-0.7,1-1.7,1-2.9
			c0-0.8-0.2-1.5-0.5-2s-0.7-1.1-1.3-1.4c-0.6-0.3-1.2-0.5-2-0.5c-0.7,0-1.4,0.2-1.9,0.5c-0.6,0.3-1,0.8-1.4,1.4
			c-0.3,0.6-0.5,1.3-0.5,2.1s0.2,1.5,0.5,2.1s0.8,1.1,1.4,1.4C63.6,249.1,64.3,249.2,65,249.2z M68.5,253.7v-4.6l0.8-4.2l-0.8-4.1
			v-4.2h5.3v17h-5.3V253.7z"/>
		<path class="st0" d="M77.6,253.7v-25.4H83v25.4H77.6z M88.5,253.7l-5.9-8.8l5.9-8.2h6l-7.1,9.2l0.2-2.3l7.3,10h-6.4V253.7z"/>
		<path class="st0" d="M98.8,234.4c-0.8,0-1.5-0.3-2.1-0.9c-0.6-0.6-0.8-1.3-0.8-2.1s0.3-1.5,0.8-2.1c0.6-0.6,1.2-0.8,2.1-0.8
			s1.6,0.3,2.1,0.8c0.5,0.6,0.8,1.3,0.8,2.1s-0.3,1.5-0.8,2.1C100.3,234.1,99.6,234.4,98.8,234.4z M96.1,253.7v-17h5.4v17H96.1z"/>
		<path class="st0" d="M111.4,254.2c-1,0-2-0.1-3-0.4c-1-0.3-1.9-0.6-2.7-1.1c-0.8-0.5-1.5-1-2.1-1.7l3.1-3.1c0.6,0.6,1.3,1.1,2,1.4
			c0.8,0.3,1.6,0.5,2.5,0.5c0.6,0,1-0.1,1.4-0.3c0.3-0.2,0.5-0.5,0.5-0.8c0-0.4-0.2-0.7-0.6-0.9s-0.9-0.4-1.6-0.6
			c-0.6-0.2-1.3-0.4-2-0.6c-0.7-0.2-1.4-0.5-2-0.9s-1.1-0.9-1.5-1.5c-0.4-0.7-0.6-1.5-0.6-2.6s0.3-2,0.8-2.9
			c0.6-0.8,1.4-1.4,2.4-1.9s2.3-0.7,3.7-0.7c1.4,0,2.8,0.3,4,0.8s2.2,1.2,3,2.2l-3,3.1c-0.5-0.6-1.1-1.1-1.8-1.3
			c-0.7-0.3-1.3-0.4-1.9-0.4s-1.1,0.1-1.4,0.3s-0.5,0.4-0.5,0.7c0,0.4,0.2,0.6,0.6,0.8s0.9,0.4,1.5,0.6c0.6,0.2,1.3,0.4,2,0.6
			c0.7,0.2,1.4,0.5,2,0.9s1.1,0.9,1.5,1.6c0.4,0.7,0.6,1.5,0.6,2.6c0,1.7-0.6,3-1.9,4C115.2,253.7,113.5,254.2,111.4,254.2z"/>
		<path class="st0" d="M119.8,241.3v-4.6h13.1v4.6H119.8z M123.6,253.7v-24h5.4v24H123.6z"/>
		<path class="st0" d="M142.3,254.1c-1.5,0-2.9-0.4-4.2-1.2c-1.2-0.8-2.2-1.8-2.9-3.2c-0.7-1.3-1.1-2.8-1.1-4.5s0.4-3.2,1.1-4.6
			c0.7-1.3,1.7-2.4,2.9-3.2s2.6-1.1,4.2-1.1c1.1,0,2.2,0.2,3.1,0.7c0.9,0.4,1.7,1.1,2.3,1.8c0.6,0.8,0.9,1.7,1,2.7v7.4
			c-0.1,1-0.4,1.9-1,2.7s-1.3,1.4-2.2,1.8C144.5,253.9,143.5,254.1,142.3,254.1z M143.4,249.2c1.1,0,2.1-0.4,2.7-1.1
			c0.7-0.7,1-1.7,1-2.9c0-0.8-0.2-1.5-0.5-2s-0.7-1.1-1.3-1.4c-0.6-0.3-1.2-0.5-2-0.5c-0.7,0-1.4,0.2-1.9,0.5
			c-0.6,0.3-1,0.8-1.4,1.4c-0.3,0.6-0.5,1.3-0.5,2.1s0.2,1.5,0.5,2.1s0.8,1.1,1.4,1.4C142,249.1,142.7,249.2,143.4,249.2z
			 M147,253.7v-4.6l0.8-4.2l-0.8-4.1v-4.2h5.3v17H147V253.7z"/>
		<path class="st0" d="M156,253.7v-17h5.4v17H156z M167.3,253.7V244c0-0.9-0.3-1.6-0.8-2.1s-1.3-0.8-2.1-0.8c-0.6,0-1.1,0.1-1.5,0.4
			c-0.4,0.2-0.8,0.6-1.1,1s-0.4,1-0.4,1.5l-2.1-1c0-1.3,0.3-2.5,0.9-3.5c0.6-1,1.4-1.8,2.5-2.3c1-0.5,2.2-0.8,3.5-0.8
			c1.2,0,2.3,0.3,3.3,0.9c1,0.6,1.8,1.4,2.3,2.4c0.6,1,0.8,2.1,0.8,3.2v10.9L167.3,253.7L167.3,253.7z"/>
	</g>
</g>
<g>
	<g>
		<path class="st0" d="M118,337.6c-2.1,0-3.9-0.4-5.4-1.3s-2.8-2.1-3.6-3.6c-0.9-1.5-1.3-3.3-1.3-5.2v-15h5.5v15.3
			c0,1,0.2,1.9,0.6,2.6s1,1.3,1.7,1.6s1.5,0.6,2.5,0.6c0.9,0,1.7-0.2,2.4-0.6c0.7-0.4,1.3-0.9,1.7-1.6c0.4-0.7,0.6-1.6,0.6-2.6
			v-15.3h5.6v15c0,1.9-0.4,3.7-1.3,5.2s-2.1,2.7-3.6,3.6S120,337.6,118,337.6z"/>
		<path class="st0" d="M139.7,337.6c-2.1,0-3.8-0.3-5.3-1s-2.8-1.7-4-3l3.6-3.6c0.8,0.9,1.7,1.6,2.6,2.1c1,0.5,2.1,0.8,3.4,0.8
			c1.1,0,2-0.2,2.7-0.6c0.6-0.4,1-1,1-1.8c0-0.7-0.2-1.2-0.6-1.6c-0.4-0.4-1-0.8-1.7-1.1c-0.7-0.3-1.5-0.6-2.3-0.9s-1.6-0.6-2.5-1
			c-0.8-0.4-1.6-0.8-2.3-1.4c-0.7-0.5-1.2-1.2-1.7-2.1s-0.6-1.9-0.6-3.1c0-1.5,0.4-2.9,1.1-4c0.7-1.1,1.8-1.9,3.1-2.5
			s2.8-0.9,4.5-0.9c1.8,0,3.3,0.3,4.8,0.9c1.4,0.6,2.6,1.4,3.5,2.5l-3.6,3.6c-0.7-0.8-1.5-1.3-2.3-1.7c-0.8-0.4-1.6-0.6-2.5-0.6
			c-1,0-1.7,0.2-2.3,0.5c-0.6,0.4-0.8,0.9-0.8,1.6c0,0.6,0.2,1.1,0.6,1.5c0.4,0.4,1,0.7,1.7,1s1.4,0.6,2.3,0.8
			c0.8,0.3,1.7,0.6,2.5,1s1.6,0.8,2.3,1.4s1.2,1.3,1.7,2.2c0.4,0.9,0.6,1.9,0.6,3.3c0,2.4-0.8,4.2-2.5,5.5
			C145.1,336.9,142.7,337.6,139.7,337.6z"/>
		<path class="st0" d="M150.2,337.2l9.8-24.7h5l9.7,24.7h-5.8l-7.4-20.5h2l-7.6,20.5H150.2z M155.8,332.8v-4.5h13.4v4.5H155.8z"/>
	</g>
</g>
<g>
	<g>
		<path class="st0" d="M73.2,421.2v-24.7h5.5v24.7H73.2z M77.4,411.1V407h5.2c1.1,0,1.9-0.3,2.5-0.8s0.9-1.3,0.9-2.2
			c0-0.9-0.3-1.6-0.9-2.2s-1.4-0.9-2.5-0.9h-5.2v-4.3h5.9c1.7,0,3.1,0.3,4.3,0.9c1.2,0.6,2.2,1.5,2.9,2.6c0.7,1.1,1,2.3,1,3.7
			c0,1.5-0.4,2.8-1.1,3.9s-1.7,1.9-2.9,2.5c-1.3,0.6-2.7,0.9-4.4,0.9H77.4z M86.6,421.2l-7.7-10.6l5.1-1.4l9.2,12H86.6z"/>
		<path class="st0" d="M102.7,421.6c-1.5,0-2.9-0.3-4.1-1s-2.2-1.5-2.9-2.7c-0.7-1.1-1-2.4-1-3.9v-9.8h5.4v9.8
			c0,0.6,0.1,1.1,0.3,1.5s0.5,0.8,0.9,1s0.9,0.3,1.4,0.3c0.8,0,1.4-0.3,1.9-0.8s0.7-1.2,0.7-2.1v-9.8h5.4v9.8c0,1.5-0.3,2.8-1,3.9
			s-1.6,2-2.8,2.7C105.7,421.3,104.3,421.6,102.7,421.6z"/>
		<path class="st0" d="M120.2,421.7c-1,0-2-0.1-3-0.4s-1.9-0.6-2.7-1.1c-0.8-0.5-1.5-1-2.1-1.7l3.1-3.1c0.6,0.6,1.3,1.1,2,1.4
			c0.8,0.3,1.6,0.5,2.5,0.5c0.6,0,1-0.1,1.4-0.3c0.3-0.2,0.5-0.5,0.5-0.8c0-0.4-0.2-0.7-0.6-0.9c-0.4-0.2-0.9-0.4-1.6-0.6
			c-0.6-0.2-1.3-0.4-2-0.6s-1.4-0.5-2-0.9s-1.1-0.9-1.5-1.5c-0.4-0.7-0.6-1.5-0.6-2.6s0.3-2,0.8-2.9c0.6-0.8,1.4-1.4,2.4-1.9
			s2.3-0.7,3.7-0.7c1.4,0,2.8,0.3,4,0.8s2.2,1.2,3,2.2l-3,3.1c-0.5-0.6-1.1-1.1-1.8-1.3c-0.7-0.3-1.3-0.4-1.9-0.4s-1.1,0.1-1.4,0.3
			c-0.3,0.2-0.5,0.4-0.5,0.7c0,0.3,0.2,0.6,0.6,0.8c0.4,0.2,0.9,0.4,1.5,0.6s1.3,0.4,2,0.6s1.4,0.5,2,0.9s1.1,0.9,1.5,1.6
			s0.6,1.5,0.6,2.6c0,1.7-0.6,3-1.9,4C124,421.2,122.4,421.7,120.2,421.7z"/>
		<path class="st0" d="M136.3,421.7c-1,0-2-0.1-3-0.4s-1.9-0.6-2.7-1.1s-1.5-1-2.1-1.7l3.1-3.1c0.6,0.6,1.3,1.1,2,1.4
			c0.8,0.3,1.6,0.5,2.5,0.5c0.6,0,1-0.1,1.4-0.3c0.3-0.2,0.5-0.5,0.5-0.8c0-0.4-0.2-0.7-0.6-0.9c-0.4-0.2-0.9-0.4-1.6-0.6
			c-0.6-0.2-1.3-0.4-2-0.6s-1.4-0.5-2-0.9s-1.1-0.9-1.5-1.5c-0.4-0.7-0.6-1.5-0.6-2.6s0.3-2,0.8-2.9c0.6-0.8,1.4-1.4,2.4-1.9
			s2.3-0.7,3.7-0.7s2.8,0.3,4,0.8s2.2,1.2,3,2.2l-3,3.1c-0.5-0.6-1.1-1.1-1.8-1.3c-0.7-0.3-1.3-0.4-1.9-0.4c-0.6,0-1.1,0.1-1.4,0.3
			c-0.3,0.2-0.5,0.4-0.5,0.7c0,0.3,0.2,0.6,0.6,0.8c0.4,0.2,0.9,0.4,1.5,0.6s1.3,0.4,2,0.6s1.4,0.5,2,0.9s1.1,0.9,1.5,1.6
			s0.6,1.5,0.6,2.6c0,1.7-0.6,3-1.9,4C140.1,421.2,138.4,421.7,136.3,421.7z"/>
		<path class="st0" d="M148.8,401.9c-0.8,0-1.5-0.3-2.1-0.9s-0.8-1.3-0.8-2.1c0-0.8,0.3-1.5,0.8-2.1c0.6-0.6,1.2-0.8,2.1-0.8
			c0.9,0,1.6,0.3,2.1,0.8c0.5,0.6,0.8,1.3,0.8,2.1c0,0.8-0.3,1.5-0.8,2.1C150.4,401.6,149.7,401.9,148.8,401.9z M146.1,421.2v-17
			h5.4v17H146.1z"/>
		<path class="st0" d="M162.3,421.6c-1.5,0-2.9-0.4-4.2-1.2c-1.2-0.8-2.2-1.8-2.9-3.2c-0.7-1.3-1.1-2.8-1.1-4.5s0.4-3.2,1.1-4.6
			c0.7-1.3,1.7-2.4,2.9-3.2c1.2-0.8,2.6-1.1,4.2-1.1c1.1,0,2.2,0.2,3.1,0.7c0.9,0.4,1.7,1.1,2.3,1.8c0.6,0.8,0.9,1.7,1,2.7v7.3
			c-0.1,1-0.4,1.9-1,2.7c-0.6,0.8-1.3,1.4-2.2,1.8C164.5,421.3,163.5,421.6,162.3,421.6z M163.4,416.7c1.1,0,2.1-0.4,2.7-1.1
			c0.7-0.7,1-1.7,1-2.9c0-0.8-0.2-1.5-0.5-2c-0.3-0.6-0.7-1.1-1.3-1.4s-1.2-0.5-2-0.5c-0.7,0-1.4,0.2-1.9,0.5
			c-0.6,0.3-1,0.8-1.4,1.4c-0.3,0.6-0.5,1.3-0.5,2.1s0.2,1.5,0.5,2.1s0.8,1.1,1.4,1.4C162.1,416.5,162.7,416.7,163.4,416.7z
			 M167,421.2v-4.6l0.8-4.2l-0.8-4.1v-4.2h5.3v17H167V421.2z"/>
	</g>
</g>
<g>
	<path class="st1" d="M79.3,39.3V11.5h3.8v27.8H79.3z M81.8,39.3v-3.4h7.7c2,0,3.8-0.4,5.4-1.3s2.8-2.1,3.6-3.7
		c0.9-1.6,1.3-3.4,1.3-5.4s-0.4-3.8-1.3-5.4s-2.1-2.8-3.6-3.7c-1.5-0.9-3.3-1.3-5.4-1.3h-7.7v-3.4h7.8c2,0,3.9,0.3,5.6,1
		s3.2,1.7,4.5,2.9c1.3,1.3,2.3,2.7,3,4.4c0.7,1.7,1.1,3.5,1.1,5.5s-0.4,3.8-1.1,5.5s-1.7,3.2-2.9,4.4c-1.3,1.3-2.7,2.2-4.5,2.9
		c-1.7,0.7-3.6,1-5.6,1H81.8z"/>
	<path class="st1" d="M108.3,39.3v-19h3.6v19H108.3z M111.9,28.5l-1.4-0.6c0-2.4,0.6-4.4,1.7-5.8c1.1-1.4,2.7-2.2,4.8-2.2
		c1,0,1.8,0.2,2.6,0.5c0.8,0.3,1.5,0.9,2.2,1.7l-2.4,2.4c-0.4-0.4-0.8-0.7-1.3-0.9c-0.5-0.2-1-0.3-1.7-0.3c-1.3,0-2.4,0.4-3.3,1.3
		C112.3,25.4,111.9,26.7,111.9,28.5z"/>
	<path class="st1" d="M131.8,39.7c-1.8,0-3.3-0.4-4.7-1.3c-1.4-0.9-2.5-2-3.3-3.5s-1.2-3.2-1.2-5c0-1.9,0.4-3.5,1.2-5
		c0.8-1.5,1.9-2.7,3.3-3.6c1.4-0.9,3-1.3,4.7-1.3c1.4,0,2.7,0.3,3.9,0.9c1.1,0.6,2,1.4,2.7,2.5s1.1,2.3,1.2,3.7v5.7
		c-0.1,1.4-0.5,2.6-1.1,3.6c-0.7,1.1-1.6,1.9-2.7,2.5C134.5,39.4,133.2,39.7,131.8,39.7z M132.4,36.3c1.8,0,3.2-0.6,4.3-1.8
		s1.6-2.8,1.6-4.7c0-1.3-0.3-2.4-0.8-3.4s-1.2-1.8-2.1-2.3c-0.9-0.5-1.9-0.8-3.1-0.8c-1.2,0-2.3,0.3-3.2,0.8s-1.6,1.3-2.2,2.3
		c-0.5,1-0.8,2.1-0.8,3.3c0,1.3,0.3,2.4,0.8,3.4s1.2,1.7,2.2,2.3C130.1,36,131.2,36.3,132.4,36.3z M138.1,39.3v-5.1l0.7-4.6
		l-0.7-4.6v-4.6h3.6v19h-3.6V39.3z"/>
	<path class="st1" d="M154.9,38.9c-1.7,0-3.3-0.4-4.7-1.2s-2.5-2-3.3-3.4c-0.8-1.5-1.2-3.1-1.2-4.9s0.4-3.4,1.2-4.9
		c0.8-1.4,1.9-2.6,3.3-3.4c1.4-0.8,2.9-1.3,4.6-1.3c1.5,0,2.8,0.3,4,0.9s2.1,1.4,2.7,2.5c0.7,1.1,1,2.3,1.1,3.7v5
		c-0.1,1.4-0.5,2.6-1.1,3.7c-0.7,1.1-1.6,1.9-2.7,2.5C157.7,38.6,156.3,38.9,154.9,38.9z M154.9,47.6c-2,0-3.7-0.4-5.2-1.1
		c-1.5-0.7-2.7-1.7-3.6-3l2.4-2.4c0.8,1,1.7,1.7,2.8,2.3c1.1,0.5,2.3,0.8,3.8,0.8c1.9,0,3.5-0.5,4.6-1.5s1.7-2.4,1.7-4.1v-4.7
		l0.6-4.3l-0.6-4.2v-5h3.6v18.2c0,1.8-0.4,3.4-1.3,4.8c-0.8,1.4-2,2.4-3.5,3.2C158.6,47.2,156.9,47.6,154.9,47.6z M155.6,35.5
		c1.2,0,2.2-0.3,3.1-0.8c0.9-0.5,1.6-1.2,2.1-2.1c0.5-0.9,0.7-2,0.7-3.2s-0.2-2.3-0.7-3.2c-0.5-0.9-1.2-1.6-2.1-2.2
		s-1.9-0.8-3.1-0.8c-1.2,0-2.3,0.3-3.2,0.8s-1.6,1.2-2.1,2.2s-0.8,2-0.8,3.2s0.3,2.3,0.8,3.2s1.2,1.7,2.2,2.2S154.4,35.5,155.6,35.5
		z"/>
	<path class="st1" d="M178,38.9c-1.7,0-3.3-0.4-4.7-1.2s-2.5-2-3.3-3.4c-0.8-1.5-1.2-3.1-1.2-4.9s0.4-3.4,1.2-4.9
		c0.8-1.4,1.9-2.6,3.3-3.4c1.4-0.8,2.9-1.3,4.6-1.3c1.5,0,2.8,0.3,4,0.9s2.1,1.4,2.7,2.5c0.7,1.1,1,2.3,1.1,3.7v5
		c-0.1,1.4-0.5,2.6-1.1,3.7c-0.7,1.1-1.6,1.9-2.7,2.5C180.8,38.6,179.5,38.9,178,38.9z M178,47.6c-2,0-3.7-0.4-5.2-1.1
		c-1.5-0.7-2.7-1.7-3.6-3l2.4-2.4c0.8,1,1.7,1.7,2.8,2.3c1.1,0.5,2.3,0.8,3.8,0.8c1.9,0,3.5-0.5,4.6-1.5s1.7-2.4,1.7-4.1v-4.7
		l0.6-4.3l-0.6-4.2v-5h3.6v18.2c0,1.8-0.4,3.4-1.3,4.8c-0.8,1.4-2,2.4-3.5,3.2C181.7,47.2,180,47.6,178,47.6z M178.7,35.5
		c1.2,0,2.2-0.3,3.1-0.8c0.9-0.5,1.6-1.2,2.1-2.1c0.5-0.9,0.7-2,0.7-3.2s-0.2-2.3-0.7-3.2c-0.5-0.9-1.2-1.6-2.1-2.2
		s-1.9-0.8-3.1-0.8c-1.2,0-2.3,0.3-3.2,0.8s-1.6,1.2-2.1,2.2s-0.8,2-0.8,3.2s0.3,2.3,0.8,3.2s1.2,1.7,2.2,2.2S177.5,35.5,178.7,35.5
		z"/>
	<path class="st1" d="M195.1,16.5c-0.7,0-1.2-0.2-1.6-0.7c-0.4-0.4-0.6-1-0.6-1.7c0-0.6,0.2-1.2,0.6-1.6c0.4-0.4,1-0.7,1.6-0.7
		c0.7,0,1.2,0.2,1.6,0.7c0.4,0.4,0.6,1,0.6,1.6c0,0.7-0.2,1.2-0.6,1.7C196.3,16.2,195.7,16.5,195.1,16.5z M193.2,39.3v-19h3.6v19
		H193.2z"/>
	<path class="st1" d="M202.2,39.3v-19h3.6v19H202.2z M215.6,39.3V28.2c0-1.4-0.4-2.6-1.3-3.6c-0.9-0.9-2.1-1.4-3.5-1.4
		c-1,0-1.8,0.2-2.6,0.6c-0.7,0.4-1.3,1-1.8,1.8c-0.4,0.7-0.6,1.6-0.6,2.6l-1.5-0.8c0-1.4,0.3-2.7,1-3.8c0.6-1.1,1.5-2,2.7-2.7
		c1.1-0.7,2.4-1,3.9-1c1.4,0,2.7,0.4,3.8,1.1s2,1.7,2.6,2.8c0.6,1.2,1,2.4,1,3.7v11.8C219.3,39.3,215.6,39.3,215.6,39.3z"/>
	<path class="st1" d="M232,38.9c-1.7,0-3.3-0.4-4.7-1.2s-2.5-2-3.3-3.4c-0.8-1.5-1.2-3.1-1.2-4.9s0.4-3.4,1.2-4.9
		c0.8-1.4,1.9-2.6,3.3-3.4c1.4-0.8,2.9-1.3,4.6-1.3c1.5,0,2.8,0.3,4,0.9s2.1,1.4,2.7,2.5c0.7,1.1,1,2.3,1.1,3.7v5
		c-0.1,1.4-0.5,2.6-1.1,3.7c-0.7,1.1-1.6,1.9-2.7,2.5C234.8,38.6,233.5,38.9,232,38.9z M232,47.6c-2,0-3.7-0.4-5.2-1.1
		c-1.5-0.7-2.7-1.7-3.6-3l2.4-2.4c0.8,1,1.7,1.7,2.8,2.3c1.1,0.5,2.3,0.8,3.8,0.8c1.9,0,3.5-0.5,4.6-1.5s1.7-2.4,1.7-4.1v-4.7
		l0.6-4.3l-0.6-4.2v-5h3.6v18.2c0,1.8-0.4,3.4-1.3,4.8c-0.8,1.4-2,2.4-3.5,3.2C235.7,47.2,234,47.6,232,47.6z M232.7,35.5
		c1.2,0,2.2-0.3,3.1-0.8c0.9-0.5,1.6-1.2,2.1-2.1c0.5-0.9,0.7-2,0.7-3.2s-0.2-2.3-0.7-3.2c-0.5-0.9-1.2-1.6-2.1-2.2
		s-1.9-0.8-3.1-0.8c-1.2,0-2.3,0.3-3.2,0.8s-1.6,1.2-2.1,2.2s-0.8,2-0.8,3.2s0.3,2.3,0.8,3.2s1.2,1.7,2.2,2.2S231.5,35.5,232.7,35.5
		z"/>
	<path class="st1" d="M253.8,23.5v-3.3h13v3.3H253.8z M258.4,39.3v-27h3.6v27H258.4z"/>
	<path class="st1" d="M270.2,39.3V10.7h3.6v28.6H270.2z M283.6,39.3V28.2c0-1.4-0.4-2.6-1.3-3.6c-0.9-0.9-2.1-1.4-3.5-1.4
		c-1,0-1.8,0.2-2.6,0.6c-0.7,0.4-1.3,1-1.8,1.8c-0.4,0.7-0.6,1.6-0.6,2.6l-1.5-0.8c0-1.4,0.3-2.7,1-3.8c0.6-1.1,1.5-2,2.7-2.7
		c1.1-0.7,2.4-1,3.9-1s2.7,0.3,3.8,1c1.1,0.6,2,1.5,2.6,2.7c0.6,1.1,1,2.5,1,4v11.8h-3.7V39.3z"/>
	<path class="st1" d="M301,39.7c-1.9,0-3.6-0.4-5.1-1.3c-1.5-0.9-2.7-2-3.6-3.5s-1.3-3.2-1.3-5.1s0.4-3.5,1.3-5s2-2.7,3.5-3.5
		c1.5-0.9,3.1-1.3,5-1.3c1.7,0,3.3,0.4,4.6,1.2c1.4,0.8,2.4,1.9,3.2,3.3c0.8,1.4,1.1,3,1.1,4.8c0,0.3,0,0.6,0,0.9s-0.1,0.6-0.2,1
		h-16v-3h14.1l-1.3,1.2c0-1.3-0.2-2.4-0.7-3.3s-1.1-1.6-1.9-2.1s-1.8-0.7-3-0.7s-2.3,0.3-3.2,0.8c-0.9,0.5-1.7,1.3-2.2,2.2
		c-0.5,1-0.8,2.1-0.8,3.4s0.3,2.5,0.8,3.5s1.3,1.8,2.3,2.3s2.1,0.8,3.4,0.8c1.1,0,2-0.2,2.9-0.6c0.9-0.4,1.7-0.9,2.3-1.7l2.3,2.4
		c-0.9,1.1-2.1,1.9-3.4,2.4S302.5,39.7,301,39.7z"/>
	<path class="st1" d="M321.9,39.3V10.7h3.6v28.6H321.9z"/>
	<path class="st1" d="M338.8,39.7c-1.8,0-3.3-0.4-4.7-1.3c-1.4-0.9-2.5-2-3.3-3.5s-1.2-3.2-1.2-5c0-1.9,0.4-3.5,1.2-5
		c0.8-1.5,1.9-2.7,3.3-3.6s3-1.3,4.7-1.3c1.4,0,2.7,0.3,3.9,0.9c1.1,0.6,2,1.4,2.7,2.5s1.1,2.3,1.2,3.7v5.7
		c-0.1,1.4-0.5,2.6-1.1,3.6c-0.7,1.1-1.6,1.9-2.7,2.5S340.3,39.7,338.8,39.7z M339.4,36.3c1.8,0,3.2-0.6,4.3-1.8
		c1.1-1.2,1.6-2.8,1.6-4.7c0-1.3-0.3-2.4-0.8-3.4s-1.2-1.8-2.1-2.3s-1.9-0.8-3.1-0.8s-2.3,0.3-3.2,0.8s-1.6,1.3-2.2,2.3
		c-0.5,1-0.8,2.1-0.8,3.3c0,1.3,0.3,2.4,0.8,3.4s1.2,1.7,2.2,2.3C337.2,36,338.2,36.3,339.4,36.3z M345.2,39.3v-5.1l0.7-4.6
		l-0.7-4.6v-4.6h3.6v19h-3.6V39.3z"/>
	<path class="st1" d="M354,39.3V10.7h3.6v14.2l-0.7,4.6l0.7,4.6v5.1H354V39.3z M364,39.7c-1.4,0-2.7-0.3-3.9-0.9
		c-1.2-0.6-2.1-1.4-2.8-2.5c-0.7-1.1-1.1-2.3-1.2-3.6V27c0.1-1.4,0.5-2.6,1.2-3.7s1.6-1.9,2.8-2.5c1.2-0.6,2.4-0.9,3.9-0.9
		c1.7,0,3.3,0.4,4.7,1.3s2.5,2.1,3.3,3.6s1.2,3.2,1.2,5c0,1.9-0.4,3.5-1.2,5c-0.8,1.5-1.9,2.7-3.3,3.5
		C367.3,39.2,365.8,39.7,364,39.7z M363.4,36.3c1.2,0,2.3-0.3,3.2-0.8c0.9-0.6,1.6-1.3,2.1-2.3s0.8-2.1,0.8-3.4s-0.3-2.4-0.8-3.3
		c-0.5-1-1.2-1.7-2.1-2.3c-0.9-0.6-2-0.8-3.2-0.8s-2.2,0.3-3.1,0.8c-0.9,0.6-1.6,1.3-2.1,2.3s-0.8,2.1-0.8,3.4s0.2,2.4,0.7,3.3
		c0.5,1,1.2,1.7,2.1,2.3S362.3,36.3,363.4,36.3z"/>
	<path class="st1" d="M386.1,39.7c-1.9,0-3.6-0.4-5.1-1.3c-1.5-0.9-2.7-2-3.6-3.5s-1.3-3.2-1.3-5.1s0.4-3.5,1.3-5s2-2.7,3.5-3.5
		c1.5-0.9,3.1-1.3,5-1.3c1.7,0,3.3,0.4,4.6,1.2c1.4,0.8,2.4,1.9,3.2,3.3c0.8,1.4,1.1,3,1.1,4.8c0,0.3,0,0.6,0,0.9s-0.1,0.6-0.2,1
		h-16v-3h14.1l-1.3,1.2c0-1.3-0.2-2.4-0.7-3.3s-1.1-1.6-1.9-2.1s-1.8-0.7-3-0.7s-2.3,0.3-3.2,0.8c-0.9,0.5-1.7,1.3-2.2,2.2
		c-0.5,1-0.8,2.1-0.8,3.4s0.3,2.5,0.8,3.5s1.3,1.8,2.3,2.3s2.1,0.8,3.4,0.8c1.1,0,2-0.2,2.9-0.6c0.9-0.4,1.7-0.9,2.3-1.7l2.3,2.4
		c-0.9,1.1-2.1,1.9-3.4,2.4S387.6,39.7,386.1,39.7z"/>
	<path class="st1" d="M398.8,39.3V10.7h3.6v28.6H398.8z"/>
	<path class="st1" d="M413.7,39.7c-1.1,0-2.1-0.1-3-0.4c-1-0.3-1.8-0.7-2.6-1.2s-1.5-1.1-2.1-1.9l2.3-2.3c0.7,0.9,1.5,1.5,2.4,1.9
		s1.9,0.6,3,0.6s2-0.2,2.6-0.6c0.6-0.4,0.9-0.9,0.9-1.6c0-0.7-0.2-1.2-0.7-1.6c-0.5-0.4-1.1-0.7-1.9-1s-1.6-0.5-2.5-0.7
		s-1.7-0.6-2.5-1s-1.4-1-1.9-1.7s-0.7-1.6-0.7-2.8s0.3-2.1,0.8-3c0.5-0.8,1.3-1.5,2.3-1.9c1-0.5,2.2-0.7,3.6-0.7
		c1.5,0,2.8,0.3,4,0.8s2.1,1.3,2.9,2.3l-2.3,2.3c-0.6-0.7-1.2-1.2-2-1.6s-1.7-0.6-2.6-0.6c-1,0-1.8,0.2-2.4,0.6
		c-0.5,0.4-0.8,0.9-0.8,1.5s0.2,1.1,0.7,1.5c0.5,0.3,1.1,0.6,1.9,0.9c0.8,0.2,1.6,0.5,2.5,0.7c0.9,0.3,1.7,0.6,2.4,1
		c0.8,0.4,1.4,1,1.9,1.7s0.7,1.7,0.7,2.8c0,1.8-0.6,3.2-1.9,4.2C417.5,39.1,415.8,39.7,413.7,39.7z"/>
	<g>
		<path class="st1" d="M164.2,64.5c-0.7,0-1.2-0.2-1.6-0.7c-0.4-0.4-0.6-1-0.6-1.7c0-0.6,0.2-1.2,0.6-1.6c0.4-0.4,1-0.7,1.6-0.7
			c0.7,0,1.2,0.2,1.6,0.7c0.4,0.4,0.6,1,0.6,1.6c0,0.7-0.2,1.2-0.6,1.7C165.4,64.2,164.8,64.5,164.2,64.5z M162.3,87.3v-19h3.6v19
			H162.3z"/>
		<path class="st1" d="M171.3,87.3v-19h3.6v19H171.3z M184.7,87.3V76.2c0-1.4-0.4-2.6-1.3-3.6c-0.9-0.9-2.1-1.4-3.5-1.4
			c-1,0-1.8,0.2-2.6,0.6c-0.7,0.4-1.3,1-1.8,1.8c-0.4,0.7-0.6,1.6-0.6,2.6l-1.5-0.8c0-1.4,0.3-2.7,1-3.8c0.6-1.1,1.5-2,2.7-2.7
			c1.1-0.7,2.4-1,3.9-1c1.4,0,2.7,0.4,3.8,1.1s2,1.7,2.6,2.8c0.6,1.2,1,2.4,1,3.7v11.8C188.4,87.3,184.7,87.3,184.7,87.3z"/>
		<path class="st1" d="M191.4,71.5v-3.3h13v3.3H191.4z M196.1,87.3v-27h3.6v27H196.1z"/>
		<path class="st1" d="M216.6,87.7c-1.8,0-3.5-0.4-5-1.3s-2.7-2.1-3.6-3.6c-0.9-1.5-1.3-3.2-1.3-5.1c0-1.8,0.4-3.5,1.3-5
			c0.9-1.5,2.1-2.7,3.6-3.5c1.5-0.9,3.2-1.3,5-1.3c1.9,0,3.6,0.4,5.1,1.3s2.7,2,3.6,3.5c0.9,1.5,1.3,3.2,1.3,5
			c0,1.9-0.4,3.6-1.3,5.1c-0.9,1.5-2.1,2.7-3.6,3.6C220.1,87.2,218.4,87.7,216.6,87.7z M216.6,84.2c1.2,0,2.3-0.3,3.2-0.8
			c0.9-0.6,1.7-1.3,2.2-2.3s0.8-2.1,0.8-3.3c0-1.2-0.3-2.3-0.8-3.3s-1.3-1.7-2.2-2.3c-0.9-0.5-2-0.8-3.2-0.8s-2.2,0.3-3.2,0.8
			c-0.9,0.5-1.7,1.3-2.2,2.3s-0.8,2.1-0.8,3.3c0,1.3,0.3,2.4,0.8,3.3c0.5,1,1.3,1.7,2.2,2.3C214.3,83.9,215.4,84.2,216.6,84.2z"/>
		<path class="st1" d="M238.8,87.3V58.7h3.6v14.2l-0.7,4.6l0.7,4.6v5.1h-3.6V87.3z M248.8,87.7c-1.4,0-2.7-0.3-3.9-0.9
			s-2.1-1.4-2.8-2.5s-1.1-2.3-1.2-3.6V75c0.1-1.4,0.5-2.6,1.2-3.7s1.6-1.9,2.8-2.5s2.4-0.9,3.9-0.9c1.7,0,3.3,0.4,4.7,1.3
			s2.5,2.1,3.3,3.6s1.2,3.2,1.2,5c0,1.9-0.4,3.5-1.2,5c-0.8,1.5-1.9,2.7-3.3,3.5C252.1,87.2,250.5,87.7,248.8,87.7z M248.2,84.3
			c1.2,0,2.3-0.3,3.2-0.8c0.9-0.6,1.6-1.3,2.1-2.3s0.8-2.1,0.8-3.4s-0.3-2.4-0.8-3.3c-0.5-1-1.2-1.7-2.1-2.3c-0.9-0.6-2-0.8-3.2-0.8
			s-2.2,0.3-3.1,0.8c-0.9,0.6-1.6,1.3-2.1,2.3s-0.8,2.1-0.8,3.4s0.2,2.4,0.7,3.3c0.5,1,1.2,1.7,2.1,2.3S247,84.3,248.2,84.3z"/>
		<path class="st1" d="M270.7,87.7c-1.8,0-3.5-0.4-5-1.3s-2.7-2.1-3.6-3.6s-1.3-3.2-1.3-5.1c0-1.8,0.4-3.5,1.3-5s2.1-2.7,3.6-3.5
			c1.5-0.9,3.2-1.3,5-1.3c1.9,0,3.6,0.4,5.1,1.3s2.7,2,3.6,3.5s1.3,3.2,1.3,5c0,1.9-0.4,3.6-1.3,5.1s-2.1,2.7-3.6,3.6
			S272.6,87.7,270.7,87.7z M270.7,84.2c1.2,0,2.3-0.3,3.2-0.8c0.9-0.6,1.7-1.3,2.2-2.3s0.8-2.1,0.8-3.3c0-1.2-0.3-2.3-0.8-3.3
			s-1.3-1.7-2.2-2.3c-0.9-0.5-2-0.8-3.2-0.8s-2.2,0.3-3.2,0.8c-0.9,0.5-1.7,1.3-2.2,2.3s-0.8,2.1-0.8,3.3c0,1.3,0.3,2.4,0.8,3.3
			c0.5,1,1.3,1.7,2.2,2.3S269.5,84.2,270.7,84.2z"/>
		<path class="st1" d="M282.1,87.3l7.8-10.6l2,2.6l-5.6,7.9L282.1,87.3L282.1,87.3z M296.6,87.3l-5.9-8.3l-0.7-0.6l-7.5-10.1h4.4
			l5.4,7.4l0.7,0.6l8,11H296.6z M293.2,78.3l-2.1-2.6l5.3-7.4h4.2L293.2,78.3z"/>
		<path class="st1" d="M312.4,87.7c-1.9,0-3.6-0.4-5.1-1.3s-2.7-2-3.6-3.5s-1.3-3.2-1.3-5.1s0.4-3.5,1.3-5s2-2.7,3.5-3.5
			c1.5-0.9,3.1-1.3,5-1.3c1.7,0,3.3,0.4,4.6,1.2c1.4,0.8,2.4,1.9,3.2,3.3c0.8,1.4,1.1,3,1.1,4.8c0,0.3,0,0.6,0,0.9s-0.1,0.6-0.2,1
			h-16v-3H319l-1.3,1.2c0-1.3-0.2-2.4-0.7-3.3s-1.1-1.6-1.9-2.1s-1.8-0.7-3-0.7s-2.3,0.3-3.2,0.8c-0.9,0.5-1.7,1.3-2.2,2.2
			c-0.5,1-0.8,2.1-0.8,3.4s0.3,2.5,0.8,3.5s1.3,1.8,2.3,2.3s2.1,0.8,3.4,0.8c1.1,0,2-0.2,2.9-0.6s1.7-0.9,2.3-1.7l2.3,2.4
			c-0.9,1.1-2.1,1.9-3.4,2.4C315.3,87.4,313.9,87.7,312.4,87.7z"/>
		<path class="st1" d="M331.1,87.7c-1.1,0-2.1-0.1-3-0.4s-1.8-0.7-2.6-1.2c-0.8-0.5-1.5-1.1-2.1-1.9l2.3-2.3
			c0.7,0.9,1.5,1.5,2.4,1.9s1.9,0.6,3,0.6s2-0.2,2.6-0.6s0.9-0.9,0.9-1.6s-0.2-1.2-0.7-1.6s-1.1-0.7-1.9-1s-1.6-0.5-2.5-0.7
			s-1.7-0.6-2.5-1s-1.4-1-1.9-1.7s-0.7-1.6-0.7-2.8s0.3-2.1,0.8-3c0.5-0.8,1.3-1.5,2.3-1.9c1-0.5,2.2-0.7,3.6-0.7
			c1.5,0,2.8,0.3,4,0.8s2.1,1.3,2.9,2.3l-2.3,2.3c-0.6-0.7-1.2-1.2-2-1.6S332,71,331.1,71c-1,0-1.8,0.2-2.4,0.6
			c-0.5,0.4-0.8,0.9-0.8,1.5s0.2,1.1,0.7,1.5c0.5,0.3,1.1,0.6,1.9,0.9c0.8,0.2,1.6,0.5,2.5,0.7c0.9,0.3,1.7,0.6,2.4,1
			c0.8,0.4,1.4,1,1.9,1.7s0.7,1.7,0.7,2.8c0,1.8-0.6,3.2-1.9,4.2S333.3,87.7,331.1,87.7z"/>
	</g>
</g>
</svg>
