<?xml version="1.0" encoding="utf-8"?>
<!-- Generator: Adobe Illustrator 26.4.1, SVG Export Plug-In . SVG Version: 6.00 Build 0)  -->
<svg version="1.1" id="Layer_1" xmlns="http://www.w3.org/2000/svg" xmlns:xlink="http://www.w3.org/1999/xlink" x="0px" y="0px"
	 viewBox="0 0 506 180" style="enable-background:new 0 0 506 180;" xml:space="preserve">
<style type="text/css">
	.st0{fill-rule:evenodd;clip-rule:evenodd;fill:#FFFFFF;}
	.st1{fill:#FFFFFF;}
</style>
<g>
	<path class="st0" d="M114.1,78.7c-5,3.4-8.4,8.7-11.2,13.3c-0.3,0.3-4.3,11.5-4.3,13.9v3.4c0.3,0.3,0,0.3,0.9,0.3
		c4.3,0,6.8-5.3,15.5-5.3s19.5,4.6,22.3,15.2c0.9,3.1,1.2,7.1,1.2,10.8c0,9.3,0.3,3.7-2.2,16.7c-0.3,1.2-0.9,2.2-1.2,3.7
		c-2.2,8.7-12.1,26.3-23.9,25.7c-0.3,0-0.6,0.6-1.6,0.6h-7.4c-2.5-2.2-4-1.9-5.9-1.9c-0.6,0-1.9-0.3-2.8,0c-0.9,0-1.9,1.9-2.8,1.9
		h-7.4c-0.3-0.3-0.6-0.3-0.9-0.6c-12.1,1.2-23.2-17.4-25.1-27.3c-0.3-1.9-2.5-9.9-2.5-12.4v-13c1.5-14.3,13.6-19.5,22.9-19.5
		c0.9,0,5,0.3,7.1,0.9c2.2,0.6,4.6,2.8,7.1,4c0.3-0.3,0.3-0.6,0.3-1.2c0-0.9-0.3-1.6-0.9-1.9C78.9,102,73,92.4,73,83.7
		c0-0.6,0.3-4,0.9-5.9h3.4c8.7,0,14.9,11.2,15.2,16.7c0.3,0.3,0.3,0.6,0.6,0.9c0.9-2.5,1.2-5.3,1.9-8.1c1.6-5.3,3.1-11.2,5.9-16.4
		C105.4,72.8,109.8,75.9,114.1,78.7z"/>
	<path class="st0" d="M218.3,78.7c-5,3.4-8.4,8.7-11.2,13.3c-0.3,0.3-4.3,11.5-4.3,13.9v3.4c0.3,0.3,0,0.3,0.9,0.3
		c4.3,0,6.8-5.3,15.5-5.3s19.5,4.6,22.3,15.2c0.9,3.1,1.2,7.1,1.2,10.8c0,9.3,0.3,3.7-2.2,16.7c-0.3,1.2-0.9,2.2-1.2,3.7
		c-2.2,8.7-12.1,26.3-23.9,25.7c-0.3,0-0.6,0.6-1.5,0.6h-7.4c-2.5-2.2-4-1.9-5.9-1.9c-0.6,0-1.9-0.3-2.8,0c-0.9,0-1.9,1.9-2.8,1.9
		h-7.4c-0.3-0.3-0.6-0.3-0.9-0.6c-12.1,1.2-23.2-17.4-25.1-27.3c-0.3-1.9-2.5-9.9-2.5-12.4v-13c1.6-14.3,13.6-19.5,22.9-19.5
		c0.9,0,5,0.3,7.1,0.9c2.2,0.6,4.6,2.8,7.1,4c0.3-0.3,0.3-0.6,0.3-1.2c0-0.9-0.3-1.6-0.9-1.9c-12.4-4-18.3-13.6-18.3-22.3
		c0-0.6,0.3-4,0.9-5.9h3.4c8.7,0,14.9,11.2,15.2,16.7c0.3,0.3,0.3,0.6,0.6,0.9c0.9-2.5,1.2-5.3,1.9-8.1c1.6-5.3,3.1-11.2,5.9-16.4
		C209.6,72.8,214,75.9,218.3,78.7z"/>
	<path class="st0" d="M312.7,159c0-7,3.3-13.2,8.4-17.2c-3.8-3.9-6.1-9.3-6.1-15.2c0-10.1,6.8-18.5,16-21.1
		c-2.6-0.8-5.2-1.1-7.6-1.1c-8.7,0-11.2,5.3-15.5,5.3c-0.9,0-0.6,0-0.9-0.3V106c0-2.5,4-13.6,4.3-13.9c2.8-4.6,6.2-9.9,11.2-13.3
		c-4.3-2.8-8.7-5.9-13-7.4c-2.8,5.3-4.3,11.2-5.9,16.4c-0.6,2.8-0.9,5.6-1.9,8.1c-0.3-0.3-0.3-0.6-0.6-0.9
		c-0.3-5.6-6.5-16.7-15.2-16.7h-3.4c-0.6,1.9-0.9,5.3-0.9,5.9c0,8.7,5.9,18.3,18.3,22.3c0.6,0.3,0.9,0.9,0.9,1.9
		c0,0.6,0,0.9-0.3,1.2c-2.5-1.2-5-3.4-7.1-4c-2.2-0.6-6.2-0.9-7.1-0.9c-1.7,0-3.6,0.2-5.4,0.6c9.8,3.2,16.9,12.5,16.9,23.4
		c0,6.5-2.5,12.4-6.6,16.8c1.7,3.5,2.7,7.4,2.7,11.6c0,7.6-3.2,14.4-8.3,19.2c1.8,0.6,3.6,0.9,5.4,0.7c0.3,0.3,0.6,0.3,0.9,0.6h7.4
		c0.9,0,1.9-1.9,2.8-1.9c0.9-0.3,2.2,0,2.8,0c1.9,0,3.4-0.3,5.9,1.9h7.4c0.9,0,1.2-0.6,1.5-0.6c0.6,0,1.3,0,1.9-0.1
		C316.1,172.6,312.7,166.2,312.7,159z"/>
	<path class="st0" d="M417.2,159c0-7,3.3-13.2,8.4-17.2c-3.8-3.9-6.1-9.3-6.1-15.2c0-10.1,6.8-18.5,16-21.1
		c-2.6-0.8-5.2-1.1-7.6-1.1c-8.7,0-11.2,5.3-15.5,5.3c-0.9,0-0.6,0-0.9-0.3V106c0-2.5,4-13.6,4.3-13.9c2.8-4.6,6.2-9.9,11.2-13.3
		c-4.3-2.8-8.7-5.9-13-7.4c-2.8,5.3-4.3,11.2-5.9,16.4c-0.6,2.8-0.9,5.6-1.9,8.1c-0.3-0.3-0.3-0.6-0.6-0.9
		c-0.3-5.6-6.5-16.7-15.2-16.7H387c-0.6,1.9-0.9,5.3-0.9,5.9c0,8.7,5.9,18.3,18.3,22.3c0.6,0.3,0.9,0.9,0.9,1.9c0,0.6,0,0.9-0.3,1.2
		c-2.5-1.2-5-3.4-7.1-4c-2.2-0.6-6.2-0.9-7.1-0.9c-1.7,0-3.6,0.2-5.4,0.6c9.8,3.2,16.9,12.5,16.9,23.4c0,6.5-2.5,12.4-6.6,16.8
		c1.7,3.5,2.7,7.4,2.7,11.6c0,7.6-3.2,14.4-8.3,19.2c1.8,0.6,3.6,0.9,5.4,0.7c0.3,0.3,0.6,0.3,0.9,0.6h7.4c0.9,0,1.9-1.9,2.8-1.9
		c0.9-0.3,2.2,0,2.8,0c1.9,0,3.4-0.3,5.9,1.9h7.4c0.9,0,1.2-0.6,1.5-0.6c0.6,0,1.3,0,1.9-0.1C420.6,172.6,417.2,166.2,417.2,159z"/>
</g>
<g>
	<path class="st1" d="M62.4,36V8.3h3.8V36H62.4z M65,23.4V20h16.2v3.4H65z M80.3,36V8.3h3.8V36H80.3z"/>
	<path class="st1" d="M98.6,36.4c-1.8,0-3.5-0.4-5-1.3c-1.5-0.9-2.7-2.1-3.6-3.6c-0.9-1.5-1.3-3.2-1.3-5.1c0-1.8,0.4-3.5,1.3-5
		c0.9-1.5,2.1-2.7,3.6-3.5c1.5-0.9,3.2-1.3,5-1.3c1.9,0,3.6,0.4,5.1,1.3c1.5,0.9,2.7,2,3.6,3.5c0.9,1.5,1.3,3.2,1.3,5
		c0,1.9-0.4,3.6-1.3,5.1c-0.9,1.5-2.1,2.7-3.6,3.6C102.2,36,100.5,36.4,98.6,36.4z M98.6,33c1.2,0,2.3-0.3,3.2-0.8
		c0.9-0.6,1.7-1.3,2.2-2.3c0.5-1,0.8-2.1,0.8-3.3c0-1.2-0.3-2.3-0.8-3.3c-0.5-1-1.3-1.7-2.2-2.3c-0.9-0.5-2-0.8-3.2-0.8
		c-1.2,0-2.2,0.3-3.2,0.8c-0.9,0.5-1.7,1.3-2.2,2.3c-0.5,1-0.8,2.1-0.8,3.3c0,1.3,0.3,2.4,0.8,3.3c0.5,1,1.3,1.7,2.2,2.3
		C96.4,32.7,97.5,33,98.6,33z"/>
	<path class="st1" d="M117.4,36L110,17h3.8l5.4,14.8H118l5.4-14.8h2.1l5.4,14.8h-1.2l5.4-14.8h3.8l-7.5,19h-2.1l-5.5-14.3h1.3
		L119.6,36H117.4z"/>
	<path class="st1" d="M150.3,36V17h3.6v19H150.3z M163.2,36V24.6c0-1.4-0.4-2.5-1.3-3.3c-0.9-0.8-2-1.2-3.3-1.2
		c-0.9,0-1.7,0.2-2.4,0.6c-0.7,0.4-1.3,0.9-1.7,1.6c-0.4,0.7-0.6,1.5-0.6,2.4l-1.5-0.8c0-1.4,0.3-2.7,0.9-3.8
		c0.6-1.1,1.5-1.9,2.6-2.5c1.1-0.6,2.3-0.9,3.7-0.9c1.3,0,2.5,0.3,3.6,0.9c1.1,0.6,1.9,1.4,2.6,2.5c0.6,1.1,0.9,2.3,0.9,3.8V36
		H163.2z M176,36V24.6c0-1.4-0.4-2.5-1.3-3.3c-0.9-0.8-1.9-1.2-3.2-1.2c-0.9,0-1.7,0.2-2.4,0.6c-0.7,0.4-1.3,0.9-1.7,1.6
		c-0.4,0.7-0.6,1.5-0.6,2.4l-2-0.8c0.1-1.5,0.5-2.7,1.2-3.8c0.7-1.1,1.6-1.9,2.7-2.5s2.3-0.9,3.7-0.9c1.4,0,2.6,0.3,3.7,0.9
		c1.1,0.6,2,1.4,2.6,2.5c0.7,1.1,1,2.3,1,3.8V36H176z"/>
	<path class="st1" d="M192.6,36.4c-1.8,0-3.3-0.4-4.7-1.3c-1.4-0.9-2.5-2-3.3-3.5c-0.8-1.5-1.2-3.2-1.2-5c0-1.9,0.4-3.5,1.2-5
		c0.8-1.5,1.9-2.7,3.3-3.6s3-1.3,4.7-1.3c1.4,0,2.7,0.3,3.9,0.9c1.1,0.6,2,1.4,2.7,2.5c0.7,1.1,1.1,2.3,1.2,3.7v5.7
		c-0.1,1.4-0.5,2.6-1.1,3.6c-0.7,1.1-1.6,1.9-2.7,2.5C195.3,36.1,194,36.4,192.6,36.4z M193.2,33c1.8,0,3.2-0.6,4.3-1.8
		c1.1-1.2,1.6-2.8,1.6-4.7c0-1.3-0.3-2.4-0.8-3.4c-0.5-1-1.2-1.8-2.1-2.3c-0.9-0.5-1.9-0.8-3.1-0.8c-1.2,0-2.3,0.3-3.2,0.8
		s-1.6,1.3-2.2,2.3c-0.5,1-0.8,2.1-0.8,3.3c0,1.3,0.3,2.4,0.8,3.4c0.5,1,1.2,1.7,2.2,2.3C190.9,32.8,192,33,193.2,33z M198.9,36
		v-5.1l0.7-4.6l-0.7-4.6V17h3.6v19H198.9z"/>
	<path class="st1" d="M207.8,36V17h3.6v19H207.8z M221.2,36V25c0-1.4-0.4-2.6-1.3-3.6c-0.9-0.9-2.1-1.4-3.5-1.4
		c-1,0-1.8,0.2-2.6,0.6c-0.7,0.4-1.3,1-1.8,1.8c-0.4,0.7-0.6,1.6-0.6,2.6l-1.5-0.8c0-1.4,0.3-2.7,1-3.8c0.6-1.1,1.5-2,2.7-2.7
		c1.1-0.7,2.4-1,3.9-1c1.4,0,2.7,0.4,3.8,1.1c1.1,0.7,2,1.7,2.6,2.8c0.6,1.2,1,2.4,1,3.7V36H221.2z"/>
	<path class="st1" d="M236,36.2L227.7,17h4l6.1,15h-1.3l6.4-15h4l-8.9,19.2H236z M230.5,44l5.6-11.5l2,3.7l-3.6,7.8H230.5z"/>
	<path class="st1" d="M266.6,36.4c-1.8,0-3.3-0.4-4.7-1.3c-1.4-0.9-2.5-2-3.3-3.5c-0.8-1.5-1.2-3.2-1.2-5c0-1.9,0.4-3.5,1.2-5
		c0.8-1.5,1.9-2.7,3.3-3.6c1.4-0.9,3-1.3,4.7-1.3c1.4,0,2.7,0.3,3.9,0.9c1.1,0.6,2,1.4,2.7,2.5c0.7,1.1,1.1,2.3,1.2,3.7v5.7
		c-0.1,1.4-0.5,2.6-1.1,3.6c-0.7,1.1-1.6,1.9-2.7,2.5S268.1,36.4,266.6,36.4z M267.2,33c1.8,0,3.2-0.6,4.3-1.8
		c1.1-1.2,1.6-2.8,1.6-4.7c0-1.3-0.3-2.4-0.8-3.4c-0.5-1-1.2-1.8-2.1-2.3c-0.9-0.5-1.9-0.8-3.1-0.8c-1.2,0-2.3,0.3-3.2,0.8
		s-1.6,1.3-2.2,2.3c-0.5,1-0.8,2.1-0.8,3.3c0,1.3,0.3,2.4,0.8,3.4c0.5,1,1.2,1.7,2.2,2.3C265,32.8,266,33,267.2,33z M273,36v-5.1
		l0.7-4.6l-0.7-4.6V17h3.6v19H273z"/>
	<path class="st1" d="M281.8,44V17h3.6v5l-0.7,4.6l0.7,4.6V44H281.8z M291.8,36.4c-1.4,0-2.7-0.3-3.9-0.9c-1.2-0.6-2.1-1.4-2.8-2.5
		c-0.7-1.1-1.1-2.3-1.2-3.6v-5.7c0.1-1.4,0.5-2.6,1.2-3.7c0.7-1.1,1.6-1.9,2.8-2.5c1.2-0.6,2.4-0.9,3.9-0.9c1.7,0,3.3,0.4,4.7,1.3
		s2.5,2.1,3.3,3.6c0.8,1.5,1.2,3.2,1.2,5c0,1.9-0.4,3.5-1.2,5c-0.8,1.5-1.9,2.7-3.3,3.5C295.1,36,293.6,36.4,291.8,36.4z M291.2,33
		c1.2,0,2.3-0.3,3.2-0.8c0.9-0.6,1.6-1.3,2.1-2.3c0.5-1,0.8-2.1,0.8-3.4c0-1.3-0.3-2.4-0.8-3.3c-0.5-1-1.2-1.7-2.1-2.3
		c-0.9-0.6-2-0.8-3.2-0.8c-1.2,0-2.2,0.3-3.1,0.8c-0.9,0.6-1.6,1.3-2.1,2.3c-0.5,1-0.8,2.1-0.8,3.4c0,1.3,0.2,2.4,0.7,3.3
		c0.5,1,1.2,1.7,2.1,2.3S290.1,33,291.2,33z"/>
	<path class="st1" d="M305.1,44V17h3.6v5l-0.7,4.6l0.7,4.6V44H305.1z M315.1,36.4c-1.4,0-2.7-0.3-3.9-0.9s-2.1-1.4-2.8-2.5
		c-0.7-1.1-1.1-2.3-1.2-3.6v-5.7c0.1-1.4,0.5-2.6,1.2-3.7c0.7-1.1,1.6-1.9,2.8-2.5s2.4-0.9,3.9-0.9c1.7,0,3.3,0.4,4.7,1.3
		c1.4,0.9,2.5,2.1,3.3,3.6c0.8,1.5,1.2,3.2,1.2,5c0,1.9-0.4,3.5-1.2,5c-0.8,1.5-1.9,2.7-3.3,3.5C318.4,36,316.9,36.4,315.1,36.4z
		 M314.5,33c1.2,0,2.3-0.3,3.2-0.8c0.9-0.6,1.6-1.3,2.1-2.3c0.5-1,0.8-2.1,0.8-3.4c0-1.3-0.3-2.4-0.8-3.3c-0.5-1-1.2-1.7-2.1-2.3
		c-0.9-0.6-2-0.8-3.2-0.8c-1.2,0-2.2,0.3-3.1,0.8s-1.6,1.3-2.1,2.3c-0.5,1-0.8,2.1-0.8,3.4c0,1.3,0.2,2.4,0.7,3.3
		c0.5,1,1.2,1.7,2.1,2.3S313.3,33,314.5,33z"/>
	<path class="st1" d="M328.4,36V7.5h3.6V36H328.4z"/>
	<path class="st1" d="M346.1,36.4c-1.9,0-3.6-0.4-5.1-1.3c-1.5-0.9-2.7-2-3.6-3.5c-0.9-1.5-1.3-3.2-1.3-5.1c0-1.9,0.4-3.5,1.3-5
		c0.9-1.5,2-2.7,3.5-3.5c1.5-0.9,3.1-1.3,5-1.3c1.7,0,3.3,0.4,4.6,1.2c1.4,0.8,2.4,1.9,3.2,3.3c0.8,1.4,1.1,3,1.1,4.8
		c0,0.3,0,0.6,0,0.9c0,0.3-0.1,0.6-0.2,1h-16v-3h14.1l-1.3,1.2c0-1.3-0.2-2.4-0.7-3.3c-0.5-0.9-1.1-1.6-1.9-2.1
		c-0.8-0.5-1.8-0.7-3-0.7c-1.2,0-2.3,0.3-3.2,0.8c-0.9,0.5-1.7,1.3-2.2,2.2c-0.5,1-0.8,2.1-0.8,3.4c0,1.3,0.3,2.5,0.8,3.5
		c0.5,1,1.3,1.8,2.3,2.3c1,0.5,2.1,0.8,3.4,0.8c1.1,0,2-0.2,2.9-0.6c0.9-0.4,1.7-0.9,2.3-1.7l2.3,2.4c-0.9,1.1-2.1,1.9-3.4,2.4
		S347.6,36.4,346.1,36.4z"/>
	<path class="st1" d="M367,36V7.5h3.6V36H367z"/>
	<path class="st1" d="M384.7,36.4c-1.9,0-3.6-0.4-5.1-1.3c-1.5-0.9-2.7-2-3.6-3.5c-0.9-1.5-1.3-3.2-1.3-5.1c0-1.9,0.4-3.5,1.3-5
		c0.9-1.5,2-2.7,3.5-3.5c1.5-0.9,3.1-1.3,5-1.3c1.7,0,3.3,0.4,4.6,1.2c1.4,0.8,2.4,1.9,3.2,3.3c0.8,1.4,1.1,3,1.1,4.8
		c0,0.3,0,0.6,0,0.9c0,0.3-0.1,0.6-0.2,1h-16v-3h14.1L390,26c0-1.3-0.2-2.4-0.7-3.3c-0.5-0.9-1.1-1.6-1.9-2.1
		c-0.8-0.5-1.8-0.7-3-0.7c-1.2,0-2.3,0.3-3.2,0.8c-0.9,0.5-1.7,1.3-2.2,2.2c-0.5,1-0.8,2.1-0.8,3.4c0,1.3,0.3,2.5,0.8,3.5
		c0.5,1,1.3,1.8,2.3,2.3c1,0.5,2.1,0.8,3.4,0.8c1.1,0,2-0.2,2.9-0.6c0.9-0.4,1.7-0.9,2.3-1.7l2.3,2.4c-0.9,1.1-2.1,1.9-3.4,2.4
		S386.2,36.4,384.7,36.4z"/>
	<path class="st1" d="M395.4,20.3V17h14.3v3.3H395.4z M400,36V14.2c0-1.4,0.3-2.6,0.9-3.7c0.6-1.1,1.5-1.9,2.6-2.5
		c1.1-0.6,2.4-0.9,3.8-0.9c1.1,0,2,0.2,2.8,0.6c0.8,0.4,1.5,0.9,2.2,1.6l-2.4,2.3c-0.3-0.4-0.7-0.7-1.2-0.8s-0.9-0.3-1.6-0.3
		c-1.1,0-2,0.3-2.7,1c-0.6,0.7-0.9,1.6-0.9,2.7V36H400z"/>
	<path class="st1" d="M411.5,20.3V17h13v3.3H411.5z M416.2,36v-27h3.6v27H416.2z"/>
	<path class="st1" d="M434.1,27.2l0-7.6l1,0c1,0,1.8-0.2,2.5-0.6c0.7-0.4,1.3-0.9,1.6-1.6c0.4-0.7,0.6-1.5,0.6-2.3
		c0-0.9-0.2-1.7-0.6-2.3c-0.4-0.7-0.9-1.2-1.6-1.6c-0.7-0.4-1.6-0.6-2.5-0.6c-1.3,0-2.3,0.3-3.3,1c-0.9,0.7-1.7,1.6-2.2,2.7
		l-2.6-2.2c0.8-1.6,1.9-2.8,3.3-3.7c1.5-0.9,3.1-1.3,5-1.3c1.6,0,3.1,0.3,4.3,1c1.3,0.7,2.2,1.6,2.9,2.7c0.7,1.2,1,2.5,1,4
		c0,1.4-0.3,2.6-0.9,3.8c-0.6,1.1-1.5,2.1-2.6,2.8c-1.1,0.7-2.5,1.2-4,1.5l1.6-1.6l-0.3,6H434.1z M435.6,36.4
		c-0.7,0-1.4-0.3-1.9-0.8c-0.5-0.5-0.7-1.1-0.7-1.9c0-0.7,0.2-1.4,0.7-1.9c0.5-0.5,1.1-0.7,1.9-0.7c0.7,0,1.4,0.2,1.9,0.7
		c0.5,0.5,0.7,1.1,0.7,1.9c0,0.7-0.2,1.4-0.7,1.9S436.4,36.4,435.6,36.4z"/>
</g>
</svg>
