<?xml version="1.0" encoding="utf-8"?>
<!-- Generator: Adobe Illustrator 26.4.1, SVG Export Plug-In . SVG Version: 6.00 Build 0)  -->
<svg version="1.1" id="Layer_1" xmlns="http://www.w3.org/2000/svg" xmlns:xlink="http://www.w3.org/1999/xlink" x="0px" y="0px"
	 viewBox="0 0 815 300.1" style="enable-background:new 0 0 815 300.1;" xml:space="preserve">
<style type="text/css">
	.st0{fill:none;stroke:#FFFFFF;stroke-width:5;stroke-linecap:square;stroke-miterlimit:10;}
	.st1{fill:#FFFFFF;}
</style>
<g>
	<polygon class="st0" points="408,128.6 494.6,278.6 321.4,278.6 	"/>
</g>
<g>
	<polygon class="st0" points="132.9,128.6 219.5,278.6 46.3,278.6 	"/>
</g>
<g>
	<polygon class="st0" points="682.1,128.6 768.7,278.6 595.5,278.6 	"/>
</g>
<g>
	<path class="st1" d="M135.5,116v-8.2h-14.7v-4.1l15.4-21.3h3.6v21.8h4.9v3.7h-4.9v8.2h-4.3V116z M135.4,104.1V88.9l-10.8,15.2
		C124.7,104.1,135.4,104.1,135.4,104.1z"/>
</g>
<g>
	<path class="st1" d="M110.8,214.6v-3.2c3-0.3,5.2-0.8,6.4-1.5s2.1-2.3,2.7-4.9h3.3v33.4h-4.5v-23.8L110.8,214.6L110.8,214.6z"/>
	<path class="st1" d="M136.2,230.8c1-2.1,3.1-4.1,6.1-5.8l4.5-2.6c2-1.2,3.4-2.2,4.2-3c1.3-1.3,1.9-2.8,1.9-4.5c0-2-0.6-3.5-1.8-4.7
		s-2.7-1.7-4.7-1.7c-2.9,0-4.9,1.1-6,3.3c-0.6,1.2-0.9,2.8-1,4.9h-4.3c0-2.9,0.6-5.3,1.6-7.1c1.8-3.2,5.1-4.9,9.7-4.9
		c3.8,0,6.7,1,8.4,3.1s2.7,4.4,2.7,6.9c0,2.7-0.9,5-2.8,6.9c-1.1,1.1-3.1,2.5-5.9,4l-3.2,1.8c-1.5,0.8-2.7,1.6-3.6,2.4
		c-1.6,1.4-2.5,2.9-3,4.5h18.3v4h-23C134.6,235.4,135.2,232.9,136.2,230.8z"/>
</g>
<g>
	<path class="st1" d="M235.8,288.5c0.1,2.3,1,3.9,2.7,4.8c0.9,0.5,1.8,0.7,2.9,0.7c2,0,3.7-0.8,5.2-2.5s2.4-5.1,3-10.2
		c-0.9,1.5-2.1,2.5-3.5,3.1s-2.9,0.9-4.5,0.9c-3.2,0-5.8-1-7.7-3s-2.8-4.6-2.8-7.8c0-3,0.9-5.7,2.8-8c1.9-2.3,4.6-3.5,8.2-3.5
		c4.9,0,8.3,2.2,10.1,6.6c1,2.4,1.5,5.4,1.5,9.1c0,4.1-0.6,7.7-1.9,10.9c-2,5.3-5.5,7.9-10.4,7.9c-3.3,0-5.8-0.9-7.5-2.6
		s-2.6-3.9-2.6-6.5L235.8,288.5L235.8,288.5z M246.8,280c1.4-1.1,2.1-3,2.1-5.8c0-2.5-0.6-4.3-1.9-5.5c-1.2-1.2-2.8-1.8-4.7-1.8
		c-2.1,0-3.7,0.7-4.9,2.1s-1.8,3.2-1.8,5.5c0,2.2,0.5,3.9,1.6,5.2c1.1,1.3,2.8,1.9,5.1,1.9C243.9,281.6,245.4,281.1,246.8,280z"/>
</g>
<g>
	<path class="st1" d="M39.2,263.7v3.7c-1.1,1-2.5,2.9-4.3,5.5s-3.4,5.4-4.7,8.4c-1.4,2.9-2.4,5.6-3.1,8c-0.5,1.5-1,4-1.8,7.5h-4.7
		c1.1-6.4,3.4-12.8,7-19.1c2.1-3.7,4.4-6.9,6.8-9.6H15.9v-4.2L39.2,263.7L39.2,263.7z"/>
</g>
<g>
	<path class="st1" d="M396.5,92.2V89c3-0.3,5.2-0.8,6.4-1.5s2.1-2.3,2.7-4.9h3.3V116h-4.5V92.2H396.5z"/>
</g>
<g>
	<path class="st1" d="M407.8,238.3v-8.2h-14.7V226l15.4-21.3h3.6v21.8h4.9v3.7h-4.9v8.2L407.8,238.3L407.8,238.3z M407.8,226.4
		v-15.2L397,226.4H407.8z"/>
</g>
<g>
	<path class="st1" d="M517.8,296.7v-8.2H503v-4.1l15.4-21.3h3.6v21.8h4.9v3.7H522v8.2h-4.2V296.7z M517.7,284.8v-15.2l-10.8,15.2
		H517.7z"/>
</g>
<g>
	<path class="st1" d="M291.1,272.9v-3.2c3-0.3,5.2-0.8,6.4-1.5s2.1-2.3,2.7-4.9h3.3v33.4H299v-23.8H291.1z"/>
</g>
<g>
	<path class="st1" d="M669.8,108.5c1-2.1,3.1-4.1,6.1-5.8l4.5-2.6c2-1.2,3.4-2.2,4.2-3c1.3-1.3,1.9-2.8,1.9-4.5c0-2-0.6-3.5-1.8-4.7
		s-2.7-1.7-4.7-1.7c-2.9,0-4.9,1.1-6,3.3c-0.6,1.2-0.9,2.8-1,4.9h-4.3c0-2.9,0.6-5.3,1.6-7.1c1.8-3.2,5.1-4.9,9.7-4.9
		c3.8,0,6.7,1,8.4,3.1s2.7,4.4,2.7,6.9c0,2.7-0.9,5-2.8,6.9c-1.1,1.1-3.1,2.5-5.9,4l-3.2,1.8c-1.5,0.8-2.7,1.6-3.6,2.4
		c-1.6,1.4-2.5,2.9-3,4.5H691v4h-23C668.2,113.1,668.8,110.6,669.8,108.5z"/>
</g>
<g>
	<path class="st1" d="M673.1,206.5c1.9-2.1,4.6-3.1,7.9-3.1c3.1,0,5.6,0.9,7.5,2.6c1.9,1.8,2.8,4,2.8,6.7c0,1.7-0.3,3-1,4
		s-2.1,2.5-4.2,4.5c-1.5,1.5-2.5,2.7-3,3.7s-0.7,2.5-0.7,4.5h-4.2c0-2.2,0.3-4,0.8-5.4s1.7-2.9,3.5-4.7l1.9-1.9
		c0.6-0.5,1-1.1,1.4-1.7c0.6-1,1-2.1,1-3.2c0-1.5-0.5-2.9-1.4-4s-2.5-1.7-4.6-1.7c-2.7,0-4.5,1-5.5,2.9c-0.6,1.1-0.9,2.6-1,4.7h-4.2
		C670.2,211.3,671.1,208.6,673.1,206.5z M678.2,233.5h4.7v4.9h-4.7V233.5z"/>
</g>
<g>
	<path class="st1" d="M782.3,288.1c0.3,2.4,1.4,4.1,3.4,5c1,0.5,2.2,0.7,3.5,0.7c2.5,0,4.4-0.8,5.6-2.4s1.8-3.4,1.8-5.3
		c0-2.3-0.7-4.2-2.1-5.4s-3.1-1.9-5.1-1.9c-1.5,0-2.7,0.3-3.7,0.8s-1.9,1.3-2.7,2.3l-3.7-0.2l2.6-18.1h17.4v4.1H785l-1.4,9.3
		c0.8-0.6,1.5-1,2.2-1.3c1.2-0.5,2.7-0.8,4.3-0.8c3.1,0,5.7,1,7.8,3s3.2,4.5,3.2,7.5c0,3.2-1,6-2.9,8.4s-5.1,3.6-9.4,3.6
		c-2.7,0-5.2-0.8-7.3-2.3s-3.3-3.9-3.5-7.1L782.3,288.1L782.3,288.1z"/>
</g>
<g>
	<path class="st1" d="M583,265.9c1.5,1.9,2.2,3.9,2.2,6H581c-0.2-1.3-0.6-2.4-1.2-3.1c-1-1.4-2.6-2.1-4.6-2.1
		c-2.4,0-4.2,1.1-5.6,3.3s-2.2,5.3-2.3,9.4c1-1.4,2.2-2.5,3.7-3.2c1.3-0.6,2.8-0.9,4.5-0.9c2.8,0,5.3,0.9,7.4,2.7s3.1,4.5,3.1,8
		c0,3-1,5.7-3,8.1s-4.8,3.5-8.5,3.5c-3.1,0-5.9-1.2-8.1-3.6s-3.4-6.4-3.4-12c0-4.2,0.5-7.7,1.5-10.6c2-5.6,5.5-8.3,10.7-8.3
		C578.9,263,581.5,263.9,583,265.9z M579.8,291.5c1.1-1.5,1.7-3.3,1.7-5.3c0-1.7-0.5-3.4-1.5-4.9s-2.8-2.3-5.4-2.3
		c-1.8,0-3.4,0.6-4.8,1.8s-2.1,3-2.1,5.4c0,2.1,0.6,3.9,1.9,5.4s3,2.2,5.2,2.2C577,293.8,578.7,293,579.8,291.5z"/>
</g>
<g>
	<path class="st1" d="M229,40.6c-2,0-3.9-0.4-5.6-1.1c-1.7-0.7-3.2-1.8-4.5-3.1s-2.2-2.8-2.9-4.6c-0.7-1.7-1-3.6-1-5.6
		c0-2,0.3-3.9,1-5.6c0.7-1.7,1.7-3.2,2.9-4.5c1.3-1.3,2.7-2.3,4.4-3c1.7-0.7,3.5-1.1,5.5-1.1c2.2,0,4.1,0.4,5.8,1.1
		c1.7,0.7,3.1,1.8,4.4,3l-2.6,2.6c-0.9-1-2-1.8-3.2-2.3c-1.3-0.6-2.7-0.8-4.4-0.8c-1.4,0-2.8,0.3-4,0.8s-2.3,1.3-3.2,2.2
		c-0.9,1-1.6,2.1-2.1,3.4c-0.5,1.3-0.7,2.7-0.7,4.3c0,1.5,0.2,3,0.7,4.3c0.5,1.3,1.2,2.4,2.1,3.4c0.9,1,2,1.7,3.2,2.2s2.6,0.8,4,0.8
		c1.7,0,3.2-0.3,4.5-0.9c1.3-0.6,2.4-1.4,3.2-2.3l2.6,2.6c-1.3,1.3-2.8,2.3-4.5,3.1C233.1,40.2,231.1,40.6,229,40.6z"/>
	<path class="st1" d="M251.3,40.6c-1.8,0-3.3-0.4-4.7-1.3c-1.4-0.9-2.5-2-3.3-3.5c-0.8-1.5-1.2-3.2-1.2-5c0-1.9,0.4-3.5,1.2-5
		c0.8-1.5,1.9-2.7,3.3-3.6s3-1.3,4.7-1.3c1.4,0,2.7,0.3,3.9,0.9c1.1,0.6,2,1.4,2.7,2.5c0.7,1.1,1.1,2.3,1.2,3.7v5.7
		c-0.1,1.4-0.5,2.6-1.1,3.6c-0.7,1.1-1.6,1.9-2.7,2.5C254.1,40.3,252.8,40.6,251.3,40.6z M251.9,37.2c1.8,0,3.2-0.6,4.3-1.8
		c1.1-1.2,1.6-2.8,1.6-4.7c0-1.3-0.3-2.4-0.8-3.4c-0.5-1-1.2-1.8-2.1-2.3c-0.9-0.5-1.9-0.8-3.1-0.8c-1.2,0-2.3,0.3-3.2,0.8
		s-1.6,1.3-2.2,2.3c-0.5,1-0.8,2.1-0.8,3.3c0,1.3,0.3,2.4,0.8,3.4c0.5,1,1.2,1.7,2.2,2.3C249.7,36.9,250.7,37.2,251.9,37.2z
		 M257.7,40.2V35l0.7-4.6l-0.7-4.6v-4.6h3.6v19H257.7z"/>
	<path class="st1" d="M266.5,40.2v-19h3.6v19H266.5z M279.9,40.2V29.1c0-1.4-0.4-2.6-1.3-3.6c-0.9-0.9-2.1-1.4-3.5-1.4
		c-1,0-1.8,0.2-2.6,0.6c-0.7,0.4-1.3,1-1.8,1.8c-0.4,0.7-0.6,1.6-0.6,2.6l-1.5-0.8c0-1.4,0.3-2.7,1-3.8c0.6-1.1,1.5-2,2.7-2.7
		c1.1-0.7,2.4-1,3.9-1c1.4,0,2.7,0.4,3.8,1.1c1.1,0.7,2,1.7,2.6,2.8c0.6,1.2,1,2.4,1,3.7v11.8H279.9z"/>
	<path class="st1" d="M303,40.3l-8.2-19.2h4l6.1,15h-1.3l6.4-15h4l-8.9,19.2H303z M297.5,48.1l5.6-11.5l2,3.7l-3.6,7.8H297.5z"/>
	<path class="st1" d="M324.9,40.6c-1.8,0-3.5-0.4-5-1.3c-1.5-0.9-2.7-2.1-3.6-3.6c-0.9-1.5-1.3-3.2-1.3-5.1c0-1.8,0.4-3.5,1.3-5
		c0.9-1.5,2.1-2.7,3.6-3.5c1.5-0.9,3.2-1.3,5-1.3c1.9,0,3.6,0.4,5.1,1.3c1.5,0.9,2.7,2,3.6,3.5c0.9,1.5,1.3,3.2,1.3,5
		c0,1.9-0.4,3.6-1.3,5.1c-0.9,1.5-2.1,2.7-3.6,3.6C328.5,40.1,326.8,40.6,324.9,40.6z M324.9,37.1c1.2,0,2.3-0.3,3.2-0.8
		c0.9-0.6,1.7-1.3,2.2-2.3c0.5-1,0.8-2.1,0.8-3.3c0-1.2-0.3-2.3-0.8-3.3c-0.5-1-1.3-1.7-2.2-2.3c-0.9-0.5-2-0.8-3.2-0.8
		c-1.2,0-2.2,0.3-3.2,0.8c-0.9,0.5-1.7,1.3-2.2,2.3c-0.5,1-0.8,2.1-0.8,3.3c0,1.3,0.3,2.4,0.8,3.3c0.5,1,1.3,1.7,2.2,2.3
		C322.7,36.8,323.7,37.1,324.9,37.1z"/>
	<path class="st1" d="M346.5,40.5c-1.6,0-3-0.3-4.2-1c-1.2-0.7-2.2-1.6-2.9-2.9c-0.7-1.3-1-2.7-1-4.4v-11h3.6V32
		c0,1,0.2,1.9,0.5,2.7c0.4,0.8,0.9,1.3,1.6,1.7c0.7,0.4,1.5,0.6,2.4,0.6c1.4,0,2.5-0.4,3.3-1.3c0.8-0.9,1.2-2.1,1.2-3.7V21.2h3.6v11
		c0,1.7-0.3,3.1-1,4.4c-0.7,1.3-1.7,2.2-2.9,2.9C349.5,40.1,348.1,40.5,346.5,40.5z"/>
	<path class="st1" d="M365.8,24.4v-3.3h14.3v3.3H365.8z M370.5,40.2V18.3c0-1.4,0.3-2.6,0.9-3.7c0.6-1.1,1.5-1.9,2.6-2.5
		c1.1-0.6,2.4-0.9,3.8-0.9c1.1,0,2,0.2,2.8,0.6c0.8,0.4,1.5,0.9,2.2,1.6l-2.4,2.3c-0.3-0.4-0.7-0.7-1.2-0.8
		c-0.4-0.2-0.9-0.3-1.6-0.3c-1.1,0-2,0.3-2.7,1c-0.6,0.7-0.9,1.6-0.9,2.7v21.8H370.5z"/>
	<path class="st1" d="M385.6,17.4c-0.7,0-1.2-0.2-1.6-0.7c-0.4-0.4-0.6-1-0.6-1.7c0-0.6,0.2-1.2,0.6-1.6c0.4-0.4,1-0.7,1.6-0.7
		c0.7,0,1.2,0.2,1.6,0.7c0.4,0.4,0.6,1,0.6,1.6c0,0.7-0.2,1.2-0.6,1.7C386.8,17.1,386.2,17.4,385.6,17.4z M383.7,40.2v-19h3.6v19
		H383.7z"/>
	<path class="st1" d="M392.7,40.2v-19h3.6v19H392.7z M406.1,40.2V29.1c0-1.4-0.4-2.6-1.3-3.6c-0.9-0.9-2.1-1.4-3.5-1.4
		c-1,0-1.8,0.2-2.6,0.6c-0.7,0.4-1.3,1-1.8,1.8c-0.4,0.7-0.6,1.6-0.6,2.6l-1.5-0.8c0-1.4,0.3-2.7,1-3.8c0.6-1.1,1.5-2,2.7-2.7
		c1.1-0.7,2.4-1,3.9-1c1.4,0,2.7,0.4,3.8,1.1c1.1,0.7,2,1.7,2.6,2.8s1,2.4,1,3.7v11.8H406.1z"/>
	<path class="st1" d="M422.6,40.6c-1.7,0-3.3-0.4-4.7-1.3c-1.4-0.9-2.5-2-3.3-3.5c-0.8-1.5-1.2-3.2-1.2-5c0-1.9,0.4-3.5,1.2-5
		c0.8-1.5,1.9-2.7,3.3-3.6c1.4-0.9,2.9-1.3,4.7-1.3c1.4,0,2.7,0.3,3.9,0.9s2.1,1.4,2.8,2.5c0.7,1.1,1.1,2.3,1.2,3.7v5.7
		c-0.1,1.4-0.5,2.6-1.2,3.6c-0.7,1.1-1.6,1.9-2.8,2.5S424.1,40.6,422.6,40.6z M423.2,37.2c1.2,0,2.3-0.3,3.2-0.8s1.6-1.3,2.1-2.3
		c0.5-1,0.8-2.1,0.8-3.3c0-1.3-0.3-2.4-0.8-3.4c-0.5-1-1.2-1.7-2.1-2.3s-2-0.8-3.2-0.8c-1.2,0-2.3,0.3-3.2,0.8
		c-0.9,0.5-1.6,1.3-2.1,2.3c-0.5,1-0.8,2.1-0.8,3.4s0.3,2.4,0.8,3.4c0.5,1,1.2,1.8,2.2,2.3C421,36.9,422,37.2,423.2,37.2z
		 M432.7,40.2H429V35l0.7-4.6l-0.7-4.6V11.6h3.6V40.2z"/>
	<path class="st1" d="M446.2,40.2v-19h3.6v19H446.2z M459.6,40.2V29.1c0-1.4-0.4-2.6-1.3-3.6c-0.9-0.9-2.1-1.4-3.5-1.4
		c-1,0-1.8,0.2-2.6,0.6c-0.7,0.4-1.3,1-1.8,1.8c-0.4,0.7-0.6,1.6-0.6,2.6l-1.5-0.8c0-1.4,0.3-2.7,1-3.8c0.6-1.1,1.5-2,2.7-2.7
		c1.1-0.7,2.4-1,3.9-1c1.4,0,2.7,0.4,3.8,1.1c1.1,0.7,2,1.7,2.6,2.8s1,2.4,1,3.7v11.8H459.6z"/>
	<path class="st1" d="M475.8,40.5c-1.6,0-3-0.3-4.2-1c-1.2-0.7-2.2-1.6-2.9-2.9c-0.7-1.3-1-2.7-1-4.4v-11h3.6V32
		c0,1,0.2,1.9,0.5,2.7c0.4,0.8,0.9,1.3,1.6,1.7c0.7,0.4,1.5,0.6,2.4,0.6c1.4,0,2.5-0.4,3.3-1.3c0.8-0.9,1.2-2.1,1.2-3.7V21.2h3.6v11
		c0,1.7-0.3,3.1-1,4.4c-0.7,1.3-1.7,2.2-2.9,2.9C478.8,40.1,477.4,40.5,475.8,40.5z"/>
	<path class="st1" d="M488.7,40.2v-19h3.6v19H488.7z M501.6,40.2V28.7c0-1.4-0.4-2.5-1.3-3.3c-0.9-0.8-2-1.2-3.3-1.2
		c-0.9,0-1.7,0.2-2.4,0.6c-0.7,0.4-1.3,0.9-1.7,1.6c-0.4,0.7-0.6,1.5-0.6,2.4l-1.5-0.8c0-1.4,0.3-2.7,0.9-3.8
		c0.6-1.1,1.5-1.9,2.6-2.5c1.1-0.6,2.3-0.9,3.7-0.9c1.3,0,2.5,0.3,3.6,0.9c1.1,0.6,1.9,1.4,2.6,2.5c0.6,1.1,0.9,2.3,0.9,3.8v12.2
		H501.6z M514.4,40.2V28.7c0-1.4-0.4-2.5-1.3-3.3c-0.9-0.8-1.9-1.2-3.2-1.2c-0.9,0-1.7,0.2-2.4,0.6c-0.7,0.4-1.3,0.9-1.7,1.6
		c-0.4,0.7-0.6,1.5-0.6,2.4l-2-0.8c0.1-1.5,0.5-2.7,1.2-3.8c0.7-1.1,1.6-1.9,2.7-2.5s2.3-0.9,3.7-0.9c1.4,0,2.6,0.3,3.7,0.9
		c1.1,0.6,2,1.4,2.6,2.5c0.7,1.1,1,2.3,1,3.8v12.2H514.4z"/>
	<path class="st1" d="M522.9,40.2V11.6h3.6v14.2l-0.7,4.6l0.7,4.6v5.1H522.9z M532.9,40.6c-1.4,0-2.7-0.3-3.9-0.9
		c-1.2-0.6-2.1-1.4-2.8-2.5c-0.7-1.1-1.1-2.3-1.2-3.6v-5.7c0.1-1.4,0.5-2.6,1.2-3.7c0.7-1.1,1.6-1.9,2.8-2.5
		c1.2-0.6,2.4-0.9,3.9-0.9c1.7,0,3.3,0.4,4.7,1.3s2.5,2.1,3.3,3.6c0.8,1.5,1.2,3.2,1.2,5c0,1.9-0.4,3.5-1.2,5
		c-0.8,1.5-1.9,2.7-3.3,3.5C536.2,40.1,534.7,40.6,532.9,40.6z M532.3,37.2c1.2,0,2.3-0.3,3.2-0.8c0.9-0.6,1.6-1.3,2.1-2.3
		c0.5-1,0.8-2.1,0.8-3.4c0-1.3-0.3-2.4-0.8-3.3c-0.5-1-1.2-1.7-2.1-2.3c-0.9-0.6-2-0.8-3.2-0.8c-1.2,0-2.2,0.3-3.1,0.8
		c-0.9,0.6-1.6,1.3-2.1,2.3c-0.5,1-0.8,2.1-0.8,3.4c0,1.3,0.2,2.4,0.7,3.3c0.5,1,1.2,1.7,2.1,2.3S531.2,37.2,532.3,37.2z"/>
	<path class="st1" d="M555,40.6c-1.9,0-3.6-0.4-5.1-1.3c-1.5-0.9-2.7-2-3.6-3.5c-0.9-1.5-1.3-3.2-1.3-5.1c0-1.9,0.4-3.5,1.3-5
		c0.9-1.5,2-2.7,3.5-3.5c1.5-0.9,3.1-1.3,5-1.3c1.7,0,3.3,0.4,4.6,1.2c1.4,0.8,2.4,1.9,3.2,3.3c0.8,1.4,1.1,3,1.1,4.8
		c0,0.3,0,0.6,0,0.9c0,0.3-0.1,0.6-0.2,1h-16v-3h14.1l-1.3,1.2c0-1.3-0.2-2.4-0.7-3.3s-1.1-1.6-1.9-2.1c-0.8-0.5-1.8-0.7-3-0.7
		c-1.2,0-2.3,0.3-3.2,0.8c-0.9,0.5-1.7,1.3-2.2,2.2c-0.5,1-0.8,2.1-0.8,3.4c0,1.3,0.3,2.5,0.8,3.5s1.3,1.8,2.3,2.3
		c1,0.5,2.1,0.8,3.4,0.8c1.1,0,2-0.2,2.9-0.6c0.9-0.4,1.7-0.9,2.3-1.7l2.3,2.4c-0.9,1.1-2.1,1.9-3.4,2.4
		C557.9,40.3,556.5,40.6,555,40.6z"/>
	<path class="st1" d="M567.7,40.2v-19h3.6v19H567.7z M571.3,29.4l-1.4-0.6c0-2.4,0.6-4.4,1.7-5.8c1.1-1.4,2.7-2.2,4.8-2.2
		c1,0,1.8,0.2,2.6,0.5c0.8,0.3,1.5,0.9,2.2,1.7l-2.4,2.4c-0.4-0.4-0.8-0.7-1.3-0.9c-0.5-0.2-1-0.3-1.7-0.3c-1.3,0-2.4,0.4-3.3,1.3
		C571.7,26.3,571.3,27.6,571.3,29.4z"/>
	<path class="st1" d="M590.5,31.4l0-7.6l1,0c1,0,1.8-0.2,2.5-0.6c0.7-0.4,1.3-0.9,1.6-1.6c0.4-0.7,0.6-1.5,0.6-2.3
		c0-0.9-0.2-1.7-0.6-2.3c-0.4-0.7-0.9-1.2-1.6-1.6c-0.7-0.4-1.6-0.6-2.5-0.6c-1.3,0-2.3,0.3-3.3,1c-0.9,0.7-1.7,1.6-2.2,2.7
		l-2.6-2.2c0.8-1.6,1.9-2.8,3.3-3.7c1.5-0.9,3.1-1.3,5-1.3c1.6,0,3.1,0.3,4.3,1c1.3,0.7,2.2,1.6,2.9,2.7c0.7,1.2,1,2.5,1,4
		c0,1.4-0.3,2.6-0.9,3.8c-0.6,1.1-1.5,2.1-2.6,2.8c-1.1,0.7-2.5,1.2-4,1.5l1.6-1.6l-0.3,6H590.5z M592.1,40.6
		c-0.7,0-1.4-0.3-1.9-0.8c-0.5-0.5-0.7-1.1-0.7-1.9c0-0.7,0.2-1.4,0.7-1.9c0.5-0.5,1.1-0.7,1.9-0.7c0.7,0,1.4,0.2,1.9,0.7
		c0.5,0.5,0.7,1.1,0.7,1.9c0,0.7-0.2,1.4-0.7,1.9S592.8,40.6,592.1,40.6z"/>
</g>
</svg>
