<?xml version="1.0" encoding="utf-8"?>
<!-- Generator: Adobe Illustrator 26.4.1, SVG Export Plug-In . SVG Version: 6.00 Build 0)  -->
<svg version="1.1" id="Layer_1" xmlns="http://www.w3.org/2000/svg" xmlns:xlink="http://www.w3.org/1999/xlink" x="0px" y="0px"
	 viewBox="0 0 745 301.1" style="enable-background:new 0 0 745 301.1;" xml:space="preserve">
<style type="text/css">
	.st0{fill:#FFFFFF;}
</style>
<g>
	<g>
		<g>
			<path class="st0" d="M369.8,87.7v100h-101v-100H369.8 M374.8,82.7h-5h-101h-5v5v100v5h5h101h5v-5v-100V82.7L374.8,82.7z"/>
		</g>
		<g>
			<path class="st0" d="M476.2,87.7v100h-101v-100H476.2 M481.2,82.7h-5h-101h-5v5v100v5h5h101h5v-5v-100V82.7L481.2,82.7z"/>
		</g>
	</g>
	<g>
		<path class="st0" d="M423,192.7v100H322v-100L423,192.7 M428,187.7h-5H322h-5v5v100v5h5h101h5v-5v-100V187.7L428,187.7z"/>
	</g>
	<g>
		<path class="st0" d="M311.2,135.4c-1.2-1.2-1.9-2.9-1.9-4.9c0-2.5,0.9-4.6,2.7-6.4s4.4-2.7,7.7-2.7c3.2,0,5.7,0.8,7.6,2.5
			s2.7,3.7,2.7,5.9c0,2.1-0.5,3.8-1.6,5.1c-0.6,0.7-1.5,1.5-2.8,2.2c1.4,0.6,2.5,1.4,3.3,2.2c1.5,1.6,2.2,3.6,2.2,6.1
			c0,3-1,5.5-3,7.5s-4.8,3.1-8.4,3.1c-3.3,0-6-0.9-8.3-2.7s-3.4-4.3-3.4-7.7c0-2,0.5-3.7,1.5-5.1c1-1.4,2.4-2.6,4.3-3.3
			C312.8,136.6,311.9,136,311.2,135.4z M324.8,150.5c1.3-1.1,1.9-2.6,1.9-4.7c0-2.2-0.7-3.8-2-4.9s-3-1.7-5.1-1.7
			c-2,0-3.7,0.6-4.9,1.7s-1.9,2.7-1.9,4.8c0,1.8,0.6,3.3,1.7,4.5s3,1.9,5.4,1.9C321.9,152.1,323.5,151.6,324.8,150.5z M324,133.9
			c1-1,1.6-2.3,1.6-3.7c0-1.3-0.5-2.4-1.5-3.5s-2.5-1.6-4.6-1.6c-2,0-3.5,0.5-4.4,1.6s-1.4,2.3-1.4,3.7c0,1.6,0.6,2.8,1.8,3.7
			c1.2,0.9,2.5,1.3,4.1,1.3C321.6,135.5,323,135,324,133.9z"/>
	</g>
	<g>
		<path class="st0" d="M434.2,124.2c1.5,1.9,2.2,3.9,2.2,6h-4.2c-0.2-1.3-0.6-2.4-1.2-3.1c-1-1.4-2.6-2.1-4.6-2.1
			c-2.4,0-4.2,1.1-5.6,3.3c-1.4,2.2-2.2,5.3-2.3,9.4c1-1.4,2.2-2.5,3.7-3.2c1.3-0.6,2.8-0.9,4.5-0.9c2.8,0,5.3,0.9,7.4,2.7
			s3.1,4.5,3.1,8c0,3-1,5.7-3,8.1s-4.8,3.5-8.5,3.5c-3.1,0-5.9-1.2-8.1-3.6s-3.4-6.4-3.4-12c0-4.2,0.5-7.7,1.5-10.6
			c2-5.6,5.5-8.3,10.7-8.3C430.1,121.3,432.7,122.3,434.2,124.2z M431,149.9c1.1-1.5,1.7-3.3,1.7-5.3c0-1.7-0.5-3.4-1.5-4.9
			s-2.8-2.3-5.4-2.3c-1.8,0-3.4,0.6-4.8,1.8s-2.1,3-2.1,5.4c0,2.1,0.6,3.9,1.9,5.4s3,2.2,5.2,2.2C428.3,152.1,429.9,151.4,431,149.9
			z"/>
	</g>
	<g>
		<path class="st0" d="M386.9,226v3.7c-1.1,1-2.5,2.9-4.3,5.5s-3.4,5.4-4.7,8.4c-1.4,2.9-2.4,5.6-3.1,8c-0.5,1.5-1,4-1.8,7.5h-4.7
			c1.1-6.4,3.4-12.8,7-19.1c2.1-3.7,4.4-6.9,6.8-9.6h-18.6V226H386.9z"/>
	</g>
</g>
<g>
	<g>
		<g>
			<g>
				<path class="st0" d="M115.7,87.7v100h-101v-100H115.7 M120.7,82.7h-5h-101h-5v5v100v5h5h101h5v-5v-100V82.7L120.7,82.7z"/>
			</g>
			<g>
				<path class="st0" d="M222,87.7v100H121v-100H222 M227,82.7h-5H121h-5v5v100v5h5h101h5v-5v-100V82.7L227,82.7z"/>
			</g>
		</g>
		<g>
			<path class="st0" d="M168.8,192.7v100h-101v-100L168.8,192.7 M173.8,187.7h-5h-101h-5v5v100v5h5h101h5v-5v-100V187.7L173.8,187.7
				z"/>
		</g>
		<g>
			<path class="st0" d="M77.6,122v3.7c-1.1,1-2.5,2.9-4.3,5.5s-3.4,5.4-4.7,8.4c-1.4,2.9-2.4,5.6-3.1,8c-0.5,1.5-1,4-1.8,7.5H59
				c1.1-6.4,3.4-12.8,7-19.1c2.1-3.7,4.4-6.9,6.8-9.6H54.2V122H77.6z"/>
		</g>
		<g>
			<path class="st0" d="M162,152.6c-1.8-2.2-2.7-4.8-2.7-8h4.4c0.2,2.2,0.6,3.8,1.2,4.7c1.1,1.8,3.1,2.6,5.9,2.6
				c2.2,0,4-0.6,5.3-1.8s2-2.7,2-4.6c0-2.3-0.7-3.9-2.1-4.9s-3.4-1.4-5.9-1.4c-0.3,0-0.6,0-0.9,0c-0.3,0-0.6,0-0.9,0v-3.7
				c0.4,0,0.8,0.1,1.1,0.1s0.6,0,1,0c1.6,0,2.9-0.2,3.9-0.8c1.8-0.9,2.7-2.4,2.7-4.7c0-1.7-0.6-3-1.8-3.9s-2.6-1.4-4.1-1.4
				c-2.8,0-4.8,0.9-5.8,2.8c-0.6,1-0.9,2.5-1,4.4h-4.2c0-2.5,0.5-4.6,1.5-6.4c1.7-3.1,4.7-4.7,9.1-4.7c3.4,0,6.1,0.8,7.9,2.3
				s2.8,3.7,2.8,6.6c0,2.1-0.6,3.7-1.7,5c-0.7,0.8-1.6,1.4-2.7,1.9c1.8,0.5,3.1,1.4,4.1,2.8c1,1.4,1.5,3.1,1.5,5.1
				c0,3.2-1.1,5.8-3.2,7.8s-5.1,3-9,3C166.7,155.9,163.8,154.8,162,152.6z"/>
		</g>
		<g>
			<path class="st0" d="M113.6,250.4c0.3,2.4,1.4,4.1,3.4,5c1,0.5,2.2,0.7,3.5,0.7c2.5,0,4.4-0.8,5.6-2.4s1.8-3.4,1.8-5.3
				c0-2.3-0.7-4.2-2.1-5.4s-3.1-1.9-5.1-1.9c-1.5,0-2.7,0.3-3.7,0.8s-1.9,1.3-2.7,2.3l-3.7-0.2l2.4-18h17.4v4.1h-14.3l-1.4,9.3
				c0.8-0.6,1.5-1,2.2-1.3c1.2-0.5,2.7-0.8,4.3-0.8c3.1,0,5.7,1,7.8,3c2.1,2,3.2,4.5,3.2,7.5c0,3.2-1,6-2.9,8.4
				c-2,2.4-5.1,3.6-9.4,3.6c-2.7,0-5.2-0.8-7.3-2.3s-3.3-3.9-3.5-7.1L113.6,250.4L113.6,250.4z"/>
		</g>
	</g>
	<g>
		<g>
			<g>
				<path class="st0" d="M624,87.7v100H523v-100H624 M629,82.7h-5H523h-5v5v100v5h5h101h5v-5v-100V82.7L629,82.7z"/>
			</g>
			<g>
				<path class="st0" d="M730.3,87.7v100h-101v-100H730.3 M735.3,82.7h-5h-101h-5v5v100v5h5h101h5v-5v-100V82.7L735.3,82.7z"/>
			</g>
		</g>
		<g>
			<path class="st0" d="M677.2,192.7v100h-101v-100L677.2,192.7 M682.2,187.7h-5h-101h-5v5v100v5h5h101h5v-5v-100V187.7L682.2,187.7
				z"/>
		</g>
		<g>
			<path class="st0" d="M576.8,155v-8.2H562v-4.1l15.4-21.3h3.6v21.8h4.9v3.7H581v8.2L576.8,155L576.8,155z M576.7,143.1v-15.2
				l-10.8,15.2H576.7z"/>
		</g>
		<g>
			<path class="st0" d="M669.8,147.5c1-2.1,3.1-4.1,6.1-5.8l4.5-2.6c2-1.2,3.4-2.2,4.2-3c1.3-1.3,1.9-2.8,1.9-4.5
				c0-2-0.6-3.5-1.8-4.7s-2.7-1.7-4.7-1.7c-2.9,0-4.9,1.1-6,3.3c-0.6,1.2-0.9,2.8-1,4.9h-4.3c0-2.9,0.6-5.3,1.6-7.1
				c1.8-3.2,5.1-4.9,9.7-4.9c3.8,0,6.7,1,8.4,3.1s2.7,4.4,2.7,6.9c0,2.7-0.9,5-2.8,6.9c-1.1,1.1-3.1,2.5-5.9,4l-3.2,1.8
				c-1.5,0.8-2.7,1.6-3.6,2.4c-1.6,1.4-2.5,2.9-3,4.5H691v4h-23C668.1,152.1,668.7,149.6,669.8,147.5z"/>
		</g>
		<g>
			<path class="st0" d="M622.5,227.2c1.9-2.1,4.6-3.1,7.9-3.1c3.1,0,5.6,0.9,7.5,2.6c1.9,1.8,2.8,4,2.8,6.7c0,1.7-0.3,3-1,4
				s-2.1,2.5-4.2,4.5c-1.5,1.5-2.5,2.7-3,3.7s-0.7,2.5-0.7,4.5h-4.2c0-2.2,0.3-4,0.8-5.4s1.7-2.9,3.5-4.7l1.9-1.9
				c0.6-0.5,1-1.1,1.4-1.7c0.6-1,1-2.1,1-3.2c0-1.5-0.5-2.9-1.4-4s-2.5-1.7-4.6-1.7c-2.7,0-4.5,1-5.5,2.9c-0.6,1.1-0.9,2.6-1,4.7
				h-4.2C619.6,232,620.6,229.3,622.5,227.2z M627.6,254.1h4.7v4.9h-4.7V254.1z"/>
		</g>
	</g>
</g>
<g>
	<path class="st0" d="M194,40.6c-2,0-3.9-0.4-5.6-1.1c-1.7-0.7-3.2-1.8-4.5-3.1s-2.2-2.8-2.9-4.6c-0.7-1.7-1-3.6-1-5.6
		c0-2,0.3-3.9,1-5.6c0.7-1.7,1.7-3.2,2.9-4.5c1.3-1.3,2.7-2.3,4.4-3c1.7-0.7,3.5-1.1,5.5-1.1c2.2,0,4.1,0.4,5.8,1.1
		c1.7,0.7,3.1,1.8,4.4,3l-2.6,2.6c-0.9-1-2-1.8-3.2-2.3c-1.3-0.6-2.7-0.8-4.4-0.8c-1.4,0-2.8,0.3-4,0.8s-2.3,1.3-3.2,2.2
		c-0.9,1-1.6,2.1-2.1,3.4c-0.5,1.3-0.7,2.7-0.7,4.3c0,1.5,0.2,3,0.7,4.3c0.5,1.3,1.2,2.4,2.1,3.4c0.9,1,2,1.7,3.2,2.2s2.6,0.8,4,0.8
		c1.7,0,3.2-0.3,4.5-0.9c1.3-0.6,2.4-1.4,3.2-2.3l2.6,2.6c-1.3,1.3-2.8,2.3-4.5,3.1C198.1,40.2,196.1,40.6,194,40.6z"/>
	<path class="st0" d="M216.3,40.6c-1.8,0-3.3-0.4-4.7-1.3c-1.4-0.9-2.5-2-3.3-3.5c-0.8-1.5-1.2-3.2-1.2-5c0-1.9,0.4-3.5,1.2-5
		c0.8-1.5,1.9-2.7,3.3-3.6s3-1.3,4.7-1.3c1.4,0,2.7,0.3,3.9,0.9c1.1,0.6,2,1.4,2.7,2.5c0.7,1.1,1.1,2.3,1.2,3.7v5.7
		c-0.1,1.4-0.5,2.6-1.1,3.6c-0.7,1.1-1.6,1.9-2.7,2.5C219.1,40.3,217.8,40.6,216.3,40.6z M216.9,37.2c1.8,0,3.2-0.6,4.3-1.8
		c1.1-1.2,1.6-2.8,1.6-4.7c0-1.3-0.3-2.4-0.8-3.4c-0.5-1-1.2-1.8-2.1-2.3c-0.9-0.5-1.9-0.8-3.1-0.8c-1.2,0-2.3,0.3-3.2,0.8
		s-1.6,1.3-2.2,2.3c-0.5,1-0.8,2.1-0.8,3.3c0,1.3,0.3,2.4,0.8,3.4c0.5,1,1.2,1.7,2.2,2.3C214.7,36.9,215.7,37.2,216.9,37.2z
		 M222.7,40.2V35l0.7-4.6l-0.7-4.6v-4.6h3.6v19H222.7z"/>
	<path class="st0" d="M231.5,40.2v-19h3.6v19H231.5z M244.9,40.2V29.1c0-1.4-0.4-2.6-1.3-3.6c-0.9-0.9-2.1-1.4-3.5-1.4
		c-1,0-1.8,0.2-2.6,0.6c-0.7,0.4-1.3,1-1.8,1.8c-0.4,0.7-0.6,1.6-0.6,2.6l-1.5-0.8c0-1.4,0.3-2.7,1-3.8c0.6-1.1,1.5-2,2.7-2.7
		c1.1-0.7,2.4-1,3.9-1c1.4,0,2.7,0.4,3.8,1.1c1.1,0.7,2,1.7,2.6,2.8c0.6,1.2,1,2.4,1,3.7v11.8H244.9z"/>
	<path class="st0" d="M268,40.3l-8.2-19.2h4l6.1,15h-1.3l6.4-15h4l-8.9,19.2H268z M262.5,48.1l5.6-11.5l2,3.7l-3.6,7.8H262.5z"/>
	<path class="st0" d="M289.9,40.6c-1.8,0-3.5-0.4-5-1.3c-1.5-0.9-2.7-2.1-3.6-3.6c-0.9-1.5-1.3-3.2-1.3-5.1c0-1.8,0.4-3.5,1.3-5
		c0.9-1.5,2.1-2.7,3.6-3.5c1.5-0.9,3.2-1.3,5-1.3c1.9,0,3.6,0.4,5.1,1.3c1.5,0.9,2.7,2,3.6,3.5c0.9,1.5,1.3,3.2,1.3,5
		c0,1.9-0.4,3.6-1.3,5.1c-0.9,1.5-2.1,2.7-3.6,3.6C293.5,40.1,291.8,40.6,289.9,40.6z M289.9,37.1c1.2,0,2.3-0.3,3.2-0.8
		c0.9-0.6,1.7-1.3,2.2-2.3c0.5-1,0.8-2.1,0.8-3.3c0-1.2-0.3-2.3-0.8-3.3c-0.5-1-1.3-1.7-2.2-2.3c-0.9-0.5-2-0.8-3.2-0.8
		c-1.2,0-2.2,0.3-3.2,0.8c-0.9,0.5-1.7,1.3-2.2,2.3c-0.5,1-0.8,2.1-0.8,3.3c0,1.3,0.3,2.4,0.8,3.3c0.5,1,1.3,1.7,2.2,2.3
		C287.7,36.8,288.7,37.1,289.9,37.1z"/>
	<path class="st0" d="M311.5,40.5c-1.6,0-3-0.3-4.2-1c-1.2-0.7-2.2-1.6-2.9-2.9c-0.7-1.3-1-2.7-1-4.4v-11h3.6V32
		c0,1,0.2,1.9,0.5,2.7c0.4,0.8,0.9,1.3,1.6,1.7c0.7,0.4,1.5,0.6,2.4,0.6c1.4,0,2.5-0.4,3.3-1.3c0.8-0.9,1.2-2.1,1.2-3.7V21.2h3.6v11
		c0,1.7-0.3,3.1-1,4.4c-0.7,1.3-1.7,2.2-2.9,2.9C314.5,40.1,313.1,40.5,311.5,40.5z"/>
	<path class="st0" d="M330.8,24.4v-3.3h14.3v3.3H330.8z M335.5,40.2V18.3c0-1.4,0.3-2.6,0.9-3.7c0.6-1.1,1.5-1.9,2.6-2.5
		c1.1-0.6,2.4-0.9,3.8-0.9c1.1,0,2,0.2,2.8,0.6c0.8,0.4,1.5,0.9,2.2,1.6l-2.4,2.3c-0.3-0.4-0.7-0.7-1.2-0.8
		c-0.4-0.2-0.9-0.3-1.6-0.3c-1.1,0-2,0.3-2.7,1c-0.6,0.7-0.9,1.6-0.9,2.7v21.8H335.5z"/>
	<path class="st0" d="M350.6,17.4c-0.7,0-1.2-0.2-1.6-0.7c-0.4-0.4-0.6-1-0.6-1.7c0-0.6,0.2-1.2,0.6-1.6c0.4-0.4,1-0.7,1.6-0.7
		c0.7,0,1.2,0.2,1.6,0.7c0.4,0.4,0.6,1,0.6,1.6c0,0.7-0.2,1.2-0.6,1.7C351.8,17.1,351.2,17.4,350.6,17.4z M348.7,40.2v-19h3.6v19
		H348.7z"/>
	<path class="st0" d="M357.7,40.2v-19h3.6v19H357.7z M371.1,40.2V29.1c0-1.4-0.4-2.6-1.3-3.6c-0.9-0.9-2.1-1.4-3.5-1.4
		c-1,0-1.8,0.2-2.6,0.6c-0.7,0.4-1.3,1-1.8,1.8c-0.4,0.7-0.6,1.6-0.6,2.6l-1.5-0.8c0-1.4,0.3-2.7,1-3.8c0.6-1.1,1.5-2,2.7-2.7
		c1.1-0.7,2.4-1,3.9-1c1.4,0,2.7,0.4,3.8,1.1c1.1,0.7,2,1.7,2.6,2.8s1,2.4,1,3.7v11.8H371.1z"/>
	<path class="st0" d="M387.6,40.6c-1.7,0-3.3-0.4-4.7-1.3c-1.4-0.9-2.5-2-3.3-3.5c-0.8-1.5-1.2-3.2-1.2-5c0-1.9,0.4-3.5,1.2-5
		c0.8-1.5,1.9-2.7,3.3-3.6c1.4-0.9,2.9-1.3,4.7-1.3c1.4,0,2.7,0.3,3.9,0.9s2.1,1.4,2.8,2.5c0.7,1.1,1.1,2.3,1.2,3.7v5.7
		c-0.1,1.4-0.5,2.6-1.2,3.6c-0.7,1.1-1.6,1.9-2.8,2.5S389.1,40.6,387.6,40.6z M388.2,37.2c1.2,0,2.3-0.3,3.2-0.8s1.6-1.3,2.1-2.3
		c0.5-1,0.8-2.1,0.8-3.3c0-1.3-0.3-2.4-0.8-3.4c-0.5-1-1.2-1.7-2.1-2.3s-2-0.8-3.2-0.8c-1.2,0-2.3,0.3-3.2,0.8
		c-0.9,0.5-1.6,1.3-2.1,2.3c-0.5,1-0.8,2.1-0.8,3.4s0.3,2.4,0.8,3.4c0.5,1,1.2,1.8,2.2,2.3C386,36.9,387,37.2,388.2,37.2z
		 M397.7,40.2H394V35l0.7-4.6l-0.7-4.6V11.6h3.6V40.2z"/>
	<path class="st0" d="M411.2,40.2v-19h3.6v19H411.2z M424.6,40.2V29.1c0-1.4-0.4-2.6-1.3-3.6c-0.9-0.9-2.1-1.4-3.5-1.4
		c-1,0-1.8,0.2-2.6,0.6c-0.7,0.4-1.3,1-1.8,1.8c-0.4,0.7-0.6,1.6-0.6,2.6l-1.5-0.8c0-1.4,0.3-2.7,1-3.8c0.6-1.1,1.5-2,2.7-2.7
		c1.1-0.7,2.4-1,3.9-1c1.4,0,2.7,0.4,3.8,1.1c1.1,0.7,2,1.7,2.6,2.8s1,2.4,1,3.7v11.8H424.6z"/>
	<path class="st0" d="M440.8,40.5c-1.6,0-3-0.3-4.2-1c-1.2-0.7-2.2-1.6-2.9-2.9c-0.7-1.3-1-2.7-1-4.4v-11h3.6V32
		c0,1,0.2,1.9,0.5,2.7c0.4,0.8,0.9,1.3,1.6,1.7c0.7,0.4,1.5,0.6,2.4,0.6c1.4,0,2.5-0.4,3.3-1.3c0.8-0.9,1.2-2.1,1.2-3.7V21.2h3.6v11
		c0,1.7-0.3,3.1-1,4.4c-0.7,1.3-1.7,2.2-2.9,2.9C443.8,40.1,442.4,40.5,440.8,40.5z"/>
	<path class="st0" d="M453.7,40.2v-19h3.6v19H453.7z M466.6,40.2V28.7c0-1.4-0.4-2.5-1.3-3.3c-0.9-0.8-2-1.2-3.3-1.2
		c-0.9,0-1.7,0.2-2.4,0.6c-0.7,0.4-1.3,0.9-1.7,1.6c-0.4,0.7-0.6,1.5-0.6,2.4l-1.5-0.8c0-1.4,0.3-2.7,0.9-3.8
		c0.6-1.1,1.5-1.9,2.6-2.5c1.1-0.6,2.3-0.9,3.7-0.9c1.3,0,2.5,0.3,3.6,0.9c1.1,0.6,1.9,1.4,2.6,2.5c0.6,1.1,0.9,2.3,0.9,3.8v12.2
		H466.6z M479.4,40.2V28.7c0-1.4-0.4-2.5-1.3-3.3c-0.9-0.8-1.9-1.2-3.2-1.2c-0.9,0-1.7,0.2-2.4,0.6c-0.7,0.4-1.3,0.9-1.7,1.6
		c-0.4,0.7-0.6,1.5-0.6,2.4l-2-0.8c0.1-1.5,0.5-2.7,1.2-3.8c0.7-1.1,1.6-1.9,2.7-2.5s2.3-0.9,3.7-0.9c1.4,0,2.6,0.3,3.7,0.9
		c1.1,0.6,2,1.4,2.6,2.5c0.7,1.1,1,2.3,1,3.8v12.2H479.4z"/>
	<path class="st0" d="M487.9,40.2V11.6h3.6v14.2l-0.7,4.6l0.7,4.6v5.1H487.9z M497.9,40.6c-1.4,0-2.7-0.3-3.9-0.9
		c-1.2-0.6-2.1-1.4-2.8-2.5c-0.7-1.1-1.1-2.3-1.2-3.6v-5.7c0.1-1.4,0.5-2.6,1.2-3.7c0.7-1.1,1.6-1.9,2.8-2.5
		c1.2-0.6,2.4-0.9,3.9-0.9c1.7,0,3.3,0.4,4.7,1.3s2.5,2.1,3.3,3.6c0.8,1.5,1.2,3.2,1.2,5c0,1.9-0.4,3.5-1.2,5
		c-0.8,1.5-1.9,2.7-3.3,3.5C501.2,40.1,499.7,40.6,497.9,40.6z M497.3,37.2c1.2,0,2.3-0.3,3.2-0.8c0.9-0.6,1.6-1.3,2.1-2.3
		c0.5-1,0.8-2.1,0.8-3.4c0-1.3-0.3-2.4-0.8-3.3c-0.5-1-1.2-1.7-2.1-2.3c-0.9-0.6-2-0.8-3.2-0.8c-1.2,0-2.2,0.3-3.1,0.8
		c-0.9,0.6-1.6,1.3-2.1,2.3c-0.5,1-0.8,2.1-0.8,3.4c0,1.3,0.2,2.4,0.7,3.3c0.5,1,1.2,1.7,2.1,2.3S496.2,37.2,497.3,37.2z"/>
	<path class="st0" d="M520,40.6c-1.9,0-3.6-0.4-5.1-1.3c-1.5-0.9-2.7-2-3.6-3.5c-0.9-1.5-1.3-3.2-1.3-5.1c0-1.9,0.4-3.5,1.3-5
		c0.9-1.5,2-2.7,3.5-3.5c1.5-0.9,3.1-1.3,5-1.3c1.7,0,3.3,0.4,4.6,1.2c1.4,0.8,2.4,1.9,3.2,3.3c0.8,1.4,1.1,3,1.1,4.8
		c0,0.3,0,0.6,0,0.9c0,0.3-0.1,0.6-0.2,1h-16v-3h14.1l-1.3,1.2c0-1.3-0.2-2.4-0.7-3.3s-1.1-1.6-1.9-2.1c-0.8-0.5-1.8-0.7-3-0.7
		c-1.2,0-2.3,0.3-3.2,0.8c-0.9,0.5-1.7,1.3-2.2,2.2c-0.5,1-0.8,2.1-0.8,3.4c0,1.3,0.3,2.5,0.8,3.5s1.3,1.8,2.3,2.3
		c1,0.5,2.1,0.8,3.4,0.8c1.1,0,2-0.2,2.9-0.6c0.9-0.4,1.7-0.9,2.3-1.7l2.3,2.4c-0.9,1.1-2.1,1.9-3.4,2.4
		C522.9,40.3,521.5,40.6,520,40.6z"/>
	<path class="st0" d="M532.7,40.2v-19h3.6v19H532.7z M536.3,29.4l-1.4-0.6c0-2.4,0.6-4.4,1.7-5.8c1.1-1.4,2.7-2.2,4.8-2.2
		c1,0,1.8,0.2,2.6,0.5c0.8,0.3,1.5,0.9,2.2,1.7l-2.4,2.4c-0.4-0.4-0.8-0.7-1.3-0.9c-0.5-0.2-1-0.3-1.7-0.3c-1.3,0-2.4,0.4-3.3,1.3
		C536.7,26.3,536.3,27.6,536.3,29.4z"/>
	<path class="st0" d="M555.5,31.4l0-7.6l1,0c1,0,1.8-0.2,2.5-0.6c0.7-0.4,1.3-0.9,1.6-1.6c0.4-0.7,0.6-1.5,0.6-2.3
		c0-0.9-0.2-1.7-0.6-2.3c-0.4-0.7-0.9-1.2-1.6-1.6c-0.7-0.4-1.6-0.6-2.5-0.6c-1.3,0-2.3,0.3-3.3,1c-0.9,0.7-1.7,1.6-2.2,2.7
		l-2.6-2.2c0.8-1.6,1.9-2.8,3.3-3.7c1.5-0.9,3.1-1.3,5-1.3c1.6,0,3.1,0.3,4.3,1c1.3,0.7,2.2,1.6,2.9,2.7c0.7,1.2,1,2.5,1,4
		c0,1.4-0.3,2.6-0.9,3.8c-0.6,1.1-1.5,2.1-2.6,2.8c-1.1,0.7-2.5,1.2-4,1.5l1.6-1.6l-0.3,6H555.5z M557.1,40.6
		c-0.7,0-1.4-0.3-1.9-0.8c-0.5-0.5-0.7-1.1-0.7-1.9c0-0.7,0.2-1.4,0.7-1.9c0.5-0.5,1.1-0.7,1.9-0.7c0.7,0,1.4,0.2,1.9,0.7
		c0.5,0.5,0.7,1.1,0.7,1.9c0,0.7-0.2,1.4-0.7,1.9S557.8,40.6,557.1,40.6z"/>
</g>
</svg>
