<?xml version="1.0" encoding="utf-8"?>
<!-- Generator: Adobe Illustrator 26.4.1, SVG Export Plug-In . SVG Version: 6.00 Build 0)  -->
<svg version="1.1" id="Layer_1" xmlns="http://www.w3.org/2000/svg" xmlns:xlink="http://www.w3.org/1999/xlink" x="0px" y="0px"
	 viewBox="0 0 520 37" style="enable-background:new 0 0 520 37;" xml:space="preserve">
<style type="text/css">
	.st0{fill:#FFFFFF;}
</style>
<g>
	<path class="st0" d="M0,6.7V0h14.1v6.7H0z M6.8,35.3V0h7.9v35.3H6.8z"/>
	<path class="st0" d="M30.6,35.8c-2.4,0-4.7-0.4-6.9-1.2c-2.1-0.8-3.9-2-5.3-3.6l5.2-5.1c0.6,0.9,1.6,1.7,2.8,2.2
		c1.2,0.6,2.5,0.9,4,0.9c1.2,0,2.3-0.2,3.2-0.7c0.9-0.5,1.7-1.1,2.2-1.9c0.5-0.8,0.8-1.8,0.8-2.9c0-1.2-0.3-2.2-0.8-3
		c-0.5-0.8-1.3-1.5-2.2-1.9c-0.9-0.5-2-0.7-3.2-0.7c-1.2,0-2.3,0.2-3.3,0.5c-1,0.3-1.9,0.8-2.7,1.4l0.6-5.1c0.8-0.6,1.5-1.1,2.2-1.5
		c0.7-0.4,1.5-0.7,2.3-0.9c0.8-0.2,1.8-0.3,2.9-0.3c2.6,0,4.8,0.5,6.6,1.6c1.8,1.1,3.1,2.5,4,4.2c0.9,1.8,1.4,3.7,1.4,5.9
		c0,2.3-0.6,4.4-1.7,6.2c-1.2,1.8-2.8,3.2-4.8,4.3C35.9,35.3,33.4,35.8,30.6,35.8z M24.4,19.8l-3.5-3.2L22.6,0h7.1L28,16.4
		L24.4,19.8z M23.7,6.7L22.6,0h19.9v6.7H23.7z"/>
	<path class="st0" d="M57.9,21.8v-6.4h23.3v6.4H57.9z M66.3,6.3h6.5v24.4h-6.5V6.3z"/>
	<path class="st0" d="M105.8,35.8c-2.5,0-4.7-0.4-6.8-1.2c-2-0.8-3.8-2-5.1-3.6l5.1-5.1c0.6,0.9,1.6,1.7,2.8,2.2
		c1.2,0.6,2.5,0.9,3.9,0.9c1.2,0,2.2-0.2,3.1-0.7c0.9-0.4,1.6-1,2.1-1.8c0.5-0.8,0.8-1.7,0.8-2.8c0-1.1-0.3-2.1-0.8-2.9
		c-0.5-0.8-1.3-1.4-2.3-1.8c-1-0.4-2.1-0.6-3.5-0.6c-0.6,0-1.3,0-2,0.1c-0.7,0.1-1.3,0.2-1.8,0.4l3.5-4.4c1-0.3,1.9-0.5,2.7-0.7
		c0.8-0.2,1.6-0.3,2.4-0.3c1.8,0,3.4,0.4,4.9,1.3c1.4,0.9,2.6,2.1,3.4,3.6c0.8,1.5,1.2,3.4,1.2,5.5c0,2.4-0.6,4.4-1.7,6.2
		c-1.1,1.8-2.7,3.2-4.8,4.2C111,35.3,108.6,35.8,105.8,35.8z M96.1,6.7V0h22.8v4.4l-6.2,2.3H96.1z M101.5,18.9v-4.5l8.6-10l8.9,0
		L110,14.5L101.5,18.9z"/>
	<path class="st0" d="M121.3,6.7V0h24.4v4.4l-2.6,2.2H121.3z M126,35.3l12-30.9h7.7l-11.6,30.9H126z"/>
	<path class="st0" d="M158.6,15.9V9.5h23.3v6.4H158.6z M158.6,27.9v-6.4h23.3v6.4H158.6z"/>
</g>
<g>
	<path class="st0" d="M347.2,36.4c-2.5,0-4.7-0.4-6.8-1.2c-2-0.8-3.8-2-5.2-3.7l5.1-5.1c0.6,0.9,1.6,1.7,2.8,2.2
		c1.2,0.6,2.5,0.8,3.8,0.8c1.2,0,2.2-0.2,3.2-0.6c0.9-0.4,1.6-1,2.1-1.8s0.8-1.7,0.8-2.8c0-1.1-0.3-2.1-0.8-2.8s-1.3-1.4-2.3-1.8
		c-1-0.4-2.1-0.6-3.5-0.6c-0.6,0-1.3,0-2,0.1c-0.7,0.1-1.3,0.2-1.8,0.4l3.5-4.4c1-0.3,1.9-0.5,2.7-0.7c0.8-0.2,1.6-0.3,2.4-0.3
		c1.8,0,3.4,0.4,4.9,1.3c1.4,0.9,2.6,2.1,3.4,3.6c0.8,1.6,1.2,3.4,1.2,5.5c0,2.4-0.6,4.4-1.7,6.2c-1.1,1.8-2.7,3.2-4.8,4.2
		C352.4,35.9,350,36.4,347.2,36.4z M337.5,7.2V0.5h22.8v4.4l-6.2,2.3H337.5z M342.9,19.4V15l8.6-10l8.8,0L351.4,15L342.9,19.4z"/>
	<path class="st0" d="M375.2,36.4c-2.5,0-4.7-0.4-6.8-1.2s-3.8-2-5.1-3.7l5.1-5.1c0.6,0.9,1.6,1.7,2.8,2.2c1.2,0.6,2.5,0.8,3.9,0.8
		c1.2,0,2.2-0.2,3.1-0.6c0.9-0.4,1.6-1,2.2-1.8s0.8-1.7,0.8-2.8c0-1.1-0.3-2.1-0.8-2.8S379,20,378,19.6c-1-0.4-2.1-0.6-3.5-0.6
		c-0.6,0-1.3,0-2,0.1c-0.7,0.1-1.3,0.2-1.8,0.4l3.5-4.4c1-0.3,1.9-0.5,2.7-0.7c0.8-0.2,1.6-0.3,2.3-0.3c1.8,0,3.4,0.4,4.9,1.3
		s2.6,2.1,3.4,3.6c0.8,1.6,1.2,3.4,1.2,5.5c0,2.4-0.6,4.4-1.7,6.2c-1.1,1.8-2.7,3.2-4.8,4.2C380.3,35.9,377.9,36.4,375.2,36.4z
		 M365.5,7.2V0.5h22.8v4.4l-6.2,2.3H365.5z M370.8,19.4V15l8.6-10l8.9,0L379.4,15L370.8,19.4z"/>
	<path class="st0" d="M402.4,22.3v-6.4h23.3v6.4H402.4z M410.8,6.9h6.5v24.4h-6.5V6.9z"/>
	<path class="st0" d="M438.6,7.2V0.5h14.2v6.7H438.6z M445.4,35.8V0.5h7.9v35.3H445.4z"/>
	<path class="st0" d="M457.8,31.4l13.5-14c0.8-0.9,1.5-1.6,2-2.3c0.5-0.7,0.9-1.3,1.1-1.9c0.2-0.6,0.3-1.2,0.3-1.8
		c0-1.4-0.4-2.4-1.3-3.2c-0.9-0.8-2-1.2-3.4-1.2c-1.4,0-2.7,0.4-3.8,1.1c-1.1,0.8-2.2,2-3.2,3.7l-5.3-4.6c1.4-2.4,3.2-4.1,5.4-5.3
		c2.1-1.2,4.6-1.8,7.5-1.8c2.4,0,4.5,0.5,6.3,1.4c1.8,0.9,3.2,2.2,4.2,3.9c1,1.7,1.5,3.6,1.5,5.9c0,1.4-0.2,2.7-0.5,3.9
		c-0.3,1.2-0.9,2.3-1.8,3.5c-0.8,1.1-1.9,2.4-3.3,3.8l-9.5,9.4L457.8,31.4z M457.8,35.8v-4.4l6.7-2.3h18.8v6.7H457.8z"/>
	<path class="st0" d="M496.7,16.4V10H520v6.4H496.7z M496.7,28.4V22H520v6.4H496.7z"/>
</g>
</svg>
