<?xml version="1.0" encoding="utf-8"?>
<!-- Generator: Adobe Illustrator 26.4.1, SVG Export Plug-In . SVG Version: 6.00 Build 0)  -->
<svg version="1.1" id="Layer_1" xmlns="http://www.w3.org/2000/svg" xmlns:xlink="http://www.w3.org/1999/xlink" x="0px" y="0px"
	 viewBox="0 0 210 215" style="enable-background:new 0 0 210 215;" xml:space="preserve">
<style type="text/css">
	.st0{fill:#FFFFFF;}
</style>
<g>
	<path class="st0" d="M14,8.7V2h14.1v6.7H14z M20.8,37.3V2h7.9v35.3H20.8z"/>
	<path class="st0" d="M44.6,37.8c-2.4,0-4.7-0.4-6.9-1.2c-2.1-0.8-3.9-2-5.3-3.6l5.2-5.1c0.6,0.9,1.6,1.7,2.8,2.2
		c1.2,0.6,2.5,0.9,4,0.9c1.2,0,2.3-0.2,3.2-0.7s1.7-1.1,2.2-1.9s0.8-1.8,0.8-2.9c0-1.2-0.3-2.2-0.8-3s-1.3-1.5-2.2-1.9
		c-0.9-0.5-2-0.7-3.2-0.7s-2.3,0.2-3.3,0.5s-1.9,0.8-2.7,1.4l0.6-5.1c0.8-0.6,1.5-1.1,2.2-1.5c0.7-0.4,1.5-0.7,2.3-0.9
		c0.8-0.2,1.8-0.3,2.9-0.3c2.6,0,4.8,0.5,6.6,1.6s3.1,2.5,4,4.2c0.9,1.8,1.4,3.7,1.4,5.9c0,2.3-0.6,4.4-1.7,6.2
		c-1.2,1.8-2.8,3.2-4.8,4.3C49.9,37.3,47.4,37.8,44.6,37.8z M38.4,21.8l-3.5-3.2L36.6,2h7.1L42,18.4L38.4,21.8z M37.7,8.7L36.6,2
		h19.9v6.7H37.7z"/>
	<path class="st0" d="M71.9,23.8v-6.4h23.3v6.4H71.9z M80.3,8.3h6.5v24.4h-6.5V8.3z"/>
	<path class="st0" d="M119.8,37.8c-2.5,0-4.7-0.4-6.8-1.2c-2-0.8-3.8-2-5.1-3.6l5.1-5.1c0.6,0.9,1.6,1.7,2.8,2.2
		c1.2,0.6,2.5,0.9,3.9,0.9c1.2,0,2.2-0.2,3.1-0.7c0.9-0.4,1.6-1,2.1-1.8s0.8-1.7,0.8-2.8c0-1.1-0.3-2.1-0.8-2.9s-1.3-1.4-2.3-1.8
		s-2.1-0.6-3.5-0.6c-0.6,0-1.3,0-2,0.1s-1.3,0.2-1.8,0.4l3.5-4.4c1-0.3,1.9-0.5,2.7-0.7c0.8-0.2,1.6-0.3,2.4-0.3
		c1.8,0,3.4,0.4,4.9,1.3c1.4,0.9,2.6,2.1,3.4,3.6c0.8,1.5,1.2,3.4,1.2,5.5c0,2.4-0.6,4.4-1.7,6.2c-1.1,1.8-2.7,3.2-4.8,4.2
		C125,37.3,122.6,37.8,119.8,37.8z M110.1,8.7V2h22.8v4.4l-6.2,2.3H110.1z M115.5,20.9v-4.5l8.6-10h8.9l-9,10.1L115.5,20.9z"/>
	<path class="st0" d="M135.4,8.7V2h24.4v4.4l-2.6,2.2L135.4,8.7L135.4,8.7z M140,37.3l12-30.9h7.7l-11.6,30.9H140z"/>
	<path class="st0" d="M172.6,17.9v-6.4H196v6.4H172.6z M172.6,29.9v-6.4H196v6.4H172.6z"/>
</g>
<g>
	<path class="st0" d="M24.6,215c-2.5,0-4.7-0.4-6.8-1.2c-2-0.8-3.8-2-5.2-3.7l5.1-5.1c0.6,0.9,1.6,1.7,2.8,2.2
		c1.2,0.6,2.5,0.8,3.8,0.8c1.2,0,2.2-0.2,3.2-0.6c0.9-0.4,1.6-1,2.1-1.8c0.5-0.8,0.8-1.7,0.8-2.8c0-1.1-0.3-2.1-0.8-2.8
		s-1.3-1.4-2.3-1.8c-1-0.4-2.1-0.6-3.5-0.6c-0.6,0-1.3,0-2,0.1c-0.7,0.1-1.3,0.2-1.8,0.4l3.5-4.4c1-0.3,1.9-0.5,2.7-0.7
		c0.8-0.2,1.6-0.3,2.4-0.3c1.8,0,3.4,0.4,4.9,1.3c1.4,0.9,2.6,2.1,3.4,3.6c0.8,1.6,1.2,3.4,1.2,5.5c0,2.4-0.6,4.4-1.7,6.2
		s-2.7,3.2-4.8,4.2C29.8,214.5,27.4,215,24.6,215z M14.9,185.8v-6.7h22.8v4.4l-6.2,2.3H14.9z M20.3,198v-4.4l8.6-10h8.8l-8.9,10
		L20.3,198z"/>
	<path class="st0" d="M52.6,215c-2.5,0-4.7-0.4-6.8-1.2s-3.8-2-5.1-3.7l5.1-5.1c0.6,0.9,1.6,1.7,2.8,2.2c1.2,0.6,2.5,0.8,3.9,0.8
		c1.2,0,2.2-0.2,3.1-0.6c0.9-0.4,1.6-1,2.2-1.8c0.6-0.8,0.8-1.7,0.8-2.8c0-1.1-0.3-2.1-0.8-2.8s-1.4-1.4-2.4-1.8
		c-1-0.4-2.1-0.6-3.5-0.6c-0.6,0-1.3,0-2,0.1c-0.7,0.1-1.3,0.2-1.8,0.4l3.5-4.4c1-0.3,1.9-0.5,2.7-0.7c0.8-0.2,1.6-0.3,2.3-0.3
		c1.8,0,3.4,0.4,4.9,1.3s2.6,2.1,3.4,3.6c0.8,1.6,1.2,3.4,1.2,5.5c0,2.4-0.6,4.4-1.7,6.2s-2.7,3.2-4.8,4.2
		C57.7,214.5,55.3,215,52.6,215z M42.9,185.8v-6.7h22.8v4.4l-6.2,2.3H42.9z M48.2,198v-4.4l8.6-10h8.9l-8.9,10L48.2,198z"/>
	<path class="st0" d="M79.8,200.9v-6.4h23.3v6.4H79.8z M88.2,185.5h6.5v24.4h-6.5V185.5z"/>
	<path class="st0" d="M116,185.8v-6.7h14.2v6.7H116z M122.8,214.4v-35.3h7.9v35.3H122.8z"/>
	<path class="st0" d="M135.2,210l13.5-14c0.8-0.9,1.5-1.6,2-2.3s0.9-1.3,1.1-1.9c0.2-0.6,0.3-1.2,0.3-1.8c0-1.4-0.4-2.4-1.3-3.2
		s-2-1.2-3.4-1.2s-2.7,0.4-3.8,1.1c-1.1,0.8-2.2,2-3.2,3.7l-5.3-4.6c1.4-2.4,3.2-4.1,5.4-5.3c2.1-1.2,4.6-1.8,7.5-1.8
		c2.4,0,4.5,0.5,6.3,1.4c1.8,0.9,3.2,2.2,4.2,3.9s1.5,3.6,1.5,5.9c0,1.4-0.2,2.7-0.5,3.9s-0.9,2.3-1.8,3.5c-0.8,1.1-1.9,2.4-3.3,3.8
		l-9.5,9.4L135.2,210z M135.2,214.4V210l6.7-2.3h18.8v6.7H135.2z"/>
	<path class="st0" d="M174.1,195v-6.4h23.3v6.4H174.1z M174.1,207v-6.4h23.3v6.4H174.1z"/>
</g>
</svg>
