<?xml version="1.0" encoding="utf-8"?>
<!-- Generator: Adobe Illustrator 26.4.1, SVG Export Plug-In . SVG Version: 6.00 Build 0)  -->
<svg version="1.1" id="Layer_1" xmlns="http://www.w3.org/2000/svg" xmlns:xlink="http://www.w3.org/1999/xlink" x="0px" y="0px"
	 viewBox="0 0 506 317.8" style="enable-background:new 0 0 506 317.8;" xml:space="preserve">
<style type="text/css">
	.st0{fill:none;stroke:#FFFFFF;stroke-width:5;stroke-linecap:square;stroke-miterlimit:10;}
	.st1{fill:#FFFFFF;}
</style>
<g>
	<g>
		<g>
			<path class="st0" d="M181.7,96.2c0-10.2,8.3-18.5,18.5-18.5s18.5,8.3,18.5,18.5s-8.3,18.5-18.5,18.5S181.7,106.4,181.7,96.2z"/>
		</g>
		<g>
			<path class="st0" d="M234.2,96.2c0-10.2,8.3-18.5,18.5-18.5s18.5,8.3,18.5,18.5s-8.3,18.5-18.5,18.5S234.2,106.4,234.2,96.2z"/>
		</g>
		<g>
			<path class="st0" d="M286.8,96.2c0-10.2,8.3-18.5,18.5-18.5s18.5,8.3,18.5,18.5s-8.3,18.5-18.5,18.5
				C295.1,114.7,286.8,106.4,286.8,96.2z"/>
		</g>
	</g>
	<g>
		<g>
			<path class="st0" d="M181.7,292.3c0-10.2,8.3-18.5,18.5-18.5s18.5,8.3,18.5,18.5s-8.3,18.5-18.5,18.5S181.7,302.5,181.7,292.3z"
				/>
		</g>
		<g>
			<path class="st0" d="M234.2,292.3c0-10.2,8.3-18.5,18.5-18.5s18.5,8.3,18.5,18.5s-8.3,18.5-18.5,18.5S234.2,302.5,234.2,292.3z"
				/>
		</g>
		<g>
			<path class="st0" d="M286.8,292.3c0-10.2,8.3-18.5,18.5-18.5s18.5,8.3,18.5,18.5s-8.3,18.5-18.5,18.5
				C295.1,310.8,286.8,302.5,286.8,292.3z"/>
		</g>
	</g>
	<g>
		<g>
			<path class="st0" d="M181.7,144.8c0-10.2,8.3-18.5,18.5-18.5s18.5,8.3,18.5,18.5s-8.3,18.5-18.5,18.5S181.7,155,181.7,144.8z"/>
		</g>
		<g>
			<path class="st0" d="M128.2,144.8c0-10.2,8.3-18.5,18.5-18.5s18.5,8.3,18.5,18.5s-8.3,18.5-18.5,18.5S128.2,155,128.2,144.8z"/>
		</g>
		<g>
			<path class="st0" d="M234.2,144.8c0-10.2,8.3-18.5,18.5-18.5s18.5,8.3,18.5,18.5s-8.3,18.5-18.5,18.5S234.2,155,234.2,144.8z"/>
		</g>
		<g>
			<path class="st0" d="M286.8,144.8c0-10.2,8.3-18.5,18.5-18.5s18.5,8.3,18.5,18.5s-8.3,18.5-18.5,18.5
				C295.1,163.3,286.8,155,286.8,144.8z"/>
		</g>
		<g>
			<path class="st0" d="M340.6,144.8c0-10.2,8.3-18.5,18.5-18.5s18.5,8.3,18.5,18.5s-8.3,18.5-18.5,18.5S340.6,155,340.6,144.8z"/>
		</g>
	</g>
	<g>
		<g>
			<path class="st0" d="M181.7,243c0-10.2,8.3-18.5,18.5-18.5s18.5,8.3,18.5,18.5s-8.3,18.5-18.5,18.5S181.7,253.2,181.7,243z"/>
		</g>
		<g>
			<path class="st0" d="M128.2,243c0-10.2,8.3-18.5,18.5-18.5s18.5,8.3,18.5,18.5s-8.3,18.5-18.5,18.5S128.2,253.2,128.2,243z"/>
		</g>
		<g>
			<path class="st0" d="M234.2,243c0-10.2,8.3-18.5,18.5-18.5s18.5,8.3,18.5,18.5s-8.3,18.5-18.5,18.5
				C242.5,261.4,234.2,253.2,234.2,243z"/>
		</g>
		<g>
			<path class="st0" d="M286.8,243c0-10.2,8.3-18.5,18.5-18.5s18.5,8.3,18.5,18.5s-8.3,18.5-18.5,18.5
				C295.1,261.4,286.8,253.2,286.8,243z"/>
		</g>
		<g>
			<path class="st0" d="M340.6,243c0-10.2,8.3-18.5,18.5-18.5s18.5,8.3,18.5,18.5s-8.3,18.5-18.5,18.5
				C348.9,261.4,340.6,253.2,340.6,243z"/>
		</g>
	</g>
	<g>
		<g>
			<path class="st0" d="M181.7,194.1c0-10.2,8.3-18.5,18.5-18.5s18.5,8.3,18.5,18.5s-8.3,18.5-18.5,18.5
				C189.9,212.5,181.7,204.3,181.7,194.1z"/>
		</g>
		<g>
			<path class="st0" d="M128.2,194.1c0-10.2,8.3-18.5,18.5-18.5s18.5,8.3,18.5,18.5s-8.3,18.5-18.5,18.5
				C136.5,212.5,128.2,204.3,128.2,194.1z"/>
		</g>
		<g>
			<path class="st0" d="M75.5,194.1c0-10.2,8.3-18.5,18.5-18.5s18.5,8.3,18.5,18.5s-8.3,18.5-18.5,18.5S75.5,204.3,75.5,194.1z"/>
		</g>
		<g>
			<path class="st0" d="M234.2,194.1c0-10.2,8.3-18.5,18.5-18.5s18.5,8.3,18.5,18.5s-8.3,18.5-18.5,18.5
				C242.5,212.5,234.2,204.3,234.2,194.1z"/>
		</g>
		<g>
			<path class="st0" d="M286.8,194.1c0-10.2,8.3-18.5,18.5-18.5s18.5,8.3,18.5,18.5s-8.3,18.5-18.5,18.5
				C295.1,212.5,286.8,204.3,286.8,194.1z"/>
		</g>
		<g>
			<path class="st0" d="M340.6,194.1c0-10.2,8.3-18.5,18.5-18.5s18.5,8.3,18.5,18.5s-8.3,18.5-18.5,18.5
				C348.9,212.5,340.6,204.3,340.6,194.1z"/>
		</g>
		<g>
			<path class="st0" d="M393.5,194.1c0-10.2,8.3-18.5,18.5-18.5s18.5,8.3,18.5,18.5s-8.3,18.5-18.5,18.5
				C401.8,212.5,393.5,204.3,393.5,194.1z"/>
		</g>
	</g>
	<g>
		<g>
			<path class="st1" d="M201.7,106.7v-5.1h-9.2V99l9.6-13.3h2.2v13.6h3.1v2.3h-3.1v5.1H201.7L201.7,106.7z M201.7,99.2v-9.5
				l-6.7,9.5H201.7z"/>
		</g>
		<g>
			<path class="st1" d="M246.7,105.2c-1.1-1.4-1.7-3-1.7-5h2.8c0.1,1.4,0.4,2.3,0.8,3c0.7,1.1,1.9,1.7,3.7,1.7
				c1.4,0,2.5-0.4,3.3-1.1c0.8-0.7,1.3-1.7,1.3-2.9c0-1.4-0.4-2.5-1.3-3c-0.9-0.6-2.1-0.9-3.7-0.9c-0.2,0-0.4,0-0.5,0
				c-0.2,0-0.4,0-0.6,0v-2.3c0.3,0,0.5,0,0.7,0.1c0.2,0,0.4,0,0.6,0c1,0,1.8-0.2,2.4-0.5c1.1-0.5,1.7-1.5,1.7-2.9
				c0-1-0.4-1.9-1.1-2.4s-1.6-0.9-2.6-0.9c-1.8,0-3,0.6-3.7,1.8c-0.4,0.6-0.6,1.6-0.6,2.8h-2.6c0-1.6,0.3-2.9,0.9-4
				c1.1-2,3-2.9,5.7-2.9c2.1,0,3.8,0.5,5,1.4c1.2,1,1.8,2.3,1.8,4.1c0,1.3-0.3,2.3-1,3.1c-0.4,0.5-1,0.9-1.7,1.2
				c1.1,0.3,2,0.9,2.6,1.8s0.9,1.9,0.9,3.2c0,2-0.7,3.6-2,4.9s-3.2,1.9-5.6,1.9C249.6,107.3,247.8,106.6,246.7,105.2z"/>
		</g>
		<g>
			<path class="st1" d="M299,102c0.7-1.3,1.9-2.6,3.8-3.7l2.8-1.6c1.3-0.7,2.1-1.4,2.7-1.9c0.8-0.8,1.2-1.7,1.2-2.8
				c0-1.2-0.4-2.2-1.1-2.9c-0.7-0.7-1.7-1.1-2.9-1.1c-1.8,0-3.1,0.7-3.8,2.1c-0.4,0.7-0.6,1.8-0.6,3.1h-2.7c0-1.8,0.4-3.3,1-4.5
				c1.1-2,3.2-3.1,6.1-3.1c2.4,0,4.2,0.7,5.3,2c1.1,1.3,1.7,2.7,1.7,4.3c0,1.7-0.6,3.1-1.8,4.3c-0.7,0.7-1.9,1.5-3.7,2.5l-2,1.1
				c-1,0.5-1.7,1-2.3,1.5c-1,0.9-1.6,1.8-1.9,2.8h11.5v2.5h-14.4C298,104.9,298.3,103.3,299,102z"/>
		</g>
		<g>
			<path class="st1" d="M195.8,297.7c0.1,1.5,0.6,2.5,1.7,3c0.5,0.3,1.1,0.4,1.8,0.4c1.3,0,2.3-0.5,3.2-1.6s1.5-3.2,1.9-6.4
				c-0.6,0.9-1.3,1.6-2.2,2s-1.8,0.6-2.8,0.6c-2,0-3.6-0.6-4.8-1.9s-1.8-2.9-1.8-4.9c0-1.9,0.6-3.6,1.7-5c1.2-1.4,2.9-2.2,5.1-2.2
				c3.1,0,5.2,1.4,6.3,4.1c0.6,1.5,1,3.4,1,5.7c0,2.6-0.4,4.8-1.2,6.8c-1.3,3.3-3.5,5-6.5,5c-2.1,0-3.6-0.5-4.7-1.6
				c-1.1-1.1-1.6-2.4-1.6-4H195.8L195.8,297.7z M202.6,292.4c0.9-0.7,1.3-1.9,1.3-3.6c0-1.5-0.4-2.7-1.2-3.5s-1.8-1.1-3-1.1
				c-1.3,0-2.3,0.4-3.1,1.3s-1.1,2-1.1,3.5c0,1.4,0.3,2.5,1,3.3s1.7,1.2,3.2,1.2C200.8,293.4,201.8,293.1,202.6,292.4z"/>
		</g>
		<g>
			<path class="st1" d="M248.4,282.9c1.2-1.3,2.9-1.9,5-1.9c1.9,0,3.5,0.6,4.7,1.7s1.8,2.5,1.8,4.2c0,1-0.2,1.9-0.6,2.5
				s-1.3,1.6-2.6,2.8c-1,0.9-1.6,1.7-1.9,2.3c-0.3,0.6-0.4,1.6-0.4,2.8h-2.6c0-1.4,0.2-2.5,0.5-3.4s1.1-1.8,2.2-2.9l1.2-1.2
				c0.4-0.3,0.6-0.7,0.9-1c0.4-0.6,0.6-1.3,0.6-2c0-1-0.3-1.8-0.9-2.5s-1.6-1.1-2.9-1.1c-1.7,0-2.8,0.6-3.5,1.8
				c-0.4,0.7-0.6,1.6-0.6,2.9h-2.6C246.6,285.9,247.2,284.2,248.4,282.9z M251.6,299.8h2.9v3.1h-2.9V299.8z"/>
		</g>
		<g>
			<path class="st1" d="M299.3,301.4c-1.1-1.4-1.7-3-1.7-5h2.8c0.1,1.4,0.4,2.3,0.8,3c0.7,1.1,1.9,1.7,3.7,1.7
				c1.4,0,2.5-0.4,3.3-1.1s1.3-1.7,1.3-2.9c0-1.4-0.4-2.5-1.3-3c-0.9-0.6-2.1-0.9-3.7-0.9c-0.2,0-0.4,0-0.5,0c-0.2,0-0.4,0-0.6,0
				v-2.3c0.3,0,0.5,0,0.7,0.1c0.2,0,0.4,0,0.6,0c1,0,1.8-0.2,2.4-0.5c1.1-0.5,1.7-1.5,1.7-2.9c0-1-0.4-1.9-1.1-2.4
				c-0.7-0.6-1.6-0.9-2.6-0.9c-1.8,0-3,0.6-3.7,1.8c-0.4,0.6-0.6,1.6-0.6,2.8h-2.6c0-1.6,0.3-2.9,0.9-4c1.1-2,3-2.9,5.7-2.9
				c2.1,0,3.8,0.5,5,1.4c1.2,1,1.8,2.3,1.8,4.1c0,1.3-0.3,2.3-1,3.1c-0.4,0.5-1,0.9-1.7,1.2c1.1,0.3,2,0.9,2.6,1.8s0.9,1.9,0.9,3.2
				c0,2-0.7,3.6-2,4.9s-3.2,1.9-5.6,1.9C302.2,303.4,300.4,302.7,299.3,301.4z"/>
		</g>
		<g>
			<path class="st1" d="M194.2,153.9c-1.1-1.4-1.7-3-1.7-5h2.8c0.1,1.4,0.4,2.3,0.8,3c0.7,1.1,1.9,1.7,3.7,1.7
				c1.4,0,2.5-0.4,3.3-1.1c0.8-0.7,1.3-1.7,1.3-2.9c0-1.4-0.4-2.5-1.3-3c-0.9-0.6-2.1-0.9-3.7-0.9c-0.2,0-0.4,0-0.5,0
				c-0.2,0-0.4,0-0.6,0v-2.3c0.3,0,0.5,0,0.7,0.1c0.2,0,0.4,0,0.6,0c1,0,1.8-0.2,2.4-0.5c1.1-0.5,1.7-1.5,1.7-2.9
				c0-1-0.4-1.9-1.1-2.4c-0.7-0.6-1.6-0.9-2.6-0.9c-1.8,0-3,0.6-3.7,1.8c-0.4,0.6-0.6,1.6-0.6,2.8H193c0-1.6,0.3-2.9,0.9-4
				c1.1-2,3-2.9,5.7-2.9c2.1,0,3.8,0.5,5,1.4c1.2,1,1.8,2.3,1.8,4.1c0,1.3-0.3,2.3-1,3.1c-0.4,0.5-1,0.9-1.7,1.2
				c1.1,0.3,2,0.9,2.6,1.8c0.6,0.9,0.9,1.9,0.9,3.2c0,2-0.7,3.6-2,4.9c-1.3,1.3-3.2,1.9-5.6,1.9
				C197.1,155.9,195.3,155.2,194.2,153.9z"/>
		</g>
		<g>
			<path class="st1" d="M142,150c0.2,1.5,0.9,2.5,2.1,3.1c0.6,0.3,1.4,0.4,2.2,0.4c1.6,0,2.7-0.5,3.5-1.5s1.1-2.1,1.1-3.3
				c0-1.5-0.4-2.6-1.3-3.4c-0.9-0.8-2-1.2-3.2-1.2c-0.9,0-1.7,0.2-2.3,0.5c-0.7,0.4-1.2,0.8-1.7,1.5L140,146l1.6-11.3h10.9v2.6h-8.9
				l-0.9,5.8c0.5-0.4,1-0.6,1.4-0.8c0.8-0.3,1.7-0.5,2.7-0.5c1.9,0,3.6,0.6,4.9,1.9c1.3,1.2,2,2.8,2,4.7c0,2-0.6,3.7-1.8,5.3
				c-1.2,1.5-3.2,2.3-5.9,2.3c-1.7,0-3.2-0.5-4.5-1.4c-1.3-1-2.1-2.4-2.2-4.4L142,150L142,150z"/>
		</g>
		<g>
			<path class="st1" d="M248,150c0.2,1.5,0.9,2.5,2.1,3.1c0.6,0.3,1.4,0.4,2.2,0.4c1.6,0,2.7-0.5,3.5-1.5s1.1-2.1,1.1-3.3
				c0-1.5-0.4-2.6-1.3-3.4c-0.9-0.8-2-1.2-3.2-1.2c-0.9,0-1.7,0.2-2.3,0.5c-0.6,0.4-1.2,0.8-1.7,1.5L246,146l1.6-11.3h10.9v2.6h-8.9
				l-0.9,5.8c0.5-0.4,1-0.6,1.4-0.8c0.8-0.3,1.7-0.5,2.7-0.5c1.9,0,3.6,0.6,4.9,1.9c1.3,1.2,2,2.8,2,4.7c0,2-0.6,3.7-1.8,5.3
				c-1.2,1.5-3.2,2.3-5.9,2.3c-1.7,0-3.2-0.5-4.5-1.4s-2.1-2.4-2.2-4.4L248,150L248,150z"/>
		</g>
		<g>
			<path class="st1" d="M299.8,140.5v-2c1.9-0.2,3.2-0.5,4-0.9s1.3-1.5,1.7-3.1h2.1v20.9h-2.8v-14.9H299.8z"/>
		</g>
		<g>
			<path class="st1" d="M353.6,140.5v-2c1.9-0.2,3.2-0.5,4-0.9s1.3-1.5,1.7-3.1h2.1v20.9h-2.8v-14.9H353.6z"/>
		</g>
		<g>
			<path class="st1" d="M193.8,248.8c0.6-1.3,1.9-2.6,3.8-3.7l2.8-1.6c1.3-0.7,2.1-1.4,2.7-1.9c0.8-0.8,1.2-1.7,1.2-2.8
				c0-1.2-0.4-2.2-1.1-2.9c-0.7-0.7-1.7-1.1-2.9-1.1c-1.8,0-3.1,0.7-3.8,2.1c-0.4,0.7-0.6,1.8-0.6,3.1h-2.7c0-1.8,0.4-3.3,1-4.5
				c1.1-2,3.2-3.1,6.1-3.1c2.4,0,4.2,0.7,5.3,2s1.7,2.7,1.7,4.3c0,1.7-0.6,3.1-1.8,4.3c-0.7,0.7-1.9,1.5-3.7,2.5l-2,1.1
				c-1,0.5-1.7,1-2.3,1.5c-1,0.9-1.6,1.8-1.9,2.8h11.5v2.5h-14.4C192.8,251.7,193.2,250.1,193.8,248.8z"/>
		</g>
		<g>
			<path class="st1" d="M154,232.8v2.3c-0.7,0.7-1.6,1.8-2.7,3.4c-1.1,1.6-2.1,3.4-3,5.3c-0.9,1.8-1.5,3.5-1.9,5
				c-0.3,1-0.7,2.5-1.1,4.7h-2.9c0.7-4,2.1-8,4.4-12c1.3-2.3,2.7-4.3,4.2-6h-11.6v-2.7H154L154,232.8z"/>
		</g>
		<g>
			<path class="st1" d="M247.2,241.2c-0.8-0.8-1.2-1.8-1.2-3.1c0-1.6,0.6-2.9,1.7-4c1.1-1.1,2.7-1.7,4.8-1.7c2,0,3.6,0.5,4.7,1.6
				s1.7,2.3,1.7,3.7c0,1.3-0.3,2.4-1,3.2c-0.4,0.5-0.9,0.9-1.7,1.3c0.9,0.4,1.6,0.9,2.1,1.4c0.9,1,1.4,2.2,1.4,3.8
				c0,1.8-0.6,3.4-1.9,4.7c-1.2,1.3-3,1.9-5.3,1.9c-2,0-3.8-0.6-5.2-1.7s-2.1-2.7-2.1-4.8c0-1.2,0.3-2.3,0.9-3.2
				c0.6-0.9,1.5-1.6,2.7-2.1C248.2,242,247.6,241.6,247.2,241.2z M255.7,250.7c0.8-0.7,1.2-1.6,1.2-3s-0.4-2.4-1.2-3.1
				c-0.8-0.7-1.9-1.1-3.2-1.1s-2.3,0.4-3.1,1.1c-0.8,0.7-1.2,1.7-1.2,3c0,1.1,0.4,2,1.1,2.8c0.7,0.8,1.9,1.2,3.4,1.2
				C253.9,251.7,254.9,251.3,255.7,250.7z M255.2,240.3c0.7-0.7,1-1.4,1-2.3c0-0.8-0.3-1.5-0.9-2.2c-0.6-0.7-1.6-1-2.9-1
				c-1.3,0-2.2,0.3-2.8,1s-0.9,1.4-0.9,2.3c0,1,0.4,1.8,1.1,2.3c0.7,0.6,1.6,0.8,2.6,0.8C253.6,241.3,254.5,240.9,255.2,240.3z"/>
		</g>
		<g>
			<path class="st1" d="M306.9,253.5v-5.1h-9.2v-2.6l9.6-13.4h2.2V246h3.1v2.3h-3.1v5.1L306.9,253.5L306.9,253.5z M306.8,246v-9.5
				l-6.7,9.5H306.8L306.8,246z"/>
		</g>
		<g>
			<path class="st1" d="M353.1,252c-1.1-1.4-1.7-3-1.7-5h2.8c0.1,1.4,0.4,2.3,0.8,3c0.7,1.1,1.9,1.7,3.7,1.7c1.4,0,2.5-0.4,3.3-1.1
				c0.8-0.7,1.3-1.7,1.3-2.9c0-1.4-0.4-2.5-1.3-3s-2.1-0.9-3.7-0.9c-0.2,0-0.4,0-0.5,0c-0.2,0-0.4,0-0.5,0v-2.3
				c0.3,0,0.5,0.1,0.7,0.1s0.4,0,0.6,0c1,0,1.8-0.2,2.4-0.5c1.1-0.5,1.7-1.5,1.7-2.9c0-1-0.4-1.9-1.1-2.4c-0.7-0.6-1.6-0.9-2.6-0.9
				c-1.8,0-3,0.6-3.7,1.8c-0.4,0.6-0.6,1.6-0.6,2.8H352c0-1.6,0.3-2.9,0.9-4c1.1-2,3-2.9,5.7-2.9c2.1,0,3.8,0.5,5,1.4
				c1.2,1,1.8,2.3,1.8,4.1c0,1.3-0.3,2.3-1,3.1c-0.4,0.5-1,0.9-1.7,1.2c1.1,0.3,2,0.9,2.6,1.8c0.6,0.9,0.9,1.9,0.9,3.2
				c0,2-0.7,3.6-2,4.9c-1.3,1.3-3.2,1.9-5.6,1.9C356,254,354.2,253.4,353.1,252z"/>
		</g>
		<g>
			<path class="st1" d="M193.8,199.8c0.6-1.3,1.9-2.6,3.8-3.7l2.8-1.6c1.3-0.7,2.1-1.4,2.7-1.9c0.8-0.8,1.2-1.7,1.2-2.8
				c0-1.2-0.4-2.2-1.1-2.9c-0.7-0.7-1.7-1.1-2.9-1.1c-1.8,0-3.1,0.7-3.8,2.1c-0.4,0.7-0.6,1.8-0.6,3.1h-2.7c0-1.8,0.4-3.3,1-4.5
				c1.1-2,3.2-3.1,6.1-3.1c2.4,0,4.2,0.6,5.3,2c1.1,1.3,1.7,2.7,1.7,4.3c0,1.7-0.6,3.1-1.8,4.3c-0.7,0.7-1.9,1.5-3.7,2.5l-2,1.1
				c-1,0.5-1.7,1-2.3,1.5c-1,0.9-1.6,1.8-1.9,2.8h11.5v2.5h-14.4C192.8,202.7,193.2,201.2,193.8,199.8z"/>
		</g>
		<g>
			<path class="st1" d="M141.2,189.7v-2c1.9-0.2,3.2-0.5,4-0.9s1.3-1.5,1.7-3.1h2.1v20.9h-2.8v-14.9H141.2L141.2,189.7z"/>
		</g>
		<g>
			<path class="st1" d="M99.3,185.3c0.9,1.2,1.4,2.5,1.4,3.8h-2.6c-0.2-0.8-0.4-1.5-0.7-2c-0.6-0.9-1.6-1.3-2.9-1.3
				c-1.5,0-2.7,0.7-3.5,2c-0.9,1.4-1.4,3.3-1.5,5.9c0.6-0.9,1.4-1.6,2.3-2c0.8-0.4,1.8-0.6,2.8-0.6c1.8,0,3.3,0.6,4.6,1.7
				c1.3,1.1,2,2.8,2,5c0,1.9-0.6,3.6-1.9,5.1s-3,2.2-5.3,2.2c-2,0-3.7-0.7-5.1-2.2s-2.1-4-2.1-7.5c0-2.6,0.3-4.8,1-6.6
				c1.2-3.5,3.5-5.2,6.7-5.2C96.8,183.5,98.4,184.1,99.3,185.3z M97.4,201.3c0.7-0.9,1-2,1-3.3c0-1.1-0.3-2.1-0.9-3.1
				s-1.7-1.5-3.4-1.5c-1.1,0-2.1,0.4-3,1.1c-0.9,0.8-1.3,1.9-1.3,3.4c0,1.3,0.4,2.4,1.2,3.4c0.8,0.9,1.9,1.4,3.2,1.4
				C95.6,202.7,96.7,202.3,97.4,201.3z"/>
		</g>
		<g>
			<path class="st1" d="M247.2,192.3c-0.8-0.8-1.2-1.8-1.2-3.1c0-1.6,0.6-2.9,1.7-4c1.1-1.1,2.7-1.7,4.8-1.7c2,0,3.6,0.5,4.7,1.6
				s1.7,2.3,1.7,3.7c0,1.3-0.3,2.4-1,3.2c-0.4,0.5-0.9,0.9-1.7,1.4c0.9,0.4,1.6,0.9,2.1,1.4c0.9,1,1.4,2.2,1.4,3.8
				c0,1.8-0.6,3.4-1.9,4.7c-1.2,1.3-3,1.9-5.3,1.9c-2,0-3.8-0.6-5.2-1.7c-1.4-1.1-2.1-2.7-2.1-4.8c0-1.2,0.3-2.3,0.9-3.2
				c0.6-0.9,1.5-1.6,2.7-2.1C248.2,193,247.6,192.7,247.2,192.3z M255.7,201.8c0.8-0.7,1.2-1.6,1.2-3s-0.4-2.4-1.2-3.1
				c-0.8-0.7-1.9-1.1-3.2-1.1s-2.3,0.4-3.1,1.1c-0.8,0.7-1.2,1.7-1.2,3c0,1.1,0.4,2,1.1,2.8c0.7,0.8,1.9,1.2,3.4,1.2
				C253.9,202.7,254.9,202.4,255.7,201.8z M255.2,191.4c0.7-0.7,1-1.4,1-2.3c0-0.8-0.3-1.5-0.9-2.2c-0.6-0.7-1.6-1-2.9-1
				c-1.3,0-2.2,0.3-2.8,1s-0.9,1.4-0.9,2.3c0,1,0.4,1.8,1.1,2.3c0.7,0.6,1.6,0.8,2.6,0.8C253.6,192.3,254.5,192,255.2,191.4z"/>
		</g>
		<g>
			<path class="st1" d="M299.3,203.1c-1.1-1.4-1.7-3-1.7-5h2.8c0.1,1.4,0.4,2.3,0.8,3c0.7,1.1,1.9,1.7,3.7,1.7
				c1.4,0,2.5-0.4,3.3-1.1c0.8-0.7,1.3-1.7,1.3-2.9c0-1.4-0.4-2.5-1.3-3c-0.9-0.6-2.1-0.9-3.7-0.9c-0.2,0-0.4,0-0.5,0
				c-0.2,0-0.4,0-0.6,0v-2.3c0.3,0,0.5,0,0.7,0.1c0.2,0,0.4,0,0.6,0c1,0,1.8-0.2,2.4-0.5c1.1-0.5,1.7-1.5,1.7-2.9
				c0-1-0.4-1.9-1.1-2.4c-0.7-0.6-1.6-0.9-2.6-0.9c-1.8,0-3,0.6-3.7,1.8c-0.4,0.6-0.6,1.6-0.6,2.8h-2.6c0-1.6,0.3-2.9,0.9-4
				c1.1-2,3-2.9,5.7-2.9c2.1,0,3.8,0.5,5,1.4c1.2,1,1.8,2.3,1.8,4.1c0,1.3-0.3,2.3-1,3.1c-0.4,0.5-1,0.9-1.7,1.2
				c1.1,0.3,2,0.9,2.6,1.8c0.6,0.9,0.9,1.9,0.9,3.2c0,2-0.7,3.6-2,4.9c-1.3,1.3-3.2,1.9-5.6,1.9
				C302.2,205.1,300.4,204.4,299.3,203.1z"/>
		</g>
		<g>
			<path class="st1" d="M353.1,203.1c-1.1-1.4-1.7-3-1.7-5h2.8c0.1,1.4,0.4,2.3,0.8,3c0.7,1.1,1.9,1.7,3.7,1.7
				c1.4,0,2.5-0.4,3.3-1.1c0.8-0.7,1.3-1.7,1.3-2.9c0-1.4-0.4-2.5-1.3-3c-0.9-0.6-2.1-0.9-3.7-0.9c-0.2,0-0.4,0-0.5,0
				c-0.2,0-0.4,0-0.5,0v-2.3c0.3,0,0.5,0,0.7,0.1c0.2,0,0.4,0,0.6,0c1,0,1.8-0.2,2.4-0.5c1.1-0.5,1.7-1.5,1.7-2.9
				c0-1-0.4-1.9-1.1-2.4c-0.7-0.6-1.6-0.9-2.6-0.9c-1.8,0-3,0.6-3.7,1.8c-0.4,0.6-0.6,1.6-0.6,2.8H352c0-1.6,0.3-2.9,0.9-4
				c1.1-2,3-2.9,5.7-2.9c2.1,0,3.8,0.5,5,1.4c1.2,1,1.8,2.3,1.8,4.1c0,1.3-0.3,2.3-1,3.1c-0.4,0.5-1,0.9-1.7,1.2
				c1.1,0.3,2,0.9,2.6,1.8c0.6,0.9,0.9,1.9,0.9,3.2c0,2-0.7,3.6-2,4.9c-1.3,1.3-3.2,1.9-5.6,1.9C356,205.1,354.2,204.4,353.1,203.1z
				"/>
		</g>
		<g>
			<path class="st1" d="M406.5,189.7v-2c1.9-0.2,3.2-0.5,4-0.9s1.3-1.5,1.7-3.1h2.1v20.9h-2.8v-14.9H406.5L406.5,189.7z"/>
		</g>
	</g>
</g>
<g>
	<path class="st1" d="M74.5,40.6c-2,0-3.9-0.4-5.6-1.1c-1.7-0.7-3.2-1.8-4.5-3.1s-2.2-2.8-2.9-4.6c-0.7-1.7-1-3.6-1-5.6
		c0-2,0.3-3.9,1-5.6c0.7-1.7,1.7-3.2,2.9-4.5c1.3-1.3,2.7-2.3,4.4-3c1.7-0.7,3.5-1.1,5.5-1.1c2.2,0,4.1,0.4,5.8,1.1
		c1.7,0.7,3.1,1.8,4.4,3L82,18.8c-0.9-1-2-1.8-3.2-2.3c-1.3-0.6-2.7-0.8-4.4-0.8c-1.4,0-2.8,0.3-4,0.8s-2.3,1.3-3.2,2.2
		c-0.9,1-1.6,2.1-2.1,3.4c-0.5,1.3-0.7,2.7-0.7,4.3c0,1.5,0.2,3,0.7,4.3c0.5,1.3,1.2,2.4,2.1,3.4c0.9,1,2,1.7,3.2,2.2s2.6,0.8,4,0.8
		c1.7,0,3.2-0.3,4.5-0.9c1.3-0.6,2.4-1.4,3.2-2.3l2.6,2.6c-1.3,1.3-2.8,2.3-4.5,3.1C78.6,40.2,76.6,40.6,74.5,40.6z"/>
	<path class="st1" d="M96.8,40.6c-1.8,0-3.3-0.4-4.7-1.3c-1.4-0.9-2.5-2-3.3-3.5c-0.8-1.5-1.2-3.2-1.2-5c0-1.9,0.4-3.5,1.2-5
		c0.8-1.5,1.9-2.7,3.3-3.6s3-1.3,4.7-1.3c1.4,0,2.7,0.3,3.9,0.9c1.1,0.6,2,1.4,2.7,2.5c0.7,1.1,1.1,2.3,1.2,3.7v5.7
		c-0.1,1.4-0.5,2.6-1.1,3.6c-0.7,1.1-1.6,1.9-2.7,2.5C99.6,40.3,98.3,40.6,96.8,40.6z M97.4,37.2c1.8,0,3.2-0.6,4.3-1.8
		c1.1-1.2,1.6-2.8,1.6-4.7c0-1.3-0.3-2.4-0.8-3.4c-0.5-1-1.2-1.8-2.1-2.3c-0.9-0.5-1.9-0.8-3.1-0.8c-1.2,0-2.3,0.3-3.2,0.8
		s-1.6,1.3-2.2,2.3c-0.5,1-0.8,2.1-0.8,3.3c0,1.3,0.3,2.4,0.8,3.4c0.5,1,1.2,1.7,2.2,2.3C95.2,36.9,96.2,37.2,97.4,37.2z
		 M103.2,40.2V35l0.7-4.6l-0.7-4.6v-4.6h3.6v19H103.2z"/>
	<path class="st1" d="M112,40.2v-19h3.6v19H112z M125.4,40.2V29.1c0-1.4-0.4-2.6-1.3-3.6c-0.9-0.9-2.1-1.4-3.5-1.4
		c-1,0-1.8,0.2-2.6,0.6c-0.7,0.4-1.3,1-1.8,1.8c-0.4,0.7-0.6,1.6-0.6,2.6l-1.5-0.8c0-1.4,0.3-2.7,1-3.8c0.6-1.1,1.5-2,2.7-2.7
		c1.1-0.7,2.4-1,3.9-1c1.4,0,2.7,0.4,3.8,1.1c1.1,0.7,2,1.7,2.6,2.8c0.6,1.2,1,2.4,1,3.7v11.8H125.4z"/>
	<path class="st1" d="M148.5,40.3l-8.2-19.2h4l6.1,15h-1.3l6.4-15h4l-8.9,19.2H148.5z M143,48.1l5.6-11.5l2,3.7l-3.6,7.8H143z"/>
	<path class="st1" d="M170.4,40.6c-1.8,0-3.5-0.4-5-1.3c-1.5-0.9-2.7-2.1-3.6-3.6c-0.9-1.5-1.3-3.2-1.3-5.1c0-1.8,0.4-3.5,1.3-5
		c0.9-1.5,2.1-2.7,3.6-3.5c1.5-0.9,3.2-1.3,5-1.3c1.9,0,3.6,0.4,5.1,1.3c1.5,0.9,2.7,2,3.6,3.5c0.9,1.5,1.3,3.2,1.3,5
		c0,1.9-0.4,3.6-1.3,5.1c-0.9,1.5-2.1,2.7-3.6,3.6C174,40.1,172.3,40.6,170.4,40.6z M170.4,37.1c1.2,0,2.3-0.3,3.2-0.8
		c0.9-0.6,1.7-1.3,2.2-2.3c0.5-1,0.8-2.1,0.8-3.3c0-1.2-0.3-2.3-0.8-3.3c-0.5-1-1.3-1.7-2.2-2.3c-0.9-0.5-2-0.8-3.2-0.8
		c-1.2,0-2.2,0.3-3.2,0.8c-0.9,0.5-1.7,1.3-2.2,2.3c-0.5,1-0.8,2.1-0.8,3.3c0,1.3,0.3,2.4,0.8,3.3c0.5,1,1.3,1.7,2.2,2.3
		C168.2,36.8,169.2,37.1,170.4,37.1z"/>
	<path class="st1" d="M192,40.5c-1.6,0-3-0.3-4.2-1c-1.2-0.7-2.2-1.6-2.9-2.9c-0.7-1.3-1-2.7-1-4.4v-11h3.6V32c0,1,0.2,1.9,0.5,2.7
		c0.4,0.8,0.9,1.3,1.6,1.7c0.7,0.4,1.5,0.6,2.4,0.6c1.4,0,2.5-0.4,3.3-1.3c0.8-0.9,1.2-2.1,1.2-3.7V21.2h3.6v11c0,1.7-0.3,3.1-1,4.4
		c-0.7,1.3-1.7,2.2-2.9,2.9C195,40.1,193.6,40.5,192,40.5z"/>
	<path class="st1" d="M211.3,24.4v-3.3h14.3v3.3H211.3z M216,40.2V18.3c0-1.4,0.3-2.6,0.9-3.7c0.6-1.1,1.5-1.9,2.6-2.5
		c1.1-0.6,2.4-0.9,3.8-0.9c1.1,0,2,0.2,2.8,0.6c0.8,0.4,1.5,0.9,2.2,1.6l-2.4,2.3c-0.3-0.4-0.7-0.7-1.2-0.8
		c-0.4-0.2-0.9-0.3-1.6-0.3c-1.1,0-2,0.3-2.7,1c-0.6,0.7-0.9,1.6-0.9,2.7v21.8H216z"/>
	<path class="st1" d="M231.1,17.4c-0.7,0-1.2-0.2-1.6-0.7c-0.4-0.4-0.6-1-0.6-1.7c0-0.6,0.2-1.2,0.6-1.6c0.4-0.4,1-0.7,1.6-0.7
		c0.7,0,1.2,0.2,1.6,0.7c0.4,0.4,0.6,1,0.6,1.6c0,0.7-0.2,1.2-0.6,1.7C232.3,17.1,231.7,17.4,231.1,17.4z M229.2,40.2v-19h3.6v19
		H229.2z"/>
	<path class="st1" d="M238.2,40.2v-19h3.6v19H238.2z M251.6,40.2V29.1c0-1.4-0.4-2.6-1.3-3.6c-0.9-0.9-2.1-1.4-3.5-1.4
		c-1,0-1.8,0.2-2.6,0.6c-0.7,0.4-1.3,1-1.8,1.8c-0.4,0.7-0.6,1.6-0.6,2.6l-1.5-0.8c0-1.4,0.3-2.7,1-3.8c0.6-1.1,1.5-2,2.7-2.7
		c1.1-0.7,2.4-1,3.9-1c1.4,0,2.7,0.4,3.8,1.1c1.1,0.7,2,1.7,2.6,2.8c0.6,1.2,1,2.4,1,3.7v11.8H251.6z"/>
	<path class="st1" d="M268.1,40.6c-1.7,0-3.3-0.4-4.7-1.3c-1.4-0.9-2.5-2-3.3-3.5c-0.8-1.5-1.2-3.2-1.2-5c0-1.9,0.4-3.5,1.2-5
		c0.8-1.5,1.9-2.7,3.3-3.6c1.4-0.9,2.9-1.3,4.7-1.3c1.4,0,2.7,0.3,3.9,0.9s2.1,1.4,2.8,2.5c0.7,1.1,1.1,2.3,1.2,3.7v5.7
		c-0.1,1.4-0.5,2.6-1.2,3.6c-0.7,1.1-1.6,1.9-2.8,2.5S269.6,40.6,268.1,40.6z M268.7,37.2c1.2,0,2.3-0.3,3.2-0.8s1.6-1.3,2.1-2.3
		c0.5-1,0.8-2.1,0.8-3.3c0-1.3-0.3-2.4-0.8-3.4c-0.5-1-1.2-1.7-2.1-2.3s-2-0.8-3.2-0.8c-1.2,0-2.3,0.3-3.2,0.8
		c-0.9,0.5-1.6,1.3-2.1,2.3c-0.5,1-0.8,2.1-0.8,3.4s0.3,2.4,0.8,3.4c0.5,1,1.2,1.8,2.2,2.3C266.5,36.9,267.5,37.2,268.7,37.2z
		 M278.2,40.2h-3.6V35l0.7-4.6l-0.7-4.6V11.6h3.6V40.2z"/>
	<path class="st1" d="M291.7,40.2v-19h3.6v19H291.7z M305.1,40.2V29.1c0-1.4-0.4-2.6-1.3-3.6c-0.9-0.9-2.1-1.4-3.5-1.4
		c-1,0-1.8,0.2-2.6,0.6c-0.7,0.4-1.3,1-1.8,1.8c-0.4,0.7-0.6,1.6-0.6,2.6l-1.5-0.8c0-1.4,0.3-2.7,1-3.8c0.6-1.1,1.5-2,2.7-2.7
		c1.1-0.7,2.4-1,3.9-1c1.4,0,2.7,0.4,3.8,1.1c1.1,0.7,2,1.7,2.6,2.8s1,2.4,1,3.7v11.8H305.1z"/>
	<path class="st1" d="M321.3,40.5c-1.6,0-3-0.3-4.2-1c-1.2-0.7-2.2-1.6-2.9-2.9c-0.7-1.3-1-2.7-1-4.4v-11h3.6V32
		c0,1,0.2,1.9,0.5,2.7c0.4,0.8,0.9,1.3,1.6,1.7c0.7,0.4,1.5,0.6,2.4,0.6c1.4,0,2.5-0.4,3.3-1.3c0.8-0.9,1.2-2.1,1.2-3.7V21.2h3.6v11
		c0,1.7-0.3,3.1-1,4.4c-0.7,1.3-1.7,2.2-2.9,2.9C324.3,40.1,322.9,40.5,321.3,40.5z"/>
	<path class="st1" d="M334.2,40.2v-19h3.6v19H334.2z M347.1,40.2V28.7c0-1.4-0.4-2.5-1.3-3.3c-0.9-0.8-2-1.2-3.3-1.2
		c-0.9,0-1.7,0.2-2.4,0.6c-0.7,0.4-1.3,0.9-1.7,1.6c-0.4,0.7-0.6,1.5-0.6,2.4l-1.5-0.8c0-1.4,0.3-2.7,0.9-3.8
		c0.6-1.1,1.5-1.9,2.6-2.5c1.1-0.6,2.3-0.9,3.7-0.9c1.3,0,2.5,0.3,3.6,0.9c1.1,0.6,1.9,1.4,2.6,2.5c0.6,1.1,0.9,2.3,0.9,3.8v12.2
		H347.1z M359.9,40.2V28.7c0-1.4-0.4-2.5-1.3-3.3c-0.9-0.8-1.9-1.2-3.2-1.2c-0.9,0-1.7,0.2-2.4,0.6c-0.7,0.4-1.3,0.9-1.7,1.6
		c-0.4,0.7-0.6,1.5-0.6,2.4l-2-0.8c0.1-1.5,0.5-2.7,1.2-3.8c0.7-1.1,1.6-1.9,2.7-2.5s2.3-0.9,3.7-0.9c1.4,0,2.6,0.3,3.7,0.9
		c1.1,0.6,2,1.4,2.6,2.5c0.7,1.1,1,2.3,1,3.8v12.2H359.9z"/>
	<path class="st1" d="M368.4,40.2V11.6h3.6v14.2l-0.7,4.6L372,35v5.1H368.4z M378.4,40.6c-1.4,0-2.7-0.3-3.9-0.9
		c-1.2-0.6-2.1-1.4-2.8-2.5c-0.7-1.1-1.1-2.3-1.2-3.6v-5.7c0.1-1.4,0.5-2.6,1.2-3.7c0.7-1.1,1.6-1.9,2.8-2.5
		c1.2-0.6,2.4-0.9,3.9-0.9c1.7,0,3.3,0.4,4.7,1.3s2.5,2.1,3.3,3.6c0.8,1.5,1.2,3.2,1.2,5c0,1.9-0.4,3.5-1.2,5
		c-0.8,1.5-1.9,2.7-3.3,3.5C381.7,40.1,380.2,40.6,378.4,40.6z M377.8,37.2c1.2,0,2.3-0.3,3.2-0.8c0.9-0.6,1.6-1.3,2.1-2.3
		c0.5-1,0.8-2.1,0.8-3.4c0-1.3-0.3-2.4-0.8-3.3c-0.5-1-1.2-1.7-2.1-2.3c-0.9-0.6-2-0.8-3.2-0.8c-1.2,0-2.2,0.3-3.1,0.8
		c-0.9,0.6-1.6,1.3-2.1,2.3c-0.5,1-0.8,2.1-0.8,3.4c0,1.3,0.2,2.4,0.7,3.3c0.5,1,1.2,1.7,2.1,2.3S376.7,37.2,377.8,37.2z"/>
	<path class="st1" d="M400.5,40.6c-1.9,0-3.6-0.4-5.1-1.3c-1.5-0.9-2.7-2-3.6-3.5c-0.9-1.5-1.3-3.2-1.3-5.1c0-1.9,0.4-3.5,1.3-5
		c0.9-1.5,2-2.7,3.5-3.5c1.5-0.9,3.1-1.3,5-1.3c1.7,0,3.3,0.4,4.6,1.2c1.4,0.8,2.4,1.9,3.2,3.3c0.8,1.4,1.1,3,1.1,4.8
		c0,0.3,0,0.6,0,0.9c0,0.3-0.1,0.6-0.2,1h-16v-3h14.1l-1.3,1.2c0-1.3-0.2-2.4-0.7-3.3s-1.1-1.6-1.9-2.1c-0.8-0.5-1.8-0.7-3-0.7
		c-1.2,0-2.3,0.3-3.2,0.8c-0.9,0.5-1.7,1.3-2.2,2.2c-0.5,1-0.8,2.1-0.8,3.4c0,1.3,0.3,2.5,0.8,3.5s1.3,1.8,2.3,2.3
		c1,0.5,2.1,0.8,3.4,0.8c1.1,0,2-0.2,2.9-0.6c0.9-0.4,1.7-0.9,2.3-1.7l2.3,2.4c-0.9,1.1-2.1,1.9-3.4,2.4
		C403.4,40.3,402,40.6,400.5,40.6z"/>
	<path class="st1" d="M413.2,40.2v-19h3.6v19H413.2z M416.8,29.4l-1.4-0.6c0-2.4,0.6-4.4,1.7-5.8c1.1-1.4,2.7-2.2,4.8-2.2
		c1,0,1.8,0.2,2.6,0.5c0.8,0.3,1.5,0.9,2.2,1.7l-2.4,2.4c-0.4-0.4-0.8-0.7-1.3-0.9c-0.5-0.2-1-0.3-1.7-0.3c-1.3,0-2.4,0.4-3.3,1.3
		C417.2,26.3,416.8,27.6,416.8,29.4z"/>
	<path class="st1" d="M436,31.4l0-7.6l1,0c1,0,1.8-0.2,2.5-0.6c0.7-0.4,1.3-0.9,1.6-1.6c0.4-0.7,0.6-1.5,0.6-2.3
		c0-0.9-0.2-1.7-0.6-2.3c-0.4-0.7-0.9-1.2-1.6-1.6c-0.7-0.4-1.6-0.6-2.5-0.6c-1.3,0-2.3,0.3-3.3,1c-0.9,0.7-1.7,1.6-2.2,2.7
		l-2.6-2.2c0.8-1.6,1.9-2.8,3.3-3.7c1.5-0.9,3.1-1.3,5-1.3c1.6,0,3.1,0.3,4.3,1c1.3,0.7,2.2,1.6,2.9,2.7c0.7,1.2,1,2.5,1,4
		c0,1.4-0.3,2.6-0.9,3.8c-0.6,1.1-1.5,2.1-2.6,2.8c-1.1,0.7-2.5,1.2-4,1.5l1.6-1.6l-0.3,6H436z M437.6,40.6c-0.7,0-1.4-0.3-1.9-0.8
		c-0.5-0.5-0.7-1.1-0.7-1.9c0-0.7,0.2-1.4,0.7-1.9c0.5-0.5,1.1-0.7,1.9-0.7c0.7,0,1.4,0.2,1.9,0.7c0.5,0.5,0.7,1.1,0.7,1.9
		c0,0.7-0.2,1.4-0.7,1.9S438.3,40.6,437.6,40.6z"/>
</g>
</svg>
