<?xml version="1.0" encoding="utf-8"?>
<!-- Generator: Adobe Illustrator 26.4.1, SVG Export Plug-In . SVG Version: 6.00 Build 0)  -->
<svg version="1.1" id="Layer_1" xmlns="http://www.w3.org/2000/svg" xmlns:xlink="http://www.w3.org/1999/xlink" x="0px" y="0px"
	 viewBox="0 0 506 370" style="enable-background:new 0 0 506 370;" xml:space="preserve">
<style type="text/css">
	.st0{fill:#FFFFFF;}
</style>
<g>
	<g>
		<path class="st0" d="M292.7,85v43h-79.3V85H292.7 M297.7,80h-5h-79.3h-5v5v43v5h5h79.3h5v-5V85V80L297.7,80z"/>
	</g>
	<g>
		<path class="st0" d="M245.4,118.1c-1.4-1.7-2.1-3.8-2.1-6.3h3.5c0.1,1.7,0.5,3,1,3.8c0.9,1.4,2.4,2.1,4.7,2.1
			c1.8,0,3.2-0.5,4.3-1.4s1.6-2.2,1.6-3.7c0-1.8-0.6-3.1-1.7-3.9s-2.7-1.1-4.7-1.1c-0.2,0-0.5,0-0.7,0s-0.5,0-0.7,0v-3
			c0.3,0,0.6,0.1,0.9,0.1c0.2,0,0.5,0,0.8,0c1.3,0,2.3-0.2,3.1-0.6c1.4-0.7,2.1-1.9,2.1-3.7c0-1.3-0.5-2.4-1.4-3.1s-2-1.1-3.3-1.1
			c-2.2,0-3.8,0.7-4.6,2.2c-0.5,0.8-0.7,2-0.8,3.5H244c0-2,0.4-3.7,1.2-5.1c1.4-2.5,3.8-3.7,7.2-3.7c2.7,0,4.8,0.6,6.3,1.8
			c1.5,1.2,2.2,3,2.2,5.3c0,1.6-0.4,3-1.3,4c-0.5,0.6-1.3,1.1-2.1,1.5c1.4,0.4,2.5,1.1,3.3,2.2s1.2,2.4,1.2,4c0,2.6-0.8,4.6-2.5,6.2
			s-4.1,2.4-7.1,2.4C249.1,120.7,246.8,119.8,245.4,118.1z"/>
	</g>
	<g>
		<path class="st0" d="M292.7,131.8v43h-79.3v-43H292.7 M297.7,126.8h-5h-79.3h-5v5v43v5h5h79.3h5v-5v-43V126.8L297.7,126.8z"/>
	</g>
	<g>
		<path class="st0" d="M247.1,159.9c0.2,1.9,1.1,3.2,2.7,4c0.8,0.4,1.7,0.6,2.8,0.6c2,0,3.5-0.6,4.4-1.9c1-1.3,1.4-2.7,1.4-4.2
			c0-1.9-0.6-3.3-1.7-4.3s-2.5-1.5-4.1-1.5c-1.2,0-2.1,0.2-3,0.7s-1.5,1.1-2.1,1.9l-2.9-0.2l2-14.4h13.9v3.2h-11.4l-1.1,7.4
			c0.6-0.5,1.2-0.8,1.8-1.1c1-0.4,2.1-0.6,3.5-0.6c2.4,0,4.5,0.8,6.2,2.4c1.7,1.6,2.6,3.6,2.6,6c0,2.5-0.8,4.8-2.3,6.7
			c-1.6,1.9-4.1,2.9-7.5,2.9c-2.2,0-4.1-0.6-5.8-1.8s-2.6-3.1-2.8-5.6L247.1,159.9L247.1,159.9z"/>
	</g>
	<g>
		<path class="st0" d="M292.7,179.6v43h-79.3v-43H292.7 M297.7,174.6h-5h-79.3h-5v5v43v5h5h79.3h5v-5v-43V174.6L297.7,174.6z"/>
	</g>
	<g>
		<path class="st0" d="M246,198.9c-1-1-1.5-2.3-1.5-3.9c0-2,0.7-3.7,2.2-5.1s3.5-2.1,6.1-2.1s4.6,0.7,6,2c1.5,1.4,2.2,2.9,2.2,4.7
			c0,1.7-0.4,3-1.3,4.1c-0.5,0.6-1.2,1.2-2.2,1.7c1.1,0.5,2,1.1,2.6,1.8c1.2,1.2,1.8,2.9,1.8,4.9c0,2.4-0.8,4.3-2.4,6
			c-1.6,1.6-3.8,2.5-6.7,2.5c-2.6,0-4.8-0.7-6.6-2.1c-1.8-1.4-2.7-3.5-2.7-6.2c0-1.6,0.4-2.9,1.2-4.1s1.9-2,3.4-2.6
			C247.3,199.9,246.5,199.4,246,198.9z M256.8,210.9c1-0.8,1.5-2.1,1.5-3.8s-0.5-3-1.6-3.9s-2.4-1.3-4.1-1.3c-1.6,0-2.9,0.5-3.9,1.4
			s-1.5,2.2-1.5,3.8c0,1.4,0.5,2.6,1.4,3.6s2.4,1.5,4.3,1.5C254.5,212.2,255.8,211.8,256.8,210.9z M256.2,197.7
			c0.8-0.8,1.2-1.8,1.2-3c0-1-0.4-1.9-1.2-2.8c-0.8-0.8-2-1.3-3.6-1.3s-2.8,0.4-3.5,1.3c-0.7,0.8-1.1,1.8-1.1,2.9
			c0,1.3,0.5,2.2,1.4,3s2,1.1,3.3,1.1C254.2,199,255.4,198.5,256.2,197.7z"/>
	</g>
	<g>
		<path class="st0" d="M292.7,226.3v43h-79.3v-43L292.7,226.3 M297.7,221.3h-5h-79.3h-5v5v43v5h5h79.3h5v-5v-43V221.3L297.7,221.3z"
			/>
	</g>
	<g>
		<path class="st0" d="M235.4,242.3v-2.6c2.4-0.2,4.1-0.6,5.1-1.2c1-0.6,1.7-1.9,2.1-3.9h2.7v26.6h-3.6v-18.9L235.4,242.3
			L235.4,242.3z"/>
		<path class="st0" d="M256.1,259.4c-1.4-1.7-2.1-3.8-2.1-6.3h3.5c0.1,1.7,0.5,3,1,3.8c0.9,1.4,2.4,2.1,4.7,2.1
			c1.8,0,3.2-0.5,4.3-1.4c1.1-0.9,1.6-2.2,1.6-3.7c0-1.8-0.6-3.1-1.7-3.9s-2.7-1.1-4.7-1.1c-0.2,0-0.5,0-0.7,0s-0.5,0-0.7,0v-3
			c0.3,0,0.6,0.1,0.9,0.1c0.2,0,0.5,0,0.8,0c1.3,0,2.3-0.2,3.1-0.6c1.4-0.7,2.1-1.9,2.1-3.7c0-1.3-0.5-2.4-1.4-3.1
			c-0.9-0.7-2-1.1-3.3-1.1c-2.2,0-3.8,0.7-4.6,2.2c-0.5,0.8-0.7,2-0.8,3.5h-3.3c0-2,0.4-3.7,1.2-5.1c1.4-2.5,3.8-3.7,7.2-3.7
			c2.7,0,4.8,0.6,6.3,1.8s2.2,3,2.2,5.3c0,1.6-0.4,3-1.3,4c-0.5,0.6-1.3,1.1-2.1,1.5c1.4,0.4,2.5,1.1,3.3,2.2c0.8,1.1,1.2,2.4,1.2,4
			c0,2.6-0.8,4.6-2.5,6.2s-4.1,2.4-7.1,2.4C259.8,262,257.5,261.1,256.1,259.4z"/>
	</g>
	<g>
		<path class="st0" d="M292.7,274.1v43h-79.3v-43H292.7 M297.7,269.1h-5h-79.3h-5v5v43v5h5h79.3h5v-5v-43V269.1L297.7,269.1z"/>
	</g>
	<g>
		<path class="st0" d="M234.4,303c0.8-1.7,2.4-3.3,4.8-4.6l3.6-2.1c1.6-0.9,2.7-1.7,3.4-2.4c1-1,1.5-2.2,1.5-3.6
			c0-1.6-0.5-2.8-1.4-3.7c-0.9-0.9-2.2-1.4-3.7-1.4c-2.3,0-3.9,0.9-4.8,2.6c-0.5,0.9-0.7,2.2-0.8,3.9h-3.4c0-2.3,0.5-4.2,1.3-5.7
			c1.5-2.6,4-3.9,7.7-3.9c3.1,0,5.3,0.8,6.7,2.5s2.1,3.5,2.1,5.5c0,2.1-0.8,4-2.3,5.5c-0.9,0.9-2.4,2-4.7,3.2l-2.6,1.4
			c-1.2,0.7-2.2,1.3-2.9,1.9c-1.2,1.1-2,2.3-2.4,3.6h14.6v3.2h-18.3C233.1,306.7,233.5,304.7,234.4,303z"/>
		<path class="st0" d="M255.6,303c0.8-1.7,2.4-3.3,4.8-4.6l3.6-2.1c1.6-0.9,2.7-1.7,3.4-2.4c1-1,1.5-2.2,1.5-3.6
			c0-1.6-0.5-2.8-1.4-3.7c-0.9-0.9-2.2-1.4-3.7-1.4c-2.3,0-3.9,0.9-4.8,2.6c-0.5,0.9-0.7,2.2-0.8,3.9h-3.4c0-2.3,0.5-4.2,1.3-5.7
			c1.5-2.6,4-3.9,7.7-3.9c3.1,0,5.3,0.8,6.7,2.5c1.4,1.7,2.1,3.5,2.1,5.5c0,2.1-0.8,4-2.3,5.5c-0.9,0.9-2.4,2-4.7,3.2l-2.6,1.4
			c-1.2,0.7-2.2,1.3-2.9,1.9c-1.2,1.1-2,2.3-2.4,3.6h14.6v3.2h-18.4C254.3,306.7,254.8,304.7,255.6,303z"/>
	</g>
	<g>
		<path class="st0" d="M292.7,320.9v43h-79.3v-43H292.7 M297.7,315.9h-5h-79.3h-5v5v43v5h5h79.3h5v-5v-43V315.9L297.7,315.9z"/>
	</g>
	<g>
		<path class="st0" d="M247.6,330.5c1.5-1.6,3.6-2.5,6.3-2.5c2.5,0,4.5,0.7,6,2.1s2.2,3.2,2.2,5.4c0,1.3-0.3,2.4-0.8,3.2
			s-1.7,2-3.3,3.6c-1.2,1.2-2,2.1-2.4,2.9s-0.6,2-0.6,3.6h-3.3c0-1.8,0.2-3.2,0.6-4.3c0.4-1.1,1.4-2.3,2.8-3.7l1.5-1.5
			c0.5-0.4,0.8-0.9,1.1-1.3c0.5-0.8,0.8-1.6,0.8-2.5c0-1.2-0.4-2.3-1.1-3.2c-0.7-0.9-2-1.3-3.7-1.3c-2.1,0-3.6,0.8-4.4,2.3
			c-0.5,0.9-0.7,2.1-0.8,3.7h-3.3C245.3,334.3,246.1,332.1,247.6,330.5z M251.6,351.9h3.7v3.9h-3.7V351.9z"/>
	</g>
</g>
<g>
	<path class="st0" d="M74.5,40.6c-2,0-3.9-0.4-5.6-1.1c-1.7-0.7-3.2-1.8-4.5-3.1s-2.2-2.8-2.9-4.6c-0.7-1.7-1-3.6-1-5.6
		c0-2,0.3-3.9,1-5.6c0.7-1.7,1.7-3.2,2.9-4.5c1.3-1.3,2.7-2.3,4.4-3c1.7-0.7,3.5-1.1,5.5-1.1c2.2,0,4.1,0.4,5.8,1.1
		c1.7,0.7,3.1,1.8,4.4,3L82,18.8c-0.9-1-2-1.8-3.2-2.3c-1.3-0.6-2.7-0.8-4.4-0.8c-1.4,0-2.8,0.3-4,0.8s-2.3,1.3-3.2,2.2
		c-0.9,1-1.6,2.1-2.1,3.4c-0.5,1.3-0.7,2.7-0.7,4.3c0,1.5,0.2,3,0.7,4.3c0.5,1.3,1.2,2.4,2.1,3.4c0.9,1,2,1.7,3.2,2.2s2.6,0.8,4,0.8
		c1.7,0,3.2-0.3,4.5-0.9c1.3-0.6,2.4-1.4,3.2-2.3l2.6,2.6c-1.3,1.3-2.8,2.3-4.5,3.1C78.6,40.2,76.6,40.6,74.5,40.6z"/>
	<path class="st0" d="M96.8,40.6c-1.8,0-3.3-0.4-4.7-1.3c-1.4-0.9-2.5-2-3.3-3.5c-0.8-1.5-1.2-3.2-1.2-5c0-1.9,0.4-3.5,1.2-5
		c0.8-1.5,1.9-2.7,3.3-3.6s3-1.3,4.7-1.3c1.4,0,2.7,0.3,3.9,0.9c1.1,0.6,2,1.4,2.7,2.5c0.7,1.1,1.1,2.3,1.2,3.7v5.7
		c-0.1,1.4-0.5,2.6-1.1,3.6c-0.7,1.1-1.6,1.9-2.7,2.5C99.6,40.3,98.3,40.6,96.8,40.6z M97.4,37.2c1.8,0,3.2-0.6,4.3-1.8
		c1.1-1.2,1.6-2.8,1.6-4.7c0-1.3-0.3-2.4-0.8-3.4c-0.5-1-1.2-1.8-2.1-2.3c-0.9-0.5-1.9-0.8-3.1-0.8c-1.2,0-2.3,0.3-3.2,0.8
		s-1.6,1.3-2.2,2.3c-0.5,1-0.8,2.1-0.8,3.3c0,1.3,0.3,2.4,0.8,3.4c0.5,1,1.2,1.7,2.2,2.3C95.2,36.9,96.2,37.2,97.4,37.2z
		 M103.2,40.2V35l0.7-4.6l-0.7-4.6v-4.6h3.6v19H103.2z"/>
	<path class="st0" d="M112,40.2v-19h3.6v19H112z M125.4,40.2V29.1c0-1.4-0.4-2.6-1.3-3.6c-0.9-0.9-2.1-1.4-3.5-1.4
		c-1,0-1.8,0.2-2.6,0.6c-0.7,0.4-1.3,1-1.8,1.8c-0.4,0.7-0.6,1.6-0.6,2.6l-1.5-0.8c0-1.4,0.3-2.7,1-3.8c0.6-1.1,1.5-2,2.7-2.7
		c1.1-0.7,2.4-1,3.9-1c1.4,0,2.7,0.4,3.8,1.1c1.1,0.7,2,1.7,2.6,2.8c0.6,1.2,1,2.4,1,3.7v11.8H125.4z"/>
	<path class="st0" d="M148.5,40.3l-8.2-19.2h4l6.1,15h-1.3l6.4-15h4l-8.9,19.2H148.5z M143,48.1l5.6-11.5l2,3.7l-3.6,7.8H143z"/>
	<path class="st0" d="M170.4,40.6c-1.8,0-3.5-0.4-5-1.3c-1.5-0.9-2.7-2.1-3.6-3.6c-0.9-1.5-1.3-3.2-1.3-5.1c0-1.8,0.4-3.5,1.3-5
		c0.9-1.5,2.1-2.7,3.6-3.5c1.5-0.9,3.2-1.3,5-1.3c1.9,0,3.6,0.4,5.1,1.3c1.5,0.9,2.7,2,3.6,3.5c0.9,1.5,1.3,3.2,1.3,5
		c0,1.9-0.4,3.6-1.3,5.1c-0.9,1.5-2.1,2.7-3.6,3.6C174,40.1,172.3,40.6,170.4,40.6z M170.4,37.1c1.2,0,2.3-0.3,3.2-0.8
		c0.9-0.6,1.7-1.3,2.2-2.3c0.5-1,0.8-2.1,0.8-3.3c0-1.2-0.3-2.3-0.8-3.3c-0.5-1-1.3-1.7-2.2-2.3c-0.9-0.5-2-0.8-3.2-0.8
		c-1.2,0-2.2,0.3-3.2,0.8c-0.9,0.5-1.7,1.3-2.2,2.3c-0.5,1-0.8,2.1-0.8,3.3c0,1.3,0.3,2.4,0.8,3.3c0.5,1,1.3,1.7,2.2,2.3
		C168.2,36.8,169.2,37.1,170.4,37.1z"/>
	<path class="st0" d="M192,40.5c-1.6,0-3-0.3-4.2-1c-1.2-0.7-2.2-1.6-2.9-2.9c-0.7-1.3-1-2.7-1-4.4v-11h3.6V32c0,1,0.2,1.9,0.5,2.7
		c0.4,0.8,0.9,1.3,1.6,1.7c0.7,0.4,1.5,0.6,2.4,0.6c1.4,0,2.5-0.4,3.3-1.3c0.8-0.9,1.2-2.1,1.2-3.7V21.2h3.6v11c0,1.7-0.3,3.1-1,4.4
		c-0.7,1.3-1.7,2.2-2.9,2.9C195,40.1,193.6,40.5,192,40.5z"/>
	<path class="st0" d="M211.3,24.4v-3.3h14.3v3.3H211.3z M216,40.2V18.3c0-1.4,0.3-2.6,0.9-3.7c0.6-1.1,1.5-1.9,2.6-2.5
		c1.1-0.6,2.4-0.9,3.8-0.9c1.1,0,2,0.2,2.8,0.6c0.8,0.4,1.5,0.9,2.2,1.6l-2.4,2.3c-0.3-0.4-0.7-0.7-1.2-0.8
		c-0.4-0.2-0.9-0.3-1.6-0.3c-1.1,0-2,0.3-2.7,1c-0.6,0.7-0.9,1.6-0.9,2.7v21.8H216z"/>
	<path class="st0" d="M231.1,17.4c-0.7,0-1.2-0.2-1.6-0.7c-0.4-0.4-0.6-1-0.6-1.7c0-0.6,0.2-1.2,0.6-1.6c0.4-0.4,1-0.7,1.6-0.7
		c0.7,0,1.2,0.2,1.6,0.7c0.4,0.4,0.6,1,0.6,1.6c0,0.7-0.2,1.2-0.6,1.7C232.3,17.1,231.7,17.4,231.1,17.4z M229.2,40.2v-19h3.6v19
		H229.2z"/>
	<path class="st0" d="M238.2,40.2v-19h3.6v19H238.2z M251.6,40.2V29.1c0-1.4-0.4-2.6-1.3-3.6c-0.9-0.9-2.1-1.4-3.5-1.4
		c-1,0-1.8,0.2-2.6,0.6c-0.7,0.4-1.3,1-1.8,1.8c-0.4,0.7-0.6,1.6-0.6,2.6l-1.5-0.8c0-1.4,0.3-2.7,1-3.8c0.6-1.1,1.5-2,2.7-2.7
		c1.1-0.7,2.4-1,3.9-1c1.4,0,2.7,0.4,3.8,1.1c1.1,0.7,2,1.7,2.6,2.8c0.6,1.2,1,2.4,1,3.7v11.8H251.6z"/>
	<path class="st0" d="M268.1,40.6c-1.7,0-3.3-0.4-4.7-1.3c-1.4-0.9-2.5-2-3.3-3.5c-0.8-1.5-1.2-3.2-1.2-5c0-1.9,0.4-3.5,1.2-5
		c0.8-1.5,1.9-2.7,3.3-3.6s2.9-1.3,4.7-1.3c1.4,0,2.7,0.3,3.9,0.9c1.1,0.6,2.1,1.4,2.8,2.5c0.7,1.1,1.1,2.3,1.2,3.7v5.7
		c-0.1,1.4-0.5,2.6-1.2,3.6c-0.7,1.1-1.6,1.9-2.8,2.5C270.9,40.3,269.6,40.6,268.1,40.6z M268.7,37.2c1.2,0,2.3-0.3,3.2-0.8
		c0.9-0.6,1.6-1.3,2.1-2.3c0.5-1,0.8-2.1,0.8-3.3c0-1.3-0.3-2.4-0.8-3.4c-0.5-1-1.2-1.7-2.1-2.3c-0.9-0.6-2-0.8-3.2-0.8
		s-2.3,0.3-3.2,0.8c-0.9,0.5-1.6,1.3-2.1,2.3c-0.5,1-0.8,2.1-0.8,3.4s0.3,2.4,0.8,3.4c0.5,1,1.2,1.8,2.2,2.3
		C266.5,36.9,267.5,37.2,268.7,37.2z M278.2,40.2h-3.6V35l0.7-4.6l-0.7-4.6V11.6h3.6V40.2z"/>
	<path class="st0" d="M291.7,40.2v-19h3.6v19H291.7z M305.1,40.2V29.1c0-1.4-0.4-2.6-1.3-3.6c-0.9-0.9-2.1-1.4-3.5-1.4
		c-1,0-1.8,0.2-2.6,0.6c-0.7,0.4-1.3,1-1.8,1.8c-0.4,0.7-0.6,1.6-0.6,2.6l-1.5-0.8c0-1.4,0.3-2.7,1-3.8c0.6-1.1,1.5-2,2.7-2.7
		c1.1-0.7,2.4-1,3.9-1s2.7,0.4,3.8,1.1c1.1,0.7,2,1.7,2.6,2.8c0.6,1.2,1,2.4,1,3.7v11.8H305.1z"/>
	<path class="st0" d="M321.3,40.5c-1.6,0-3-0.3-4.2-1c-1.2-0.7-2.2-1.6-2.9-2.9c-0.7-1.3-1-2.7-1-4.4v-11h3.6V32
		c0,1,0.2,1.9,0.5,2.7c0.4,0.8,0.9,1.3,1.6,1.7c0.7,0.4,1.5,0.6,2.4,0.6c1.4,0,2.5-0.4,3.3-1.3c0.8-0.9,1.2-2.1,1.2-3.7V21.2h3.6v11
		c0,1.7-0.3,3.1-1,4.4c-0.7,1.3-1.7,2.2-2.9,2.9C324.3,40.1,322.9,40.5,321.3,40.5z"/>
	<path class="st0" d="M334.2,40.2v-19h3.6v19H334.2z M347.1,40.2V28.7c0-1.4-0.4-2.5-1.3-3.3c-0.9-0.8-2-1.2-3.3-1.2
		c-0.9,0-1.7,0.2-2.4,0.6c-0.7,0.4-1.3,0.9-1.7,1.6c-0.4,0.7-0.6,1.5-0.6,2.4l-1.5-0.8c0-1.4,0.3-2.7,0.9-3.8
		c0.6-1.1,1.5-1.9,2.6-2.5s2.3-0.9,3.7-0.9c1.3,0,2.5,0.3,3.6,0.9c1.1,0.6,1.9,1.4,2.6,2.5c0.6,1.1,0.9,2.3,0.9,3.8v12.2H347.1z
		 M359.9,40.2V28.7c0-1.4-0.4-2.5-1.3-3.3s-1.9-1.2-3.2-1.2c-0.9,0-1.7,0.2-2.4,0.6c-0.7,0.4-1.3,0.9-1.7,1.6
		c-0.4,0.7-0.6,1.5-0.6,2.4l-2-0.8c0.1-1.5,0.5-2.7,1.2-3.8c0.7-1.1,1.6-1.9,2.7-2.5s2.3-0.9,3.7-0.9c1.4,0,2.6,0.3,3.7,0.9
		c1.1,0.6,2,1.4,2.6,2.5c0.7,1.1,1,2.3,1,3.8v12.2H359.9z"/>
	<path class="st0" d="M368.4,40.2V11.6h3.6v14.2l-0.7,4.6L372,35v5.1H368.4z M378.4,40.6c-1.4,0-2.7-0.3-3.9-0.9s-2.1-1.4-2.8-2.5
		c-0.7-1.1-1.1-2.3-1.2-3.6v-5.7c0.1-1.4,0.5-2.6,1.2-3.7c0.7-1.1,1.6-1.9,2.8-2.5s2.4-0.9,3.9-0.9c1.7,0,3.3,0.4,4.7,1.3
		c1.4,0.9,2.5,2.1,3.3,3.6c0.8,1.5,1.2,3.2,1.2,5c0,1.9-0.4,3.5-1.2,5c-0.8,1.5-1.9,2.7-3.3,3.5C381.7,40.1,380.2,40.6,378.4,40.6z
		 M377.8,37.2c1.2,0,2.3-0.3,3.2-0.8c0.9-0.6,1.6-1.3,2.1-2.3c0.5-1,0.8-2.1,0.8-3.4c0-1.3-0.3-2.4-0.8-3.3c-0.5-1-1.2-1.7-2.1-2.3
		c-0.9-0.6-2-0.8-3.2-0.8c-1.2,0-2.2,0.3-3.1,0.8s-1.6,1.3-2.1,2.3c-0.5,1-0.8,2.1-0.8,3.4c0,1.3,0.2,2.4,0.7,3.3
		c0.5,1,1.2,1.7,2.1,2.3S376.7,37.2,377.8,37.2z"/>
	<path class="st0" d="M400.5,40.6c-1.9,0-3.6-0.4-5.1-1.3c-1.5-0.9-2.7-2-3.6-3.5c-0.9-1.5-1.3-3.2-1.3-5.1c0-1.9,0.4-3.5,1.3-5
		c0.9-1.5,2-2.7,3.5-3.5c1.5-0.9,3.1-1.3,5-1.3c1.7,0,3.3,0.4,4.6,1.2c1.4,0.8,2.4,1.9,3.2,3.3c0.8,1.4,1.1,3,1.1,4.8
		c0,0.3,0,0.6,0,0.9c0,0.3-0.1,0.6-0.2,1h-16v-3h14.1l-1.3,1.2c0-1.3-0.2-2.4-0.7-3.3c-0.5-0.9-1.1-1.6-1.9-2.1
		c-0.8-0.5-1.8-0.7-3-0.7c-1.2,0-2.3,0.3-3.2,0.8c-0.9,0.5-1.7,1.3-2.2,2.2c-0.5,1-0.8,2.1-0.8,3.4c0,1.3,0.3,2.5,0.8,3.5
		c0.5,1,1.3,1.8,2.3,2.3c1,0.5,2.1,0.8,3.4,0.8c1.1,0,2-0.2,2.9-0.6c0.9-0.4,1.7-0.9,2.3-1.7l2.3,2.4c-0.9,1.1-2.1,1.9-3.4,2.4
		S402,40.6,400.5,40.6z"/>
	<path class="st0" d="M413.2,40.2v-19h3.6v19H413.2z M416.8,29.4l-1.4-0.6c0-2.4,0.6-4.4,1.7-5.8c1.1-1.4,2.7-2.2,4.8-2.2
		c1,0,1.8,0.2,2.6,0.5c0.8,0.3,1.5,0.9,2.2,1.7l-2.4,2.4c-0.4-0.4-0.8-0.7-1.3-0.9c-0.5-0.2-1-0.3-1.7-0.3c-1.3,0-2.4,0.4-3.3,1.3
		C417.2,26.3,416.8,27.6,416.8,29.4z"/>
	<path class="st0" d="M436,31.4l0-7.6l1,0c1,0,1.8-0.2,2.5-0.6c0.7-0.4,1.3-0.9,1.6-1.6c0.4-0.7,0.6-1.5,0.6-2.3
		c0-0.9-0.2-1.7-0.6-2.3c-0.4-0.7-0.9-1.2-1.6-1.6c-0.7-0.4-1.6-0.6-2.5-0.6c-1.3,0-2.3,0.3-3.3,1c-0.9,0.7-1.7,1.6-2.2,2.7
		l-2.6-2.2c0.8-1.6,1.9-2.8,3.3-3.7c1.5-0.9,3.1-1.3,5-1.3c1.6,0,3.1,0.3,4.3,1c1.3,0.7,2.2,1.6,2.9,2.7c0.7,1.2,1,2.5,1,4
		c0,1.4-0.3,2.6-0.9,3.8c-0.6,1.1-1.5,2.1-2.6,2.8c-1.1,0.7-2.5,1.2-4,1.5l1.6-1.6l-0.3,6H436z M437.6,40.6c-0.7,0-1.4-0.3-1.9-0.8
		c-0.5-0.5-0.7-1.1-0.7-1.9c0-0.7,0.2-1.4,0.7-1.9c0.5-0.5,1.1-0.7,1.9-0.7c0.7,0,1.4,0.2,1.9,0.7c0.5,0.5,0.7,1.1,0.7,1.9
		c0,0.7-0.2,1.4-0.7,1.9S438.3,40.6,437.6,40.6z"/>
</g>
</svg>
