<?xml version="1.0" encoding="utf-8"?>
<!-- Generator: Adobe Illustrator 26.4.1, SVG Export Plug-In . SVG Version: 6.00 Build 0)  -->
<svg version="1.1" id="Layer_1" xmlns="http://www.w3.org/2000/svg" xmlns:xlink="http://www.w3.org/1999/xlink" x="0px" y="0px"
	 viewBox="0 0 506 333" style="enable-background:new 0 0 506 333;" xml:space="preserve">
<style type="text/css">
	.st0{fill:none;stroke:#FFFFFF;stroke-width:5;stroke-linecap:round;stroke-linejoin:round;stroke-miterlimit:10;}
	.st1{fill:#FFFFFF;}
</style>
<g>
	<g>
		<line class="st0" x1="123.3" y1="197.9" x2="382.7" y2="197.9"/>
		<line class="st0" x1="254" y1="69.1" x2="254" y2="328.5"/>
		<line class="st0" x1="162.1" y1="106.6" x2="345.2" y2="289.7"/>
		<line class="st0" x1="345.2" y1="108" x2="162.1" y2="291"/>
	</g>
	<circle class="st0" cx="253" cy="197.2" r="131.3"/>
</g>
<g>
	<path class="st1" d="M218.7,123v-8.2H204v-4.1l15.4-21.3h3.6v21.8h4.9v3.7H223v8.2h-4.3V123z M218.6,111.1V95.9l-10.8,15.2
		C207.9,111.1,218.6,111.1,218.6,111.1z"/>
</g>
<g>
	<path class="st1" d="M270,101.2V98c3-0.3,5.2-0.8,6.4-1.5s2.1-2.3,2.7-4.9h3.3V125h-4.5v-23.8H270z"/>
	<path class="st1" d="M314.5,96.8c1.5,2.8,2.2,6.6,2.2,11.4c0,4.6-0.7,8.3-2,11.3c-2,4.3-5.2,6.4-9.7,6.4c-4,0-7-1.8-9-5.2
		c-1.6-2.9-2.5-6.8-2.5-11.8c0-3.8,0.5-7.1,1.5-9.8c1.8-5.1,5.2-7.6,10-7.6C309.4,91.4,312.6,93.2,314.5,96.8z M310.3,119.2
		c1.3-1.9,1.9-5.5,1.9-10.8c0-3.8-0.5-6.9-1.4-9.4s-2.8-3.7-5.5-3.7c-2.5,0-4.3,1.2-5.5,3.5s-1.7,5.8-1.7,10.3
		c0,3.4,0.4,6.2,1.1,8.2c1.1,3.2,3.1,4.8,5.8,4.8C307.2,122.1,309,121.1,310.3,119.2z"/>
</g>
<g>
	<path class="st1" d="M209.3,273.2c1.9-2.1,4.6-3.1,7.9-3.1c3.1,0,5.6,0.9,7.5,2.6c1.9,1.8,2.8,4,2.8,6.7c0,1.7-0.3,3-1,4
		s-2.1,2.5-4.2,4.5c-1.5,1.5-2.5,2.7-3,3.7s-0.7,2.5-0.7,4.5h-4.2c0-2.2,0.3-4,0.8-5.4s1.7-2.9,3.5-4.7l1.9-1.9
		c0.6-0.5,1-1.1,1.4-1.7c0.6-1,1-2.1,1-3.2c0-1.5-0.5-2.9-1.4-4s-2.5-1.7-4.6-1.7c-2.7,0-4.5,1-5.5,2.9c-0.6,1.1-0.9,2.6-1,4.7h-4.2
		C206.4,278,207.4,275.3,209.3,273.2z M214.4,300.1h4.7v4.9h-4.7V300.1z"/>
</g>
<g>
	<path class="st1" d="M284.7,298.4c0.3,2.4,1.4,4.1,3.4,5c1,0.5,2.2,0.7,3.5,0.7c2.5,0,4.4-0.8,5.6-2.4s1.8-3.4,1.8-5.3
		c0-2.3-0.7-4.2-2.1-5.4s-3.1-1.9-5.1-1.9c-1.5,0-2.7,0.3-3.7,0.8s-1.9,1.3-2.7,2.3l-3.7-0.2l2.6-18.1h17.4v4.1h-14.3l-1.4,9.3
		c0.8-0.6,1.5-1,2.2-1.3c1.2-0.5,2.7-0.8,4.3-0.8c3.1,0,5.7,1,7.8,3s3.2,4.5,3.2,7.5c0,3.2-1,6-2.9,8.4s-5.1,3.6-9.4,3.6
		c-2.7,0-5.2-0.8-7.3-2.3s-3.3-3.9-3.5-7.1L284.7,298.4L284.7,298.4z"/>
</g>
<g>
	<path class="st1" d="M174.9,147v3.7c-1.1,1-2.5,2.9-4.3,5.5s-3.4,5.4-4.7,8.4c-1.4,2.9-2.4,5.6-3.1,8c-0.5,1.5-1,4-1.8,7.5h-4.7
		c1.1-6.4,3.4-12.8,7-19.1c2.1-3.7,4.4-6.9,6.8-9.6h-18.6V147H174.9z"/>
</g>
<g>
	<path class="st1" d="M329.9,156.2V153c3-0.3,5.2-0.8,6.4-1.5s2.1-2.3,2.7-4.9h3.3V180h-4.5v-23.8H329.9z"/>
</g>
<g>
	<path class="st1" d="M153.6,249.6c-1.8-2.2-2.7-4.8-2.7-8h4.4c0.2,2.2,0.6,3.8,1.2,4.7c1.1,1.8,3.1,2.6,5.9,2.6
		c2.2,0,4-0.6,5.3-1.8s2-2.7,2-4.6c0-2.3-0.7-3.9-2.1-4.9s-3.4-1.4-5.9-1.4c-0.3,0-0.6,0-0.9,0s-0.6,0-0.9,0v-3.7
		c0.4,0,0.8,0.1,1.1,0.1s0.6,0,1,0c1.6,0,2.9-0.2,3.9-0.8c1.8-0.9,2.7-2.4,2.7-4.7c0-1.7-0.6-3-1.8-3.9s-2.6-1.4-4.1-1.4
		c-2.8,0-4.8,0.9-5.8,2.8c-0.6,1-0.9,2.5-1,4.4h-4.2c0-2.5,0.5-4.6,1.5-6.4c1.7-3.1,4.7-4.7,9.1-4.7c3.4,0,6.1,0.8,7.9,2.3
		s2.8,3.7,2.8,6.6c0,2.1-0.6,3.7-1.7,5c-0.7,0.8-1.6,1.4-2.7,1.9c1.8,0.5,3.1,1.4,4.1,2.8s1.5,3.1,1.5,5.1c0,3.2-1.1,5.8-3.2,7.8
		s-5.1,3-9,3C158.3,252.9,155.4,251.8,153.6,249.6z"/>
</g>
<g>
	<path class="st1" d="M347.2,221.2c1.5,1.9,2.2,3.9,2.2,6h-4.2c-0.2-1.3-0.6-2.4-1.2-3.1c-1-1.4-2.6-2.1-4.6-2.1
		c-2.4,0-4.2,1.1-5.6,3.3s-2.2,5.3-2.3,9.4c1-1.4,2.2-2.5,3.7-3.2c1.3-0.6,2.8-0.9,4.5-0.9c2.8,0,5.3,0.9,7.4,2.7s3.1,4.5,3.1,8
		c0,3-1,5.7-3,8.1s-4.8,3.5-8.5,3.5c-3.1,0-5.9-1.2-8.1-3.6s-3.4-6.4-3.4-12c0-4.2,0.5-7.7,1.5-10.6c2-5.6,5.5-8.3,10.7-8.3
		C343.1,218.3,345.7,219.3,347.2,221.2z M344,246.9c1.1-1.5,1.7-3.3,1.7-5.3c0-1.7-0.5-3.4-1.5-4.9s-2.8-2.3-5.4-2.3
		c-1.8,0-3.4,0.6-4.8,1.8s-2.1,3-2.1,5.4c0,2.1,0.6,3.9,1.9,5.4s3,2.2,5.2,2.2C341.3,249.1,342.9,248.4,344,246.9z"/>
</g>
<g>
	<path class="st1" d="M74.5,40.6c-2,0-3.9-0.4-5.6-1.1c-1.7-0.7-3.2-1.8-4.5-3.1s-2.2-2.8-2.9-4.6c-0.7-1.7-1-3.6-1-5.6
		c0-2,0.3-3.9,1-5.6c0.7-1.7,1.7-3.2,2.9-4.5c1.3-1.3,2.7-2.3,4.4-3c1.7-0.7,3.5-1.1,5.5-1.1c2.2,0,4.1,0.4,5.8,1.1
		c1.7,0.7,3.1,1.8,4.4,3L82,18.8c-0.9-1-2-1.8-3.2-2.3c-1.3-0.6-2.7-0.8-4.4-0.8c-1.4,0-2.8,0.3-4,0.8s-2.3,1.3-3.2,2.2
		c-0.9,1-1.6,2.1-2.1,3.4c-0.5,1.3-0.7,2.7-0.7,4.3c0,1.5,0.2,3,0.7,4.3c0.5,1.3,1.2,2.4,2.1,3.4c0.9,1,2,1.7,3.2,2.2s2.6,0.8,4,0.8
		c1.7,0,3.2-0.3,4.5-0.9c1.3-0.6,2.4-1.4,3.2-2.3l2.6,2.6c-1.3,1.3-2.8,2.3-4.5,3.1C78.6,40.2,76.6,40.6,74.5,40.6z"/>
	<path class="st1" d="M96.8,40.6c-1.8,0-3.3-0.4-4.7-1.3c-1.4-0.9-2.5-2-3.3-3.5c-0.8-1.5-1.2-3.2-1.2-5c0-1.9,0.4-3.5,1.2-5
		c0.8-1.5,1.9-2.7,3.3-3.6s3-1.3,4.7-1.3c1.4,0,2.7,0.3,3.9,0.9c1.1,0.6,2,1.4,2.7,2.5c0.7,1.1,1.1,2.3,1.2,3.7v5.7
		c-0.1,1.4-0.5,2.6-1.1,3.6c-0.7,1.1-1.6,1.9-2.7,2.5C99.6,40.3,98.3,40.6,96.8,40.6z M97.4,37.2c1.8,0,3.2-0.6,4.3-1.8
		c1.1-1.2,1.6-2.8,1.6-4.7c0-1.3-0.3-2.4-0.8-3.4c-0.5-1-1.2-1.8-2.1-2.3c-0.9-0.5-1.9-0.8-3.1-0.8c-1.2,0-2.3,0.3-3.2,0.8
		s-1.6,1.3-2.2,2.3c-0.5,1-0.8,2.1-0.8,3.3c0,1.3,0.3,2.4,0.8,3.4c0.5,1,1.2,1.7,2.2,2.3C95.2,36.9,96.2,37.2,97.4,37.2z
		 M103.2,40.2V35l0.7-4.6l-0.7-4.6v-4.6h3.6v19H103.2z"/>
	<path class="st1" d="M112,40.2v-19h3.6v19H112z M125.4,40.2V29.1c0-1.4-0.4-2.6-1.3-3.6c-0.9-0.9-2.1-1.4-3.5-1.4
		c-1,0-1.8,0.2-2.6,0.6c-0.7,0.4-1.3,1-1.8,1.8c-0.4,0.7-0.6,1.6-0.6,2.6l-1.5-0.8c0-1.4,0.3-2.7,1-3.8c0.6-1.1,1.5-2,2.7-2.7
		c1.1-0.7,2.4-1,3.9-1c1.4,0,2.7,0.4,3.8,1.1c1.1,0.7,2,1.7,2.6,2.8c0.6,1.2,1,2.4,1,3.7v11.8H125.4z"/>
	<path class="st1" d="M148.5,40.3l-8.2-19.2h4l6.1,15h-1.3l6.4-15h4l-8.9,19.2H148.5z M143,48.1l5.6-11.5l2,3.7l-3.6,7.8H143z"/>
	<path class="st1" d="M170.4,40.6c-1.8,0-3.5-0.4-5-1.3c-1.5-0.9-2.7-2.1-3.6-3.6c-0.9-1.5-1.3-3.2-1.3-5.1c0-1.8,0.4-3.5,1.3-5
		c0.9-1.5,2.1-2.7,3.6-3.5c1.5-0.9,3.2-1.3,5-1.3c1.9,0,3.6,0.4,5.1,1.3c1.5,0.9,2.7,2,3.6,3.5c0.9,1.5,1.3,3.2,1.3,5
		c0,1.9-0.4,3.6-1.3,5.1c-0.9,1.5-2.1,2.7-3.6,3.6C174,40.1,172.3,40.6,170.4,40.6z M170.4,37.1c1.2,0,2.3-0.3,3.2-0.8
		c0.9-0.6,1.7-1.3,2.2-2.3c0.5-1,0.8-2.1,0.8-3.3c0-1.2-0.3-2.3-0.8-3.3c-0.5-1-1.3-1.7-2.2-2.3c-0.9-0.5-2-0.8-3.2-0.8
		c-1.2,0-2.2,0.3-3.2,0.8c-0.9,0.5-1.7,1.3-2.2,2.3c-0.5,1-0.8,2.1-0.8,3.3c0,1.3,0.3,2.4,0.8,3.3c0.5,1,1.3,1.7,2.2,2.3
		C168.2,36.8,169.2,37.1,170.4,37.1z"/>
	<path class="st1" d="M192,40.5c-1.6,0-3-0.3-4.2-1c-1.2-0.7-2.2-1.6-2.9-2.9c-0.7-1.3-1-2.7-1-4.4v-11h3.6V32c0,1,0.2,1.9,0.5,2.7
		c0.4,0.8,0.9,1.3,1.6,1.7c0.7,0.4,1.5,0.6,2.4,0.6c1.4,0,2.5-0.4,3.3-1.3c0.8-0.9,1.2-2.1,1.2-3.7V21.2h3.6v11c0,1.7-0.3,3.1-1,4.4
		c-0.7,1.3-1.7,2.2-2.9,2.9C195,40.1,193.6,40.5,192,40.5z"/>
	<path class="st1" d="M211.3,24.4v-3.3h14.3v3.3H211.3z M216,40.2V18.3c0-1.4,0.3-2.6,0.9-3.7c0.6-1.1,1.5-1.9,2.6-2.5
		c1.1-0.6,2.4-0.9,3.8-0.9c1.1,0,2,0.2,2.8,0.6c0.8,0.4,1.5,0.9,2.2,1.6l-2.4,2.3c-0.3-0.4-0.7-0.7-1.2-0.8
		c-0.4-0.2-0.9-0.3-1.6-0.3c-1.1,0-2,0.3-2.7,1c-0.6,0.7-0.9,1.6-0.9,2.7v21.8H216z"/>
	<path class="st1" d="M231.1,17.4c-0.7,0-1.2-0.2-1.6-0.7c-0.4-0.4-0.6-1-0.6-1.7c0-0.6,0.2-1.2,0.6-1.6c0.4-0.4,1-0.7,1.6-0.7
		c0.7,0,1.2,0.2,1.6,0.7c0.4,0.4,0.6,1,0.6,1.6c0,0.7-0.2,1.2-0.6,1.7C232.3,17.1,231.7,17.4,231.1,17.4z M229.2,40.2v-19h3.6v19
		H229.2z"/>
	<path class="st1" d="M238.2,40.2v-19h3.6v19H238.2z M251.6,40.2V29.1c0-1.4-0.4-2.6-1.3-3.6c-0.9-0.9-2.1-1.4-3.5-1.4
		c-1,0-1.8,0.2-2.6,0.6c-0.7,0.4-1.3,1-1.8,1.8c-0.4,0.7-0.6,1.6-0.6,2.6l-1.5-0.8c0-1.4,0.3-2.7,1-3.8c0.6-1.1,1.5-2,2.7-2.7
		c1.1-0.7,2.4-1,3.9-1c1.4,0,2.7,0.4,3.8,1.1c1.1,0.7,2,1.7,2.6,2.8c0.6,1.2,1,2.4,1,3.7v11.8H251.6z"/>
	<path class="st1" d="M268.1,40.6c-1.7,0-3.3-0.4-4.7-1.3c-1.4-0.9-2.5-2-3.3-3.5c-0.8-1.5-1.2-3.2-1.2-5c0-1.9,0.4-3.5,1.2-5
		c0.8-1.5,1.9-2.7,3.3-3.6s2.9-1.3,4.7-1.3c1.4,0,2.7,0.3,3.9,0.9c1.1,0.6,2.1,1.4,2.8,2.5c0.7,1.1,1.1,2.3,1.2,3.7v5.7
		c-0.1,1.4-0.5,2.6-1.2,3.6c-0.7,1.1-1.6,1.9-2.8,2.5C270.9,40.3,269.6,40.6,268.1,40.6z M268.7,37.2c1.2,0,2.3-0.3,3.2-0.8
		c0.9-0.6,1.6-1.3,2.1-2.3c0.5-1,0.8-2.1,0.8-3.3c0-1.3-0.3-2.4-0.8-3.4c-0.5-1-1.2-1.7-2.1-2.3c-0.9-0.6-2-0.8-3.2-0.8
		s-2.3,0.3-3.2,0.8c-0.9,0.5-1.6,1.3-2.1,2.3c-0.5,1-0.8,2.1-0.8,3.4s0.3,2.4,0.8,3.4c0.5,1,1.2,1.8,2.2,2.3
		C266.5,36.9,267.5,37.2,268.7,37.2z M278.2,40.2h-3.6V35l0.7-4.6l-0.7-4.6V11.6h3.6V40.2z"/>
	<path class="st1" d="M291.7,40.2v-19h3.6v19H291.7z M305.1,40.2V29.1c0-1.4-0.4-2.6-1.3-3.6c-0.9-0.9-2.1-1.4-3.5-1.4
		c-1,0-1.8,0.2-2.6,0.6c-0.7,0.4-1.3,1-1.8,1.8c-0.4,0.7-0.6,1.6-0.6,2.6l-1.5-0.8c0-1.4,0.3-2.7,1-3.8c0.6-1.1,1.5-2,2.7-2.7
		c1.1-0.7,2.4-1,3.9-1s2.7,0.4,3.8,1.1c1.1,0.7,2,1.7,2.6,2.8c0.6,1.2,1,2.4,1,3.7v11.8H305.1z"/>
	<path class="st1" d="M321.3,40.5c-1.6,0-3-0.3-4.2-1c-1.2-0.7-2.2-1.6-2.9-2.9c-0.7-1.3-1-2.7-1-4.4v-11h3.6V32
		c0,1,0.2,1.9,0.5,2.7c0.4,0.8,0.9,1.3,1.6,1.7c0.7,0.4,1.5,0.6,2.4,0.6c1.4,0,2.5-0.4,3.3-1.3c0.8-0.9,1.2-2.1,1.2-3.7V21.2h3.6v11
		c0,1.7-0.3,3.1-1,4.4c-0.7,1.3-1.7,2.2-2.9,2.9C324.3,40.1,322.9,40.5,321.3,40.5z"/>
	<path class="st1" d="M334.2,40.2v-19h3.6v19H334.2z M347.1,40.2V28.7c0-1.4-0.4-2.5-1.3-3.3c-0.9-0.8-2-1.2-3.3-1.2
		c-0.9,0-1.7,0.2-2.4,0.6c-0.7,0.4-1.3,0.9-1.7,1.6c-0.4,0.7-0.6,1.5-0.6,2.4l-1.5-0.8c0-1.4,0.3-2.7,0.9-3.8
		c0.6-1.1,1.5-1.9,2.6-2.5s2.3-0.9,3.7-0.9c1.3,0,2.5,0.3,3.6,0.9c1.1,0.6,1.9,1.4,2.6,2.5c0.6,1.1,0.9,2.3,0.9,3.8v12.2H347.1z
		 M359.9,40.2V28.7c0-1.4-0.4-2.5-1.3-3.3s-1.9-1.2-3.2-1.2c-0.9,0-1.7,0.2-2.4,0.6c-0.7,0.4-1.3,0.9-1.7,1.6
		c-0.4,0.7-0.6,1.5-0.6,2.4l-2-0.8c0.1-1.5,0.5-2.7,1.2-3.8c0.7-1.1,1.6-1.9,2.7-2.5s2.3-0.9,3.7-0.9c1.4,0,2.6,0.3,3.7,0.9
		c1.1,0.6,2,1.4,2.6,2.5c0.7,1.1,1,2.3,1,3.8v12.2H359.9z"/>
	<path class="st1" d="M368.4,40.2V11.6h3.6v14.2l-0.7,4.6L372,35v5.1H368.4z M378.4,40.6c-1.4,0-2.7-0.3-3.9-0.9s-2.1-1.4-2.8-2.5
		c-0.7-1.1-1.1-2.3-1.2-3.6v-5.7c0.1-1.4,0.5-2.6,1.2-3.7c0.7-1.1,1.6-1.9,2.8-2.5s2.4-0.9,3.9-0.9c1.7,0,3.3,0.4,4.7,1.3
		c1.4,0.9,2.5,2.1,3.3,3.6c0.8,1.5,1.2,3.2,1.2,5c0,1.9-0.4,3.5-1.2,5c-0.8,1.5-1.9,2.7-3.3,3.5C381.7,40.1,380.2,40.6,378.4,40.6z
		 M377.8,37.2c1.2,0,2.3-0.3,3.2-0.8c0.9-0.6,1.6-1.3,2.1-2.3c0.5-1,0.8-2.1,0.8-3.4c0-1.3-0.3-2.4-0.8-3.3c-0.5-1-1.2-1.7-2.1-2.3
		c-0.9-0.6-2-0.8-3.2-0.8c-1.2,0-2.2,0.3-3.1,0.8s-1.6,1.3-2.1,2.3c-0.5,1-0.8,2.1-0.8,3.4c0,1.3,0.2,2.4,0.7,3.3
		c0.5,1,1.2,1.7,2.1,2.3S376.7,37.2,377.8,37.2z"/>
	<path class="st1" d="M400.5,40.6c-1.9,0-3.6-0.4-5.1-1.3c-1.5-0.9-2.7-2-3.6-3.5c-0.9-1.5-1.3-3.2-1.3-5.1c0-1.9,0.4-3.5,1.3-5
		c0.9-1.5,2-2.7,3.5-3.5c1.5-0.9,3.1-1.3,5-1.3c1.7,0,3.3,0.4,4.6,1.2c1.4,0.8,2.4,1.9,3.2,3.3c0.8,1.4,1.1,3,1.1,4.8
		c0,0.3,0,0.6,0,0.9c0,0.3-0.1,0.6-0.2,1h-16v-3h14.1l-1.3,1.2c0-1.3-0.2-2.4-0.7-3.3c-0.5-0.9-1.1-1.6-1.9-2.1
		c-0.8-0.5-1.8-0.7-3-0.7c-1.2,0-2.3,0.3-3.2,0.8c-0.9,0.5-1.7,1.3-2.2,2.2c-0.5,1-0.8,2.1-0.8,3.4c0,1.3,0.3,2.5,0.8,3.5
		c0.5,1,1.3,1.8,2.3,2.3c1,0.5,2.1,0.8,3.4,0.8c1.1,0,2-0.2,2.9-0.6c0.9-0.4,1.7-0.9,2.3-1.7l2.3,2.4c-0.9,1.1-2.1,1.9-3.4,2.4
		S402,40.6,400.5,40.6z"/>
	<path class="st1" d="M413.2,40.2v-19h3.6v19H413.2z M416.8,29.4l-1.4-0.6c0-2.4,0.6-4.4,1.7-5.8c1.1-1.4,2.7-2.2,4.8-2.2
		c1,0,1.8,0.2,2.6,0.5c0.8,0.3,1.5,0.9,2.2,1.7l-2.4,2.4c-0.4-0.4-0.8-0.7-1.3-0.9c-0.5-0.2-1-0.3-1.7-0.3c-1.3,0-2.4,0.4-3.3,1.3
		C417.2,26.3,416.8,27.6,416.8,29.4z"/>
	<path class="st1" d="M436,31.4l0-7.6l1,0c1,0,1.8-0.2,2.5-0.6c0.7-0.4,1.3-0.9,1.6-1.6c0.4-0.7,0.6-1.5,0.6-2.3
		c0-0.9-0.2-1.7-0.6-2.3c-0.4-0.7-0.9-1.2-1.6-1.6c-0.7-0.4-1.6-0.6-2.5-0.6c-1.3,0-2.3,0.3-3.3,1c-0.9,0.7-1.7,1.6-2.2,2.7
		l-2.6-2.2c0.8-1.6,1.9-2.8,3.3-3.7c1.5-0.9,3.1-1.3,5-1.3c1.6,0,3.1,0.3,4.3,1c1.3,0.7,2.2,1.6,2.9,2.7c0.7,1.2,1,2.5,1,4
		c0,1.4-0.3,2.6-0.9,3.8c-0.6,1.1-1.5,2.1-2.6,2.8c-1.1,0.7-2.5,1.2-4,1.5l1.6-1.6l-0.3,6H436z M437.6,40.6c-0.7,0-1.4-0.3-1.9-0.8
		c-0.5-0.5-0.7-1.1-0.7-1.9c0-0.7,0.2-1.4,0.7-1.9c0.5-0.5,1.1-0.7,1.9-0.7c0.7,0,1.4,0.2,1.9,0.7c0.5,0.5,0.7,1.1,0.7,1.9
		c0,0.7-0.2,1.4-0.7,1.9S438.3,40.6,437.6,40.6z"/>
</g>
</svg>
