<?xml version="1.0" encoding="utf-8"?>
<!-- Generator: Adobe Illustrator 26.4.1, SVG Export Plug-In . SVG Version: 6.00 Build 0)  -->
<svg version="1.1" id="Layer_1" xmlns="http://www.w3.org/2000/svg" xmlns:xlink="http://www.w3.org/1999/xlink" x="0px" y="0px"
	 viewBox="0 0 864 335" style="enable-background:new 0 0 864 335;" xml:space="preserve">
<style type="text/css">
	.st0{fill:none;stroke:#FFFFFF;stroke-width:5;stroke-linecap:square;stroke-miterlimit:10;}
	.st1{fill-rule:evenodd;clip-rule:evenodd;fill:#FFFFFF;}
	.st2{fill:none;stroke:#FFFFFF;stroke-width:5;stroke-linecap:square;stroke-miterlimit:10;stroke-dasharray:10,10;}
	.st3{fill:#FFFFFF;}
</style>
<rect x="284.5" y="134" class="st0" width="198" height="196"/>
<polyline class="st0" points="382.5,82 579.5,82 579.5,278 "/>
<rect x="355.5" y="218" class="st1" width="156" height="76"/>
<line class="st0" x1="484.5" y1="329" x2="578.5" y2="279"/>
<line class="st0" x1="285.5" y1="329" x2="381.5" y2="278"/>
<line class="st0" x1="285.5" y1="133" x2="380.5" y2="83"/>
<line class="st0" x1="481.5" y1="134" x2="578.5" y2="83"/>
<polyline class="st2" points="578.5,278 381.5,278 381.5,82 "/>
<g>
	<path class="st3" d="M95.5,37.2c-2.2,0-4-0.4-5.6-1.2c-1.5-0.8-2.9-2-4.1-3.5l2.6-2.6c0.9,1.2,1.9,2.2,3,2.8
		c1.1,0.6,2.6,0.9,4.2,0.9c1.7,0,3-0.4,4-1.1c1-0.7,1.5-1.7,1.5-3c0-1-0.2-1.9-0.7-2.5c-0.5-0.6-1.1-1.2-1.9-1.6
		c-0.8-0.4-1.7-0.8-2.6-1.1c-1-0.3-1.9-0.7-2.9-1.1c-1-0.4-1.8-0.9-2.7-1.5c-0.8-0.6-1.5-1.3-1.9-2.3s-0.7-2.1-0.7-3.5
		c0-1.6,0.4-2.9,1.1-4c0.8-1.1,1.8-2,3.1-2.6c1.3-0.6,2.8-0.9,4.5-0.9c1.8,0,3.4,0.4,4.9,1.1c1.4,0.7,2.6,1.6,3.5,2.8l-2.6,2.6
		c-0.8-1-1.7-1.7-2.7-2.2c-0.9-0.5-2-0.7-3.3-0.7c-1.5,0-2.7,0.3-3.6,1c-0.9,0.7-1.3,1.6-1.3,2.7c0,0.9,0.2,1.7,0.7,2.3
		c0.5,0.6,1.1,1.1,1.9,1.5c0.8,0.4,1.7,0.8,2.7,1.1c1,0.3,1.9,0.7,2.9,1.1s1.8,0.9,2.6,1.5c0.8,0.6,1.4,1.4,1.9,2.4
		c0.5,1,0.7,2.2,0.7,3.7c0,2.5-0.8,4.4-2.5,5.8C100.7,36.5,98.4,37.2,95.5,37.2z"/>
	<path class="st3" d="M117.9,37.2c-1.9,0-3.6-0.4-5.1-1.3c-1.5-0.9-2.7-2-3.6-3.5c-0.9-1.5-1.3-3.2-1.3-5.1c0-1.9,0.4-3.5,1.3-5
		c0.9-1.5,2-2.7,3.5-3.5c1.5-0.9,3.1-1.3,5-1.3c1.7,0,3.3,0.4,4.6,1.2c1.4,0.8,2.4,1.9,3.2,3.3c0.8,1.4,1.1,3,1.1,4.8
		c0,0.3,0,0.6,0,0.9c0,0.3-0.1,0.6-0.2,1h-16v-3h14.1l-1.3,1.2c0-1.3-0.2-2.4-0.7-3.3c-0.5-0.9-1.1-1.6-1.9-2.1
		c-0.8-0.5-1.8-0.7-3-0.7c-1.2,0-2.3,0.3-3.2,0.8c-0.9,0.5-1.7,1.3-2.2,2.2c-0.5,1-0.8,2.1-0.8,3.4c0,1.3,0.3,2.5,0.8,3.5
		c0.5,1,1.3,1.8,2.3,2.3c1,0.5,2.1,0.8,3.4,0.8c1.1,0,2-0.2,2.9-0.6c0.9-0.4,1.7-0.9,2.3-1.7l2.3,2.4c-0.9,1.1-2.1,1.9-3.4,2.4
		C120.8,36.9,119.4,37.2,117.9,37.2z"/>
	<path class="st3" d="M130.5,36.8V8.2h3.6v28.6H130.5z"/>
	<path class="st3" d="M148.2,37.2c-1.9,0-3.6-0.4-5.1-1.3c-1.5-0.9-2.7-2-3.6-3.5c-0.9-1.5-1.3-3.2-1.3-5.1c0-1.9,0.4-3.5,1.3-5
		c0.9-1.5,2-2.7,3.5-3.5c1.5-0.9,3.1-1.3,5-1.3c1.7,0,3.3,0.4,4.6,1.2c1.4,0.8,2.4,1.9,3.2,3.3c0.8,1.4,1.1,3,1.1,4.8
		c0,0.3,0,0.6,0,0.9c0,0.3-0.1,0.6-0.2,1h-16v-3h14.1l-1.3,1.2c0-1.3-0.2-2.4-0.7-3.3c-0.5-0.9-1.1-1.6-1.9-2.1
		c-0.8-0.5-1.8-0.7-3-0.7c-1.2,0-2.3,0.3-3.2,0.8c-0.9,0.5-1.7,1.3-2.2,2.2c-0.5,1-0.8,2.1-0.8,3.4c0,1.3,0.3,2.5,0.8,3.5
		c0.5,1,1.3,1.8,2.3,2.3c1,0.5,2.1,0.8,3.4,0.8c1.1,0,2-0.2,2.9-0.6c0.9-0.4,1.7-0.9,2.3-1.7l2.3,2.4c-0.9,1.1-2.1,1.9-3.4,2.4
		C151.1,36.9,149.7,37.2,148.2,37.2z"/>
	<path class="st3" d="M169.5,37.2c-1.9,0-3.6-0.4-5.1-1.3c-1.5-0.9-2.7-2.1-3.6-3.6c-0.9-1.5-1.3-3.2-1.3-5c0-1.9,0.4-3.5,1.3-5
		c0.9-1.5,2.1-2.7,3.6-3.5c1.5-0.9,3.2-1.3,5.1-1.3c1.5,0,2.8,0.3,4.1,0.8c1.3,0.5,2.3,1.3,3.2,2.4l-2.4,2.4
		c-0.6-0.7-1.3-1.2-2.2-1.6c-0.9-0.4-1.8-0.5-2.8-0.5c-1.2,0-2.3,0.3-3.2,0.8c-0.9,0.5-1.7,1.3-2.2,2.3c-0.5,1-0.8,2.1-0.8,3.3
		c0,1.3,0.3,2.4,0.8,3.3c0.5,1,1.3,1.7,2.2,2.3c0.9,0.6,2,0.8,3.2,0.8c1,0,1.9-0.2,2.8-0.5c0.8-0.4,1.6-0.9,2.2-1.6l2.4,2.4
		c-0.9,1-2,1.8-3.2,2.4C172.4,36.9,171,37.2,169.5,37.2z"/>
	<path class="st3" d="M178.7,21.1v-3.3h13v3.3H178.7z M183.3,36.8v-27h3.6v27H183.3z"/>
	<path class="st3" d="M201.7,21.1v-3.3h13v3.3H201.7z M206.3,36.8v-27h3.6v27H206.3z"/>
	<path class="st3" d="M218.1,36.8V8.2h3.6v28.6H218.1z M231.5,36.8V25.7c0-1.4-0.4-2.6-1.3-3.6c-0.9-0.9-2.1-1.4-3.5-1.4
		c-1,0-1.8,0.2-2.6,0.6c-0.7,0.4-1.3,1-1.8,1.8c-0.4,0.7-0.6,1.6-0.6,2.6l-1.5-0.8c0-1.4,0.3-2.7,1-3.8c0.6-1.1,1.5-2,2.7-2.7
		c1.1-0.7,2.4-1,3.9-1c1.4,0,2.7,0.3,3.8,1c1.1,0.6,2,1.5,2.6,2.7c0.6,1.1,1,2.5,1,4v11.8H231.5z"/>
	<path class="st3" d="M248.9,37.2c-1.9,0-3.6-0.4-5.1-1.3c-1.5-0.9-2.7-2-3.6-3.5c-0.9-1.5-1.3-3.2-1.3-5.1c0-1.9,0.4-3.5,1.3-5
		c0.9-1.5,2-2.7,3.5-3.5c1.5-0.9,3.1-1.3,5-1.3c1.7,0,3.3,0.4,4.6,1.2c1.4,0.8,2.4,1.9,3.2,3.3c0.8,1.4,1.1,3,1.1,4.8
		c0,0.3,0,0.6,0,0.9c0,0.3-0.1,0.6-0.2,1h-16v-3h14.1l-1.3,1.2c0-1.3-0.2-2.4-0.7-3.3c-0.5-0.9-1.1-1.6-1.9-2.1
		c-0.8-0.5-1.8-0.7-3-0.7c-1.2,0-2.3,0.3-3.2,0.8c-0.9,0.5-1.7,1.3-2.2,2.2c-0.5,1-0.8,2.1-0.8,3.4c0,1.3,0.3,2.5,0.8,3.5
		c0.5,1,1.3,1.8,2.3,2.3c1,0.5,2.1,0.8,3.4,0.8c1.1,0,2-0.2,2.9-0.6c0.9-0.4,1.7-0.9,2.3-1.7l2.3,2.4c-0.9,1.1-2.1,1.9-3.4,2.4
		C251.8,36.9,250.4,37.2,248.9,37.2z"/>
	<path class="st3" d="M269.8,44.7v-27h3.6v5l-0.7,4.6l0.7,4.6v12.7H269.8z M279.8,37.2c-1.4,0-2.7-0.3-3.9-0.9
		c-1.2-0.6-2.1-1.4-2.8-2.5c-0.7-1.1-1.1-2.3-1.2-3.6v-5.7c0.1-1.4,0.5-2.6,1.2-3.7c0.7-1.1,1.6-1.9,2.8-2.5
		c1.2-0.6,2.4-0.9,3.9-0.9c1.7,0,3.3,0.4,4.7,1.3c1.4,0.9,2.5,2.1,3.3,3.6c0.8,1.5,1.2,3.2,1.2,5c0,1.9-0.4,3.5-1.2,5
		c-0.8,1.5-1.9,2.7-3.3,3.5C283.1,36.7,281.5,37.2,279.8,37.2z M279.2,33.8c1.2,0,2.3-0.3,3.2-0.8c0.9-0.6,1.6-1.3,2.1-2.3
		c0.5-1,0.8-2.1,0.8-3.4c0-1.3-0.3-2.4-0.8-3.3c-0.5-1-1.2-1.7-2.1-2.3c-0.9-0.6-2-0.8-3.2-0.8c-1.2,0-2.2,0.3-3.1,0.8
		c-0.9,0.6-1.6,1.3-2.1,2.3c-0.5,1-0.8,2.1-0.8,3.4c0,1.3,0.2,2.4,0.7,3.3c0.5,1,1.2,1.7,2.1,2.3S278,33.8,279.2,33.8z"/>
	<path class="st3" d="M294.9,14c-0.7,0-1.2-0.2-1.6-0.7c-0.4-0.4-0.6-1-0.6-1.7c0-0.6,0.2-1.2,0.6-1.6c0.4-0.4,1-0.7,1.6-0.7
		c0.7,0,1.2,0.2,1.6,0.7c0.4,0.4,0.6,1,0.6,1.6c0,0.7-0.2,1.2-0.6,1.7C296.1,13.8,295.6,14,294.9,14z M293.1,36.8v-19h3.6v19H293.1z
		"/>
	<path class="st3" d="M310.7,37.2c-1.9,0-3.6-0.4-5.1-1.3c-1.5-0.9-2.7-2.1-3.6-3.6c-0.9-1.5-1.3-3.2-1.3-5c0-1.9,0.4-3.5,1.3-5
		c0.9-1.5,2.1-2.7,3.6-3.5c1.5-0.9,3.2-1.3,5.1-1.3c1.5,0,2.8,0.3,4.1,0.8c1.3,0.5,2.3,1.3,3.2,2.4l-2.4,2.4
		c-0.6-0.7-1.3-1.2-2.2-1.6c-0.9-0.4-1.8-0.5-2.8-0.5c-1.2,0-2.3,0.3-3.2,0.8c-0.9,0.5-1.7,1.3-2.2,2.3c-0.5,1-0.8,2.1-0.8,3.3
		c0,1.3,0.3,2.4,0.8,3.3c0.5,1,1.3,1.7,2.2,2.3c0.9,0.6,2,0.8,3.2,0.8c1,0,1.9-0.2,2.8-0.5c0.8-0.4,1.6-0.9,2.2-1.6L318,34
		c-0.9,1-2,1.8-3.2,2.4C313.5,36.9,312.2,37.2,310.7,37.2z"/>
	<path class="st3" d="M319.8,21.1v-3.3h13v3.3H319.8z M324.5,36.8v-27h3.6v27H324.5z"/>
	<path class="st3" d="M344,37.1c-1.6,0-3-0.3-4.2-1c-1.2-0.7-2.2-1.6-2.9-2.9c-0.7-1.3-1-2.7-1-4.4v-11h3.6v10.9
		c0,1,0.2,1.9,0.5,2.7c0.4,0.8,0.9,1.3,1.6,1.7c0.7,0.4,1.5,0.6,2.4,0.6c1.4,0,2.5-0.4,3.3-1.3c0.8-0.9,1.2-2.1,1.2-3.7V17.8h3.6v11
		c0,1.7-0.3,3.1-1,4.4c-0.7,1.3-1.7,2.2-2.9,2.9C347,36.8,345.6,37.1,344,37.1z"/>
	<path class="st3" d="M356.9,36.8v-19h3.6v19H356.9z M360.5,26l-1.4-0.6c0-2.4,0.6-4.4,1.7-5.8c1.1-1.4,2.7-2.2,4.8-2.2
		c1,0,1.8,0.2,2.6,0.5c0.8,0.3,1.5,0.9,2.2,1.7l-2.4,2.4c-0.4-0.4-0.8-0.7-1.3-0.9c-0.5-0.2-1-0.3-1.7-0.3c-1.3,0-2.4,0.4-3.3,1.3
		C361,22.9,360.5,24.2,360.5,26z"/>
	<path class="st3" d="M381.2,37.2c-1.9,0-3.6-0.4-5.1-1.3c-1.5-0.9-2.7-2-3.6-3.5c-0.9-1.5-1.3-3.2-1.3-5.1c0-1.9,0.4-3.5,1.3-5
		c0.9-1.5,2-2.7,3.5-3.5c1.5-0.9,3.1-1.3,5-1.3c1.7,0,3.3,0.4,4.6,1.2c1.4,0.8,2.4,1.9,3.2,3.3c0.8,1.4,1.1,3,1.1,4.8
		c0,0.3,0,0.6,0,0.9c0,0.3-0.1,0.6-0.2,1h-16v-3h14.1l-1.3,1.2c0-1.3-0.2-2.4-0.7-3.3c-0.5-0.9-1.1-1.6-1.9-2.1
		c-0.8-0.5-1.8-0.7-3-0.7c-1.2,0-2.3,0.3-3.2,0.8c-0.9,0.5-1.7,1.3-2.2,2.2c-0.5,1-0.8,2.1-0.8,3.4c0,1.3,0.3,2.5,0.8,3.5
		c0.5,1,1.3,1.8,2.3,2.3c1,0.5,2.1,0.8,3.4,0.8c1.1,0,2-0.2,2.9-0.6c0.9-0.4,1.7-0.9,2.3-1.7l2.3,2.4c-0.9,1.1-2.1,1.9-3.4,2.4
		C384.1,36.9,382.7,37.2,381.2,37.2z"/>
	<path class="st3" d="M400.3,21.1v-3.3h13v3.3H400.3z M405,36.8v-27h3.6v27H405z"/>
	<path class="st3" d="M416.8,36.8V8.2h3.6v28.6H416.8z M430.2,36.8V25.7c0-1.4-0.4-2.6-1.3-3.6c-0.9-0.9-2.1-1.4-3.5-1.4
		c-1,0-1.8,0.2-2.6,0.6c-0.7,0.4-1.3,1-1.8,1.8c-0.4,0.7-0.6,1.6-0.6,2.6l-1.5-0.8c0-1.4,0.3-2.7,1-3.8c0.6-1.1,1.5-2,2.7-2.7
		c1.1-0.7,2.4-1,3.9-1c1.4,0,2.7,0.3,3.8,1c1.1,0.6,2,1.5,2.6,2.7c0.6,1.1,1,2.5,1,4v11.8H430.2z"/>
	<path class="st3" d="M446.8,37.2c-1.8,0-3.3-0.4-4.7-1.3c-1.4-0.9-2.5-2-3.3-3.5c-0.8-1.5-1.2-3.2-1.2-5c0-1.9,0.4-3.5,1.2-5
		c0.8-1.5,1.9-2.7,3.3-3.6s3-1.3,4.7-1.3c1.4,0,2.7,0.3,3.9,0.9s2,1.4,2.7,2.5c0.7,1.1,1.1,2.3,1.2,3.7v5.7
		c-0.1,1.4-0.5,2.6-1.1,3.6c-0.7,1.1-1.6,1.9-2.7,2.5C449.6,36.9,448.3,37.2,446.8,37.2z M447.4,33.8c1.8,0,3.2-0.6,4.3-1.8
		c1.1-1.2,1.6-2.8,1.6-4.7c0-1.3-0.3-2.4-0.8-3.4c-0.5-1-1.2-1.8-2.1-2.3c-0.9-0.5-1.9-0.8-3.1-0.8s-2.3,0.3-3.2,0.8
		s-1.6,1.3-2.2,2.3c-0.5,1-0.8,2.1-0.8,3.3c0,1.3,0.3,2.4,0.8,3.4c0.5,1,1.2,1.7,2.2,2.3C445.2,33.5,446.2,33.8,447.4,33.8z
		 M453.1,36.8v-5.1l0.7-4.6l-0.7-4.6v-4.6h3.6v19H453.1z"/>
	<path class="st3" d="M460.2,21.1v-3.3h13v3.3H460.2z M464.9,36.8v-27h3.6v27H464.9z"/>
	<path class="st3" d="M484.9,36.8V8.2h3.6v14.2l-0.7,4.6l0.7,4.6v5.1H484.9z M494.9,37.2c-1.4,0-2.7-0.3-3.9-0.9s-2.1-1.4-2.8-2.5
		c-0.7-1.1-1.1-2.3-1.2-3.6v-5.7c0.1-1.4,0.5-2.6,1.2-3.7c0.7-1.1,1.6-1.9,2.8-2.5c1.2-0.6,2.4-0.9,3.9-0.9c1.7,0,3.3,0.4,4.7,1.3
		s2.5,2.1,3.3,3.6c0.8,1.5,1.2,3.2,1.2,5c0,1.9-0.4,3.5-1.2,5c-0.8,1.5-1.9,2.7-3.3,3.5C498.2,36.7,496.7,37.2,494.9,37.2z
		 M494.3,33.8c1.2,0,2.3-0.3,3.2-0.8c0.9-0.6,1.6-1.3,2.1-2.3c0.5-1,0.8-2.1,0.8-3.4c0-1.3-0.3-2.4-0.8-3.3c-0.5-1-1.2-1.7-2.1-2.3
		c-0.9-0.6-2-0.8-3.2-0.8c-1.2,0-2.2,0.3-3.1,0.8s-1.6,1.3-2.1,2.3c-0.5,1-0.8,2.1-0.8,3.4c0,1.3,0.2,2.4,0.7,3.3
		c0.5,1,1.2,1.7,2.1,2.3S493.2,33.8,494.3,33.8z"/>
	<path class="st3" d="M517,37.2c-1.9,0-3.6-0.4-5.1-1.3c-1.5-0.9-2.7-2-3.6-3.5c-0.9-1.5-1.3-3.2-1.3-5.1c0-1.9,0.4-3.5,1.3-5
		c0.9-1.5,2-2.7,3.5-3.5c1.5-0.9,3.1-1.3,5-1.3c1.7,0,3.3,0.4,4.6,1.2c1.4,0.8,2.4,1.9,3.2,3.3c0.8,1.4,1.1,3,1.1,4.8
		c0,0.3,0,0.6,0,0.9c0,0.3-0.1,0.6-0.2,1h-16v-3h14.1l-1.3,1.2c0-1.3-0.2-2.4-0.7-3.3c-0.5-0.9-1.1-1.6-1.9-2.1
		c-0.8-0.5-1.8-0.7-3-0.7c-1.2,0-2.3,0.3-3.2,0.8c-0.9,0.5-1.7,1.3-2.2,2.2c-0.5,1-0.8,2.1-0.8,3.4c0,1.3,0.3,2.5,0.8,3.5
		s1.3,1.8,2.3,2.3c1,0.5,2.1,0.8,3.4,0.8c1.1,0,2-0.2,2.9-0.6c0.9-0.4,1.7-0.9,2.3-1.7l2.3,2.4c-0.9,1.1-2.1,1.9-3.4,2.4
		C519.9,36.9,518.5,37.2,517,37.2z"/>
	<path class="st3" d="M535.7,37.2c-1.1,0-2.1-0.1-3-0.4s-1.8-0.7-2.6-1.2c-0.8-0.5-1.5-1.1-2.1-1.9l2.3-2.3c0.7,0.9,1.5,1.5,2.4,1.9
		c0.9,0.4,1.9,0.6,3,0.6c1.1,0,2-0.2,2.6-0.6c0.6-0.4,0.9-0.9,0.9-1.6c0-0.7-0.2-1.2-0.7-1.6c-0.5-0.4-1.1-0.7-1.9-1
		c-0.8-0.3-1.6-0.5-2.5-0.7c-0.9-0.2-1.7-0.6-2.5-1c-0.8-0.4-1.4-1-1.9-1.7c-0.5-0.7-0.7-1.6-0.7-2.8s0.3-2.1,0.8-3
		c0.5-0.8,1.3-1.5,2.3-1.9c1-0.5,2.2-0.7,3.6-0.7c1.5,0,2.8,0.3,4,0.8s2.1,1.3,2.9,2.3l-2.3,2.3c-0.6-0.7-1.2-1.2-2-1.6
		c-0.8-0.4-1.7-0.6-2.6-0.6c-1,0-1.8,0.2-2.4,0.6c-0.5,0.4-0.8,0.9-0.8,1.5c0,0.6,0.2,1.1,0.7,1.5c0.5,0.3,1.1,0.6,1.9,0.9
		c0.8,0.2,1.6,0.5,2.5,0.7c0.9,0.3,1.7,0.6,2.4,1c0.8,0.4,1.4,1,1.9,1.7c0.5,0.7,0.7,1.7,0.7,2.8c0,1.8-0.6,3.2-1.9,4.2
		S537.8,37.2,535.7,37.2z"/>
	<path class="st3" d="M545,21.1v-3.3h13v3.3H545z M549.7,36.8v-27h3.6v27H549.7z"/>
	<path class="st3" d="M567.8,21.1v-3.3h14.3v3.3H567.8z M572.4,36.8V14.9c0-1.4,0.3-2.6,0.9-3.7c0.6-1.1,1.5-1.9,2.6-2.5
		c1.1-0.6,2.4-0.9,3.8-0.9c1.1,0,2,0.2,2.8,0.6c0.8,0.4,1.5,0.9,2.2,1.6l-2.4,2.3c-0.3-0.4-0.7-0.7-1.2-0.8
		c-0.4-0.2-0.9-0.3-1.6-0.3c-1.1,0-2,0.3-2.7,1c-0.6,0.7-0.9,1.6-0.9,2.7v21.8H572.4z"/>
	<path class="st3" d="M587.5,14c-0.7,0-1.2-0.2-1.6-0.7c-0.4-0.4-0.6-1-0.6-1.7c0-0.6,0.2-1.2,0.6-1.6c0.4-0.4,1-0.7,1.6-0.7
		s1.2,0.2,1.6,0.7c0.4,0.4,0.6,1,0.6,1.6c0,0.7-0.2,1.2-0.6,1.7S588.2,14,587.5,14z M585.7,36.8v-19h3.6v19H585.7z"/>
	<path class="st3" d="M592.9,21.1v-3.3h13v3.3H592.9z M597.6,36.8v-27h3.6v27H597.6z"/>
	<path class="st3" d="M615.9,21.1v-3.3h13v3.3H615.9z M620.6,36.8v-27h3.6v27H620.6z"/>
	<path class="st3" d="M632.4,36.8V8.2h3.6v28.6H632.4z M645.8,36.8V25.7c0-1.4-0.4-2.6-1.3-3.6c-0.9-0.9-2.1-1.4-3.5-1.4
		c-1,0-1.8,0.2-2.6,0.6c-0.7,0.4-1.3,1-1.8,1.8c-0.4,0.7-0.6,1.6-0.6,2.6l-1.5-0.8c0-1.4,0.3-2.7,1-3.8c0.6-1.1,1.5-2,2.7-2.7
		c1.1-0.7,2.4-1,3.9-1c1.4,0,2.7,0.3,3.8,1s2,1.5,2.6,2.7c0.6,1.1,1,2.5,1,4v11.8H645.8z"/>
	<path class="st3" d="M663.1,37.2c-1.9,0-3.6-0.4-5.1-1.3c-1.5-0.9-2.7-2-3.6-3.5c-0.9-1.5-1.3-3.2-1.3-5.1c0-1.9,0.4-3.5,1.3-5
		c0.9-1.5,2-2.7,3.5-3.5c1.5-0.9,3.1-1.3,5-1.3c1.7,0,3.3,0.4,4.6,1.2c1.4,0.8,2.4,1.9,3.2,3.3c0.8,1.4,1.1,3,1.1,4.8
		c0,0.3,0,0.6,0,0.9c0,0.3-0.1,0.6-0.2,1h-16v-3h14.1l-1.3,1.2c0-1.3-0.2-2.4-0.7-3.3c-0.5-0.9-1.1-1.6-1.9-2.1
		c-0.8-0.5-1.8-0.7-3-0.7c-1.2,0-2.3,0.3-3.2,0.8c-0.9,0.5-1.7,1.3-2.2,2.2s-0.8,2.1-0.8,3.4c0,1.3,0.3,2.5,0.8,3.5s1.3,1.8,2.3,2.3
		c1,0.5,2.1,0.8,3.4,0.8c1.1,0,2-0.2,2.9-0.6c0.9-0.4,1.7-0.9,2.3-1.7l2.3,2.4c-0.9,1.1-2.1,1.9-3.4,2.4S664.6,37.2,663.1,37.2z"/>
	<path class="st3" d="M684,36.8V8.2h3.6v14.2l-0.7,4.6l0.7,4.6v5.1H684z M694,37.2c-1.4,0-2.7-0.3-3.9-0.9s-2.1-1.4-2.8-2.5
		c-0.7-1.1-1.1-2.3-1.2-3.6v-5.7c0.1-1.4,0.5-2.6,1.2-3.7c0.7-1.1,1.6-1.9,2.8-2.5s2.4-0.9,3.9-0.9c1.7,0,3.3,0.4,4.7,1.3
		c1.4,0.9,2.5,2.1,3.3,3.6c0.8,1.5,1.2,3.2,1.2,5c0,1.9-0.4,3.5-1.2,5c-0.8,1.5-1.9,2.7-3.3,3.5C697.3,36.7,695.7,37.2,694,37.2z
		 M693.4,33.8c1.2,0,2.3-0.3,3.2-0.8c0.9-0.6,1.6-1.3,2.1-2.3c0.5-1,0.8-2.1,0.8-3.4c0-1.3-0.3-2.4-0.8-3.3c-0.5-1-1.2-1.7-2.1-2.3
		c-0.9-0.6-2-0.8-3.2-0.8c-1.2,0-2.2,0.3-3.1,0.8c-0.9,0.6-1.6,1.3-2.1,2.3c-0.5,1-0.8,2.1-0.8,3.4c0,1.3,0.2,2.4,0.7,3.3
		c0.5,1,1.2,1.7,2.1,2.3S692.2,33.8,693.4,33.8z"/>
	<path class="st3" d="M707.3,36.8V8.2h3.6v28.6H707.3z"/>
	<path class="st3" d="M724.3,37.2c-1.8,0-3.3-0.4-4.7-1.3c-1.4-0.9-2.5-2-3.3-3.5c-0.8-1.5-1.2-3.2-1.2-5c0-1.9,0.4-3.5,1.2-5
		c0.8-1.5,1.9-2.7,3.3-3.6c1.4-0.9,3-1.3,4.7-1.3c1.4,0,2.7,0.3,3.9,0.9c1.1,0.6,2,1.4,2.7,2.5c0.7,1.1,1.1,2.3,1.2,3.7v5.7
		c-0.1,1.4-0.5,2.6-1.1,3.6c-0.7,1.1-1.6,1.9-2.7,2.5S725.7,37.2,724.3,37.2z M724.9,33.8c1.8,0,3.2-0.6,4.3-1.8s1.6-2.8,1.6-4.7
		c0-1.3-0.3-2.4-0.8-3.4c-0.5-1-1.2-1.8-2.1-2.3c-0.9-0.5-1.9-0.8-3.1-0.8s-2.3,0.3-3.2,0.8s-1.6,1.3-2.2,2.3
		c-0.5,1-0.8,2.1-0.8,3.3c0,1.3,0.3,2.4,0.8,3.4c0.5,1,1.2,1.7,2.2,2.3C722.6,33.5,723.7,33.8,724.9,33.8z M730.6,36.8v-5.1l0.7-4.6
		l-0.7-4.6v-4.6h3.6v19H730.6z"/>
	<path class="st3" d="M739.5,36.8v-19h3.6v19H739.5z M752.9,36.8V25.7c0-1.4-0.4-2.6-1.3-3.6c-0.9-0.9-2.1-1.4-3.5-1.4
		c-1,0-1.8,0.2-2.6,0.6c-0.7,0.4-1.3,1-1.8,1.8c-0.4,0.7-0.6,1.6-0.6,2.6l-1.5-0.8c0-1.4,0.3-2.7,1-3.8c0.6-1.1,1.5-2,2.7-2.7
		c1.1-0.7,2.4-1,3.9-1c1.4,0,2.7,0.4,3.8,1.1c1.1,0.7,2,1.7,2.6,2.8c0.6,1.2,1,2.4,1,3.7v11.8H752.9z"/>
	<path class="st3" d="M761.4,36.8V8.2h3.6v28.6H761.4z M773.5,36.8l-8.9-9.7l8.8-9.3h4.4L768,28l0.2-2.1l10,10.8H773.5z"/>
</g>
</svg>
